<?xml version="1.0" encoding="UTF-8" standalone="no"?>
<!-- Created with Inkscape (http://www.inkscape.org/) -->

<svg
   xmlns:osb="http://www.openswatchbook.org/uri/2009/osb"
   xmlns:dc="http://purl.org/dc/elements/1.1/"
   xmlns:cc="http://creativecommons.org/ns#"
   xmlns:rdf="http://www.w3.org/1999/02/22-rdf-syntax-ns#"
   xmlns:svg="http://www.w3.org/2000/svg"
   xmlns="http://www.w3.org/2000/svg"
   xmlns:xlink="http://www.w3.org/1999/xlink"
   xmlns:sodipodi="http://sodipodi.sourceforge.net/DTD/sodipodi-0.dtd"
   xmlns:inkscape="http://www.inkscape.org/namespaces/inkscape"
   sodipodi:docname="PAP_basic_1.svg"
   inkscape:version="0.48.4 r9939"
   version="1.1"
   id="svg2"
   height="1187.7268"
   width="1263.8582"
   inkscape:export-filename="/home/carli/Dokumente/TUD/CUDA/projekt/git/octrace/paper/graphics/kernel_detail3.png"
   inkscape:export-xdpi="90"
   inkscape:export-ydpi="90">
  <sodipodi:namedview
     id="base"
     pagecolor="#ffffff"
     bordercolor="#666666"
     borderopacity="1.0"
     inkscape:pageopacity="0.0"
     inkscape:pageshadow="2"
     inkscape:zoom="0.7331474"
     inkscape:cx="211.57937"
     inkscape:cy="713.25546"
     inkscape:document-units="px"
     inkscape:current-layer="layer6"
     showgrid="false"
     inkscape:object-paths="true"
     inkscape:object-nodes="true"
     inkscape:snap-smooth-nodes="true"
     inkscape:snap-midpoints="true"
     inkscape:window-width="1598"
     inkscape:window-height="879"
     inkscape:window-x="0"
     inkscape:window-y="19"
     inkscape:window-maximized="0"
     showguides="true"
     inkscape:guide-bbox="true"
     fit-margin-left="100"
     fit-margin-right="100"
     fit-margin-bottom="100"
     fit-margin-top="100"
     inkscape:snap-nodes="true"
     inkscape:snap-intersection-paths="true">
    <sodipodi:guide
       orientation="1,0"
       position="613.70295,1245.0166"
       id="guide18565" />
    <sodipodi:guide
       orientation="1,0"
       position="1145.8397,1263.4392"
       id="guide19566" />
    <sodipodi:guide
       orientation="1,0"
       position="196.60086,923.39586"
       id="guide19574" />
    <sodipodi:guide
       orientation="1,0"
       position="263.76949,576.79566"
       id="guide19578" />
    <sodipodi:guide
       orientation="1,0"
       position="663.85597,1240.4353"
       id="guide19580" />
    <sodipodi:guide
       orientation="1,0"
       position="382.69168,742.79571"
       id="guide20384" />
    <sodipodi:guide
       orientation="1,0"
       position="813.83277,1146.8806"
       id="guide20434" />
  </sodipodi:namedview>
  <defs
     id="defs4">
    <linearGradient
       inkscape:collect="always"
       id="linearGradient20652">
      <stop
         style="stop-color:#d6e5ff;stop-opacity:1;"
         offset="0"
         id="stop20654" />
      <stop
         style="stop-color:#d6e5ff;stop-opacity:0;"
         offset="1"
         id="stop20656" />
    </linearGradient>
    <linearGradient
       inkscape:collect="always"
       id="linearGradient20644">
      <stop
         style="stop-color:#000000;stop-opacity:1;"
         offset="0"
         id="stop20646" />
      <stop
         style="stop-color:#000000;stop-opacity:0;"
         offset="1"
         id="stop20648" />
    </linearGradient>
    <linearGradient
       inkscape:collect="always"
       id="linearGradient20610">
      <stop
         style="stop-color:#fffcac;stop-opacity:1;"
         offset="0"
         id="stop20612" />
      <stop
         style="stop-color:#fffcac;stop-opacity:0;"
         offset="1"
         id="stop20614" />
    </linearGradient>
    <linearGradient
       inkscape:collect="always"
       id="linearGradient20506">
      <stop
         style="stop-color:#000000;stop-opacity:1;"
         offset="0"
         id="stop20508" />
      <stop
         style="stop-color:#000000;stop-opacity:0;"
         offset="1"
         id="stop20510" />
    </linearGradient>
    <linearGradient
       inkscape:collect="always"
       id="linearGradient20486">
      <stop
         style="stop-color:#f1d5d6;stop-opacity:1;"
         offset="0"
         id="stop20488" />
      <stop
         style="stop-color:#f1d5d6;stop-opacity:0;"
         offset="1"
         id="stop20490" />
    </linearGradient>
    <linearGradient
       inkscape:collect="always"
       id="linearGradient20478">
      <stop
         style="stop-color:#000000;stop-opacity:1;"
         offset="0"
         id="stop20480" />
      <stop
         style="stop-color:#000000;stop-opacity:0;"
         offset="1"
         id="stop20482" />
    </linearGradient>
    <linearGradient
       inkscape:collect="always"
       id="linearGradient20436">
      <stop
         style="stop-color:#b3ffac;stop-opacity:1;"
         offset="0"
         id="stop20438" />
      <stop
         style="stop-color:#b3ffac;stop-opacity:0;"
         offset="1"
         id="stop20440" />
    </linearGradient>
    <linearGradient
       inkscape:collect="always"
       id="linearGradient20426">
      <stop
         style="stop-color:#000000;stop-opacity:1;"
         offset="0"
         id="stop20428" />
      <stop
         style="stop-color:#000000;stop-opacity:0;"
         offset="1"
         id="stop20430" />
    </linearGradient>
    <marker
       inkscape:stockid="TriangleOutM"
       orient="auto"
       refY="0"
       refX="0"
       id="TriangleOutM"
       style="overflow:visible">
      <path
         id="path4507"
         d="m 5.77,0 -8.65,5 0,-10 8.65,5 z"
         style="fill-rule:evenodd;stroke:#000000;stroke-width:1pt"
         transform="scale(0.4,0.4)"
         inkscape:connector-curvature="0" />
    </marker>
    <linearGradient
       id="linearGradient11392">
      <stop
         id="stop11394"
         offset="0"
         style="stop-color:#000000;stop-opacity:1;" />
      <stop
         id="stop11396"
         offset="1"
         style="stop-color:#000000;stop-opacity:0.14655173;" />
    </linearGradient>
    <marker
       style="overflow:visible"
       id="TriangleOutS"
       refX="0"
       refY="0"
       orient="auto"
       inkscape:stockid="TriangleOutS">
      <path
         transform="scale(0.2,0.2)"
         style="fill-rule:evenodd;stroke:#000000;stroke-width:1pt"
         d="m 5.77,0 -8.65,5 0,-10 8.65,5 z"
         id="path4510"
         inkscape:connector-curvature="0" />
    </marker>
    <marker
       style="overflow:visible"
       id="Arrow1Send"
       refX="0"
       refY="0"
       orient="auto"
       inkscape:stockid="Arrow1Send">
      <path
         transform="matrix(-0.2,0,0,-0.2,-1.2,0)"
         style="fill-rule:evenodd;stroke:#000000;stroke-width:1pt"
         d="M 0,0 5,-5 -12.5,0 5,5 0,0 z"
         id="path4377"
         inkscape:connector-curvature="0" />
    </marker>
    <marker
       style="overflow:visible"
       id="Arrow1Mend"
       refX="0"
       refY="0"
       orient="auto"
       inkscape:stockid="Arrow1Mend">
      <path
         inkscape:connector-curvature="0"
         transform="matrix(-0.4,0,0,-0.4,-4,0)"
         style="fill-rule:evenodd;stroke:#000000;stroke-width:1pt"
         d="M 0,0 5,-5 -12.5,0 5,5 0,0 z"
         id="path4371" />
    </marker>
    <marker
       style="overflow:visible"
       id="Arrow2Mend"
       refX="0"
       refY="0"
       orient="auto"
       inkscape:stockid="Arrow2Mend">
      <path
         inkscape:connector-curvature="0"
         transform="scale(-0.6,-0.6)"
         d="M 8.7185878,4.0337352 -2.2072895,0.01601326 8.7185884,-4.0017078 c -1.7454984,2.3720609 -1.7354408,5.6174519 -6e-7,8.035443 z"
         style="fill-rule:evenodd;stroke-width:0.625;stroke-linejoin:round"
         id="path4389" />
    </marker>
    <marker
       style="overflow:visible"
       id="EmptyTriangleInL"
       refX="0"
       refY="0"
       orient="auto"
       inkscape:stockid="EmptyTriangleInL">
      <path
         inkscape:connector-curvature="0"
         transform="matrix(-0.8,0,0,-0.8,4.8,0)"
         style="fill:#ffffff;fill-rule:evenodd;stroke:#000000;stroke-width:1pt"
         d="m 5.77,0 -8.65,5 0,-10 8.65,5 z"
         id="path4513" />
    </marker>
    <marker
       style="overflow:visible"
       id="Arrow2Lend"
       refX="0"
       refY="0"
       orient="auto"
       inkscape:stockid="Arrow2Lend">
      <path
         inkscape:connector-curvature="0"
         transform="matrix(-1.1,0,0,-1.1,-1.1,0)"
         d="M 8.7185878,4.0337352 -2.2072895,0.01601326 8.7185884,-4.0017078 c -1.7454984,2.3720609 -1.7354408,5.6174519 -6e-7,8.035443 z"
         style="fill-rule:evenodd;stroke-width:0.625;stroke-linejoin:round"
         id="path4383" />
    </marker>
    <linearGradient
       osb:paint="solid"
       id="linearGradient4283">
      <stop
         id="stop4285"
         offset="0"
         style="stop-color:#000000;stop-opacity:1;" />
    </linearGradient>
    <marker
       style="overflow:visible"
       id="Arrow1Lend"
       refX="0"
       refY="0"
       orient="auto"
       inkscape:stockid="Arrow1Lend">
      <path
         inkscape:connector-curvature="0"
         transform="matrix(-0.8,0,0,-0.8,-10,0)"
         style="fill-rule:evenodd;stroke:#000000;stroke-width:1pt"
         d="M 0,0 5,-5 -12.5,0 5,5 0,0 z"
         id="path3820" />
    </marker>
    <linearGradient
       inkscape:collect="always"
       xlink:href="#linearGradient20426"
       id="linearGradient20432"
       x1="449.93042"
       y1="529.8175"
       x2="650.06024"
       y2="528.45349"
       gradientUnits="userSpaceOnUse"
       gradientTransform="matrix(1.0628375,0,0,0.98244081,-61.71066,-38.860296)" />
    <linearGradient
       inkscape:collect="always"
       xlink:href="#linearGradient20436"
       id="linearGradient20442"
       x1="449.93042"
       y1="529.8175"
       x2="650.06024"
       y2="528.45349"
       gradientUnits="userSpaceOnUse"
       gradientTransform="matrix(1.0628375,0,0,0.98244081,-61.71066,-38.860296)" />
    <linearGradient
       inkscape:collect="always"
       xlink:href="#linearGradient20478"
       id="linearGradient20484"
       x1="449.93042"
       y1="562.05096"
       x2="650.06024"
       y2="563.41492"
       gradientUnits="userSpaceOnUse" />
    <linearGradient
       inkscape:collect="always"
       xlink:href="#linearGradient20486"
       id="linearGradient20492"
       x1="449.93042"
       y1="562.05096"
       x2="650.06024"
       y2="563.41492"
       gradientUnits="userSpaceOnUse" />
    <linearGradient
       inkscape:collect="always"
       xlink:href="#linearGradient20506"
       id="linearGradient20512"
       x1="449.93042"
       y1="673.12891"
       x2="650.06024"
       y2="673.12891"
       gradientUnits="userSpaceOnUse" />
    <linearGradient
       inkscape:collect="always"
       xlink:href="#linearGradient20506"
       id="linearGradient20552"
       gradientUnits="userSpaceOnUse"
       x1="449.93042"
       y1="673.12891"
       x2="650.06024"
       y2="673.12891" />
    <linearGradient
       inkscape:collect="always"
       xlink:href="#linearGradient20506"
       id="linearGradient20554"
       gradientUnits="userSpaceOnUse"
       x1="449.93042"
       y1="673.12891"
       x2="650.06024"
       y2="673.12891" />
    <linearGradient
       inkscape:collect="always"
       xlink:href="#linearGradient20506"
       id="linearGradient20556"
       gradientUnits="userSpaceOnUse"
       x1="449.93042"
       y1="673.12891"
       x2="650.06024"
       y2="673.12891" />
    <linearGradient
       inkscape:collect="always"
       xlink:href="#linearGradient20506"
       id="linearGradient20564"
       gradientUnits="userSpaceOnUse"
       x1="449.93042"
       y1="673.12891"
       x2="650.06024"
       y2="673.12891" />
    <linearGradient
       inkscape:collect="always"
       xlink:href="#linearGradient20506"
       id="linearGradient20566"
       gradientUnits="userSpaceOnUse"
       x1="449.93042"
       y1="673.12891"
       x2="650.06024"
       y2="673.12891" />
    <linearGradient
       inkscape:collect="always"
       xlink:href="#linearGradient20506"
       id="linearGradient20568"
       gradientUnits="userSpaceOnUse"
       x1="449.93042"
       y1="673.12891"
       x2="650.06024"
       y2="673.12891" />
    <linearGradient
       inkscape:collect="always"
       xlink:href="#linearGradient20506"
       id="linearGradient20578"
       gradientUnits="userSpaceOnUse"
       x1="449.93042"
       y1="673.12891"
       x2="650.06024"
       y2="673.12891" />
    <linearGradient
       inkscape:collect="always"
       xlink:href="#linearGradient20506"
       id="linearGradient20580"
       gradientUnits="userSpaceOnUse"
       x1="449.93042"
       y1="673.12891"
       x2="650.06024"
       y2="673.12891" />
    <linearGradient
       inkscape:collect="always"
       xlink:href="#linearGradient20506"
       id="linearGradient20583"
       gradientUnits="userSpaceOnUse"
       x1="449.93042"
       y1="673.12891"
       x2="650.06024"
       y2="673.12891" />
    <linearGradient
       inkscape:collect="always"
       xlink:href="#linearGradient20506"
       id="linearGradient20586"
       gradientUnits="userSpaceOnUse"
       x1="449.93042"
       y1="673.12891"
       x2="650.06024"
       y2="673.12891" />
    <linearGradient
       inkscape:collect="always"
       xlink:href="#linearGradient20644"
       id="linearGradient20650"
       x1="449.93042"
       y1="667.9671"
       x2="650.06024"
       y2="669.33105"
       gradientUnits="userSpaceOnUse"
       gradientTransform="translate(0,-68)" />
    <linearGradient
       inkscape:collect="always"
       xlink:href="#linearGradient20652"
       id="linearGradient20658"
       x1="449.93042"
       y1="667.9671"
       x2="650.06024"
       y2="669.33105"
       gradientUnits="userSpaceOnUse"
       gradientTransform="translate(0,-68)" />
    <linearGradient
       inkscape:collect="always"
       xlink:href="#linearGradient20486"
       id="linearGradient20730"
       gradientUnits="userSpaceOnUse"
       x1="449.93042"
       y1="562.05096"
       x2="650.06024"
       y2="563.41492" />
    <linearGradient
       inkscape:collect="always"
       xlink:href="#linearGradient20478"
       id="linearGradient20732"
       gradientUnits="userSpaceOnUse"
       x1="449.93042"
       y1="562.05096"
       x2="650.06024"
       y2="563.41492" />
    <linearGradient
       inkscape:collect="always"
       xlink:href="#linearGradient20486"
       id="linearGradient20735"
       gradientUnits="userSpaceOnUse"
       x1="449.93042"
       y1="562.05096"
       x2="650.06024"
       y2="563.41492"
       gradientTransform="matrix(1.0184681,0,0,1,-2.136938,-68)" />
    <linearGradient
       inkscape:collect="always"
       xlink:href="#linearGradient20478"
       id="linearGradient20737"
       gradientUnits="userSpaceOnUse"
       x1="449.93042"
       y1="562.05096"
       x2="650.06024"
       y2="563.41492"
       gradientTransform="matrix(1.0184681,0,0,1,-2.136938,-68)" />
    <linearGradient
       inkscape:collect="always"
       xlink:href="#linearGradient20610"
       id="linearGradient20750"
       gradientUnits="userSpaceOnUse"
       x1="449.93042"
       y1="523.06561"
       x2="650.06024"
       y2="521.70166"
       gradientTransform="translate(0,-68)" />
    <linearGradient
       inkscape:collect="always"
       xlink:href="#linearGradient20506"
       id="linearGradient20752"
       gradientUnits="userSpaceOnUse"
       x1="449.93042"
       y1="673.12891"
       x2="650.06024"
       y2="673.12891"
       gradientTransform="translate(0,-68)" />
    <linearGradient
       inkscape:collect="always"
       xlink:href="#linearGradient20486"
       id="linearGradient20770"
       gradientUnits="userSpaceOnUse"
       x1="449.93042"
       y1="562.05096"
       x2="650.06024"
       y2="563.41492"
       gradientTransform="matrix(1.0184681,0,0,0.89893543,-18.136938,19.966022)" />
    <linearGradient
       inkscape:collect="always"
       xlink:href="#linearGradient20478"
       id="linearGradient20772"
       gradientUnits="userSpaceOnUse"
       x1="449.93042"
       y1="562.05096"
       x2="650.06024"
       y2="563.41492"
       gradientTransform="matrix(1.0184681,0,0,0.89893543,-18.136938,19.966022)" />
    <linearGradient
       inkscape:collect="always"
       xlink:href="#linearGradient20610"
       id="linearGradient20774"
       gradientUnits="userSpaceOnUse"
       x1="449.93042"
       y1="673.12891"
       x2="650.06024"
       y2="673.12891"
       gradientTransform="translate(0,-68)" />
    <linearGradient
       inkscape:collect="always"
       xlink:href="#linearGradient20506"
       id="linearGradient20776"
       gradientUnits="userSpaceOnUse"
       x1="449.93042"
       y1="673.12891"
       x2="650.06024"
       y2="673.12891"
       gradientTransform="translate(0,-68)" />
  </defs>
  <metadata
     id="metadata7">
    <rdf:RDF>
      <cc:Work
         rdf:about="">
        <dc:format>image/svg+xml</dc:format>
        <dc:type
           rdf:resource="http://purl.org/dc/dcmitype/StillImage" />
        <dc:title />
      </cc:Work>
    </rdf:RDF>
  </metadata>
  <g
     inkscape:groupmode="layer"
     id="layer6"
     inkscape:label="Boxes"
     style="display:inline"
     transform="translate(163.77254,66.773901)">
    <rect
       y="-4.191947"
       x="-61.710659"
       height="966.33179"
       width="1043.7778"
       id="rect2989"
       style="fill:url(#linearGradient20442);fill-opacity:1;stroke:url(#linearGradient20432);stroke-width:4;stroke-linecap:butt;stroke-miterlimit:4;stroke-opacity:1;stroke-dasharray:none;stroke-dashoffset:0;display:inline"
       ry="0" />
    <rect
       ry="0"
       style="fill:url(#linearGradient20770);fill-opacity:1;stroke:url(#linearGradient20772);stroke-width:4;stroke-linecap:butt;stroke-miterlimit:4;stroke-opacity:1;stroke-dasharray:none;stroke-dashoffset:0;display:inline"
       id="rect18554"
       width="949.23889"
       height="657.76514"
       x="32.828323"
       y="197.55708" />
    <rect
       ry="0"
       style="fill:url(#linearGradient20735);fill-opacity:1;stroke:url(#linearGradient20737);stroke-width:4;stroke-linecap:butt;stroke-miterlimit:4;stroke-opacity:1;stroke-dasharray:none;stroke-dashoffset:0;display:inline"
       id="rect20672"
       width="898.36041"
       height="46.975719"
       x="99.706764"
       y="259.7901" />
    <rect
       ry="25.183563"
       style="fill:url(#linearGradient20750);fill-opacity:1;stroke:url(#linearGradient20752);stroke-width:4;stroke-linecap:butt;stroke-miterlimit:4;stroke-opacity:1;stroke-dasharray:none;stroke-dashoffset:0;display:inline"
       id="rect18579"
       width="882.07025"
       height="50.367134"
       x="99.996948"
       y="425.79013" />
    <rect
       y="501.15411"
       x="99.996948"
       height="272.40167"
       width="882.07025"
       id="rect18585"
       style="fill:url(#linearGradient20774);fill-opacity:1;stroke:url(#linearGradient20776);stroke-width:4;stroke-linecap:butt;stroke-miterlimit:4;stroke-opacity:1;stroke-dasharray:none;stroke-dashoffset:0;display:inline"
       ry="25.285545"
       rx="22.183081" />
    <rect
       y="576.8783"
       x="150.03804"
       height="46.177647"
       width="832.02917"
       id="rect18591"
       style="fill:url(#linearGradient20658);fill-opacity:1;stroke:url(#linearGradient20650);stroke-width:4;stroke-linecap:butt;stroke-miterlimit:4;stroke-opacity:1;stroke-dasharray:none;stroke-dashoffset:0;display:inline"
       ry="0" />
    <rect
       ry="0"
       style="fill:#d6e5ff;fill-opacity:1;stroke:#000000;stroke-width:4;stroke-linecap:butt;stroke-miterlimit:4;stroke-opacity:1;stroke-dasharray:none;stroke-dashoffset:0;display:inline"
       id="rect18593"
       width="299.8924"
       height="46.18161"
       x="150.03804"
       y="655.69818" />
    <rect
       ry="0"
       style="fill:#b3ffac;fill-opacity:1;stroke:#000000;stroke-width:4;stroke-linecap:butt;stroke-miterlimit:4;stroke-opacity:1;stroke-dasharray:none;stroke-dashoffset:0;display:inline"
       id="rect20376"
       width="399.10208"
       height="34.390667"
       x="32.82832"
       y="55.74781" />
  </g>
  <g
     inkscape:groupmode="layer"
     id="layer9"
     inkscape:label="text"
     style="display:inline"
     transform="translate(163.77254,66.773901)">
    <text
       xml:space="preserve"
       style="font-size:22px;font-style:normal;font-variant:normal;font-weight:normal;font-stretch:normal;text-align:start;line-height:125%;letter-spacing:0px;word-spacing:0px;writing-mode:lr-tb;text-anchor:start;fill:#000000;fill-opacity:1;stroke:none;font-family:Serif;-inkscape-font-specification:Serif"
       x="-47.710659"
       y="26.225386"
       id="text18550"
       sodipodi:linespacing="125%"><tspan
         sodipodi:role="line"
         id="tspan18552"
         x="-47.710659"
         y="26.225386">Matlab</tspan></text>
    <text
       xml:space="preserve"
       style="font-size:22px;font-style:normal;font-variant:normal;font-weight:normal;font-stretch:normal;text-align:start;line-height:125%;letter-spacing:0px;word-spacing:0px;writing-mode:lr-tb;text-anchor:start;fill:#000000;fill-opacity:1;stroke:none;font-family:Serif;-inkscape-font-specification:Serif"
       x="52.377068"
       y="229.97404"
       id="text18556"
       sodipodi:linespacing="125%"><tspan
         sodipodi:role="line"
         x="52.377068"
         y="229.97404"
         id="tspan18560">CalcPhiASE()</tspan></text>
    <text
       xml:space="preserve"
       style="font-size:22px;font-style:normal;font-variant:normal;font-weight:normal;font-stretch:normal;text-align:start;line-height:125%;letter-spacing:0px;word-spacing:0px;writing-mode:lr-tb;text-anchor:start;fill:#000000;fill-opacity:1;stroke:none;font-family:Serif;-inkscape-font-specification:Serif"
       x="110.03043"
       y="290.25632"
       id="text18571"
       sodipodi:linespacing="125%"><tspan
         sodipodi:role="line"
         x="110.03043"
         y="290.25632"
         id="tspan18575">copyDataToDevice</tspan></text>
    <text
       xml:space="preserve"
       style="font-size:22px;font-style:normal;font-variant:normal;font-weight:normal;font-stretch:normal;text-align:start;line-height:125%;letter-spacing:0px;word-spacing:0px;writing-mode:lr-tb;text-anchor:start;fill:#000000;fill-opacity:1;stroke:none;font-family:Serif;-inkscape-font-specification:Serif"
       x="119.21812"
       y="459.28296"
       id="text18581"
       sodipodi:linespacing="125%"><tspan
         sodipodi:role="line"
         id="tspan18583"
         x="119.21812"
         y="459.28296">importanceSampling()</tspan></text>
    <text
       xml:space="preserve"
       style="font-size:22px;font-style:normal;font-variant:normal;font-weight:normal;font-stretch:normal;text-align:start;line-height:125%;letter-spacing:0px;word-spacing:0px;writing-mode:lr-tb;text-anchor:start;fill:#000000;fill-opacity:1;stroke:none;font-family:Serif;-inkscape-font-specification:Serif"
       x="118.39822"
       y="532.30957"
       id="text18587"
       sodipodi:linespacing="125%"><tspan
         sodipodi:role="line"
         id="tspan18589"
         x="118.39822"
         y="532.30957">calcGainSum()</tspan></text>
    <text
       xml:space="preserve"
       style="font-size:22px;font-style:normal;font-variant:normal;font-weight:normal;font-stretch:normal;text-align:start;line-height:125%;letter-spacing:0px;word-spacing:0px;writing-mode:lr-tb;text-anchor:start;fill:#000000;fill-opacity:1;stroke:none;font-family:Serif;-inkscape-font-specification:Serif"
       x="168.67406"
       y="604.87646"
       id="text18595"
       sodipodi:linespacing="125%"><tspan
         sodipodi:role="line"
         id="tspan18597"
         x="168.67406"
         y="604.87646">propagateRay()</tspan></text>
    <text
       xml:space="preserve"
       style="font-size:22px;font-style:normal;font-variant:normal;font-weight:normal;font-stretch:normal;text-align:start;line-height:125%;letter-spacing:0px;word-spacing:0px;writing-mode:lr-tb;text-anchor:start;fill:#000000;fill-opacity:1;stroke:none;font-family:Serif;-inkscape-font-specification:Serif"
       x="168.85796"
       y="685.16754"
       id="text18599"
       sodipodi:linespacing="125%"><tspan
         sodipodi:role="line"
         id="tspan18601"
         x="168.85796"
         y="685.16754">atomicAdd(gain)</tspan></text>
    <text
       sodipodi:linespacing="125%"
       id="text20378"
       y="79.974037"
       x="48.377068"
       style="font-size:22px;font-style:normal;font-variant:normal;font-weight:normal;font-stretch:normal;text-align:start;line-height:125%;letter-spacing:0px;word-spacing:0px;writing-mode:lr-tb;text-anchor:start;fill:#000000;fill-opacity:1;stroke:none;font-family:Serif;-inkscape-font-specification:Serif"
       xml:space="preserve"><tspan
         id="tspan20380"
         y="79.974037"
         x="48.377068"
         sodipodi:role="line">createInputFromSimulationData</tspan></text>
    <text
       xml:space="preserve"
       style="font-size:22px;font-style:normal;font-variant:normal;font-weight:normal;font-stretch:normal;text-align:start;line-height:125%;letter-spacing:0px;word-spacing:0px;writing-mode:lr-tb;text-anchor:start;fill:#000000;fill-opacity:1;stroke:none;font-family:Serif;-inkscape-font-specification:Serif"
       x="-35.023083"
       y="129.29668"
       id="text20754"
       sodipodi:linespacing="125%"><tspan
         sodipodi:role="line"
         id="tspan20756"
         x="-35.023083"
         y="129.29668">for each time step</tspan></text>
    <text
       sodipodi:linespacing="125%"
       id="text20758"
       y="341.79898"
       x="59.942371"
       style="font-size:22px;font-style:normal;font-variant:normal;font-weight:normal;font-stretch:normal;text-align:start;line-height:125%;letter-spacing:0px;word-spacing:0px;writing-mode:lr-tb;text-anchor:start;fill:#000000;fill-opacity:1;stroke:none;font-family:Serif;-inkscape-font-specification:Serif"
       xml:space="preserve"><tspan
         y="341.79898"
         x="59.942371"
         id="tspan20760"
         sodipodi:role="line">for each</tspan><tspan
         y="369.29898"
         x="59.942371"
         sodipodi:role="line"
         id="tspan20762">sample point</tspan></text>
  </g>
  <g
     inkscape:groupmode="layer"
     id="layer10"
     inkscape:label="program flow"
     style="display:inline"
     transform="translate(163.77254,66.773901)">
    <path
       sodipodi:type="arc"
       style="fill:none;stroke:#000000;stroke-width:2.88377237;stroke-linecap:round;stroke-linejoin:miter;stroke-miterlimit:4;stroke-opacity:1;stroke-dasharray:none;stroke-dashoffset:0;marker-start:none;marker-end:url(#TriangleOutM);display:inline"
       id="path19582"
       sodipodi:cx="-212.78122"
       sodipodi:cy="326.72366"
       sodipodi:rx="45.308331"
       sodipodi:ry="255.17213"
       d="m -194.04478,559.05525 a 45.308331,255.17213 0 1 1 2.57557,-457.51218"
       sodipodi:start="1.1444666"
       sodipodi:end="5.2021072"
       transform="matrix(1.3094181,0,0,1.4693311,311.4479,35.203194)"
       sodipodi:open="true" />
    <path
       transform="matrix(1.3094181,0,0,1.4666577,392.23187,106.2482)"
       sodipodi:end="5.2549838"
       sodipodi:start="1.1544806"
       d="m -192.10685,454.91071 a 51.124363,140.15869 0 1 1 5.7242,-248.21498"
       sodipodi:ry="140.15869"
       sodipodi:rx="51.124363"
       sodipodi:cy="326.72366"
       sodipodi:cx="-212.78122"
       id="path20172"
       style="fill:none;stroke:#000000;stroke-width:2.88639951;stroke-linecap:round;stroke-linejoin:miter;stroke-miterlimit:4;stroke-opacity:1;stroke-dasharray:none;stroke-dashoffset:3.2;marker-start:none;marker-end:url(#TriangleOutM);display:inline"
       sodipodi:type="arc"
       sodipodi:open="true" />
    <path
       style="fill:none;stroke:#000000;stroke-width:4;stroke-linecap:butt;stroke-linejoin:miter;stroke-miterlimit:4;stroke-opacity:1;stroke-dasharray:none;marker-end:url(#TriangleOutM)"
       d="m 218.91914,310.15723 0,102.02682"
       id="path20176"
       inkscape:connector-curvature="0" />
    <path
       inkscape:connector-curvature="0"
       id="path20382"
       d="m 218.91914,90.138477 0,94.227163"
       style="fill:none;stroke:#000000;stroke-width:4;stroke-linecap:butt;stroke-linejoin:miter;stroke-miterlimit:4;stroke-opacity:1;stroke-dasharray:none;marker-end:url(#TriangleOutM)" />
    <path
       inkscape:connector-curvature="0"
       id="path20386"
       d="m 218.91914,478.15726 0,10.02679"
       style="fill:none;stroke:#000000;stroke-width:4;stroke-linecap:butt;stroke-linejoin:miter;stroke-miterlimit:4;stroke-opacity:1;stroke-dasharray:none;marker-end:url(#TriangleOutM)" />
    <path
       style="fill:none;stroke:#000000;stroke-width:4;stroke-linecap:butt;stroke-linejoin:miter;stroke-miterlimit:4;stroke-opacity:1;stroke-dasharray:none;marker-end:url(#TriangleOutM)"
       d="m 218.91914,624.15726 0,14.42625"
       id="path20388"
       inkscape:connector-curvature="0" />
  </g>
  <g
     inkscape:groupmode="layer"
     id="layer8"
     inkscape:label="formula"
     style="display:inline"
     transform="translate(163.77254,66.773901)">
    <g
       transform="matrix(0.68874967,0,0,0.68874967,336.61747,384.65388)"
       id="g14975"
       style="stroke-width:1.45190632;stroke-miterlimit:10.43299961;stroke-dasharray:none;display:inline">
      <g
         style="font-style:normal;font-variant:normal;font-weight:normal;font-stretch:normal;letter-spacing:normal;word-spacing:normal;text-anchor:start;fill:none;stroke:#000000;stroke-width:1.53883874;stroke-linecap:butt;stroke-linejoin:miter;stroke-miterlimit:10.43299961;stroke-opacity:1;stroke-dasharray:none;stroke-dashoffset:0"
         id="g14977"
         transform="matrix(0.94350777,0,0,-0.94350777,-165.11386,708.75526)"
         xml:space="preserve"
         stroke-miterlimit="10.433"
         font-style="normal"
         font-variant="normal"
         font-weight="normal"
         font-stretch="normal"
         font-size-adjust="none"
         letter-spacing="normal"
         word-spacing="normal"><path
           style="fill:#000000;stroke-width:1.53883874;stroke-miterlimit:10.43299961;stroke-dasharray:none"
           inkscape:connector-curvature="0"
           d="m 478.99,424.98 0.01,0.06 0.01,0.05 0.01,0.05 0.01,0.06 0.02,0.1 0.01,0.05 0.02,0.06 0.01,0.05 0.01,0.06 0.01,0.05 0,0.06 0.01,0.06 0,0.06 0.01,0.03 0,0.03 0,0.03 0,0.03 c 0,0.86 -0.59,1.36 -1.44,1.36 -0.5,0 -1.84,-0.36 -2.05,-2.16 -0.89,1.85 -2.64,3.14 -4.62,3.14 l 0.05,-1.09 c 3.28,0 3.98,-4.03 3.98,-4.28 0,-0.25 -0.09,-0.55 -0.16,-0.75 l -2.39,-9.52 c -0.29,-1.29 -1.43,-2.53 -2.53,-3.48 -1.04,-0.89 -2.59,-1.8 -4.04,-1.8 -2.49,0 -3.24,2.6 -3.24,4.58 0,2.41 1.45,8.28 2.8,10.81 1.34,2.46 3.48,4.44 5.58,4.44 l -0.05,1.09 c -5.69,0 -11.86,-6.96 -11.86,-14.14 0,-4.93 3.03,-7.87 6.63,-7.87 2.93,0 5.28,2.34 5.78,2.89 l 0.04,-0.05 c -1.04,-4.43 -1.64,-6.48 -1.64,-6.58 -0.2,-0.45 -1.89,-5.39 -7.17,-5.39 -0.95,0 -2.59,0.07 -4,0.5 1.5,0.46 2.05,1.75 2.05,2.6 0,0.79 -0.55,1.75 -1.89,1.75 -1.1,0 -2.69,-0.91 -2.69,-2.89 0,-2.05 1.84,-3.05 6.62,-3.05 6.22,0 9.82,3.89 10.57,6.88 z"
           id="path14979" /><path
           style="fill:#000000;stroke-width:1.53883874;stroke-miterlimit:10.43299961;stroke-dasharray:none"
           inkscape:connector-curvature="0"
           d="m 499.66,425.03 -0.09,0.17 -0.09,0.17 -0.09,0.16 -0.09,0.16 -0.1,0.16 -0.11,0.16 -0.1,0.15 -0.11,0.14 -0.11,0.15 -0.12,0.13 -0.12,0.14 -0.12,0.13 -0.13,0.12 -0.13,0.12 -0.14,0.11 -0.14,0.11 -0.14,0.11 -0.15,0.09 -0.15,0.1 -0.16,0.08 -0.16,0.08 -0.16,0.08 -0.17,0.06 -0.17,0.07 -0.18,0.05 -0.18,0.05 -0.18,0.04 -0.19,0.03 -0.19,0.03 -0.2,0.02 -0.2,0.01 -0.21,0 0.04,-1.09 c 3.24,0 3.94,-4.08 3.94,-4.37 0,-0.32 -0.09,-0.61 -0.14,-0.86 l -2.5,-9.77 c -0.25,-0.89 -0.25,-0.98 -1,-1.84 -2.19,-2.74 -4.23,-3.53 -5.62,-3.53 -2.49,0 -3.19,2.73 -3.19,4.68 0,2.49 1.59,8.61 2.73,10.91 1.55,2.94 3.8,4.78 5.78,4.78 l -0.04,1.09 c -5.83,0 -12,-7.31 -12,-14.59 0,-4.69 2.73,-7.97 6.62,-7.97 0.99,0 3.49,0.21 6.47,3.74 0.41,-2.1 2.14,-3.74 4.53,-3.74 1.75,0 2.89,1.14 3.69,2.74 0.84,1.79 1.5,4.84 1.5,4.93 0,0.5 -0.45,0.5 -0.59,0.5 -0.5,0 -0.55,-0.2 -0.71,-0.9 -0.84,-3.24 -1.75,-6.17 -3.78,-6.17 -1.34,0 -1.5,1.29 -1.5,2.29 0,1.1 0.1,1.49 0.64,3.69 0.57,2.09 0.66,2.59 1.11,4.48 l 1.78,6.97 c 0.36,1.39 0.36,1.5 0.36,1.69 0,0.86 -0.61,1.36 -1.45,1.36 -1.19,0 -1.94,-1.11 -2.09,-2.2 z"
           id="path14981" /><path
           style="fill:#000000;stroke-width:1.53883874;stroke-miterlimit:10.43299961;stroke-dasharray:none"
           inkscape:connector-curvature="0"
           d="m 521.51,437.34 0,0.09 -0.01,0.09 -0.01,0.1 -0.01,0.08 -0.02,0.09 -0.02,0.09 -0.03,0.08 -0.03,0.08 -0.03,0.08 -0.04,0.08 -0.04,0.08 -0.04,0.07 -0.05,0.07 -0.05,0.07 -0.05,0.06 -0.06,0.06 -0.06,0.06 -0.07,0.06 -0.07,0.05 -0.07,0.05 -0.07,0.05 -0.08,0.04 -0.08,0.04 -0.08,0.04 -0.09,0.03 -0.09,0.03 -0.09,0.02 -0.1,0.02 -0.09,0.02 -0.1,0.01 -0.11,0 -0.1,0.01 c -1.36,0 -2.7,-1.3 -2.7,-2.64 0,-0.96 0.7,-1.8 1.9,-1.8 1.14,0 2.64,1.14 2.64,2.64 z"
           id="path14983" /><path
           style="fill:#000000;stroke-width:1.53883874;stroke-miterlimit:10.43299961;stroke-dasharray:none"
           inkscape:connector-curvature="0"
           d="m 517.72,418.61 0.05,0.13 0.05,0.12 0.05,0.12 0.04,0.11 0.04,0.1 0.04,0.1 0.04,0.09 0.04,0.09 0.03,0.09 0.03,0.08 0.03,0.08 0.03,0.08 0.03,0.07 0.03,0.07 0.05,0.15 0.05,0.14 0.05,0.14 0.03,0.07 0.02,0.08 0.03,0.08 0.03,0.08 0.03,0.08 0.03,0.09 0.04,0.1 0.03,0.09 0.04,0.11 0.04,0.11 0.04,0.11 0.05,0.13 c 0.41,1 0.66,1.68 0.66,2.64 0,2.23 -1.6,4.07 -4.1,4.07 -4.67,0 -6.58,-7.21 -6.58,-7.67 0,-0.5 0.5,-0.5 0.61,-0.5 0.5,0 0.55,0.11 0.8,0.91 1.34,4.69 3.33,6.17 5.03,6.17 0.39,0 1.25,0 1.25,-1.59 0,-1.05 -0.36,-2.1 -0.56,-2.6 -0.39,-1.29 -2.64,-7.06 -3.44,-9.22 -0.48,-1.28 -1.14,-2.93 -1.14,-3.98 0,-2.33 1.69,-4.08 4.09,-4.08 4.67,0 6.52,7.22 6.52,7.67 0,0.5 -0.44,0.5 -0.6,0.5 -0.5,0 -0.5,-0.15 -0.75,-0.9 -0.88,-3.13 -2.53,-6.17 -5.07,-6.17 -0.85,0 -1.21,0.5 -1.21,1.64 0,1.25 0.32,1.95 1.46,4.98 z"
           id="path14985" /><path
           style="fill:#000000;stroke-width:1.53883874;stroke-miterlimit:10.43299961;stroke-dasharray:none"
           inkscape:connector-curvature="0"
           d="m 528.9,409.14 -0.01,-0.07 -0.02,-0.08 -0.02,-0.07 -0.01,-0.08 -0.04,-0.16 -0.03,-0.16 -0.04,-0.16 -0.04,-0.16 -0.04,-0.16 -0.03,-0.16 -0.02,-0.08 -0.02,-0.07 -0.01,-0.07 -0.02,-0.07 -0.01,-0.07 -0.02,-0.07 -0.01,-0.06 -0.01,-0.06 -0.01,-0.06 -0.01,-0.05 -0.01,-0.05 -0.01,-0.04 0,-0.04 -0.01,-0.04 0,-0.03 0,-0.02 c 0,-0.89 0.7,-1.35 1.44,-1.35 0.61,0 1.5,0.39 1.84,1.39 0.06,0.11 0.66,2.44 0.95,3.69 l 1.1,4.48 c 0.29,1.1 0.59,2.19 0.84,3.35 0.2,0.84 0.61,2.28 0.66,2.48 0.75,1.55 3.39,6.08 8.11,6.08 2.25,0 2.7,-1.84 2.7,-3.48 0,-3.1 -2.45,-9.47 -3.25,-11.61 -0.44,-1.14 -0.49,-1.75 -0.49,-2.3 0,-2.33 1.74,-4.08 4.08,-4.08 4.69,0 6.54,7.27 6.54,7.67 0,0.5 -0.46,0.5 -0.62,0.5 -0.48,0 -0.48,-0.15 -0.73,-0.9 -1,-3.38 -2.64,-6.17 -5.09,-6.17 -0.85,0 -1.19,0.5 -1.19,1.64 0,1.25 0.45,2.45 0.89,3.54 0.95,2.64 3.05,8.11 3.05,10.96 0,3.34 -2.14,5.32 -5.74,5.32 -4.48,0 -6.92,-3.18 -7.76,-4.32 -0.25,2.79 -2.3,4.32 -4.6,4.32 -2.28,0 -3.23,-1.93 -3.73,-2.82 -0.8,-1.71 -1.5,-4.64 -1.5,-4.85 0,-0.5 0.5,-0.5 0.61,-0.5 0.5,0 0.54,0.07 0.84,1.16 0.85,3.53 1.85,5.92 3.64,5.92 0.99,0 1.55,-0.64 1.55,-2.28 0,-1.05 -0.16,-1.61 -0.8,-4.19 z"
           id="path14987" /><path
           style="fill:#000000;stroke-width:1.53883874;stroke-miterlimit:10.43299961;stroke-dasharray:none"
           inkscape:connector-curvature="0"
           d="m 570.88,394.25 -0.01,0.02 0,0.03 0,0.01 0,0.02 0,0.01 -0.01,0.02 0,0.01 -0.01,0.02 -0.01,0.02 -0.01,0.02 -0.01,0.02 -0.02,0.03 -0.01,0.02 -0.02,0.03 -0.02,0.03 -0.03,0.03 -0.02,0.03 -0.03,0.04 -0.02,0.02 -0.01,0.02 -0.02,0.02 -0.02,0.02 -0.02,0.02 -0.02,0.03 -0.02,0.02 -0.02,0.02 -0.02,0.03 -0.03,0.02 -0.02,0.03 -0.03,0.03 -0.02,0.03 -0.03,0.03 -0.03,0.03 -0.03,0.03 -0.03,0.03 -0.03,0.03 -0.04,0.04 -0.03,0.03 -0.04,0.04 -0.03,0.03 -0.04,0.04 -0.04,0.04 c -6.22,6.28 -7.81,15.69 -7.81,23.31 0,8.67 1.89,17.35 8.01,23.56 0.65,0.61 0.65,0.71 0.65,0.86 0,0.35 -0.19,0.49 -0.49,0.49 -0.5,0 -4.98,-3.38 -7.92,-9.7 -2.55,-5.49 -3.14,-11.02 -3.14,-15.21 0,-3.89 0.55,-9.9 3.28,-15.54 2.98,-6.13 7.28,-9.36 7.78,-9.36 0.3,0 0.49,0.14 0.49,0.5 z"
           id="path14989" /><path
           style="fill:#000000;stroke-width:1.53883874;stroke-miterlimit:10.43299961;stroke-dasharray:none"
           inkscape:connector-curvature="0"
           d="m 606.55,439.13 0.16,0 0.15,0 0.16,0.01 0.08,0 0.08,0.01 0.07,0.01 0.08,0 0.07,0.01 0.07,0.02 0.07,0.01 0.07,0.02 0.07,0.02 0.06,0.02 0.06,0.02 0.06,0.03 0.05,0.03 0.06,0.04 0.05,0.04 0.04,0.04 0.04,0.04 0.04,0.05 0.02,0.03 0.02,0.03 0.01,0.03 0.02,0.03 0.01,0.03 0.01,0.03 0.02,0.04 0.01,0.03 0.01,0.04 0,0.04 0.01,0.04 0.01,0.04 0,0.04 0,0.04 0.01,0.05 0,0.04 c 0,1 -0.91,1 -1.75,1 h -26.96 c -0.84,0 -1.73,0 -1.73,-1 0,-1 0.89,-1 1.73,-1 z"
           id="path14991" /><path
           style="fill:#000000;stroke-width:1.53883874;stroke-miterlimit:10.43299961;stroke-dasharray:none"
           inkscape:connector-curvature="0"
           d="m 625.15,439.13 0.15,0 0.16,0 0.16,0.01 0.08,0 0.07,0.01 0.08,0.01 0.07,0 0.08,0.01 0.07,0.02 0.07,0.01 0.07,0.02 0.06,0.02 0.07,0.02 0.06,0.02 0.06,0.03 0.05,0.03 0.05,0.04 0.05,0.04 0.05,0.04 0.04,0.04 0.04,0.05 0.02,0.03 0.01,0.03 0.02,0.03 0.02,0.03 0.01,0.03 0.01,0.03 0.01,0.04 0.01,0.03 0.01,0.04 0.01,0.04 0.01,0.04 0,0.04 0.01,0.04 0,0.04 0,0.05 0.01,0.04 c 0,1 -0.91,1 -1.75,1 h -26.96 c -0.84,0 -1.73,0 -1.73,-1 0,-1 0.89,-1 1.73,-1 z"
           id="path14993" /><path
           style="fill:#000000;stroke-width:1.53883874;stroke-miterlimit:10.43299961;stroke-dasharray:none"
           inkscape:connector-curvature="0"
           d="m 652.86,439.13 0.16,0 0.16,0 0.16,0.01 0.08,0 0.07,0.01 0.08,0.01 0.07,0 0.08,0.01 0.07,0.02 0.07,0.01 0.07,0.02 0.06,0.02 0.06,0.02 0.07,0.02 0.05,0.03 0.06,0.03 0.05,0.04 0.05,0.04 0.05,0.04 0.04,0.04 0.04,0.05 0.02,0.03 0.01,0.03 0.02,0.03 0.01,0.03 0.02,0.03 0.01,0.03 0.01,0.04 0.01,0.03 0.01,0.04 0.01,0.04 0.01,0.04 0,0.04 0.01,0.04 0,0.04 0,0.05 0,0.04 c 0,1 -0.9,1 -1.75,1 h -26.95 c -0.84,0 -1.73,0 -1.73,-1 0,-1 0.89,-1 1.73,-1 z"
           id="path14995" /><path
           style="fill:#000000;stroke-width:1.53883874;stroke-miterlimit:10.43299961;stroke-dasharray:none"
           inkscape:connector-curvature="0"
           d="m 679.94,439.13 -0.25,-0.19 -0.25,-0.2 -0.23,-0.19 -0.23,-0.2 -0.22,-0.19 -0.21,-0.19 -0.21,-0.19 -0.2,-0.19 -0.19,-0.18 -0.18,-0.18 -0.17,-0.18 -0.17,-0.18 -0.16,-0.17 -0.16,-0.17 -0.14,-0.17 -0.14,-0.16 -0.14,-0.15 -0.12,-0.16 -0.12,-0.15 -0.12,-0.14 -0.1,-0.14 -0.1,-0.13 -0.1,-0.13 -0.09,-0.12 -0.08,-0.11 -0.07,-0.11 -0.07,-0.1 -0.07,-0.1 -0.05,-0.09 -0.06,-0.08 -0.04,-0.07 -0.04,-0.07 c -2.24,-3.44 -2.64,-6.58 -2.64,-6.62 0,-0.6 0.61,-0.6 1,-0.6 0.84,0 0.89,0.1 1.09,1 1.16,4.88 4.09,9.07 9.72,11.36 0.59,0.19 0.75,0.3 0.75,0.64 0,0.35 -0.3,0.5 -0.41,0.55 -2.19,0.84 -8.22,3.34 -10.11,11.72 -0.15,0.59 -0.2,0.73 -1.04,0.73 -0.39,0 -1,0 -1,-0.59 0,-0.09 0.45,-3.24 2.54,-6.58 1,-1.48 2.44,-3.23 4.58,-4.83 h -37.01 c -0.9,0 -1.8,0 -1.8,-1 0,-1 0.9,-1 1.8,-1 z"
           id="path14997" /><path
           style="fill:#000000;stroke-width:1.53883874;stroke-miterlimit:10.43299961;stroke-dasharray:none"
           inkscape:connector-curvature="0"
           d="m 578.11,409.14 -0.02,-0.07 -0.01,-0.08 -0.02,-0.07 -0.02,-0.08 -0.03,-0.16 -0.04,-0.16 -0.04,-0.16 -0.03,-0.16 -0.04,-0.16 -0.04,-0.16 -0.01,-0.08 -0.02,-0.07 -0.02,-0.07 -0.01,-0.07 -0.02,-0.07 -0.01,-0.07 -0.01,-0.06 -0.02,-0.06 -0.01,-0.06 -0.01,-0.05 0,-0.05 -0.01,-0.04 -0.01,-0.04 0,-0.04 0,-0.03 0,-0.02 c 0,-0.89 0.7,-1.35 1.43,-1.35 0.61,0 1.5,0.39 1.85,1.39 0.11,0.21 1.79,6.99 2,7.88 0.39,1.64 1.29,5.12 1.59,6.48 0.2,0.64 1.59,2.99 2.78,4.08 0.41,0.34 1.85,1.64 4,1.64 1.28,0 2.03,-0.59 2.08,-0.59 -1.48,-0.25 -2.58,-1.46 -2.58,-2.74 0,-0.79 0.55,-1.75 1.89,-1.75 1.35,0 2.74,1.14 2.74,2.94 0,1.75 -1.6,3.23 -4.13,3.23 -3.25,0 -5.43,-2.43 -6.39,-3.82 -0.39,2.23 -2.19,3.82 -4.53,3.82 -2.28,0 -3.23,-1.93 -3.69,-2.82 -0.89,-1.71 -1.54,-4.69 -1.54,-4.85 0,-0.5 0.5,-0.5 0.61,-0.5 0.5,0 0.54,0.07 0.84,1.16 0.84,3.53 1.84,5.92 3.64,5.92 0.84,0 1.55,-0.39 1.55,-2.28 0,-1.05 -0.16,-1.61 -0.8,-4.19 z"
           id="path14999" /><path
           style="fill:#000000;stroke-width:1.53883874;stroke-miterlimit:10.43299961;stroke-dasharray:none"
           inkscape:connector-curvature="0"
           d="m 607.46,420.54 0,0.05 -0.01,0.06 0,0.05 -0.01,0.06 -0.01,0.05 -0.02,0.06 -0.02,0.05 -0.01,0.06 -0.03,0.06 -0.02,0.05 -0.03,0.06 -0.03,0.05 -0.03,0.06 -0.04,0.05 -0.04,0.05 -0.04,0.05 -0.04,0.05 -0.05,0.05 -0.05,0.04 -0.05,0.05 -0.06,0.04 -0.06,0.03 -0.06,0.04 -0.06,0.03 -0.07,0.03 -0.07,0.03 -0.08,0.02 -0.08,0.02 -0.08,0.01 -0.08,0.01 -0.09,0.01 -0.09,0 c -0.94,0 -1.95,-0.91 -1.95,-1.92 0,-0.59 0.45,-1.33 1.4,-1.33 1,0 1.96,0.99 1.96,1.92 z"
           id="path15001" /><path
           style="fill:#000000;stroke-width:1.53883874;stroke-miterlimit:10.43299961;stroke-dasharray:none"
           inkscape:connector-curvature="0"
           d="m 600.35,402.84 -0.06,-0.17 -0.05,-0.17 -0.03,-0.08 -0.02,-0.09 -0.03,-0.08 -0.02,-0.09 -0.02,-0.09 -0.02,-0.09 -0.02,-0.1 -0.02,-0.09 -0.01,-0.1 0,-0.05 -0.01,-0.05 0,-0.06 0,-0.05 0,-0.05 -0.01,-0.06 c 0,-1.64 1.4,-2.95 3.3,-2.95 3.49,0 5.03,4.79 5.03,5.33 0,0.45 -0.45,0.45 -0.56,0.45 -0.48,0 -0.53,-0.2 -0.67,-0.59 -0.8,-2.79 -2.33,-4.22 -3.69,-4.22 -0.7,0 -0.87,0.45 -0.87,1.22 0,0.79 0.25,1.46 0.56,2.23 0.34,0.94 0.73,1.87 1.11,2.78 0.31,0.84 1.58,4.02 1.72,4.44 0.09,0.34 0.2,0.76 0.2,1.11 0,1.64 -1.39,2.95 -3.31,2.95 -3.45,0 -5.05,-4.73 -5.05,-5.33 0,-0.45 0.48,-0.45 0.6,-0.45 0.48,0 0.51,0.17 0.62,0.56 0.91,3 2.44,4.25 3.72,4.25 0.56,0 0.87,-0.28 0.87,-1.22 0,-0.79 -0.2,-1.32 -1.08,-3.48 z"
           id="path15003" /><path
           style="fill:#000000;stroke-width:1.53883874;stroke-miterlimit:10.43299961;stroke-dasharray:none"
           inkscape:connector-curvature="0"
           d="m 617.56,399.32 -0.01,-0.36 -0.01,-0.37 -0.03,-0.38 -0.04,-0.38 -0.03,-0.19 -0.04,-0.2 -0.04,-0.2 -0.04,-0.19 -0.05,-0.2 -0.05,-0.2 -0.07,-0.2 -0.07,-0.2 -0.07,-0.2 -0.08,-0.21 -0.09,-0.2 -0.1,-0.21 -0.11,-0.2 -0.11,-0.21 -0.13,-0.2 -0.13,-0.21 -0.14,-0.21 -0.15,-0.2 -0.16,-0.21 -0.18,-0.21 -0.18,-0.21 -0.19,-0.2 -0.2,-0.21 -0.22,-0.21 c -0.14,-0.14 -0.25,-0.25 -0.25,-0.42 0,-0.25 0.28,-0.49 0.48,-0.49 0.49,0 3.46,2.78 3.46,6.92 0,2.18 -0.85,3.8 -2.44,3.8 -1.16,0 -1.99,-0.9 -1.99,-1.98 0,-1.11 0.8,-2.02 2.02,-2.02 0.85,0 1.39,0.56 1.44,0.56 z"
           id="path15005" /><path
           style="fill:#000000;stroke-width:1.53883874;stroke-miterlimit:10.43299961;stroke-dasharray:none"
           inkscape:connector-curvature="0"
           d="m 636.81,404.4 -0.01,-0.06 -0.02,-0.07 -0.02,-0.08 -0.02,-0.07 -0.02,-0.08 -0.02,-0.08 -0.02,-0.08 -0.02,-0.08 -0.04,-0.17 -0.04,-0.17 -0.04,-0.17 -0.02,-0.08 -0.02,-0.08 -0.02,-0.08 -0.02,-0.07 -0.02,-0.07 -0.02,-0.07 -0.02,-0.07 -0.01,-0.06 -0.02,-0.06 -0.02,-0.06 -0.01,-0.05 -0.02,-0.04 -0.01,-0.04 -0.01,-0.04 -0.01,-0.01 0,-0.01 -0.01,-0.01 0,-0.01 0,-0.01 -0.01,-0.01 0,0 0,0 c -0.68,-1.08 -2.07,-2.97 -4.22,-2.97 -2.41,0 -2.41,2.26 -2.41,2.89 0,2.06 0.97,4.53 1.95,7.08 0.29,0.7 0.49,1.21 0.49,1.78 0,1.81 -1.53,2.98 -3.31,2.98 -3.49,0 -5.05,-4.76 -5.05,-5.33 0,-0.45 0.48,-0.45 0.59,-0.45 0.49,0 0.52,0.17 0.63,0.56 0.83,2.86 2.37,4.25 3.72,4.25 0.59,0 0.87,-0.39 0.87,-1.22 0,-0.79 -0.28,-1.53 -0.62,-2.32 -1.88,-4.82 -1.88,-5.83 -1.88,-6.77 0,-0.59 0,-2.2 1.28,-3.31 1.02,-0.83 2.38,-1.11 3.6,-1.11 2.18,0 3.37,1.19 4.53,2.29 0.76,-2.23 3.09,-2.29 3.51,-2.29 1.19,0 2.1,0.69 2.75,1.84 0.77,1.36 1.25,3.38 1.25,3.49 0,0.45 -0.48,0.45 -0.57,0.45 -0.5,0 -0.54,-0.14 -0.79,-1.08 -0.4,-1.64 -1.07,-3.73 -2.53,-3.73 -0.9,0 -1.15,0.79 -1.15,1.7 0,0.59 0.28,1.86 0.53,2.77 0.23,0.93 0.58,2.35 0.76,3.12 l 0.8,3.11 c 0.2,0.87 0.59,2.41 0.59,2.58 0,0.69 -0.56,1.11 -1.15,1.11 -1.28,0 -1.53,-1.02 -1.82,-2.13 z"
           id="path15007" /><path
           style="fill:#000000;stroke-width:1.53883874;stroke-miterlimit:10.43299961;stroke-dasharray:none"
           inkscape:connector-curvature="0"
           d="m 667.84,424.84 -0.13,-0.01 -0.12,-0.01 -0.13,-0.02 -0.12,-0.03 -0.12,-0.03 -0.12,-0.04 -0.11,-0.04 -0.11,-0.04 -0.11,-0.05 -0.1,-0.06 -0.1,-0.06 -0.1,-0.06 -0.09,-0.07 -0.09,-0.07 -0.09,-0.07 -0.08,-0.08 -0.08,-0.08 -0.07,-0.08 -0.07,-0.09 -0.06,-0.08 -0.06,-0.09 -0.06,-0.1 -0.05,-0.09 -0.04,-0.1 -0.04,-0.09 -0.04,-0.1 -0.03,-0.1 -0.02,-0.1 -0.02,-0.1 -0.02,-0.11 0,-0.1 -0.01,-0.1 c 0,-0.7 0.44,-1.44 1.55,-1.44 1.09,0 2.28,0.85 2.28,2.78 0,2.25 -2.14,4.28 -5.92,4.28 -6.58,0 -8.42,-5.07 -8.42,-7.26 0,-3.89 3.68,-4.64 5.12,-4.94 2.6,-0.5 5.19,-1.05 5.19,-3.78 0,-1.3 -1.14,-5.48 -7.13,-5.48 -0.7,0 -4.53,0 -5.68,2.64 1.9,-0.25 3.14,1.25 3.14,2.64 0,1.14 -0.8,1.75 -1.85,1.75 -1.29,0 -2.78,-1.05 -2.78,-3.3 0,-2.84 2.85,-4.83 7.13,-4.83 8.06,0 10.01,6.03 10.01,8.27 0,1.79 -0.95,3.04 -1.54,3.64 -1.35,1.39 -2.8,1.64 -4.99,2.09 -1.79,0.39 -3.78,0.75 -3.78,2.99 0,1.45 1.19,4.48 5.58,4.48 1.23,0 3.73,-0.34 4.48,-2.28 z"
           id="path15009" /><path
           style="fill:#000000;stroke-width:1.53883874;stroke-miterlimit:10.43299961;stroke-dasharray:none"
           inkscape:connector-curvature="0"
           d="m 683.06,420.54 0,0.05 -0.01,0.06 0,0.05 -0.01,0.06 -0.01,0.05 -0.02,0.06 -0.01,0.05 -0.02,0.06 -0.02,0.06 -0.03,0.05 -0.03,0.06 -0.03,0.05 -0.03,0.06 -0.04,0.05 -0.03,0.05 -0.05,0.05 -0.04,0.05 -0.05,0.05 -0.05,0.04 -0.05,0.05 -0.06,0.04 -0.06,0.03 -0.06,0.04 -0.06,0.03 -0.07,0.03 -0.07,0.03 -0.08,0.02 -0.07,0.02 -0.09,0.01 -0.08,0.01 -0.09,0.01 -0.09,0 c -0.93,0 -1.95,-0.91 -1.95,-1.92 0,-0.59 0.45,-1.33 1.4,-1.33 1,0 1.96,0.99 1.96,1.92 z"
           id="path15011" /><path
           style="fill:#000000;stroke-width:1.53883874;stroke-miterlimit:10.43299961;stroke-dasharray:none"
           inkscape:connector-curvature="0"
           d="m 675.95,402.84 -0.05,-0.17 -0.06,-0.17 -0.03,-0.08 -0.02,-0.09 -0.03,-0.08 -0.02,-0.09 -0.02,-0.09 -0.02,-0.09 -0.02,-0.1 -0.01,-0.09 -0.02,-0.1 0,-0.05 -0.01,-0.05 0,-0.06 0,-0.05 0,-0.05 0,-0.06 c 0,-1.64 1.39,-2.95 3.29,-2.95 3.49,0 5.04,4.79 5.04,5.33 0,0.45 -0.46,0.45 -0.57,0.45 -0.48,0 -0.53,-0.2 -0.67,-0.59 -0.8,-2.79 -2.33,-4.22 -3.69,-4.22 -0.7,0 -0.87,0.45 -0.87,1.22 0,0.79 0.25,1.46 0.56,2.23 0.34,0.94 0.74,1.87 1.11,2.78 0.31,0.84 1.58,4.02 1.72,4.44 0.09,0.34 0.2,0.76 0.2,1.11 0,1.64 -1.39,2.95 -3.31,2.95 -3.45,0 -5.05,-4.73 -5.05,-5.33 0,-0.45 0.49,-0.45 0.6,-0.45 0.48,0 0.51,0.17 0.62,0.56 0.91,3 2.44,4.25 3.72,4.25 0.56,0 0.88,-0.28 0.88,-1.22 0,-0.79 -0.21,-1.32 -1.08,-3.48 z"
           id="path15013" /><path
           style="fill:#000000;stroke-width:1.53883874;stroke-miterlimit:10.43299961;stroke-dasharray:none"
           inkscape:connector-curvature="0"
           d="m 702.59,418.65 0,0.37 -0.01,0.39 -0.01,0.39 -0.01,0.41 -0.04,0.84 -0.06,0.88 -0.08,0.92 -0.11,0.95 -0.13,0.97 -0.17,1.01 -0.19,1.02 -0.23,1.03 -0.27,1.05 -0.3,1.06 -0.35,1.07 -0.4,1.07 -0.21,0.53 -0.22,0.53 -0.24,0.53 -0.25,0.53 c -2.99,6.12 -7.27,9.36 -7.77,9.36 -0.29,0 -0.5,-0.19 -0.5,-0.49 0,-0.15 0,-0.25 0.94,-1.15 4.89,-4.92 7.74,-12.85 7.74,-23.27 0,-8.51 -1.85,-17.28 -8.04,-23.56 -0.64,-0.59 -0.64,-0.7 -0.64,-0.84 0,-0.3 0.21,-0.5 0.5,-0.5 0.5,0 4.97,3.39 7.93,9.71 2.53,5.47 3.12,11 3.12,15.19 z"
           id="path15015" /></g>    </g>
    <g
       id="g14545"
       transform="matrix(0.57262024,0,0,0.57262024,365.21133,346.92779)"
       style="stroke-width:1.74635816;stroke-miterlimit:10.43299961;stroke-dasharray:none;display:inline">
      <g
         word-spacing="normal"
         letter-spacing="normal"
         font-size-adjust="none"
         font-stretch="normal"
         font-weight="normal"
         font-variant="normal"
         font-style="normal"
         stroke-miterlimit="10.433"
         xml:space="preserve"
         transform="matrix(0.94350777,0,0,-0.94350777,-165.11386,708.75526)"
         id="g14547"
         style="font-style:normal;font-variant:normal;font-weight:normal;font-stretch:normal;letter-spacing:normal;word-spacing:normal;text-anchor:start;fill:none;stroke:#000000;stroke-width:1.8509208;stroke-linecap:butt;stroke-linejoin:miter;stroke-miterlimit:10.43299961;stroke-opacity:1;stroke-dasharray:none;stroke-dashoffset:0"><path
           id="path14549"
           d="M 476.49,416.91 458.8,395.05 c -0.39,-0.5 -0.44,-0.61 -0.44,-0.8 0,-0.56 0.44,-0.56 1.35,-0.56 H 501 l 4.29,12.41 h -1.24 c -1.25,-3.74 -4.59,-6.77 -8.83,-8.22 -0.79,-0.25 -4.23,-1.44 -11.54,-1.44 h -21.19 l 17.3,21.38 c 0.34,0.43 0.45,0.59 0.45,0.79 0,0.19 -0.06,0.25 -0.36,0.69 l -16.19,22.22 h 19.74 c 5.67,0 17.12,-0.34 20.62,-9.66 h 1.24 L 501,443.52 h -41.29 c -1.35,0 -1.39,-0.05 -1.39,-1.59 z"
           inkscape:connector-curvature="0"
           style="fill:#000000;stroke-width:1.8509208;stroke-miterlimit:10.43299961;stroke-dasharray:none" /><path
           id="path14551"
           d="m 537.26,451.28 0.07,0.25 0.07,0.24 0.05,0.12 0.04,0.11 0.05,0.12 0.05,0.11 0.06,0.11 0.06,0.1 0.06,0.11 0.08,0.1 0.07,0.1 0.09,0.09 0.09,0.1 0.09,0.08 0.1,0.09 0.12,0.08 0.11,0.08 0.13,0.07 0.14,0.07 0.14,0.06 0.15,0.06 0.17,0.05 0.17,0.05 0.19,0.05 0.19,0.04 0.21,0.03 0.21,0.03 0.12,0.01 0.11,0.01 0.12,0.01 0.12,0.01 0.13,0 0.13,0.01 c 0.17,0 0.7,0.03 0.7,0.76 0,0.21 -0.17,0.49 -0.53,0.49 -1.14,0 -2.44,-0.14 -3.62,-0.14 -0.83,0 -2.85,0.14 -3.69,0.14 -0.17,0 -0.71,0 -0.71,-0.77 0,-0.45 0.46,-0.48 0.79,-0.48 1.62,-0.03 2.21,-0.56 2.21,-1.44 0,-0.27 -0.03,-0.45 -0.13,-0.83 l -3.8,-15.18 -8.85,18.1 c -0.28,0.6 -0.34,0.6 -1.18,0.6 h -4.77 c -0.67,0 -1.12,0 -1.12,-0.77 0,-0.48 0.42,-0.48 1.15,-0.48 0.74,0 1.5,-0.03 2.22,-0.17 l -4.65,-18.64 c -0.32,-1.33 -0.91,-2.38 -3.63,-2.49 -0.25,0 -0.73,-0.03 -0.73,-0.73 0,-0.38 0.28,-0.52 0.51,-0.52 1.16,0 2.44,0.14 3.63,0.14 0.84,0 2.85,-0.14 3.7,-0.14 0.34,0 0.69,0.17 0.69,0.74 0,0.48 -0.42,0.51 -0.8,0.51 -2.2,0.08 -2.2,0.99 -2.2,1.47 0,0.14 0,0.31 0.14,0.88 l 4.47,17.82 10.17,-20.82 c 0.28,-0.57 0.42,-0.6 0.76,-0.6 0.57,0 0.57,0.11 0.74,0.74 z"
           inkscape:connector-curvature="0"
           style="fill:#000000;stroke-width:1.8509208;stroke-miterlimit:10.43299961;stroke-dasharray:none" /><path
           id="path14553"
           d="m 569.4,439.16 0.06,0 0.05,0 0.11,0 0.12,0 0.06,0 0.06,0.01 0.06,0 0.05,0.01 0.06,0.01 0.06,0.01 0.06,0.01 0.05,0.02 0.06,0.01 0.05,0.02 0.05,0.02 0.05,0.03 0.05,0.02 0.04,0.03 0.04,0.03 0.04,0.04 0.04,0.04 0.02,0.02 0.01,0.02 0.02,0.02 0.02,0.03 0.01,0.02 0.01,0.03 0.02,0.03 0.01,0.02 0.01,0.03 0.01,0.03 0,0.03 0.01,0.03 0.01,0.04 0,0.03 0.01,0.04 0,0.03 0,0.04 0,0.04 c 0,0.86 -0.79,0.86 -1.39,0.86 h -20.76 c -0.57,0 -1.39,0 -1.39,-0.83 0,-0.87 0.79,-0.87 1.39,-0.87 z"
           inkscape:connector-curvature="0"
           style="fill:#000000;stroke-width:1.8509208;stroke-miterlimit:10.43299961;stroke-dasharray:none" /><path
           id="path14555"
           d="m 586.23,453.44 0,0.04 0,0.04 0,0.05 0,0.04 0,0.03 0,0.04 0,0.04 0,0.03 -0.01,0.04 0,0.03 0,0.03 0,0.03 0,0.03 -0.01,0.03 0,0.03 -0.01,0.02 0,0.03 0,0.02 -0.01,0.03 0,0.02 -0.02,0.04 -0.01,0.04 -0.02,0.03 -0.02,0.03 -0.02,0.03 -0.02,0.03 -0.03,0.02 -0.03,0.02 -0.04,0.02 -0.03,0.01 -0.04,0.01 -0.05,0.02 -0.02,0 -0.03,0 -0.02,0.01 -0.03,0 -0.02,0.01 -0.03,0 -0.03,0 -0.03,0 -0.04,0 -0.03,0.01 -0.03,0 -0.04,0 -0.04,0 -0.03,0 -0.04,0 -0.04,0 -0.04,0 -0.05,0 -0.04,0 -0.05,0 c -2.23,-2.2 -5.39,-2.23 -6.83,-2.23 v -1.25 c 0.85,0 3.15,0 5.05,0.97 v -17.77 c 0,-1.16 0,-1.61 -3.48,-1.61 h -1.32 v -1.25 c 0.63,0.03 4.91,0.14 6.21,0.14 1.08,0 5.47,-0.11 6.23,-0.14 v 1.25 h -1.32 c -3.49,0 -3.49,0.45 -3.49,1.61 z"
           inkscape:connector-curvature="0"
           style="fill:#000000;stroke-width:1.8509208;stroke-miterlimit:10.43299961;stroke-dasharray:none" /><path
           id="path14557"
           d="m 522.93,396.84 -0.01,-0.07 -0.02,-0.07 -0.02,-0.07 -0.02,-0.07 -0.02,-0.08 -0.02,-0.08 -0.01,-0.08 -0.03,-0.09 -0.04,-0.16 -0.04,-0.17 -0.04,-0.17 -0.02,-0.08 -0.02,-0.08 -0.02,-0.08 -0.02,-0.07 -0.02,-0.08 -0.02,-0.07 -0.02,-0.06 -0.01,-0.07 -0.02,-0.06 -0.02,-0.05 -0.01,-0.05 -0.01,-0.05 -0.02,-0.03 -0.01,-0.04 0,-0.01 -0.01,-0.02 0,-0.01 -0.01,-0.01 0,0 -0.01,-0.01 0,0 0,-0.01 c -0.67,-1.08 -2.07,-2.97 -4.22,-2.97 -2.41,0 -2.41,2.27 -2.41,2.89 0,2.07 0.97,4.54 1.96,7.08 0.28,0.71 0.48,1.22 0.48,1.78 0,1.82 -1.53,2.99 -3.31,2.99 -3.49,0 -5.05,-4.77 -5.05,-5.33 0,-0.45 0.48,-0.45 0.59,-0.45 0.49,0 0.52,0.17 0.63,0.56 0.83,2.86 2.37,4.25 3.72,4.25 0.59,0 0.87,-0.39 0.87,-1.22 0,-0.8 -0.28,-1.53 -0.62,-2.33 -1.88,-4.81 -1.88,-5.83 -1.88,-6.76 0,-0.6 0,-2.21 1.28,-3.32 1.02,-0.82 2.38,-1.1 3.6,-1.1 2.19,0 3.37,1.18 4.53,2.29 0.76,-2.23 3.09,-2.29 3.51,-2.29 1.19,0 2.1,0.68 2.75,1.84 0.77,1.36 1.25,3.37 1.25,3.48 0,0.46 -0.48,0.46 -0.57,0.46 -0.5,0 -0.53,-0.14 -0.78,-1.08 -0.41,-1.64 -1.08,-3.74 -2.54,-3.74 -0.9,0 -1.15,0.8 -1.15,1.71 0,0.59 0.28,1.86 0.53,2.76 0.23,0.94 0.58,2.36 0.76,3.13 l 0.8,3.11 c 0.2,0.87 0.6,2.4 0.6,2.58 0,0.68 -0.57,1.1 -1.16,1.1 -1.28,0 -1.53,-1.01 -1.81,-2.12 z"
           inkscape:connector-curvature="0"
           style="fill:#000000;stroke-width:1.8509208;stroke-miterlimit:10.43299961;stroke-dasharray:none" /><path
           id="path14559"
           d="m 558.48,402.9 0.05,0 0.05,0 0.06,0 0.05,0 0.11,0.01 0.05,0 0.06,0.01 0.05,0 0.06,0.01 0.05,0.01 0.06,0.01 0.05,0.01 0.05,0.02 0.05,0.01 0.05,0.02 0.05,0.02 0.05,0.03 0.04,0.03 0.05,0.03 0.04,0.03 0.04,0.04 0.03,0.04 0.02,0.02 0.01,0.02 0.02,0.02 0.01,0.03 0.02,0.02 0.01,0.03 0.01,0.03 0.01,0.03 0.01,0.03 0.01,0.03 0.01,0.03 0.01,0.03 0,0.04 0.01,0.03 0,0.04 0,0.04 0.01,0.04 0,0.04 c 0,0.84 -0.83,0.84 -1.28,0.84 h -23.07 c -0.45,0 -1.29,0 -1.29,-0.84 0,-0.88 0.79,-0.88 1.32,-0.88 z"
           inkscape:connector-curvature="0"
           style="fill:#000000;stroke-width:1.8509208;stroke-miterlimit:10.43299961;stroke-dasharray:none" /><path
           id="path14561"
           d="m 558.52,395.25 0.04,0 0.05,0 0.04,0 0.05,0 0.05,0 0.05,0 0.05,0 0.06,0.01 0.05,0 0.05,0.01 0.06,0.01 0.05,0.01 0.05,0.01 0.06,0.02 0.05,0.01 0.05,0.02 0.05,0.02 0.04,0.02 0.05,0.03 0.04,0.03 0.04,0.03 0.04,0.04 0.04,0.03 0.01,0.02 0.02,0.03 0.02,0.02 0.01,0.02 0.01,0.02 0.02,0.03 0.01,0.03 0.01,0.02 0.01,0.03 0.01,0.03 0.01,0.03 0.01,0.03 0,0.03 0.01,0.04 0,0.03 0,0.04 0.01,0.04 0,0.03 c 0,0.88 -0.8,0.88 -1.32,0.88 h -23 c -0.53,0 -1.32,0 -1.32,-0.88 0,-0.82 0.84,-0.82 1.29,-0.82 z"
           inkscape:connector-curvature="0"
           style="fill:#000000;stroke-width:1.8509208;stroke-miterlimit:10.43299961;stroke-dasharray:none" /><path
           id="path14563"
           d="m 580.3,402.31 0,0.71 -0.02,0.68 -0.03,0.66 -0.04,0.64 -0.06,0.62 -0.08,0.59 -0.09,0.58 -0.11,0.56 -0.12,0.55 -0.15,0.52 -0.17,0.52 -0.19,0.5 -0.21,0.49 -0.24,0.48 -0.26,0.47 -0.14,0.23 -0.15,0.23 c -1.08,1.61 -3.24,3 -6.03,3 -8.08,0 -8.08,-9.52 -8.08,-12.03 0,-2.5 0,-11.81 8.08,-11.81 v 0.98 c -1.6,0 -3.72,0.94 -4.43,3.8 -0.48,2.04 -0.48,4.9 -0.48,7.48 0,2.55 0,5.2 0.52,7.11 0.73,2.75 2.96,3.49 4.39,3.49 1.89,0 3.7,-1.15 4.32,-3.18 0.57,-1.87 0.6,-4.39 0.6,-7.42 0,-2.58 0,-5.15 -0.45,-7.34 -0.71,-3.17 -3.07,-3.94 -4.47,-3.94 h 0 v -0.98 c 8.09,0 8.09,9.31 8.09,11.81 z"
           inkscape:connector-curvature="0"
           style="fill:#000000;stroke-width:1.8509208;stroke-miterlimit:10.43299961;stroke-dasharray:none" /><path
           id="path14565"
           d="m 628.63,424.98 0.01,0.06 0.01,0.05 0.01,0.05 0.01,0.06 0.02,0.1 0.02,0.05 0.01,0.06 0.01,0.05 0.01,0.06 0.01,0.05 0,0.06 0.01,0.06 0.01,0.06 0,0.03 0,0.03 0,0.03 0,0.03 c 0,0.86 -0.59,1.36 -1.44,1.36 -0.5,0 -1.84,-0.36 -2.05,-2.16 -0.88,1.85 -2.63,3.14 -4.62,3.14 l 0.05,-1.09 c 3.28,0 3.98,-4.03 3.98,-4.28 0,-0.25 -0.09,-0.55 -0.16,-0.75 l -2.38,-9.52 c -0.3,-1.29 -1.44,-2.53 -2.54,-3.48 -1.04,-0.89 -2.59,-1.8 -4.04,-1.8 -2.49,0 -3.24,2.6 -3.24,4.58 0,2.41 1.45,8.28 2.8,10.81 1.34,2.46 3.48,4.44 5.58,4.44 l -0.05,1.09 c -5.69,0 -11.86,-6.96 -11.86,-14.14 0,-4.93 3.03,-7.87 6.63,-7.87 2.93,0 5.28,2.34 5.78,2.89 l 0.04,-0.05 c -1.04,-4.43 -1.64,-6.48 -1.64,-6.58 -0.2,-0.45 -1.89,-5.39 -7.17,-5.39 -0.95,0 -2.59,0.07 -4,0.5 1.5,0.46 2.05,1.75 2.05,2.6 0,0.79 -0.55,1.75 -1.89,1.75 -1.1,0 -2.69,-0.91 -2.69,-2.89 0,-2.05 1.84,-3.05 6.62,-3.05 6.22,0 9.82,3.89 10.57,6.88 z"
           inkscape:connector-curvature="0"
           style="fill:#000000;stroke-width:1.8509208;stroke-miterlimit:10.43299961;stroke-dasharray:none" /><path
           id="path14567"
           d="m 649.3,425.03 -0.09,0.17 -0.09,0.17 -0.09,0.16 -0.09,0.16 -0.1,0.16 -0.1,0.16 -0.11,0.15 -0.11,0.14 -0.11,0.15 -0.12,0.13 -0.12,0.14 -0.12,0.13 -0.13,0.12 -0.13,0.12 -0.14,0.11 -0.14,0.11 -0.14,0.11 -0.15,0.09 -0.15,0.1 -0.16,0.08 -0.16,0.08 -0.16,0.08 -0.17,0.06 -0.17,0.07 -0.17,0.05 -0.19,0.05 -0.18,0.04 -0.19,0.03 -0.19,0.03 -0.2,0.02 -0.2,0.01 -0.21,0 0.05,-1.09 c 3.23,0 3.93,-4.08 3.93,-4.37 0,-0.32 -0.09,-0.61 -0.14,-0.86 l -2.5,-9.77 c -0.25,-0.89 -0.25,-0.98 -1,-1.84 -2.18,-2.74 -4.23,-3.53 -5.62,-3.53 -2.49,0 -3.19,2.73 -3.19,4.68 0,2.49 1.59,8.61 2.73,10.91 1.55,2.94 3.8,4.78 5.79,4.78 l -0.05,1.09 c -5.83,0 -12,-7.31 -12,-14.59 0,-4.69 2.73,-7.97 6.62,-7.97 0.99,0 3.49,0.21 6.47,3.74 0.41,-2.1 2.14,-3.74 4.53,-3.74 1.75,0 2.89,1.14 3.69,2.74 0.85,1.79 1.5,4.84 1.5,4.93 0,0.5 -0.45,0.5 -0.59,0.5 -0.5,0 -0.55,-0.2 -0.71,-0.9 -0.84,-3.24 -1.75,-6.17 -3.78,-6.17 -1.34,0 -1.5,1.29 -1.5,2.29 0,1.1 0.1,1.49 0.64,3.69 0.57,2.09 0.66,2.59 1.11,4.48 l 1.78,6.97 c 0.36,1.39 0.36,1.5 0.36,1.69 0,0.86 -0.61,1.36 -1.45,1.36 -1.19,0 -1.94,-1.11 -2.09,-2.2 z"
           inkscape:connector-curvature="0"
           style="fill:#000000;stroke-width:1.8509208;stroke-miterlimit:10.43299961;stroke-dasharray:none" /><path
           id="path14569"
           d="m 671.15,437.34 0,0.09 -0.01,0.09 -0.01,0.1 -0.01,0.08 -0.02,0.09 -0.02,0.09 -0.03,0.08 -0.03,0.08 -0.03,0.08 -0.04,0.08 -0.04,0.08 -0.04,0.07 -0.05,0.07 -0.05,0.07 -0.05,0.06 -0.06,0.06 -0.06,0.06 -0.07,0.06 -0.07,0.05 -0.07,0.05 -0.07,0.05 -0.08,0.04 -0.08,0.04 -0.08,0.04 -0.09,0.03 -0.09,0.03 -0.09,0.02 -0.09,0.02 -0.1,0.02 -0.1,0.01 -0.11,0 -0.1,0.01 c -1.36,0 -2.71,-1.3 -2.71,-2.64 0,-0.96 0.71,-1.8 1.91,-1.8 1.14,0 2.64,1.14 2.64,2.64 z"
           inkscape:connector-curvature="0"
           style="fill:#000000;stroke-width:1.8509208;stroke-miterlimit:10.43299961;stroke-dasharray:none" /><path
           id="path14571"
           d="m 667.35,418.61 0.06,0.13 0.05,0.12 0.05,0.12 0.04,0.11 0.04,0.1 0.04,0.1 0.04,0.09 0.04,0.09 0.03,0.09 0.03,0.08 0.03,0.08 0.03,0.08 0.03,0.07 0.03,0.07 0.05,0.15 0.05,0.14 0.05,0.14 0.03,0.07 0.02,0.08 0.03,0.08 0.03,0.08 0.03,0.08 0.03,0.09 0.04,0.1 0.03,0.09 0.04,0.11 0.04,0.11 0.04,0.11 0.05,0.13 c 0.4,1 0.65,1.68 0.65,2.64 0,2.23 -1.59,4.07 -4.09,4.07 -4.67,0 -6.58,-7.21 -6.58,-7.67 0,-0.5 0.5,-0.5 0.61,-0.5 0.5,0 0.55,0.11 0.8,0.91 1.34,4.69 3.33,6.17 5.03,6.17 0.39,0 1.25,0 1.25,-1.59 0,-1.05 -0.36,-2.1 -0.56,-2.6 -0.39,-1.29 -2.64,-7.06 -3.44,-9.22 -0.48,-1.28 -1.14,-2.93 -1.14,-3.98 0,-2.33 1.69,-4.08 4.09,-4.08 4.68,0 6.52,7.22 6.52,7.67 0,0.5 -0.44,0.5 -0.59,0.5 -0.5,0 -0.5,-0.15 -0.75,-0.9 -0.9,-3.13 -2.53,-6.17 -5.08,-6.17 -0.85,0 -1.2,0.5 -1.2,1.64 0,1.25 0.31,1.95 1.45,4.98 z"
           inkscape:connector-curvature="0"
           style="fill:#000000;stroke-width:1.8509208;stroke-miterlimit:10.43299961;stroke-dasharray:none" /><path
           id="path14573"
           d="m 678.54,409.14 -0.01,-0.07 -0.02,-0.08 -0.01,-0.07 -0.02,-0.08 -0.04,-0.16 -0.03,-0.16 -0.04,-0.16 -0.04,-0.16 -0.04,-0.16 -0.03,-0.16 -0.02,-0.08 -0.02,-0.07 -0.01,-0.07 -0.02,-0.07 -0.01,-0.07 -0.02,-0.07 -0.01,-0.06 -0.01,-0.06 -0.01,-0.06 -0.01,-0.05 -0.01,-0.05 -0.01,-0.04 0,-0.04 -0.01,-0.04 0,-0.03 0,-0.02 c 0,-0.89 0.7,-1.35 1.44,-1.35 0.61,0 1.5,0.39 1.84,1.39 0.06,0.11 0.66,2.44 0.95,3.69 l 1.1,4.48 c 0.3,1.1 0.59,2.19 0.84,3.35 0.21,0.84 0.61,2.28 0.66,2.48 0.75,1.55 3.39,6.08 8.11,6.08 2.25,0 2.7,-1.84 2.7,-3.48 0,-3.1 -2.45,-9.47 -3.25,-11.61 -0.44,-1.14 -0.48,-1.75 -0.48,-2.3 0,-2.33 1.73,-4.08 4.07,-4.08 4.69,0 6.53,7.27 6.53,7.67 0,0.5 -0.45,0.5 -0.6,0.5 -0.49,0 -0.49,-0.15 -0.74,-0.9 -1,-3.38 -2.64,-6.17 -5.09,-6.17 -0.85,0 -1.19,0.5 -1.19,1.64 0,1.25 0.45,2.45 0.89,3.54 0.95,2.64 3.05,8.11 3.05,10.96 0,3.34 -2.14,5.32 -5.74,5.32 -4.48,0 -6.92,-3.18 -7.76,-4.32 -0.25,2.79 -2.3,4.32 -4.6,4.32 -2.28,0 -3.23,-1.93 -3.73,-2.82 -0.8,-1.71 -1.5,-4.64 -1.5,-4.85 0,-0.5 0.5,-0.5 0.61,-0.5 0.5,0 0.55,0.07 0.84,1.16 0.85,3.53 1.85,5.92 3.64,5.92 0.99,0 1.55,-0.64 1.55,-2.28 0,-1.05 -0.16,-1.61 -0.8,-4.19 z"
           inkscape:connector-curvature="0"
           style="fill:#000000;stroke-width:1.8509208;stroke-miterlimit:10.43299961;stroke-dasharray:none" /><path
           id="path14575"
           d="m 720.52,394.25 0,0.02 -0.01,0.03 0,0.01 0,0.02 0,0.01 -0.01,0.02 0,0.01 -0.01,0.02 -0.01,0.02 -0.01,0.02 -0.01,0.02 -0.01,0.03 -0.02,0.02 -0.02,0.03 -0.02,0.03 -0.02,0.03 -0.03,0.03 -0.03,0.04 -0.02,0.02 -0.01,0.02 -0.02,0.02 -0.02,0.02 -0.02,0.02 -0.02,0.03 -0.02,0.02 -0.02,0.02 -0.02,0.03 -0.03,0.02 -0.02,0.03 -0.03,0.03 -0.02,0.03 -0.03,0.03 -0.03,0.03 -0.03,0.03 -0.03,0.03 -0.03,0.03 -0.04,0.04 -0.03,0.03 -0.03,0.04 -0.04,0.03 -0.04,0.04 -0.04,0.04 c -6.22,6.28 -7.81,15.69 -7.81,23.31 0,8.67 1.89,17.35 8.02,23.56 0.64,0.61 0.64,0.71 0.64,0.86 0,0.35 -0.19,0.49 -0.49,0.49 -0.5,0 -4.98,-3.38 -7.92,-9.7 -2.55,-5.49 -3.14,-11.02 -3.14,-15.21 0,-3.89 0.55,-9.9 3.28,-15.54 2.98,-6.13 7.28,-9.36 7.78,-9.36 0.3,0 0.49,0.14 0.49,0.5 z"
           inkscape:connector-curvature="0"
           style="fill:#000000;stroke-width:1.8509208;stroke-miterlimit:10.43299961;stroke-dasharray:none" /><path
           id="path14577"
           d="m 756.19,439.13 0.16,0 0.16,0 0.15,0.01 0.08,0 0.08,0.01 0.07,0.01 0.08,0 0.07,0.01 0.07,0.02 0.07,0.01 0.07,0.02 0.07,0.02 0.06,0.02 0.06,0.02 0.06,0.03 0.05,0.03 0.06,0.04 0.05,0.04 0.04,0.04 0.04,0.04 0.04,0.05 0.02,0.03 0.02,0.03 0.01,0.03 0.02,0.03 0.01,0.03 0.02,0.03 0.01,0.04 0.01,0.03 0.01,0.04 0,0.04 0.01,0.04 0.01,0.04 0,0.04 0.01,0.04 0,0.05 0,0.04 c 0,1 -0.91,1 -1.75,1 h -26.96 c -0.84,0 -1.73,0 -1.73,-1 0,-1 0.89,-1 1.73,-1 z"
           inkscape:connector-curvature="0"
           style="fill:#000000;stroke-width:1.8509208;stroke-miterlimit:10.43299961;stroke-dasharray:none" /><path
           id="path14579"
           d="m 774.78,439.13 0.16,0 0.16,0 0.16,0.01 0.08,0 0.07,0.01 0.08,0.01 0.07,0 0.08,0.01 0.07,0.02 0.07,0.01 0.07,0.02 0.06,0.02 0.07,0.02 0.06,0.02 0.06,0.03 0.05,0.03 0.05,0.04 0.05,0.04 0.05,0.04 0.04,0.04 0.04,0.05 0.02,0.03 0.02,0.03 0.01,0.03 0.02,0.03 0.01,0.03 0.01,0.03 0.01,0.04 0.01,0.03 0.01,0.04 0.01,0.04 0.01,0.04 0,0.04 0.01,0.04 0,0.04 0,0.05 0,0.04 c 0,1 -0.9,1 -1.75,1 h -26.95 c -0.84,0 -1.73,0 -1.73,-1 0,-1 0.89,-1 1.73,-1 z"
           inkscape:connector-curvature="0"
           style="fill:#000000;stroke-width:1.8509208;stroke-miterlimit:10.43299961;stroke-dasharray:none" /><path
           id="path14581"
           d="m 802.5,439.13 0.16,0 0.16,0 0.16,0.01 0.08,0 0.07,0.01 0.08,0.01 0.07,0 0.08,0.01 0.07,0.02 0.07,0.01 0.07,0.02 0.06,0.02 0.07,0.02 0.06,0.02 0.05,0.03 0.06,0.03 0.05,0.04 0.05,0.04 0.05,0.04 0.04,0.04 0.04,0.05 0.02,0.03 0.01,0.03 0.02,0.03 0.01,0.03 0.02,0.03 0.01,0.03 0.01,0.04 0.01,0.03 0.01,0.04 0.01,0.04 0.01,0.04 0,0.04 0.01,0.04 0,0.04 0,0.05 0,0.04 c 0,1 -0.9,1 -1.75,1 h -26.95 c -0.84,0 -1.73,0 -1.73,-1 0,-1 0.89,-1 1.73,-1 z"
           inkscape:connector-curvature="0"
           style="fill:#000000;stroke-width:1.8509208;stroke-miterlimit:10.43299961;stroke-dasharray:none" /><path
           id="path14583"
           d="m 829.58,439.13 -0.25,-0.19 -0.24,-0.2 -0.24,-0.19 -0.23,-0.2 -0.22,-0.19 -0.21,-0.19 -0.21,-0.19 -0.19,-0.19 -0.2,-0.18 -0.18,-0.18 -0.17,-0.18 -0.17,-0.18 -0.16,-0.17 -0.16,-0.17 -0.14,-0.17 -0.14,-0.16 -0.14,-0.15 -0.12,-0.16 -0.12,-0.15 -0.12,-0.14 -0.1,-0.14 -0.1,-0.13 -0.1,-0.13 -0.08,-0.12 -0.09,-0.11 -0.07,-0.11 -0.07,-0.1 -0.06,-0.1 -0.06,-0.09 -0.05,-0.08 -0.05,-0.07 -0.04,-0.07 c -2.24,-3.44 -2.64,-6.58 -2.64,-6.62 0,-0.6 0.61,-0.6 1,-0.6 0.84,0 0.89,0.1 1.09,1 1.16,4.88 4.1,9.07 9.72,11.36 0.59,0.19 0.75,0.3 0.75,0.64 0,0.35 -0.3,0.5 -0.41,0.55 -2.18,0.84 -8.21,3.34 -10.11,11.72 -0.15,0.59 -0.2,0.73 -1.04,0.73 -0.39,0 -1,0 -1,-0.59 0,-0.09 0.45,-3.24 2.54,-6.58 1,-1.48 2.44,-3.23 4.58,-4.83 h -37.01 c -0.89,0 -1.8,0 -1.8,-1 0,-1 0.91,-1 1.8,-1 z"
           inkscape:connector-curvature="0"
           style="fill:#000000;stroke-width:1.8509208;stroke-miterlimit:10.43299961;stroke-dasharray:none" /><path
           id="path14585"
           d="m 727.75,409.14 -0.02,-0.07 -0.01,-0.08 -0.02,-0.07 -0.01,-0.08 -0.04,-0.16 -0.04,-0.16 -0.03,-0.16 -0.04,-0.16 -0.04,-0.16 -0.04,-0.16 -0.01,-0.08 -0.02,-0.07 -0.02,-0.07 -0.01,-0.07 -0.02,-0.07 -0.01,-0.07 -0.01,-0.06 -0.01,-0.06 -0.01,-0.06 -0.01,-0.05 -0.01,-0.05 -0.01,-0.04 -0.01,-0.04 0,-0.04 0,-0.03 0,-0.02 c 0,-0.89 0.7,-1.35 1.43,-1.35 0.61,0 1.5,0.39 1.85,1.39 0.11,0.21 1.8,6.99 2,7.88 0.39,1.64 1.3,5.12 1.59,6.48 0.21,0.64 1.6,2.99 2.78,4.08 0.41,0.34 1.85,1.64 4,1.64 1.28,0 2.03,-0.59 2.08,-0.59 -1.48,-0.25 -2.58,-1.46 -2.58,-2.74 0,-0.79 0.55,-1.75 1.89,-1.75 1.35,0 2.74,1.14 2.74,2.94 0,1.75 -1.6,3.23 -4.13,3.23 -3.25,0 -5.43,-2.43 -6.39,-3.82 -0.39,2.23 -2.18,3.82 -4.53,3.82 -2.28,0 -3.23,-1.93 -3.69,-2.82 -0.89,-1.71 -1.54,-4.69 -1.54,-4.85 0,-0.5 0.5,-0.5 0.61,-0.5 0.5,0 0.54,0.07 0.84,1.16 0.84,3.53 1.84,5.92 3.64,5.92 0.84,0 1.55,-0.39 1.55,-2.28 0,-1.05 -0.16,-1.61 -0.8,-4.19 z"
           inkscape:connector-curvature="0"
           style="fill:#000000;stroke-width:1.8509208;stroke-miterlimit:10.43299961;stroke-dasharray:none" /><path
           id="path14587"
           d="m 757.1,420.54 0,0.05 -0.01,0.06 0,0.05 -0.01,0.06 -0.01,0.05 -0.02,0.06 -0.01,0.05 -0.02,0.06 -0.03,0.06 -0.02,0.05 -0.03,0.06 -0.03,0.05 -0.03,0.06 -0.04,0.05 -0.03,0.05 -0.05,0.05 -0.04,0.05 -0.05,0.05 -0.05,0.04 -0.05,0.05 -0.06,0.04 -0.06,0.03 -0.06,0.04 -0.06,0.03 -0.07,0.03 -0.07,0.03 -0.08,0.02 -0.08,0.02 -0.08,0.01 -0.08,0.01 -0.09,0.01 -0.09,0 c -0.94,0 -1.95,-0.91 -1.95,-1.92 0,-0.59 0.45,-1.33 1.41,-1.33 1,0 1.95,0.99 1.95,1.92 z"
           inkscape:connector-curvature="0"
           style="fill:#000000;stroke-width:1.8509208;stroke-miterlimit:10.43299961;stroke-dasharray:none" /><path
           id="path14589"
           d="m 749.99,402.84 -0.06,-0.17 -0.05,-0.17 -0.03,-0.08 -0.02,-0.09 -0.03,-0.08 -0.02,-0.09 -0.02,-0.09 -0.02,-0.09 -0.02,-0.1 -0.01,-0.09 -0.02,-0.1 0,-0.05 -0.01,-0.05 0,-0.06 0,-0.05 0,-0.05 0,-0.06 c 0,-1.64 1.39,-2.95 3.29,-2.95 3.49,0 5.03,4.79 5.03,5.33 0,0.45 -0.45,0.45 -0.56,0.45 -0.48,0 -0.53,-0.2 -0.67,-0.59 -0.8,-2.79 -2.33,-4.22 -3.69,-4.22 -0.7,0 -0.87,0.45 -0.87,1.22 0,0.79 0.25,1.46 0.56,2.23 0.34,0.94 0.73,1.87 1.11,2.78 0.31,0.84 1.58,4.02 1.72,4.44 0.09,0.34 0.2,0.76 0.2,1.11 0,1.64 -1.39,2.95 -3.31,2.95 -3.46,0 -5.05,-4.73 -5.05,-5.33 0,-0.45 0.49,-0.45 0.59,-0.45 0.49,0 0.52,0.17 0.63,0.56 0.91,3 2.44,4.25 3.72,4.25 0.56,0 0.87,-0.28 0.87,-1.22 0,-0.79 -0.2,-1.32 -1.07,-3.48 z"
           inkscape:connector-curvature="0"
           style="fill:#000000;stroke-width:1.8509208;stroke-miterlimit:10.43299961;stroke-dasharray:none" /><path
           id="path14591"
           d="m 767.2,399.32 -0.01,-0.36 -0.01,-0.37 -0.03,-0.38 -0.04,-0.38 -0.03,-0.19 -0.04,-0.2 -0.03,-0.2 -0.05,-0.19 -0.05,-0.2 -0.05,-0.2 -0.07,-0.2 -0.07,-0.2 -0.07,-0.2 -0.08,-0.21 -0.09,-0.2 -0.1,-0.21 -0.11,-0.2 -0.11,-0.21 -0.13,-0.2 -0.13,-0.21 -0.14,-0.21 -0.15,-0.2 -0.16,-0.21 -0.18,-0.21 -0.18,-0.21 -0.19,-0.2 -0.2,-0.21 -0.22,-0.21 c -0.14,-0.14 -0.25,-0.25 -0.25,-0.42 0,-0.25 0.28,-0.49 0.49,-0.49 0.48,0 3.45,2.78 3.45,6.92 0,2.18 -0.85,3.8 -2.44,3.8 -1.16,0 -1.98,-0.9 -1.98,-1.98 0,-1.11 0.79,-2.02 2.01,-2.02 0.84,0 1.39,0.56 1.44,0.56 z"
           inkscape:connector-curvature="0"
           style="fill:#000000;stroke-width:1.8509208;stroke-miterlimit:10.43299961;stroke-dasharray:none" /><path
           id="path14593"
           d="m 786.45,404.4 -0.01,-0.06 -0.02,-0.07 -0.02,-0.08 -0.02,-0.07 -0.02,-0.08 -0.02,-0.08 -0.02,-0.08 -0.02,-0.08 -0.04,-0.17 -0.04,-0.17 -0.04,-0.17 -0.02,-0.08 -0.02,-0.08 -0.02,-0.08 -0.02,-0.07 -0.02,-0.07 -0.02,-0.07 -0.02,-0.07 -0.01,-0.06 -0.02,-0.06 -0.02,-0.06 -0.01,-0.05 -0.01,-0.04 -0.02,-0.04 -0.01,-0.04 0,-0.01 -0.01,-0.01 0,-0.01 -0.01,-0.01 0,-0.01 -0.01,-0.01 0,0 0,0 c -0.68,-1.08 -2.07,-2.97 -4.22,-2.97 -2.41,0 -2.41,2.26 -2.41,2.89 0,2.06 0.97,4.53 1.95,7.08 0.29,0.7 0.49,1.21 0.49,1.78 0,1.81 -1.53,2.98 -3.31,2.98 -3.49,0 -5.05,-4.76 -5.05,-5.33 0,-0.45 0.48,-0.45 0.59,-0.45 0.49,0 0.52,0.17 0.63,0.56 0.83,2.86 2.37,4.25 3.72,4.25 0.59,0 0.87,-0.39 0.87,-1.22 0,-0.79 -0.28,-1.53 -0.62,-2.32 -1.88,-4.82 -1.88,-5.83 -1.88,-6.77 0,-0.59 0,-2.2 1.28,-3.31 1.02,-0.83 2.38,-1.11 3.6,-1.11 2.18,0 3.37,1.19 4.53,2.29 0.76,-2.23 3.09,-2.29 3.51,-2.29 1.19,0 2.1,0.69 2.75,1.84 0.77,1.36 1.25,3.38 1.25,3.49 0,0.45 -0.48,0.45 -0.57,0.45 -0.5,0 -0.54,-0.14 -0.79,-1.08 -0.4,-1.64 -1.07,-3.73 -2.53,-3.73 -0.9,0 -1.15,0.79 -1.15,1.7 0,0.59 0.28,1.86 0.53,2.77 0.23,0.93 0.58,2.35 0.76,3.12 l 0.8,3.11 c 0.2,0.87 0.59,2.41 0.59,2.58 0,0.69 -0.56,1.11 -1.15,1.11 -1.28,0 -1.53,-1.02 -1.81,-2.13 z"
           inkscape:connector-curvature="0"
           style="fill:#000000;stroke-width:1.8509208;stroke-miterlimit:10.43299961;stroke-dasharray:none" /><path
           id="path14595"
           d="m 817.48,424.84 -0.13,-0.01 -0.12,-0.01 -0.13,-0.02 -0.12,-0.03 -0.12,-0.03 -0.12,-0.04 -0.11,-0.04 -0.11,-0.04 -0.11,-0.05 -0.1,-0.06 -0.1,-0.06 -0.1,-0.06 -0.09,-0.07 -0.09,-0.07 -0.09,-0.07 -0.08,-0.08 -0.08,-0.08 -0.07,-0.08 -0.07,-0.09 -0.06,-0.08 -0.06,-0.09 -0.05,-0.1 -0.05,-0.09 -0.05,-0.1 -0.04,-0.09 -0.04,-0.1 -0.03,-0.1 -0.02,-0.1 -0.02,-0.1 -0.01,-0.11 -0.01,-0.1 -0.01,-0.1 c 0,-0.7 0.44,-1.44 1.55,-1.44 1.09,0 2.28,0.85 2.28,2.78 0,2.25 -2.14,4.28 -5.92,4.28 -6.58,0 -8.42,-5.07 -8.42,-7.26 0,-3.89 3.69,-4.64 5.12,-4.94 2.6,-0.5 5.19,-1.05 5.19,-3.78 0,-1.3 -1.14,-5.48 -7.12,-5.48 -0.71,0 -4.54,0 -5.69,2.64 1.9,-0.25 3.14,1.25 3.14,2.64 0,1.14 -0.8,1.75 -1.84,1.75 -1.3,0 -2.79,-1.05 -2.79,-3.3 0,-2.84 2.85,-4.83 7.13,-4.83 8.06,0 10.01,6.03 10.01,8.27 0,1.79 -0.95,3.04 -1.54,3.64 -1.35,1.39 -2.8,1.64 -4.99,2.09 -1.79,0.39 -3.78,0.75 -3.78,2.99 0,1.45 1.19,4.48 5.58,4.48 1.23,0 3.73,-0.34 4.48,-2.28 z"
           inkscape:connector-curvature="0"
           style="fill:#000000;stroke-width:1.8509208;stroke-miterlimit:10.43299961;stroke-dasharray:none" /><path
           id="path14597"
           d="m 832.7,420.54 -0.01,0.05 0,0.06 -0.01,0.05 -0.01,0.06 -0.01,0.05 -0.01,0.06 -0.02,0.05 -0.02,0.06 -0.02,0.06 -0.02,0.05 -0.03,0.06 -0.03,0.05 -0.03,0.06 -0.04,0.05 -0.04,0.05 -0.04,0.05 -0.04,0.05 -0.05,0.05 -0.05,0.04 -0.05,0.05 -0.06,0.04 -0.06,0.03 -0.06,0.04 -0.07,0.03 -0.06,0.03 -0.08,0.03 -0.07,0.02 -0.08,0.02 -0.08,0.01 -0.08,0.01 -0.09,0.01 -0.09,0 c -0.94,0 -1.95,-0.91 -1.95,-1.92 0,-0.59 0.45,-1.33 1.4,-1.33 1,0 1.96,0.99 1.96,1.92 z"
           inkscape:connector-curvature="0"
           style="fill:#000000;stroke-width:1.8509208;stroke-miterlimit:10.43299961;stroke-dasharray:none" /><path
           id="path14599"
           d="m 825.59,402.84 -0.06,-0.17 -0.05,-0.17 -0.03,-0.08 -0.02,-0.09 -0.03,-0.08 -0.02,-0.09 -0.03,-0.09 -0.02,-0.09 -0.01,-0.1 -0.02,-0.09 -0.01,-0.1 -0.01,-0.05 0,-0.05 0,-0.06 -0.01,-0.05 0,-0.05 0,-0.06 c 0,-1.64 1.39,-2.95 3.3,-2.95 3.48,0 5.03,4.79 5.03,5.33 0,0.45 -0.45,0.45 -0.56,0.45 -0.49,0 -0.53,-0.2 -0.67,-0.59 -0.8,-2.79 -2.33,-4.22 -3.69,-4.22 -0.7,0 -0.88,0.45 -0.88,1.22 0,0.79 0.25,1.46 0.57,2.23 0.34,0.94 0.73,1.87 1.11,2.78 0.31,0.84 1.57,4.02 1.72,4.44 0.09,0.34 0.2,0.76 0.2,1.11 0,1.64 -1.39,2.95 -3.31,2.95 -3.46,0 -5.05,-4.73 -5.05,-5.33 0,-0.45 0.48,-0.45 0.59,-0.45 0.49,0 0.52,0.17 0.63,0.56 0.9,3 2.44,4.25 3.72,4.25 0.56,0 0.87,-0.28 0.87,-1.22 0,-0.79 -0.2,-1.32 -1.08,-3.48 z"
           inkscape:connector-curvature="0"
           style="fill:#000000;stroke-width:1.8509208;stroke-miterlimit:10.43299961;stroke-dasharray:none" /><path
           id="path14601"
           d="m 852.35,418.65 0,0.37 0,0.39 -0.01,0.39 -0.02,0.41 -0.04,0.84 -0.06,0.88 -0.08,0.92 -0.11,0.95 -0.13,0.97 -0.16,1.01 -0.2,1.02 -0.23,1.03 -0.27,1.05 -0.3,1.06 -0.35,1.07 -0.39,1.07 -0.22,0.53 -0.22,0.53 -0.24,0.53 -0.25,0.53 c -2.98,6.12 -7.27,9.36 -7.77,9.36 -0.29,0 -0.5,-0.19 -0.5,-0.49 0,-0.15 0,-0.25 0.94,-1.15 4.89,-4.92 7.74,-12.85 7.74,-23.27 0,-8.51 -1.85,-17.28 -8.03,-23.56 -0.65,-0.59 -0.65,-0.7 -0.65,-0.84 0,-0.3 0.21,-0.5 0.5,-0.5 0.5,0 4.97,3.39 7.93,9.71 2.53,5.47 3.12,11 3.12,15.19 z"
           inkscape:connector-curvature="0"
           style="fill:#000000;stroke-width:1.8509208;stroke-miterlimit:10.43299961;stroke-dasharray:none" /></g>    </g>
  </g>
</svg>
