<?xml version="1.0" encoding="UTF-8" standalone="no"?>
<!-- Created with Inkscape (http://www.inkscape.org/) -->

<svg
   xmlns:osb="http://www.openswatchbook.org/uri/2009/osb"
   xmlns:dc="http://purl.org/dc/elements/1.1/"
   xmlns:cc="http://creativecommons.org/ns#"
   xmlns:rdf="http://www.w3.org/1999/02/22-rdf-syntax-ns#"
   xmlns:svg="http://www.w3.org/2000/svg"
   xmlns="http://www.w3.org/2000/svg"
   xmlns:xlink="http://www.w3.org/1999/xlink"
   xmlns:sodipodi="http://sodipodi.sourceforge.net/DTD/sodipodi-0.dtd"
   xmlns:inkscape="http://www.inkscape.org/namespaces/inkscape"
   sodipodi:docname="PAP_step3_2.svg"
   inkscape:version="0.48.4 r9939"
   version="1.1"
   id="svg2"
   height="1422.0428"
   width="3173.3669"
   inkscape:export-filename="/home/carli/Dokumente/TUD/CUDA/projekt/git/octrace/paper/graphics/PAP_step3_2.png"
   inkscape:export-xdpi="90"
   inkscape:export-ydpi="90">
  <sodipodi:namedview
     id="base"
     pagecolor="#ffffff"
     bordercolor="#666666"
     borderopacity="1.0"
     inkscape:pageopacity="0.0"
     inkscape:pageshadow="2"
     inkscape:zoom="0.7331474"
     inkscape:cx="1056.9556"
     inkscape:cy="905.95032"
     inkscape:document-units="px"
     inkscape:current-layer="layer2"
     showgrid="false"
     inkscape:object-paths="true"
     inkscape:object-nodes="true"
     inkscape:snap-smooth-nodes="true"
     inkscape:snap-midpoints="true"
     inkscape:window-width="1598"
     inkscape:window-height="879"
     inkscape:window-x="0"
     inkscape:window-y="19"
     inkscape:window-maximized="0"
     showguides="false"
     inkscape:guide-bbox="true"
     fit-margin-left="100"
     fit-margin-right="100"
     fit-margin-bottom="100"
     fit-margin-top="100"
     inkscape:snap-nodes="true"
     inkscape:snap-intersection-paths="true"
     inkscape:snap-global="false">
    <sodipodi:guide
       orientation="1,0"
       position="613.88604,1439.6695"
       id="guide18565" />
    <sodipodi:guide
       orientation="1,0"
       position="1215.3309,1385.248"
       id="guide19566" />
    <sodipodi:guide
       orientation="1,0"
       position="196.78395,1118.0488"
       id="guide19574" />
    <sodipodi:guide
       orientation="1,0"
       position="263.95258,771.44863"
       id="guide19578" />
    <sodipodi:guide
       orientation="1,0"
       position="664.03906,1435.0882"
       id="guide19580" />
    <sodipodi:guide
       orientation="1,0"
       position="382.87477,937.44868"
       id="guide20384" />
  </sodipodi:namedview>
  <defs
     id="defs4">
    <linearGradient
       inkscape:collect="always"
       id="linearGradient5561">
      <stop
         style="stop-color:#ffffff;stop-opacity:1;"
         offset="0"
         id="stop5563" />
      <stop
         style="stop-color:#ffffff;stop-opacity:0;"
         offset="1"
         id="stop5565" />
    </linearGradient>
    <linearGradient
       inkscape:collect="always"
       id="linearGradient20506">
      <stop
         style="stop-color:#000000;stop-opacity:1;"
         offset="0"
         id="stop20508" />
      <stop
         style="stop-color:#000000;stop-opacity:0;"
         offset="1"
         id="stop20510" />
    </linearGradient>
    <linearGradient
       inkscape:collect="always"
       id="linearGradient20486">
      <stop
         style="stop-color:#f1d5d6;stop-opacity:1;"
         offset="0"
         id="stop20488" />
      <stop
         style="stop-color:#f1d5d6;stop-opacity:0;"
         offset="1"
         id="stop20490" />
    </linearGradient>
    <linearGradient
       inkscape:collect="always"
       id="linearGradient20478">
      <stop
         style="stop-color:#000000;stop-opacity:1;"
         offset="0"
         id="stop20480" />
      <stop
         style="stop-color:#000000;stop-opacity:0;"
         offset="1"
         id="stop20482" />
    </linearGradient>
    <linearGradient
       id="linearGradient20426">
      <stop
         id="stop31810"
         offset="0"
         style="stop-color:#000000;stop-opacity:1;" />
      <stop
         style="stop-color:#000000;stop-opacity:0.11965812;"
         offset="0.45035729"
         id="stop31812" />
      <stop
         style="stop-color:#000000;stop-opacity:0.11111111;"
         offset="1"
         id="stop20430" />
    </linearGradient>
    <marker
       inkscape:stockid="TriangleOutM"
       orient="auto"
       refY="0"
       refX="0"
       id="TriangleOutM"
       style="overflow:visible">
      <path
         id="path4507"
         d="m 5.77,0 -8.65,5 0,-10 8.65,5 z"
         style="fill-rule:evenodd;stroke:#000000;stroke-width:1pt"
         transform="scale(0.4,0.4)"
         inkscape:connector-curvature="0" />
    </marker>
    <linearGradient
       id="linearGradient11392">
      <stop
         id="stop11394"
         offset="0"
         style="stop-color:#000000;stop-opacity:1;" />
      <stop
         id="stop11396"
         offset="1"
         style="stop-color:#000000;stop-opacity:0.14655173;" />
    </linearGradient>
    <marker
       style="overflow:visible"
       id="TriangleOutS"
       refX="0"
       refY="0"
       orient="auto"
       inkscape:stockid="TriangleOutS">
      <path
         transform="scale(0.2,0.2)"
         style="fill-rule:evenodd;stroke:#000000;stroke-width:1pt"
         d="m 5.77,0 -8.65,5 0,-10 8.65,5 z"
         id="path4510"
         inkscape:connector-curvature="0" />
    </marker>
    <marker
       style="overflow:visible"
       id="Arrow1Send"
       refX="0"
       refY="0"
       orient="auto"
       inkscape:stockid="Arrow1Send">
      <path
         transform="matrix(-0.2,0,0,-0.2,-1.2,0)"
         style="fill-rule:evenodd;stroke:#000000;stroke-width:1pt"
         d="M 0,0 5,-5 -12.5,0 5,5 0,0 z"
         id="path4377"
         inkscape:connector-curvature="0" />
    </marker>
    <marker
       style="overflow:visible"
       id="Arrow1Mend"
       refX="0"
       refY="0"
       orient="auto"
       inkscape:stockid="Arrow1Mend">
      <path
         inkscape:connector-curvature="0"
         transform="matrix(-0.4,0,0,-0.4,-4,0)"
         style="fill-rule:evenodd;stroke:#000000;stroke-width:1pt"
         d="M 0,0 5,-5 -12.5,0 5,5 0,0 z"
         id="path4371" />
    </marker>
    <marker
       style="overflow:visible"
       id="Arrow2Mend"
       refX="0"
       refY="0"
       orient="auto"
       inkscape:stockid="Arrow2Mend">
      <path
         inkscape:connector-curvature="0"
         transform="scale(-0.6,-0.6)"
         d="M 8.7185878,4.0337352 -2.2072895,0.01601326 8.7185884,-4.0017078 c -1.7454984,2.3720609 -1.7354408,5.6174519 -6e-7,8.035443 z"
         style="fill-rule:evenodd;stroke-width:0.625;stroke-linejoin:round"
         id="path4389" />
    </marker>
    <marker
       style="overflow:visible"
       id="EmptyTriangleInL"
       refX="0"
       refY="0"
       orient="auto"
       inkscape:stockid="EmptyTriangleInL">
      <path
         inkscape:connector-curvature="0"
         transform="matrix(-0.8,0,0,-0.8,4.8,0)"
         style="fill:#ffffff;fill-rule:evenodd;stroke:#000000;stroke-width:1pt"
         d="m 5.77,0 -8.65,5 0,-10 8.65,5 z"
         id="path4513" />
    </marker>
    <marker
       style="overflow:visible"
       id="Arrow2Lend"
       refX="0"
       refY="0"
       orient="auto"
       inkscape:stockid="Arrow2Lend">
      <path
         inkscape:connector-curvature="0"
         transform="matrix(-1.1,0,0,-1.1,-1.1,0)"
         d="M 8.7185878,4.0337352 -2.2072895,0.01601326 8.7185884,-4.0017078 c -1.7454984,2.3720609 -1.7354408,5.6174519 -6e-7,8.035443 z"
         style="fill-rule:evenodd;stroke-width:0.625;stroke-linejoin:round"
         id="path4383" />
    </marker>
    <linearGradient
       osb:paint="solid"
       id="linearGradient4283">
      <stop
         id="stop4285"
         offset="0"
         style="stop-color:#000000;stop-opacity:1;" />
    </linearGradient>
    <marker
       style="overflow:visible"
       id="Arrow1Lend"
       refX="0"
       refY="0"
       orient="auto"
       inkscape:stockid="Arrow1Lend">
      <path
         inkscape:connector-curvature="0"
         transform="matrix(-0.8,0,0,-0.8,-10,0)"
         style="fill-rule:evenodd;stroke:#000000;stroke-width:1pt"
         d="M 0,0 5,-5 -12.5,0 5,5 0,0 z"
         id="path3820" />
    </marker>
    <linearGradient
       inkscape:collect="always"
       xlink:href="#linearGradient20478"
       id="linearGradient20484"
       x1="449.93042"
       y1="562.05096"
       x2="650.06024"
       y2="563.41492"
       gradientUnits="userSpaceOnUse" />
    <linearGradient
       inkscape:collect="always"
       xlink:href="#linearGradient20486"
       id="linearGradient20492"
       x1="449.93042"
       y1="562.05096"
       x2="650.06024"
       y2="563.41492"
       gradientUnits="userSpaceOnUse" />
    <linearGradient
       inkscape:collect="always"
       xlink:href="#linearGradient20506"
       id="linearGradient20512"
       x1="449.93042"
       y1="673.12891"
       x2="650.06024"
       y2="673.12891"
       gradientUnits="userSpaceOnUse" />
    <linearGradient
       inkscape:collect="always"
       xlink:href="#linearGradient20506"
       id="linearGradient20552"
       gradientUnits="userSpaceOnUse"
       x1="449.93042"
       y1="673.12891"
       x2="650.06024"
       y2="673.12891" />
    <linearGradient
       inkscape:collect="always"
       xlink:href="#linearGradient20506"
       id="linearGradient20554"
       gradientUnits="userSpaceOnUse"
       x1="449.93042"
       y1="673.12891"
       x2="650.06024"
       y2="673.12891" />
    <linearGradient
       inkscape:collect="always"
       xlink:href="#linearGradient20506"
       id="linearGradient20556"
       gradientUnits="userSpaceOnUse"
       x1="449.93042"
       y1="673.12891"
       x2="650.06024"
       y2="673.12891" />
    <linearGradient
       inkscape:collect="always"
       xlink:href="#linearGradient20506"
       id="linearGradient20564"
       gradientUnits="userSpaceOnUse"
       x1="449.93042"
       y1="673.12891"
       x2="650.06024"
       y2="673.12891" />
    <linearGradient
       inkscape:collect="always"
       xlink:href="#linearGradient20506"
       id="linearGradient20566"
       gradientUnits="userSpaceOnUse"
       x1="449.93042"
       y1="673.12891"
       x2="650.06024"
       y2="673.12891" />
    <linearGradient
       inkscape:collect="always"
       xlink:href="#linearGradient20506"
       id="linearGradient20568"
       gradientUnits="userSpaceOnUse"
       x1="449.93042"
       y1="673.12891"
       x2="650.06024"
       y2="673.12891" />
    <linearGradient
       inkscape:collect="always"
       xlink:href="#linearGradient20506"
       id="linearGradient20578"
       gradientUnits="userSpaceOnUse"
       x1="449.93042"
       y1="673.12891"
       x2="650.06024"
       y2="673.12891" />
    <linearGradient
       inkscape:collect="always"
       xlink:href="#linearGradient20506"
       id="linearGradient20580"
       gradientUnits="userSpaceOnUse"
       x1="449.93042"
       y1="673.12891"
       x2="650.06024"
       y2="673.12891" />
    <linearGradient
       inkscape:collect="always"
       xlink:href="#linearGradient20506"
       id="linearGradient20583"
       gradientUnits="userSpaceOnUse"
       x1="449.93042"
       y1="673.12891"
       x2="650.06024"
       y2="673.12891" />
    <linearGradient
       inkscape:collect="always"
       xlink:href="#linearGradient20506"
       id="linearGradient20586"
       gradientUnits="userSpaceOnUse"
       x1="449.93042"
       y1="673.12891"
       x2="650.06024"
       y2="673.12891" />
    <linearGradient
       inkscape:collect="always"
       xlink:href="#linearGradient20486"
       id="linearGradient20730"
       gradientUnits="userSpaceOnUse"
       x1="449.93042"
       y1="562.05096"
       x2="650.06024"
       y2="563.41492" />
    <linearGradient
       inkscape:collect="always"
       xlink:href="#linearGradient20478"
       id="linearGradient20732"
       gradientUnits="userSpaceOnUse"
       x1="449.93042"
       y1="562.05096"
       x2="650.06024"
       y2="563.41492" />
    <linearGradient
       inkscape:collect="always"
       xlink:href="#linearGradient20610-7"
       id="linearGradient20750-3"
       gradientUnits="userSpaceOnUse"
       x1="449.93042"
       y1="523.06561"
       x2="650.06024"
       y2="521.70166"
       gradientTransform="translate(0,-68)" />
    <linearGradient
       inkscape:collect="always"
       id="linearGradient20610-7">
      <stop
         style="stop-color:#fffcac;stop-opacity:1;"
         offset="0"
         id="stop20612-7" />
      <stop
         style="stop-color:#fffcac;stop-opacity:0;"
         offset="1"
         id="stop20614-7" />
    </linearGradient>
    <linearGradient
       inkscape:collect="always"
       xlink:href="#linearGradient20506-6"
       id="linearGradient20752-4"
       gradientUnits="userSpaceOnUse"
       x1="449.93042"
       y1="673.12891"
       x2="650.06024"
       y2="673.12891"
       gradientTransform="translate(0,-68)" />
    <linearGradient
       inkscape:collect="always"
       id="linearGradient20506-6">
      <stop
         style="stop-color:#000000;stop-opacity:1;"
         offset="0"
         id="stop20508-8" />
      <stop
         style="stop-color:#000000;stop-opacity:0;"
         offset="1"
         id="stop20510-5" />
    </linearGradient>
    <linearGradient
       inkscape:collect="always"
       xlink:href="#linearGradient5561"
       id="linearGradient5577"
       gradientUnits="userSpaceOnUse"
       gradientTransform="matrix(0.83920207,0,0,0.38713592,-1108.9275,-1075.712)"
       x1="569.46259"
       y1="283.47925"
       x2="569.46252"
       y2="520.45062" />
    <linearGradient
       inkscape:collect="always"
       xlink:href="#linearGradient5561"
       id="linearGradient5579"
       gradientUnits="userSpaceOnUse"
       gradientTransform="matrix(0.83920207,0,0,0.59683412,150.55703,147.78326)"
       x1="569.46252"
       y1="258.56604"
       x2="569.46252"
       y2="520.45062" />
  </defs>
  <metadata
     id="metadata7">
    <rdf:RDF>
      <cc:Work
         rdf:about="">
        <dc:format>image/svg+xml</dc:format>
        <dc:type
           rdf:resource="http://purl.org/dc/dcmitype/StillImage" />
        <dc:title />
      </cc:Work>
    </rdf:RDF>
  </metadata>
  <g
     inkscape:groupmode="layer"
     id="layer6"
     inkscape:label="Boxes"
     style="display:inline"
     transform="translate(163.95563,106.43692)">
    <rect
       ry="0"
       style="fill:#d7e6ff;fill-opacity:1;stroke:#000000;stroke-width:3.78261137;stroke-linecap:butt;stroke-miterlimit:4;stroke-opacity:1;stroke-dasharray:none;stroke-dashoffset:0;display:inline"
       id="rect18554"
       width="827.53027"
       height="667.50751"
       x="32.938602"
       y="197.66737" />
    <rect
       rx="23.102699"
       ry="20.257717"
       style="fill:#fffcac;fill-opacity:1;stroke:#000000;stroke-width:3.92312813;stroke-linecap:butt;stroke-miterlimit:4;stroke-opacity:1;stroke-dasharray:none;stroke-dashoffset:0;display:inline"
       id="rect31857"
       width="762.82709"
       height="46.302315"
       x="97.641846"
       y="426.42511" />
    <rect
       ry="0"
       style="fill:#ffffff;fill-opacity:0.58883248;stroke:#000000;stroke-width:4.69743776;stroke-linecap:butt;stroke-miterlimit:4;stroke-opacity:1;stroke-dasharray:none;stroke-dashoffset:0;display:inline"
       id="rect20672"
       width="762.92407"
       height="69.333778"
       x="97.544838"
       y="244.18484" />
    <rect
       y="535.23059"
       x="97.517838"
       height="50.418022"
       width="762.95105"
       id="rect18585"
       style="fill:#fffcac;fill-opacity:1;stroke:#000000;stroke-width:3.92312813;stroke-linecap:butt;stroke-miterlimit:4;stroke-opacity:1;stroke-dasharray:none;stroke-dashoffset:0;display:inline"
       ry="24.24453"
       rx="23.01487" />
    <text
       xml:space="preserve"
       style="font-size:22px;font-style:normal;font-variant:normal;font-weight:normal;font-stretch:normal;text-align:start;line-height:125%;letter-spacing:0px;word-spacing:0px;writing-mode:lr-tb;text-anchor:start;fill:#000000;fill-opacity:1;stroke:none;font-family:Serif;-inkscape-font-specification:Serif"
       x="683.3551"
       y="925.84222"
       id="text5129"
       sodipodi:linespacing="125%"
       transform="translate(-163.77254,-66.773901)"><tspan
         sodipodi:role="line"
         id="tspan5131"
         x="683.3551"
         y="925.84222" /></text>
    <rect
       y="763.78998"
       x="97.165123"
       height="59.326775"
       width="763.30383"
       id="rect34411"
       style="fill:#ffffff;fill-opacity:0.58883248;stroke:#000000;stroke-width:3.92312813;stroke-linecap:butt;stroke-miterlimit:4;stroke-opacity:1;stroke-dasharray:none;stroke-dashoffset:0;display:inline"
       ry="0" />
  </g>
  <g
     inkscape:groupmode="layer"
     id="layer9"
     inkscape:label="text"
     style="display:inline"
     transform="translate(163.95563,106.43692)">
    <text
       xml:space="preserve"
       style="font-size:22px;font-style:normal;font-variant:normal;font-weight:normal;font-stretch:normal;text-align:start;line-height:125%;letter-spacing:0px;word-spacing:0px;writing-mode:lr-tb;text-anchor:start;fill:#000000;fill-opacity:1;stroke:none;font-family:Serif;-inkscape-font-specification:Serif"
       x="52.377068"
       y="229.97404"
       id="text18556"
       sodipodi:linespacing="125%"><tspan
         sodipodi:role="line"
         x="52.377068"
         y="229.97404"
         id="tspan18560">CalcPhiASE()</tspan></text>
    <text
       xml:space="preserve"
       style="font-size:22px;font-style:normal;font-variant:normal;font-weight:normal;font-stretch:normal;text-align:start;line-height:125%;letter-spacing:0px;word-spacing:0px;writing-mode:lr-tb;text-anchor:start;fill:#000000;fill-opacity:1;stroke:none;font-family:Serif;-inkscape-font-specification:Serif"
       x="112.03043"
       y="272.25632"
       id="text18571"
       sodipodi:linespacing="125%"><tspan
         sodipodi:role="line"
         x="112.03043"
         y="272.25632"
         id="tspan18575">copy mesh to gobal </tspan><tspan
         id="tspan4197"
         sodipodi:role="line"
         x="112.03043"
         y="299.75632">memory of device</tspan></text>
    <text
       xml:space="preserve"
       style="font-size:22px;font-style:normal;font-variant:normal;font-weight:normal;font-stretch:normal;text-align:start;line-height:125%;letter-spacing:0px;word-spacing:0px;writing-mode:lr-tb;text-anchor:start;fill:#000000;fill-opacity:1;stroke:none;font-family:Serif;-inkscape-font-specification:Serif"
       x="119.21812"
       y="455.28296"
       id="text18581"
       sodipodi:linespacing="125%"><tspan
         sodipodi:role="line"
         id="tspan18583"
         x="119.21812"
         y="455.28296">importanceSampling(s<tspan
   id="tspan35318"
   style="font-size:65.00091553%;baseline-shift:sub">i</tspan>)</tspan></text>
    <text
       xml:space="preserve"
       style="font-size:22px;font-style:normal;font-variant:normal;font-weight:normal;font-stretch:normal;text-align:start;line-height:125%;letter-spacing:0px;word-spacing:0px;writing-mode:lr-tb;text-anchor:start;fill:#000000;fill-opacity:1;stroke:none;font-family:Serif;-inkscape-font-specification:Serif"
       x="118.39822"
       y="566.30957"
       id="text18587"
       sodipodi:linespacing="125%"><tspan
         sodipodi:role="line"
         id="tspan18589"
         x="118.39822"
         y="566.30957">calcGainSum(s<tspan
   id="tspan35316"
   style="font-size:65.00091553%;baseline-shift:sub">i</tspan>)</tspan></text>
    <text
       sodipodi:linespacing="125%"
       id="text20758"
       y="353.79898"
       x="229.94237"
       style="font-size:22px;font-style:normal;font-variant:normal;font-weight:bold;font-stretch:normal;text-align:start;line-height:125%;letter-spacing:0px;word-spacing:0px;writing-mode:lr-tb;text-anchor:start;fill:#000000;fill-opacity:1;stroke:none;font-family:Serif;-inkscape-font-specification:Serif Bold"
       xml:space="preserve"><tspan
         y="353.79898"
         x="229.94237"
         sodipodi:role="line"
         id="tspan20762">for each sample</tspan><tspan
         y="381.29898"
         x="229.94237"
         sodipodi:role="line"
         id="tspan34059">point independently</tspan></text>
    <text
       sodipodi:linespacing="125%"
       id="text34413"
       y="802.25629"
       x="114.03043"
       style="font-size:22px;font-style:normal;font-variant:normal;font-weight:normal;font-stretch:normal;text-align:start;line-height:125%;letter-spacing:0px;word-spacing:0px;writing-mode:lr-tb;text-anchor:start;fill:#000000;fill-opacity:1;stroke:none;font-family:Serif;-inkscape-font-specification:Serif"
       xml:space="preserve"><tspan
         id="tspan34415"
         y="802.25629"
         x="114.03043"
         sodipodi:role="line">multiply with constants</tspan></text>
    <text
       sodipodi:linespacing="125%"
       id="text4549"
       y="643.98022"
       x="251.24582"
       style="font-size:22px;font-style:normal;font-variant:normal;font-weight:normal;font-stretch:normal;text-align:start;line-height:125%;letter-spacing:0px;word-spacing:0px;writing-mode:lr-tb;text-anchor:start;fill:#000000;fill-opacity:1;stroke:none;display:inline;font-family:Serif;-inkscape-font-specification:Serif"
       xml:space="preserve"><tspan
         id="tspan4553"
         y="643.98022"
         x="251.24582"
         sodipodi:role="line"
         style="font-weight:bold;-inkscape-font-specification:Serif Bold">Adaptive Sampling</tspan><tspan
         y="671.42926"
         x="251.24582"
         sodipodi:role="line"
         id="tspan34409">retry with</tspan><tspan
         y="698.92926"
         x="251.24582"
         sodipodi:role="line"
         id="tspan4557">more rays</tspan></text>
  </g>
  <g
     inkscape:groupmode="layer"
     id="layer10"
     inkscape:label="program flow"
     style="display:inline"
     transform="translate(163.95563,106.43692)">
    <path
       style="fill:none;stroke:#000000;stroke-width:4;stroke-linecap:butt;stroke-linejoin:miter;stroke-miterlimit:4;stroke-opacity:1;stroke-dasharray:none;marker-end:url(#TriangleOutM)"
       d="m 218.91914,310.15723 0,103.86714"
       id="path20176"
       inkscape:connector-curvature="0"
       sodipodi:nodetypes="cc" />
    <path
       inkscape:connector-curvature="0"
       id="path20386"
       d="m 218.91914,473.73298 0,46.84053"
       style="fill:none;stroke:#000000;stroke-width:4;stroke-linecap:butt;stroke-linejoin:miter;stroke-miterlimit:4;stroke-opacity:1;stroke-dasharray:none;marker-end:url(#TriangleOutM)" />
    <path
       style="fill:none;stroke:#000000;stroke-width:4;stroke-linecap:round;stroke-linejoin:miter;stroke-miterlimit:4;stroke-opacity:1;stroke-dasharray:8, 8;stroke-dashoffset:0;marker-end:url(#TriangleOutM)"
       d="m 201.78067,658.70223 c -10.59543,13.3286 -49.0498,14.33394 -75.80875,14.41814 -37.383954,0.1175 -69.642414,-1.45312 -70.00395,-23.56688 L 52.278013,423.85997 c -0.3795,-23.21144 18.213251,-40.49177 66.485887,-40.12792 l 0,0 c 33.77199,-0.10624 71.24784,-0.45331 76.78528,18.64117"
       id="path5117"
       inkscape:connector-curvature="0"
       sodipodi:nodetypes="csssccc" />
    <path
       style="fill:none;stroke:#000000;stroke-width:4;stroke-linecap:butt;stroke-linejoin:miter;stroke-miterlimit:4;stroke-opacity:1;stroke-dasharray:8, 8;stroke-dashoffset:0;marker-end:url(#TriangleOutM)"
       d="m 218.91914,587.9602 0,160.0642"
       id="path34405"
       inkscape:connector-curvature="0"
       sodipodi:nodetypes="cc" />
    <rect
       transform="matrix(0.70710678,-0.70710678,0.70710678,0.70710678,0,0)"
       y="605.88934"
       x="-337.29553"
       height="41.54726"
       width="41.54726"
       id="rect5119"
       style="fill:#b7ac33;fill-opacity:1;fill-rule:nonzero;stroke:#000000;stroke-width:4;stroke-linecap:round;stroke-linejoin:miter;stroke-miterlimit:4;stroke-opacity:1;stroke-dasharray:none;stroke-dashoffset:0;display:inline" />
  </g>
  <g
     inkscape:groupmode="layer"
     id="layer2"
     inkscape:label="opacity"
     style="display:inline">
    <rect
       style="opacity:0.59130435;fill:#ffffff;fill-opacity:1;fill-rule:nonzero;stroke:#000000;stroke-width:3.46958613;stroke-linecap:round;stroke-linejoin:miter;stroke-miterlimit:4;stroke-opacity:1;stroke-dasharray:6.9391726, 6.9391726;stroke-dashoffset:0;display:inline"
       id="rect34065"
       width="369.97339"
       height="667.50751"
       x="654.45117"
       y="304.10428" />
    <rect
       y="-975.61182"
       x="-1074.5878"
       height="101.38493"
       width="887.10889"
       id="rect5569"
       style="fill:url(#linearGradient5577);fill-opacity:1;fill-rule:nonzero;stroke:none;display:inline"
       transform="scale(-1,-1)" />
    <rect
       style="fill:url(#linearGradient5579);fill-opacity:1;fill-rule:nonzero;stroke:none;display:inline"
       id="rect5551"
       width="887.10889"
       height="156.30167"
       x="184.89673"
       y="302.10428" />
  </g>
  <g
     inkscape:groupmode="layer"
     id="layer8"
     inkscape:label="formula"
     style="display:inline"
     transform="translate(163.95563,106.43692)">
    <g
       style="stroke-width:2.8679719;stroke-miterlimit:4;stroke-dasharray:none;display:inline"
       transform="matrix(0.3138106,0,0,0.3138106,361.85608,588.3447)"
       id="g9022">
      <g
         style="font-style:normal;font-variant:normal;font-weight:normal;font-stretch:normal;letter-spacing:normal;word-spacing:normal;text-anchor:start;fill:none;stroke:#000000;stroke-width:1.69027114;stroke-linecap:butt;stroke-linejoin:miter;stroke-miterlimit:4;stroke-opacity:1;stroke-dasharray:none;stroke-dashoffset:0"
         id="g9024"
         transform="matrix(1.6967526,0,0,-1.6967526,-296.9317,947.89365)"
         xml:space="preserve"
         stroke-miterlimit="10.433"
         font-style="normal"
         font-variant="normal"
         font-weight="normal"
         font-stretch="normal"
         font-size-adjust="none"
         letter-spacing="normal"
         word-spacing="normal"><path
           style="fill:#000000;stroke-width:1.69027114;stroke-miterlimit:4;stroke-dasharray:none"
           inkscape:connector-curvature="0"
           d="m 469.68,437.34 -0.01,0.09 0,0.09 -0.01,0.1 -0.02,0.08 -0.01,0.09 -0.03,0.09 -0.02,0.08 -0.03,0.08 -0.03,0.08 -0.04,0.08 -0.04,0.08 -0.05,0.07 -0.04,0.07 -0.06,0.07 -0.05,0.06 -0.06,0.06 -0.06,0.06 -0.06,0.06 -0.07,0.05 -0.07,0.05 -0.08,0.05 -0.07,0.04 -0.09,0.04 -0.08,0.04 -0.08,0.03 -0.09,0.03 -0.1,0.02 -0.09,0.02 -0.1,0.02 -0.1,0.01 -0.1,0 -0.11,0.01 c -1.36,0 -2.7,-1.3 -2.7,-2.64 0,-0.96 0.7,-1.8 1.91,-1.8 1.14,0 2.64,1.14 2.64,2.64 z"
           id="path9026" /><path
           style="fill:#000000;stroke-width:1.69027114;stroke-miterlimit:4;stroke-dasharray:none"
           inkscape:connector-curvature="0"
           d="m 465.88,418.61 0.05,0.13 0.05,0.12 0.05,0.12 0.05,0.11 0.04,0.1 0.04,0.1 0.03,0.09 0.04,0.09 0.03,0.09 0.04,0.08 0.03,0.08 0.02,0.08 0.03,0.07 0.03,0.07 0.05,0.15 0.05,0.14 0.05,0.14 0.03,0.07 0.03,0.08 0.03,0.08 0.02,0.08 0.04,0.08 0.03,0.09 0.03,0.1 0.04,0.09 0.03,0.11 0.04,0.11 0.05,0.11 0.04,0.13 c 0.41,1 0.66,1.68 0.66,2.64 0,2.23 -1.59,4.07 -4.09,4.07 -4.68,0 -6.58,-7.21 -6.58,-7.67 0,-0.5 0.5,-0.5 0.61,-0.5 0.5,0 0.54,0.11 0.79,0.91 1.35,4.69 3.33,6.17 5.03,6.17 0.4,0 1.25,0 1.25,-1.59 0,-1.05 -0.35,-2.1 -0.56,-2.6 -0.39,-1.29 -2.64,-7.06 -3.44,-9.22 -0.48,-1.28 -1.14,-2.93 -1.14,-3.98 0,-2.33 1.69,-4.08 4.1,-4.08 4.67,0 6.51,7.22 6.51,7.67 0,0.5 -0.43,0.5 -0.59,0.5 -0.5,0 -0.5,-0.15 -0.75,-0.9 -0.89,-3.13 -2.53,-6.17 -5.08,-6.17 -0.84,0 -1.2,0.5 -1.2,1.64 0,1.25 0.31,1.95 1.45,4.98 z"
           id="path9028" /><path
           style="fill:#000000;stroke-width:1.69027114;stroke-miterlimit:4;stroke-dasharray:none"
           inkscape:connector-curvature="0"
           d="m 490.96,426.12 h 4.28 c 1,0 1.5,0 1.5,1 0,0.55 -0.5,0.55 -1.35,0.55 h -4.14 l 1.05,5.69 c 0.2,1.04 0.91,4.57 1.2,5.17 0.46,0.95 1.3,1.7 2.35,1.7 0.19,0 1.48,0 2.44,-0.91 -2.19,-0.18 -2.69,-1.93 -2.69,-2.68 0,-1.14 0.89,-1.74 1.84,-1.74 1.3,0 2.74,1.1 2.74,2.99 0,2.29 -2.3,3.43 -4.33,3.43 -1.71,0 -4.85,-0.89 -6.33,-5.82 -0.3,-1.05 -0.45,-1.55 -1.64,-7.83 h -3.44 c -0.95,0 -1.5,0 -1.5,-0.94 0,-0.61 0.45,-0.61 1.39,-0.61 h 3.3 l -3.75,-19.67 c -0.89,-4.83 -1.74,-9.38 -4.33,-9.38 -0.2,0 -1.44,0 -2.39,0.91 2.3,0.14 2.73,1.94 2.73,2.69 0,1.14 -0.89,1.75 -1.84,1.75 -1.3,0 -2.73,-1.1 -2.73,-3 0,-2.24 2.18,-3.44 4.23,-3.44 2.74,0 4.74,2.94 5.63,4.84 1.59,3.14 2.75,9.16 2.79,9.52 z"
           id="path9030" /><path
           style="fill:#000000;stroke-width:1.69027114;stroke-miterlimit:4;stroke-dasharray:none"
           inkscape:connector-curvature="0"
           d="m 565.26,436.39 0.04,0.16 0.04,0.16 0.04,0.15 0.03,0.14 0.04,0.14 0.05,0.13 0.04,0.12 0.05,0.11 0.05,0.11 0.05,0.11 0.06,0.09 0.07,0.09 0.07,0.09 0.08,0.08 0.09,0.07 0.1,0.07 0.11,0.06 0.12,0.06 0.13,0.05 0.14,0.05 0.15,0.04 0.08,0.02 0.09,0.02 0.09,0.02 0.09,0.02 0.1,0.01 0.1,0.02 0.1,0.01 0.11,0.01 0.11,0.02 0.11,0.01 0.12,0.01 0.13,0 0.13,0.01 0.13,0.01 0.14,0.01 0.14,0 0.15,0 0.15,0.01 0.16,0 0.16,0 0.17,0 0.17,0 c 1.14,0 1.59,0 1.59,1 0,0.55 -0.5,0.55 -1.34,0.55 h -6.58 c -1.3,0 -1.34,0 -1.94,-0.95 l -18.18,-28.39 -3.89,28.18 c -0.16,1.16 -0.25,1.16 -1.55,1.16 h -6.83 c -0.94,0 -1.48,0 -1.48,-0.95 0,-0.6 0.43,-0.6 1.43,-0.6 0.66,0 1.55,-0.04 2.14,-0.09 0.8,-0.11 1.1,-0.25 1.1,-0.8 0,-0.2 -0.05,-0.36 -0.19,-0.95 l -6.33,-25.36 c -0.5,-2 -1.34,-3.59 -5.39,-3.73 -0.25,0 -0.89,-0.05 -0.89,-0.96 0,-0.43 0.3,-0.59 0.7,-0.59 1.6,0 3.33,0.16 4.97,0.16 1.71,0 3.5,-0.16 5.14,-0.16 0.25,0 0.89,0 0.89,1 0,0.55 -0.54,0.55 -0.89,0.55 -2.84,0.04 -3.39,1.04 -3.39,2.18 0,0.35 0.05,0.6 0.21,1.14 l 6.76,27.16 h 0.06 l 4.29,-30.89 c 0.09,-0.59 0.14,-1.14 0.75,-1.14 0.54,0 0.84,0.55 1.09,0.89 l 20.12,31.55 h 0.05 l -7.12,-28.55 c -0.5,-1.95 -0.6,-2.34 -4.54,-2.34 -0.84,0 -1.39,0 -1.39,-0.96 0,-0.59 0.6,-0.59 0.75,-0.59 1.39,0 4.79,0.16 6.18,0.16 2.04,0 4.18,-0.16 6.23,-0.16 0.3,0 0.94,0 0.94,1 0,0.55 -0.46,0.55 -1.39,0.55 -1.85,0 -3.24,0 -3.24,0.89 0,0.2 0,0.29 0.25,1.2 z"
           id="path9032" /><path
           style="fill:#000000;stroke-width:1.69027114;stroke-miterlimit:4;stroke-dasharray:none"
           inkscape:connector-curvature="0"
           d="m 605.02,440.82 0,0.02 -0.01,0.02 0,0.01 0,0.02 0,0.02 -0.01,0.02 0,0.02 -0.01,0.02 0,0.02 -0.01,0.02 -0.01,0.02 -0.01,0.02 -0.01,0.02 -0.02,0.02 -0.01,0.02 -0.01,0.02 -0.02,0.02 -0.02,0.02 -0.02,0.02 -0.02,0.02 -0.02,0.01 -0.02,0.02 -0.03,0.01 -0.02,0.02 -0.03,0.01 -0.03,0.01 -0.01,0.01 -0.02,0 -0.02,0.01 -0.01,0 -0.02,0 -0.02,0.01 -0.01,0 -0.02,0 -0.02,0 -0.02,0 -0.02,0 -0.02,0 c -0.25,0 -0.31,-0.04 -0.91,-0.75 l -2.39,-2.84 c -1.29,2.34 -3.89,3.59 -7.12,3.59 -6.33,0 -12.3,-5.73 -12.3,-11.76 0,-4.03 2.64,-6.33 5.17,-7.06 l 5.33,-1.41 c 1.84,-0.44 4.59,-1.19 4.59,-5.28 0,-4.49 -4.09,-9.16 -8.96,-9.16 -3.19,0 -8.72,1.1 -8.72,7.27 0,1.2 0.25,2.39 0.29,2.69 0.05,0.2 0.1,0.25 0.1,0.35 0,0.5 -0.35,0.55 -0.6,0.55 -0.25,0 -0.34,-0.05 -0.5,-0.2 -0.2,-0.2 -2.98,-11.56 -2.98,-11.7 0,-0.3 0.25,-0.5 0.55,-0.5 0.25,0 0.29,0.04 0.89,0.75 l 2.45,2.82 c 2.14,-2.89 5.52,-3.57 8.41,-3.57 6.78,0 12.65,6.62 12.65,12.79 0,3.44 -1.69,5.14 -2.44,5.83 -1.14,1.16 -1.89,1.34 -6.32,2.5 -1.1,0.3 -2.89,0.8 -3.35,0.89 -1.34,0.45 -3.03,1.89 -3.03,4.53 0,4.05 3.99,8.28 8.72,8.28 4.14,0 7.17,-2.14 7.17,-7.73 0,-1.59 -0.2,-2.49 -0.2,-2.78 0,-0.05 0,-0.5 0.61,-0.5 0.5,0 0.54,0.15 0.73,1 z"
           id="path9034" /><path
           style="fill:#000000;stroke-width:1.69027114;stroke-miterlimit:4;stroke-dasharray:none"
           inkscape:connector-curvature="0"
           d="m 641.63,417.81 0.01,0.02 0.01,0.03 0.02,0.05 0.02,0.05 0.02,0.05 0.02,0.05 0.02,0.05 0.02,0.05 0.02,0.05 0,0.03 0.01,0.02 0.01,0.02 0.01,0.03 0,0.02 0.01,0.02 0.01,0.02 0,0.02 0.01,0.02 0,0.02 0.01,0.01 0,0.02 0,0.02 0.01,0.01 0,0.01 0,0.01 c 0,0.05 0,0.55 -0.6,0.55 -0.45,0 -0.54,-0.3 -0.64,-0.61 -3.25,-7.38 -5.08,-10.7 -13.61,-10.7 h -7.26 c -0.71,0 -0.8,0 -1.1,0.04 -0.5,0.05 -0.65,0.1 -0.65,0.5 0,0.14 0,0.25 0.25,1.14 l 3.39,13.61 h 4.94 c 4.23,0 4.23,-1.04 4.23,-2.29 0,-0.35 0,-0.96 -0.36,-2.44 -0.09,-0.25 -0.14,-0.41 -0.14,-0.55 0,-0.25 0.19,-0.55 0.64,-0.55 0.41,0 0.55,0.25 0.75,0.99 l 2.84,11.67 c 0,0.3 -0.25,0.55 -0.6,0.55 -0.44,0 -0.55,-0.3 -0.69,-0.91 -1.05,-3.78 -1.96,-4.92 -6.53,-4.92 h -4.69 l 3,12 c 0.44,1.75 0.5,1.94 2.69,1.94 h 7.01 c 6.08,0 7.58,-1.44 7.58,-5.53 0,-1.19 0,-1.29 -0.2,-2.64 0,-0.3 -0.05,-0.65 -0.05,-0.9 0,-0.25 0.16,-0.59 0.59,-0.59 0.57,0 0.61,0.3 0.71,1.25 l 1,8.61 c 0.14,1.34 -0.1,1.34 -1.35,1.34 h -25.15 c -1,0 -1.5,0 -1.5,-1 0,-0.54 0.45,-0.54 1.39,-0.54 1.84,0 3.23,0 3.23,-0.89 0,-0.21 0,-0.3 -0.25,-1.21 l -6.56,-26.34 c -0.5,-1.95 -0.61,-2.34 -4.55,-2.34 -0.84,0 -1.39,0 -1.39,-0.96 0,-0.59 0.46,-0.59 1.39,-0.59 h 25.86 c 1.16,0 1.21,0.05 1.55,0.84 z"
           id="path9036" /><path
           style="fill:#000000;stroke-width:1.69027114;stroke-miterlimit:4;stroke-dasharray:none"
           inkscape:connector-curvature="0"
           d="m 662.44,394.25 0,0.02 0,0.03 -0.01,0.01 0,0.02 0,0.01 -0.01,0.02 0,0.01 -0.01,0.02 -0.01,0.02 -0.01,0.02 -0.01,0.02 -0.01,0.03 -0.02,0.02 -0.02,0.03 -0.02,0.03 -0.02,0.03 -0.03,0.03 -0.03,0.04 -0.01,0.02 -0.02,0.02 -0.02,0.02 -0.02,0.02 -0.02,0.02 -0.02,0.03 -0.02,0.02 -0.02,0.02 -0.02,0.03 -0.02,0.02 -0.03,0.03 -0.02,0.03 -0.03,0.03 -0.03,0.03 -0.03,0.03 -0.03,0.03 -0.03,0.03 -0.03,0.03 -0.03,0.04 -0.04,0.03 -0.03,0.04 -0.04,0.03 -0.04,0.04 -0.04,0.04 c -6.21,6.28 -7.81,15.69 -7.81,23.31 0,8.67 1.89,17.35 8.02,23.56 0.64,0.61 0.64,0.71 0.64,0.86 0,0.35 -0.19,0.49 -0.49,0.49 -0.5,0 -4.98,-3.38 -7.92,-9.7 -2.55,-5.49 -3.14,-11.02 -3.14,-15.21 0,-3.89 0.55,-9.9 3.28,-15.54 2.99,-6.13 7.28,-9.36 7.78,-9.36 0.3,0 0.49,0.14 0.49,0.5 z"
           id="path9038" /><path
           style="fill:#000000;stroke-width:1.69027114;stroke-miterlimit:4;stroke-dasharray:none"
           inkscape:connector-curvature="0"
           d="m 684.75,424.84 -0.13,-0.01 -0.12,-0.01 -0.13,-0.02 -0.12,-0.03 -0.12,-0.03 -0.12,-0.04 -0.11,-0.04 -0.11,-0.04 -0.11,-0.05 -0.1,-0.06 -0.1,-0.06 -0.1,-0.06 -0.09,-0.07 -0.09,-0.07 -0.09,-0.07 -0.08,-0.08 -0.08,-0.08 -0.07,-0.08 -0.07,-0.09 -0.06,-0.08 -0.06,-0.09 -0.06,-0.1 -0.05,-0.09 -0.04,-0.1 -0.04,-0.09 -0.04,-0.1 -0.03,-0.1 -0.02,-0.1 -0.02,-0.1 -0.02,-0.11 0,-0.1 -0.01,-0.1 c 0,-0.7 0.44,-1.44 1.55,-1.44 1.09,0 2.28,0.85 2.28,2.78 0,2.25 -2.14,4.28 -5.92,4.28 -6.58,0 -8.42,-5.07 -8.42,-7.26 0,-3.89 3.68,-4.64 5.12,-4.94 2.6,-0.5 5.19,-1.05 5.19,-3.78 0,-1.3 -1.14,-5.48 -7.13,-5.48 -0.7,0 -4.53,0 -5.68,2.64 1.9,-0.25 3.14,1.25 3.14,2.64 0,1.14 -0.8,1.75 -1.84,1.75 -1.3,0 -2.79,-1.05 -2.79,-3.3 0,-2.84 2.85,-4.83 7.13,-4.83 8.06,0 10.01,6.03 10.01,8.27 0,1.79 -0.95,3.04 -1.54,3.64 -1.35,1.39 -2.8,1.64 -4.99,2.09 -1.79,0.39 -3.78,0.75 -3.78,2.99 0,1.45 1.19,4.48 5.58,4.48 1.23,0 3.73,-0.34 4.48,-2.28 z"
           id="path9040" /><path
           style="fill:#000000;stroke-width:1.69027114;stroke-miterlimit:4;stroke-dasharray:none"
           inkscape:connector-curvature="0"
           d="m 699.98,420.54 0,0.05 -0.01,0.06 0,0.05 -0.01,0.06 -0.01,0.05 -0.02,0.06 -0.02,0.05 -0.01,0.06 -0.03,0.06 -0.02,0.05 -0.03,0.06 -0.03,0.05 -0.03,0.06 -0.04,0.05 -0.04,0.05 -0.04,0.05 -0.04,0.05 -0.05,0.05 -0.05,0.04 -0.05,0.05 -0.06,0.04 -0.06,0.03 -0.06,0.04 -0.06,0.03 -0.07,0.03 -0.07,0.03 -0.08,0.02 -0.08,0.02 -0.08,0.01 -0.08,0.01 -0.09,0.01 -0.09,0 c -0.94,0 -1.95,-0.91 -1.95,-1.92 0,-0.59 0.45,-1.33 1.4,-1.33 1,0 1.96,0.99 1.96,1.92 z"
           id="path9042" /><path
           style="fill:#000000;stroke-width:1.69027114;stroke-miterlimit:4;stroke-dasharray:none"
           inkscape:connector-curvature="0"
           d="m 692.87,402.84 -0.06,-0.17 -0.05,-0.17 -0.03,-0.08 -0.02,-0.09 -0.03,-0.08 -0.02,-0.09 -0.02,-0.09 -0.02,-0.09 -0.02,-0.1 -0.02,-0.09 -0.01,-0.1 0,-0.05 -0.01,-0.05 0,-0.06 0,-0.05 0,-0.05 -0.01,-0.06 c 0,-1.64 1.4,-2.95 3.3,-2.95 3.49,0 5.03,4.79 5.03,5.33 0,0.45 -0.45,0.45 -0.56,0.45 -0.48,0 -0.53,-0.2 -0.67,-0.59 -0.8,-2.79 -2.33,-4.22 -3.69,-4.22 -0.7,0 -0.87,0.45 -0.87,1.22 0,0.79 0.25,1.46 0.56,2.23 0.34,0.94 0.73,1.87 1.11,2.78 0.31,0.84 1.58,4.02 1.72,4.44 0.09,0.34 0.2,0.76 0.2,1.11 0,1.64 -1.39,2.95 -3.31,2.95 -3.46,0 -5.05,-4.73 -5.05,-5.33 0,-0.45 0.48,-0.45 0.59,-0.45 0.49,0 0.52,0.17 0.63,0.56 0.91,3 2.44,4.25 3.72,4.25 0.56,0 0.87,-0.28 0.87,-1.22 0,-0.79 -0.2,-1.32 -1.08,-3.48 z"
           id="path9044" /><path
           style="fill:#000000;stroke-width:1.69027114;stroke-miterlimit:4;stroke-dasharray:none"
           inkscape:connector-curvature="0"
           d="m 719.63,418.65 0,0.37 -0.01,0.39 -0.01,0.39 -0.01,0.41 -0.04,0.84 -0.06,0.88 -0.08,0.92 -0.11,0.95 -0.13,0.97 -0.17,1.01 -0.19,1.02 -0.23,1.03 -0.27,1.05 -0.31,1.06 -0.34,1.07 -0.4,1.07 -0.21,0.53 -0.22,0.53 -0.24,0.53 -0.25,0.53 c -2.99,6.12 -7.27,9.36 -7.77,9.36 -0.3,0 -0.5,-0.19 -0.5,-0.49 0,-0.15 0,-0.25 0.94,-1.15 4.89,-4.92 7.73,-12.85 7.73,-23.27 0,-8.51 -1.84,-17.28 -8.03,-23.56 -0.64,-0.59 -0.64,-0.7 -0.64,-0.84 0,-0.3 0.2,-0.5 0.5,-0.5 0.5,0 4.97,3.39 7.92,9.71 2.53,5.47 3.13,11 3.13,15.19 z"
           id="path9046" /><path
           style="fill:#000000;stroke-width:1.69027114;stroke-miterlimit:4;stroke-dasharray:none"
           inkscape:connector-curvature="0"
           d="m 771.98,417.56 0.1,0.05 0.1,0.04 0.05,0.03 0.04,0.02 0.05,0.03 0.04,0.02 0.04,0.03 0.04,0.02 0.04,0.03 0.04,0.03 0.04,0.03 0.04,0.03 0.03,0.03 0.03,0.03 0.03,0.03 0.03,0.03 0.03,0.04 0.03,0.03 0.02,0.04 0.02,0.04 0.02,0.04 0.02,0.04 0.02,0.04 0.01,0.04 0.02,0.05 0.01,0.05 0,0.04 0.01,0.05 0,0.06 0,0.05 c 0,0.6 -0.4,0.85 -0.95,1.1 l -27.59,13.01 c -0.66,0.35 -0.75,0.35 -0.91,0.35 -0.55,0 -0.98,-0.46 -0.98,-1 0,-0.46 0.25,-0.75 0.93,-1.1 l 26.16,-12.36 -26.16,-12.36 c -0.68,-0.34 -0.93,-0.64 -0.93,-1.09 0,-0.55 0.43,-1 0.98,-1 0.16,0 0.25,0 0.91,0.36 z"
           id="path9048" /><path
           style="fill:#000000;stroke-width:1.69027114;stroke-miterlimit:4;stroke-dasharray:none"
           inkscape:connector-curvature="0"
           d="m 837.18,436.39 0.04,0.16 0.04,0.16 0.03,0.15 0.04,0.14 0.04,0.14 0.04,0.13 0.05,0.12 0.04,0.11 0.06,0.11 0.05,0.11 0.06,0.09 0.07,0.09 0.07,0.09 0.08,0.08 0.09,0.07 0.1,0.07 0.11,0.06 0.12,0.06 0.13,0.05 0.14,0.05 0.15,0.04 0.08,0.02 0.09,0.02 0.09,0.02 0.09,0.02 0.09,0.01 0.1,0.02 0.11,0.01 0.11,0.01 0.11,0.02 0.11,0.01 0.12,0.01 0.13,0 0.13,0.01 0.13,0.01 0.14,0.01 0.14,0 0.15,0 0.15,0.01 0.16,0 0.16,0 0.16,0 0.18,0 c 1.14,0 1.59,0 1.59,1 0,0.55 -0.5,0.55 -1.34,0.55 h -6.58 c -1.3,0 -1.35,0 -1.94,-0.95 L 815,410.89 l -3.89,28.18 c -0.15,1.16 -0.25,1.16 -1.54,1.16 h -6.83 c -0.94,0 -1.49,0 -1.49,-0.95 0,-0.6 0.44,-0.6 1.44,-0.6 0.66,0 1.55,-0.04 2.14,-0.09 0.8,-0.11 1.1,-0.25 1.1,-0.8 0,-0.2 -0.05,-0.36 -0.19,-0.95 l -6.33,-25.36 c -0.5,-2 -1.34,-3.59 -5.39,-3.73 -0.25,0 -0.89,-0.05 -0.89,-0.96 0,-0.43 0.3,-0.59 0.7,-0.59 1.6,0 3.33,0.16 4.97,0.16 1.7,0 3.5,-0.16 5.14,-0.16 0.25,0 0.89,0 0.89,1 0,0.55 -0.55,0.55 -0.89,0.55 -2.84,0.04 -3.39,1.04 -3.39,2.18 0,0.35 0.05,0.6 0.2,1.14 l 6.77,27.16 h 0.06 l 4.28,-30.89 c 0.1,-0.59 0.14,-1.14 0.75,-1.14 0.55,0 0.85,0.55 1.1,0.89 l 20.12,31.55 h 0.05 l -7.13,-28.55 c -0.5,-1.95 -0.59,-2.34 -4.53,-2.34 -0.84,0 -1.39,0 -1.39,-0.96 0,-0.59 0.6,-0.59 0.75,-0.59 1.39,0 4.78,0.16 6.17,0.16 2.05,0 4.19,-0.16 6.24,-0.16 0.29,0 0.94,0 0.94,1 0,0.55 -0.46,0.55 -1.4,0.55 -1.84,0 -3.23,0 -3.23,0.89 0,0.2 0,0.29 0.25,1.2 z"
           id="path9050" /><path
           style="fill:#000000;stroke-width:1.69027114;stroke-miterlimit:4;stroke-dasharray:none"
           inkscape:connector-curvature="0"
           d="m 876.93,440.82 0,0.02 0,0.02 0,0.01 0,0.02 0,0.02 -0.01,0.02 0,0.02 -0.01,0.02 -0.01,0.02 0,0.02 -0.01,0.02 -0.01,0.02 -0.02,0.02 -0.01,0.02 -0.01,0.02 -0.02,0.02 -0.01,0.02 -0.02,0.02 -0.02,0.02 -0.02,0.02 -0.02,0.01 -0.02,0.02 -0.03,0.01 -0.02,0.02 -0.03,0.01 -0.03,0.01 -0.02,0.01 -0.01,0 -0.02,0.01 -0.01,0 -0.02,0 -0.02,0.01 -0.02,0 -0.01,0 -0.02,0 -0.02,0 -0.02,0 -0.02,0 c -0.25,0 -0.32,-0.04 -0.91,-0.75 l -2.39,-2.84 c -1.3,2.34 -3.89,3.59 -7.12,3.59 -6.33,0 -12.3,-5.73 -12.3,-11.76 0,-4.03 2.64,-6.33 5.17,-7.06 l 5.33,-1.41 c 1.84,-0.44 4.59,-1.19 4.59,-5.28 0,-4.49 -4.09,-9.16 -8.97,-9.16 -3.19,0 -8.72,1.1 -8.72,7.27 0,1.2 0.25,2.39 0.3,2.69 0.05,0.2 0.1,0.25 0.1,0.35 0,0.5 -0.35,0.55 -0.6,0.55 -0.25,0 -0.34,-0.05 -0.5,-0.2 -0.2,-0.2 -2.98,-11.56 -2.98,-11.7 0,-0.3 0.25,-0.5 0.54,-0.5 0.25,0 0.3,0.04 0.89,0.75 l 2.46,2.82 c 2.14,-2.89 5.51,-3.57 8.4,-3.57 6.79,0 12.66,6.62 12.66,12.79 0,3.44 -1.69,5.14 -2.44,5.83 -1.14,1.16 -1.89,1.34 -6.33,2.5 -1.09,0.3 -2.89,0.8 -3.34,0.89 -1.34,0.45 -3.03,1.89 -3.03,4.53 0,4.05 3.98,8.28 8.72,8.28 4.14,0 7.17,-2.14 7.17,-7.73 0,-1.59 -0.2,-2.49 -0.2,-2.78 0,-0.05 0,-0.5 0.61,-0.5 0.5,0 0.54,0.15 0.73,1 z"
           id="path9052" /><path
           style="fill:#000000;stroke-width:1.69027114;stroke-miterlimit:4;stroke-dasharray:none"
           inkscape:connector-curvature="0"
           d="m 913.55,417.81 0.01,0.02 0.01,0.03 0.02,0.05 0.02,0.05 0.02,0.05 0.02,0.05 0.02,0.05 0.02,0.05 0.01,0.05 0.01,0.03 0.01,0.02 0.01,0.02 0.01,0.03 0,0.02 0.01,0.02 0.01,0.02 0,0.02 0.01,0.02 0,0.02 0.01,0.01 0,0.02 0,0.02 0,0.01 0,0.01 0,0.01 c 0,0.05 0,0.55 -0.59,0.55 -0.45,0 -0.54,-0.3 -0.64,-0.61 -3.25,-7.38 -5.08,-10.7 -13.61,-10.7 h -7.26 c -0.71,0 -0.8,0 -1.1,0.04 -0.5,0.05 -0.65,0.1 -0.65,0.5 0,0.14 0,0.25 0.25,1.14 l 3.39,13.61 h 4.93 c 4.24,0 4.24,-1.04 4.24,-2.29 0,-0.35 0,-0.96 -0.36,-2.44 -0.1,-0.25 -0.14,-0.41 -0.14,-0.55 0,-0.25 0.19,-0.55 0.64,-0.55 0.4,0 0.55,0.25 0.75,0.99 l 2.84,11.67 c 0,0.3 -0.25,0.55 -0.61,0.55 -0.43,0 -0.54,-0.3 -0.68,-0.91 -1.05,-3.78 -1.96,-4.92 -6.53,-4.92 h -4.69 l 3,12 c 0.44,1.75 0.5,1.94 2.69,1.94 h 7.01 c 6.08,0 7.58,-1.44 7.58,-5.53 0,-1.19 0,-1.29 -0.21,-2.64 0,-0.3 -0.04,-0.65 -0.04,-0.9 0,-0.25 0.16,-0.59 0.59,-0.59 0.57,0 0.61,0.3 0.7,1.25 l 1,8.61 c 0.15,1.34 -0.09,1.34 -1.34,1.34 h -25.16 c -1,0 -1.5,0 -1.5,-1 0,-0.54 0.46,-0.54 1.4,-0.54 1.84,0 3.23,0 3.23,-0.89 0,-0.21 0,-0.3 -0.25,-1.21 l -6.56,-26.34 c -0.5,-1.95 -0.61,-2.34 -4.55,-2.34 -0.84,0 -1.39,0 -1.39,-0.96 0,-0.59 0.45,-0.59 1.39,-0.59 h 25.86 c 1.16,0 1.2,0.05 1.55,0.84 z"
           id="path9054" /><path
           style="fill:#000000;stroke-width:1.69027114;stroke-miterlimit:4;stroke-dasharray:none"
           inkscape:connector-curvature="0"
           d="m 923.58,412.53 h 3.54 c 0.66,0 1.11,0 1.11,0.76 0,0.49 -0.45,0.49 -1.03,0.49 h -3.31 l 1.28,5.15 c 0.03,0.18 0.11,0.35 0.11,0.49 0,0.64 -0.48,1.12 -1.19,1.12 -0.87,0 -1.39,-0.59 -1.64,-1.5 -0.23,-0.87 0.22,0.8 -1.33,-5.26 h -3.54 c -0.66,0 -1.11,0 -1.11,-0.77 0,-0.48 0.41,-0.48 1.05,-0.48 h 3.29 l -2.04,-8.22 c -0.22,-0.88 -0.54,-2.13 -0.54,-2.58 0,-2.06 1.75,-3.31 3.74,-3.31 3.87,0 6.06,4.87 6.06,5.33 0,0.45 -0.45,0.45 -0.56,0.45 -0.41,0 -0.45,-0.08 -0.72,-0.66 -0.98,-2.2 -2.77,-4.15 -4.67,-4.15 -0.74,0 -1.22,0.45 -1.22,1.7 0,0.36 0.14,1.09 0.2,1.44 z"
           id="path9056" /><path
           style="fill:#000000;stroke-width:1.69027114;stroke-miterlimit:4;stroke-dasharray:none"
           inkscape:connector-curvature="0"
           d="m 940.91,421.9 0,0.01 0,0 0,0 0,0.01 0,0 0.01,0.01 0,0.01 0,0 0,0.01 0.01,0.01 0,0.01 0.01,0.02 0,0.02 0.01,0.02 0,0.02 0.01,0.02 0,0.02 0.01,0.03 0.01,0.02 0.01,0.05 0.01,0.04 0.01,0.03 0,0.02 0.01,0.02 0,0.02 0.01,0.02 0,0.02 0,0.02 0.01,0.01 0,0.01 0,0.01 0,0 0,0.01 0,0 0,0.01 0.01,0 0,0.01 0,0 0,0 0,0.01 0,0 c 0,0.19 -0.14,0.5 -0.57,0.5 -0.68,0 -3.57,-0.28 -4.45,-0.36 -0.28,-0.03 -0.76,-0.06 -0.76,-0.8 0,-0.48 0.48,-0.48 0.9,-0.48 1.67,0 1.67,-0.25 1.67,-0.53 0,-0.24 -0.07,-0.46 -0.14,-0.77 l -4.92,-19.72 c -0.17,-0.62 -0.17,-0.68 -0.17,-0.76 0,-0.52 0.42,-1.11 1.19,-1.11 0.39,0 1.04,0.17 1.43,0.9 0.1,0.21 0.41,1.46 0.58,2.19 l 0.81,3.11 c 0.1,0.52 0.46,1.84 0.55,2.36 0.36,1.33 0.36,1.36 1.05,2.48 1.12,1.71 2.86,3.69 5.58,3.69 1.95,0 2.06,-1.61 2.06,-2.44 0,-2.09 -1.5,-5.95 -2.06,-7.42 -0.38,-0.98 -0.52,-1.29 -0.52,-1.89 0,-1.84 1.53,-2.98 3.3,-2.98 3.5,0 5.03,4.79 5.03,5.33 0,0.45 -0.45,0.45 -0.56,0.45 -0.49,0 -0.53,-0.2 -0.66,-0.59 -0.81,-2.79 -2.34,-4.22 -3.7,-4.22 -0.74,0 -0.88,0.48 -0.88,1.22 0,0.79 0.19,1.25 0.81,2.82 0.41,1.08 1.85,4.77 1.85,6.72 0,0.56 0,2.03 -1.3,3.03 -0.59,0.46 -1.59,0.94 -3.23,0.94 -2.55,0 -4.39,-1.39 -5.67,-2.89 z"
           id="path9058" /><path
           style="fill:#000000;stroke-width:1.69027114;stroke-miterlimit:4;stroke-dasharray:none"
           inkscape:connector-curvature="0"
           d="m 961.47,405.79 0,0.02 0,0.01 0,0.02 0.01,0.03 0.01,0.03 0,0.03 0.01,0.03 0.01,0.04 0.01,0.04 0.01,0.05 0.01,0.04 0.01,0.06 0.02,0.05 0.01,0.05 0.03,0.12 0.03,0.13 0.04,0.13 0.03,0.15 0.04,0.14 0.04,0.15 0.04,0.15 0.08,0.32 0.08,0.31 0.04,0.15 0.04,0.15 0.03,0.14 0.04,0.14 0.03,0.14 0.04,0.12 0.03,0.12 0.01,0.05 0.02,0.05 0.01,0.05 0.01,0.05 0.01,0.04 0.02,0.04 0.01,0.04 0.01,0.03 0,0.03 0.01,0.03 0.01,0.02 0,0.02 0.01,0.01 0,0.01 c 0.08,0.29 1.08,2.02 2.2,2.86 0.38,0.27 1.32,0.97 2.82,0.97 0.34,0 1.21,-0.03 1.92,-0.48 -1.13,-0.31 -1.53,-1.3 -1.53,-1.92 0,-0.77 0.59,-1.29 1.39,-1.29 0.8,0 1.95,0.66 1.95,2.13 0,1.81 -1.92,2.53 -3.7,2.53 -1.82,0 -3.38,-0.72 -4.91,-2.47 -0.62,2.13 -2.75,2.47 -3.59,2.47 -1.28,0 -2.16,-0.8 -2.72,-1.76 -0.8,-1.36 -1.28,-3.4 -1.28,-3.57 0,-0.45 0.48,-0.45 0.59,-0.45 0.49,0 0.52,0.11 0.77,1.05 0.51,2.12 1.19,3.76 2.54,3.76 0.91,0 1.15,-0.76 1.15,-1.7 0,-0.67 -0.32,-1.95 -0.57,-2.89 -0.23,-0.95 -0.58,-2.38 -0.76,-3.14 l -1.11,-4.47 c -0.14,-0.44 -0.35,-1.31 -0.35,-1.42 0,-0.77 0.63,-1.11 1.19,-1.11 0.52,0 1.22,0.31 1.48,1 0.08,0.22 0.46,1.75 0.68,2.62 z"
           id="path9060" /><path
           style="fill:#000000;stroke-width:1.69027114;stroke-miterlimit:4;stroke-dasharray:none"
           inkscape:connector-curvature="0"
           d="m 980.65,406.7 0.09,0 0.11,0 0.11,0 0.13,0 0.13,0.01 0.14,0 0.15,0.01 0.15,0 0.17,0.01 0.16,0.01 0.18,0.01 0.18,0.01 0.18,0.01 0.19,0.02 0.38,0.03 0.4,0.04 0.4,0.05 0.41,0.06 0.41,0.07 0.4,0.08 0.19,0.05 0.2,0.04 0.19,0.05 0.19,0.06 0.18,0.05 0.18,0.06 c 2.58,0.91 3.07,2.58 3.07,3.63 0,1.92 -1.92,3.06 -4.33,3.06 v -0.97 c 1.53,0 2.83,-0.76 2.83,-2.09 0,-3.38 -5.89,-3.38 -7.39,-3.38 h -1.71 c 1.43,5.05 5.3,5.47 6.27,5.47 v 0.97 c -4.17,0 -9.83,-3.2 -9.83,-9.16 0,-3.51 2.2,-6.54 6.28,-6.54 5.89,0 8.64,3.44 8.64,3.94 0,0.2 -0.31,0.59 -0.59,0.59 -0.21,0 -0.28,-0.08 -0.56,-0.36 -2.72,-3.2 -6.8,-3.2 -7.43,-3.2 -2.09,0 -3.48,1.39 -3.48,4.22 0,0.48 0,1.18 0.42,3.09 z"
           id="path9062" /><path
           style="fill:#000000;stroke-width:1.69027114;stroke-miterlimit:4;stroke-dasharray:none"
           inkscape:connector-curvature="0"
           d="m 1006.7,411.86 -0.1,-0.03 -0.1,-0.02 -0.1,-0.03 0,-0.02 -0.1,-0.04 -0.1,-0.03 -0.1,-0.04 0,-0.04 -0.1,-0.04 -0.1,-0.04 0,-0.05 -0.1,-0.05 0,-0.05 -0.1,-0.05 0,-0.05 -0.1,-0.06 0,-0.05 -0.1,-0.06 0,-0.06 -0.1,-0.06 0,-0.06 0,-0.06 -0.1,-0.06 0,-0.06 0,-0.07 0,-0.06 0,-0.07 -0.1,-0.06 0,-0.07 0,-0.06 0,-0.07 0,-0.06 c 0,-0.81 0.7,-1.12 1.2,-1.12 0.3,0 1.6,0.21 1.6,1.98 0,2.27 -2.5,3.03 -4.6,3.03 -5.42,0 -6.4,-4 -6.4,-5.08 0,-1.29 0.73,-2.12 1.22,-2.54 0.9,-0.71 1.53,-0.83 3.98,-1.25 0.7,-0.14 2.9,-0.57 2.9,-2.3 0,-0.59 -0.4,-1.92 -1.8,-2.8 -1.4,-0.76 -3.1,-0.76 -3.5,-0.76 -1.41,0 -3.39,0.31 -4.19,1.47 1.16,0.14 1.92,1 1.92,1.98 0,0.87 -0.62,1.28 -1.36,1.28 -1.01,0 -2.03,-0.8 -2.03,-2.33 0,-2.09 2.24,-3.37 5.61,-3.37 6.45,0 7.65,4.39 7.65,5.75 0,3.2 -3.6,3.83 -4.9,4.08 -0.3,0.06 -1.1,0.2 -1.3,0.26 -1.34,0.25 -1.97,0.99 -1.97,1.75 0,0.8 0.63,1.74 1.37,2.24 1,0.59 2.2,0.65 2.8,0.65 0.7,0 2.5,-0.11 3.3,-1.29 z"
           id="path9064" /><path
           style="fill:#000000;stroke-width:1.69027114;stroke-miterlimit:4;stroke-dasharray:none"
           inkscape:connector-curvature="0"
           d="m 1021.4,421.9 0,0.01 0,0 0,0 0,0.01 0,0 0,0.01 0,0.01 0,0 0,0.01 0,0.01 0,0.01 0,0.02 0.1,0.02 0,0.02 0,0.02 0,0.02 0,0.02 0,0.03 0,0.02 0,0.05 0,0.04 0,0.03 0,0.02 0,0.02 0,0.02 0,0.02 0,0.02 0,0.02 0,0.01 0.1,0.01 0,0.01 0,0 0,0.01 0,0 0,0.01 0,0 0,0.01 0,0 0,0 0,0.01 0,0 c 0,0.19 -0.2,0.5 -0.6,0.5 -0.7,0 -3.6,-0.28 -4.5,-0.36 -0.2,-0.03 -0.7,-0.06 -0.7,-0.8 0,-0.48 0.5,-0.48 0.9,-0.48 1.7,0 1.7,-0.25 1.7,-0.53 0,-0.24 -0.1,-0.46 -0.2,-0.77 l -4.9,-19.72 c -0.2,-0.62 -0.2,-0.68 -0.2,-0.76 0,-0.52 0.4,-1.11 1.2,-1.11 0.4,0 1.1,0.17 1.5,0.9 0,0.21 0.4,1.46 0.5,2.19 l 0.8,3.11 c 0.1,0.52 0.5,1.84 0.6,2.36 0.3,1.33 0.3,1.36 1,2.48 1.2,1.71 2.9,3.69 5.6,3.69 2,0 2.1,-1.61 2.1,-2.44 0,-2.09 -1.5,-5.95 -2.1,-7.42 -0.4,-0.98 -0.5,-1.29 -0.5,-1.89 0,-1.84 1.5,-2.98 3.3,-2.98 3.5,0 5,4.79 5,5.33 0,0.45 -0.4,0.45 -0.5,0.45 -0.5,0 -0.6,-0.2 -0.7,-0.59 -0.8,-2.79 -2.3,-4.22 -3.7,-4.22 -0.7,0 -0.9,0.48 -0.9,1.22 0,0.79 0.2,1.25 0.8,2.82 0.4,1.08 1.9,4.77 1.9,6.72 0,0.56 0,2.03 -1.3,3.03 -0.6,0.46 -1.6,0.94 -3.3,0.94 -2.5,0 -4.3,-1.39 -5.6,-2.89 z"
           id="path9066" /><path
           style="fill:#000000;stroke-width:1.69027114;stroke-miterlimit:4;stroke-dasharray:none"
           inkscape:connector-curvature="0"
           d="m 1052.3,408.03 0,0.36 0,0.34 -0.1,0.34 0,0.33 -0.1,0.32 -0.1,0.31 -0.1,0.3 -0.1,0.28 -0.1,0.28 -0.2,0.27 -0.1,0.25 -0.2,0.25 -0.2,0.23 -0.2,0.22 -0.2,0.22 -0.2,0.2 -0.2,0.19 -0.2,0.17 -0.3,0.17 -0.2,0.15 -0.3,0.15 -0.2,0.13 -0.3,0.12 -0.3,0.1 -0.3,0.1 -0.3,0.08 -0.3,0.07 -0.3,0.06 -0.3,0.04 -0.3,0.04 -0.3,0.01 -0.3,0.01 c -5.2,0 -10.1,-4.84 -10.1,-9.61 0,-3.48 2.6,-6.09 6.4,-6.09 l 0,0.97 c -1.7,0 -3.5,1.12 -3.5,3.87 0,1.42 0.7,4.85 2.1,6.83 1.5,2.16 3.5,3.06 5,3.06 1.9,0 3.5,-1.29 3.5,-3.87 0,-0.83 -0.4,-4.28 -1.9,-6.72 -1.3,-2.05 -3.4,-3.17 -5.2,-3.17 h 0 l 0,-0.97 c 5,0 10,4.59 10,9.61 z"
           id="path9068" /><path
           style="fill:#000000;stroke-width:1.69027114;stroke-miterlimit:4;stroke-dasharray:none"
           inkscape:connector-curvature="0"
           d="m 1063.3,421.9 0,0.01 0,0 0,0 0,0.01 0,0 0,0.01 0,0.01 0,0 0,0.01 0,0.01 0,0.01 0,0.02 0,0.02 0,0.02 0,0.02 0.1,0.02 0,0.02 0,0.03 0,0.02 0,0.05 0,0.04 0,0.03 0,0.02 0,0.02 0,0.02 0,0.02 0,0.02 0,0.02 0,0.01 0,0.01 0,0.01 0,0 0,0.01 0,0 0,0.01 0,0 0,0.01 0,0 0,0 0,0.01 0,0 c 0,0.19 -0.1,0.5 -0.5,0.5 -0.7,0 -3.6,-0.28 -4.5,-0.36 -0.2,-0.03 -0.7,-0.06 -0.7,-0.8 0,-0.48 0.5,-0.48 0.9,-0.48 1.6,0 1.6,-0.25 1.6,-0.53 0,-0.24 0,-0.46 -0.1,-0.77 l -4.3,-17.2 c -0.1,-0.36 -0.2,-0.74 -0.2,-1.08 0,-2.23 2,-3.31 3.7,-3.31 0.8,0 1.9,0.28 2.8,1.84 0.7,1.28 1.2,3.35 1.2,3.49 0,0.45 -0.5,0.45 -0.6,0.45 -0.5,0 -0.5,-0.2 -0.6,-0.84 -0.5,-1.74 -1.2,-3.97 -2.7,-3.97 -0.9,0 -1.2,0.87 -1.2,1.7 0,0.39 0.1,1.05 0.2,1.44 z"
           id="path9070" /><path
           style="fill:#000000;stroke-width:1.69027114;stroke-miterlimit:4;stroke-dasharray:none"
           inkscape:connector-curvature="0"
           d="m 1086.2,421.9 0,0.01 0,0 0,0 0,0.01 0,0 0,0.01 0,0.01 0,0 0,0.01 0,0.01 0,0.01 0,0.02 0,0.02 0,0.02 0.1,0.02 0,0.02 0,0.02 0,0.03 0,0.02 0,0.05 0,0.02 0,0.02 0,0.03 0,0.02 0,0.02 0,0.02 0,0.02 0,0.02 0,0.02 0,0.01 0,0.01 0,0.01 0,0 0,0.01 0,0 0,0.01 0,0 0,0.01 0,0 0,0 0,0.01 0,0 c 0,0.19 -0.1,0.5 -0.5,0.5 -0.7,0 -3.6,-0.28 -4.5,-0.36 -0.3,-0.03 -0.7,-0.06 -0.7,-0.8 0,-0.48 0.4,-0.48 0.9,-0.48 1.6,0 1.6,-0.25 1.6,-0.53 0,-0.24 0,-0.46 -0.1,-0.77 l -2,-7.94 c -0.7,1.14 -1.9,2.05 -3.6,2.05 v -0.97 c 2.5,0 3.1,-2.64 3.1,-3.03 0,-0.14 -0.1,-0.39 -0.1,-0.48 l -1.6,-6.52 c -0.3,-0.98 -1,-1.67 -1.8,-2.34 -0.3,-0.27 -1.7,-1.39 -3.2,-1.39 -1.3,0 -2.5,0.9 -2.5,3.37 0,1.86 1,5.69 1.8,7.08 1.6,2.8 3.3,3.31 4.3,3.31 v 0.97 c -4.4,0 -9,-4.91 -9,-9.92 0,-3.38 2.3,-5.78 5.3,-5.78 1.9,0 3.5,1.08 4.9,2.44 0.7,-2.1 2.7,-2.44 3.6,-2.44 1.3,0 2.2,0.76 2.8,1.84 0.8,1.36 1.2,3.35 1.2,3.49 0,0.45 -0.4,0.45 -0.5,0.45 -0.5,0 -0.6,-0.14 -0.8,-1.08 -0.4,-1.67 -1.1,-3.73 -2.6,-3.73 -0.9,0 -1.1,0.76 -1.1,1.7 0,0.67 0.1,0.98 0.2,1.44 z"
           id="path9072" /></g>    </g>
    <text
       xml:space="preserve"
       style="font-size:22px;font-style:normal;font-variant:normal;font-weight:normal;font-stretch:normal;text-align:start;line-height:125%;letter-spacing:0px;word-spacing:0px;writing-mode:lr-tb;text-anchor:start;fill:#000000;fill-opacity:1;stroke:none;display:inline;font-family:Serif;-inkscape-font-specification:Serif"
       x="204.76028"
       y="675.42023"
       id="text4938"
       sodipodi:linespacing="125%"><tspan
         sodipodi:role="line"
         id="tspan4940"
         x="204.76028"
         y="675.42023">AS</tspan></text>
  </g>
</svg>
