<?xml version="1.0" encoding="UTF-8" standalone="no"?>
<!-- Created with Inkscape (http://www.inkscape.org/) -->

<svg
   xmlns:dc="http://purl.org/dc/elements/1.1/"
   xmlns:cc="http://creativecommons.org/ns#"
   xmlns:rdf="http://www.w3.org/1999/02/22-rdf-syntax-ns#"
   xmlns:svg="http://www.w3.org/2000/svg"
   xmlns="http://www.w3.org/2000/svg"
   xmlns:xlink="http://www.w3.org/1999/xlink"
   xmlns:sodipodi="http://sodipodi.sourceforge.net/DTD/sodipodi-0.dtd"
   xmlns:inkscape="http://www.inkscape.org/namespaces/inkscape"
   width="744.09448819"
   height="1052.3622047"
   id="svg2"
   version="1.1"
   inkscape:version="0.48.4 r9939"
   sodipodi:docname="reflections_2.svg"
   inkscape:export-filename="/home/carli/Dokumente/TUD/CUDA/projekt/git/octrace/paper/graphics/reflections_2.png"
   inkscape:export-xdpi="90"
   inkscape:export-ydpi="90">
  <sodipodi:namedview
     id="base"
     pagecolor="#ffffff"
     bordercolor="#666666"
     borderopacity="1.0"
     inkscape:pageopacity="0.0"
     inkscape:pageshadow="2"
     inkscape:zoom="1.4"
     inkscape:cx="288.56311"
     inkscape:cy="582.94718"
     inkscape:document-units="px"
     inkscape:current-layer="layer7"
     showgrid="false"
     inkscape:object-paths="true"
     inkscape:snap-intersection-paths="true"
     inkscape:object-nodes="true"
     inkscape:snap-smooth-nodes="true"
     inkscape:snap-midpoints="true"
     inkscape:snap-object-midpoints="true"
     inkscape:window-width="1598"
     inkscape:window-height="879"
     inkscape:window-x="0"
     inkscape:window-y="19"
     inkscape:window-maximized="0"
     inkscape:snap-nodes="true" />
  <defs
     id="defs4">
    <marker
       style="overflow:visible;"
       id="Arrow2Mend"
       refX="0.0"
       refY="0.0"
       orient="auto"
       inkscape:stockid="Arrow2Mend">
      <path
         transform="scale(0.6) rotate(180) translate(0,0)"
         d="M 8.7185878,4.0337352 L -2.2072895,0.016013256 L 8.7185884,-4.0017078 C 6.9730900,-1.6296469 6.9831476,1.6157441 8.7185878,4.0337352 z "
         style="fill-rule:evenodd;stroke-width:0.62500000;stroke-linejoin:round;"
         id="path4019" />
    </marker>
    <marker
       style="overflow:visible"
       id="Arrow1Mstart"
       refX="0.0"
       refY="0.0"
       orient="auto"
       inkscape:stockid="Arrow1Mstart">
      <path
         transform="scale(0.4) translate(10,0)"
         style="fill-rule:evenodd;stroke:#000000;stroke-width:1.0pt"
         d="M 0.0,0.0 L 5.0,-5.0 L -12.5,0.0 L 5.0,5.0 L 0.0,0.0 z "
         id="path3998" />
    </marker>
    <marker
       inkscape:stockid="DiamondM"
       orient="auto"
       refY="0.0"
       refX="0.0"
       id="DiamondM"
       style="overflow:visible">
      <path
         id="path3942"
         d="M 0,-7.0710768 L -7.0710894,0 L 0,7.0710589 L 7.0710462,0 L 0,-7.0710768 z "
         style="fill-rule:evenodd;stroke:#000000;stroke-width:1.0pt"
         transform="scale(0.4)" />
    </marker>
    <linearGradient
       inkscape:collect="always"
       id="linearGradient9344">
      <stop
         style="stop-color:#000000;stop-opacity:1;"
         offset="0"
         id="stop9346" />
      <stop
         style="stop-color:#000000;stop-opacity:0;"
         offset="1"
         id="stop9348" />
    </linearGradient>
    <linearGradient
       inkscape:collect="always"
       id="linearGradient9336">
      <stop
         style="stop-color:#070707;stop-opacity:1;"
         offset="0"
         id="stop9338" />
      <stop
         style="stop-color:#070707;stop-opacity:0;"
         offset="1"
         id="stop9340" />
    </linearGradient>
    <marker
       style="overflow:visible"
       id="SquareM"
       refX="0.0"
       refY="0.0"
       orient="auto"
       inkscape:stockid="SquareM">
      <path
         transform="scale(0.4)"
         style="fill-rule:evenodd;stroke:#000000;stroke-width:1.0pt"
         d="M -5.0,-5.0 L -5.0,5.0 L 5.0,5.0 L 5.0,-5.0 L -5.0,-5.0 z "
         id="path3933" />
    </marker>
    <marker
       style="overflow:visible"
       id="DiamondL"
       refX="0.0"
       refY="0.0"
       orient="auto"
       inkscape:stockid="DiamondL">
      <path
         transform="scale(0.8)"
         style="fill-rule:evenodd;stroke:#000000;stroke-width:1.0pt"
         d="M 0,-7.0710768 L -7.0710894,0 L 0,7.0710589 L 7.0710462,0 L 0,-7.0710768 z "
         id="path3939" />
    </marker>
    <marker
       style="overflow:visible"
       id="DotM"
       refX="0.0"
       refY="0.0"
       orient="auto"
       inkscape:stockid="DotM">
      <path
         transform="scale(0.4) translate(7.4, 1)"
         style="fill-rule:evenodd;stroke:#000000;stroke-width:1.0pt"
         d="M -2.5,-1.0 C -2.5,1.7600000 -4.7400000,4.0 -7.5,4.0 C -10.260000,4.0 -12.5,1.7600000 -12.5,-1.0 C -12.5,-3.7600000 -10.260000,-6.0 -7.5,-6.0 C -4.7400000,-6.0 -2.5,-3.7600000 -2.5,-1.0 z "
         id="path3924" />
    </marker>
    <marker
       inkscape:stockid="Arrow2Lend"
       orient="auto"
       refY="0"
       refX="0"
       id="Arrow2Lend"
       style="overflow:visible">
      <path
         id="path4465"
         style="fill-rule:evenodd;stroke-width:0.625;stroke-linejoin:round"
         d="M 8.7185878,4.0337352 -2.2072895,0.01601326 8.7185884,-4.0017078 c -1.7454984,2.3720609 -1.7354408,5.6174519 -6e-7,8.035443 z"
         transform="matrix(-1.1,0,0,-1.1,-1.1,0)"
         inkscape:connector-curvature="0" />
    </marker>
    <marker
       inkscape:stockid="Arrow2Lend"
       orient="auto"
       refY="0"
       refX="0"
       id="Arrow2Lend-2"
       style="overflow:visible">
      <path
         id="path4465-1"
         style="fill-rule:evenodd;stroke-width:0.625;stroke-linejoin:round"
         d="M 8.7185878,4.0337352 -2.2072895,0.01601326 8.7185884,-4.0017078 c -1.7454984,2.3720609 -1.7354408,5.6174519 -6e-7,8.035443 z"
         transform="matrix(-1.1,0,0,-1.1,-1.1,0)"
         inkscape:connector-curvature="0" />
    </marker>
    <linearGradient
       inkscape:collect="always"
       xlink:href="#linearGradient44743"
       id="linearGradient45433"
       gradientUnits="userSpaceOnUse"
       x1="164.5"
       y1="117.0094"
       x2="397.40875"
       y2="458.43799" />
    <linearGradient
       id="linearGradient44743">
      <stop
         style="stop-color:#000000;stop-opacity:0;"
         offset="0"
         id="stop44745" />
      <stop
         id="stop44751"
         offset="0.5"
         style="stop-color:#000000;stop-opacity:0.49803922;" />
      <stop
         style="stop-color:#000000;stop-opacity:1;"
         offset="1"
         id="stop44747" />
    </linearGradient>
    <marker
       inkscape:stockid="Arrow2Lend"
       orient="auto"
       refY="0"
       refX="0"
       id="Arrow2Lend-0"
       style="overflow:visible">
      <path
         id="path4465-2"
         style="fill-rule:evenodd;stroke-width:0.625;stroke-linejoin:round"
         d="M 8.7185878,4.0337352 -2.2072895,0.01601326 8.7185884,-4.0017078 c -1.7454984,2.3720609 -1.7354408,5.6174519 -6e-7,8.035443 z"
         transform="matrix(-1.1,0,0,-1.1,-1.1,0)"
         inkscape:connector-curvature="0" />
    </marker>
    <marker
       inkscape:stockid="Arrow1Lstart"
       orient="auto"
       refY="0"
       refX="0"
       id="Arrow1Lstart"
       style="overflow:visible">
      <path
         id="path4444"
         d="M 0,0 5,-5 -12.5,0 5,5 0,0 z"
         style="fill-rule:evenodd;stroke:#000000;stroke-width:1pt"
         transform="matrix(0.8,0,0,0.8,10,0)"
         inkscape:connector-curvature="0" />
    </marker>
    <marker
       inkscape:stockid="Arrow1Lend"
       orient="auto"
       refY="0"
       refX="0"
       id="Arrow1Lend"
       style="overflow:visible">
      <path
         id="path4447"
         d="M 0,0 5,-5 -12.5,0 5,5 0,0 z"
         style="fill-rule:evenodd;stroke:#000000;stroke-width:1pt"
         transform="matrix(-0.8,0,0,-0.8,-10,0)"
         inkscape:connector-curvature="0" />
    </marker>
    <marker
       inkscape:stockid="Arrow1Lend"
       orient="auto"
       refY="0"
       refX="0"
       id="marker8983"
       style="overflow:visible">
      <path
         id="path8985"
         d="M 0,0 5,-5 -12.5,0 5,5 0,0 z"
         style="fill-rule:evenodd;stroke:#000000;stroke-width:1pt"
         transform="matrix(-0.8,0,0,-0.8,-10,0)"
         inkscape:connector-curvature="0" />
    </marker>
    <linearGradient
       inkscape:collect="always"
       xlink:href="#linearGradient9336"
       id="linearGradient9342"
       x1="152.85715"
       y1="393.07651"
       x2="106.63506"
       y2="393.58157"
       gradientUnits="userSpaceOnUse" />
    <linearGradient
       inkscape:collect="always"
       xlink:href="#linearGradient9344"
       id="linearGradient9350"
       x1="589.42215"
       y1="459.50507"
       x2="639.7304"
       y2="459.50507"
       gradientUnits="userSpaceOnUse" />
    <linearGradient
       inkscape:collect="always"
       xlink:href="#linearGradient9344"
       id="linearGradient9352"
       x1="592.10715"
       y1="326.64792"
       x2="636.03643"
       y2="326.64792"
       gradientUnits="userSpaceOnUse" />
  </defs>
  <metadata
     id="metadata7">
    <rdf:RDF>
      <cc:Work
         rdf:about="">
        <dc:format>image/svg+xml</dc:format>
        <dc:type
           rdf:resource="http://purl.org/dc/dcmitype/StillImage" />
        <dc:title />
      </cc:Work>
    </rdf:RDF>
  </metadata>
  <g
     style="opacity:0.31862745;display:inline"
     id="layer1"
     inkscape:groupmode="layer"
     inkscape:label="vertical lines">
    <path
       inkscape:connector-curvature="0"
       id="path2987"
       d="m 152.85715,326.64792 0,132.85715"
       style="fill:none;stroke:#000000;stroke-width:3;stroke-linecap:butt;stroke-linejoin:miter;stroke-miterlimit:4;stroke-opacity:1;stroke-dasharray:none" />
    <path
       style="fill:none;stroke:#000000;stroke-width:3;stroke-linecap:butt;stroke-linejoin:miter;stroke-miterlimit:4;stroke-opacity:1;stroke-dasharray:none"
       d="m 236.85715,326.64792 0,132.85715"
       id="path2989"
       inkscape:connector-curvature="0" />
    <path
       inkscape:connector-curvature="0"
       id="path2991"
       d="m 372.85715,326.64792 0,132.85715"
       style="fill:none;stroke:#000000;stroke-width:3;stroke-linecap:butt;stroke-linejoin:miter;stroke-miterlimit:4;stroke-opacity:1;stroke-dasharray:none" />
    <path
       style="fill:none;stroke:#000000;stroke-width:3;stroke-linecap:butt;stroke-linejoin:miter;stroke-miterlimit:4;stroke-opacity:1;stroke-dasharray:none"
       d="m 592.85715,326.64792 0,132.85715"
       id="path3018"
       inkscape:connector-curvature="0" />
    <path
       inkscape:connector-curvature="0"
       id="path3020"
       d="m 472.89715,326.64792 0,132.85715"
       style="fill:none;stroke:#000000;stroke-width:3;stroke-linecap:butt;stroke-linejoin:miter;stroke-miterlimit:4;stroke-opacity:1;stroke-dasharray:none" />
  </g>
  <g
     style="display:inline"
     inkscape:label="angle annotations"
     id="layer6"
     inkscape:groupmode="layer">
    <path
       inkscape:connector-curvature="0"
       id="path8214"
       d="m 426.62773,326.64792 0,79.11567"
       style="fill:none;stroke:#000000;stroke-width:2.5;stroke-linecap:butt;stroke-linejoin:miter;stroke-miterlimit:4;stroke-opacity:1;stroke-dasharray:2.5, 2.5;stroke-dashoffset:4.75;display:inline" />
    <path
       sodipodi:open="true"
       sodipodi:end="1.5766952"
       sodipodi:start="0.76891016"
       transform="matrix(1.728,0,0,1.728,-494.14937,-36.611082)"
       d="m 554.41718,231.0799 a 30,30 0 0 1 -21.73703,9.13891"
       sodipodi:ry="30"
       sodipodi:rx="30"
       sodipodi:cy="210.21933"
       sodipodi:cx="532.85712"
       id="path9110"
       style="fill:none;stroke:#070707;stroke-width:1.44675922;stroke-linecap:butt;stroke-miterlimit:4;stroke-opacity:1;stroke-dasharray:none;stroke-dashoffset:0"
       sodipodi:type="arc" />
    <path
       sodipodi:type="arc"
       style="fill:none;stroke:#070707;stroke-width:1.44675922;stroke-linecap:butt;stroke-miterlimit:4;stroke-opacity:1;stroke-dasharray:none;stroke-dashoffset:0"
       id="path9326"
       sodipodi:cx="532.85712"
       sodipodi:cy="210.21933"
       sodipodi:rx="30"
       sodipodi:ry="30"
       d="m 554.41718,231.0799 a 30,30 0 0 1 -21.73703,9.13891"
       transform="matrix(-1.728,0,0,1.728,1347.1523,-36.611697)"
       sodipodi:start="0.76891016"
       sodipodi:end="1.5766952"
       sodipodi:open="true" />
    <path
       sodipodi:type="arc"
       style="fill:none;stroke:#070707;stroke-width:1.44675922;stroke-linecap:butt;stroke-miterlimit:4;stroke-opacity:1;stroke-dasharray:none;stroke-dashoffset:0"
       id="path9328"
       sodipodi:cx="532.85712"
       sodipodi:cy="210.21933"
       sodipodi:rx="30"
       sodipodi:ry="30"
       d="m 554.41718,231.0799 a 30,30 0 0 1 -21.73703,9.13891"
       transform="matrix(1.728,0,0,-1.728,-630.78213,822.76346)"
       sodipodi:start="0.76891016"
       sodipodi:end="1.5766952"
       sodipodi:open="true" />
    <path
       sodipodi:open="true"
       sodipodi:end="1.5766952"
       sodipodi:start="0.76891016"
       transform="matrix(-1.728,0,0,-1.728,1210.5195,822.76407)"
       d="m 554.41718,231.0799 a 30,30 0 0 1 -21.73703,9.13891"
       sodipodi:ry="30"
       sodipodi:rx="30"
       sodipodi:cy="210.21933"
       sodipodi:cx="532.85712"
       id="path9330"
       style="fill:none;stroke:#070707;stroke-width:1.44675922;stroke-linecap:butt;stroke-miterlimit:4;stroke-opacity:1;stroke-dasharray:none;stroke-dashoffset:0"
       sodipodi:type="arc" />
    <path
       style="fill:none;stroke:#000000;stroke-width:2.5;stroke-linecap:butt;stroke-linejoin:miter;stroke-miterlimit:4;stroke-opacity:1;stroke-dasharray:2.5, 2.5;stroke-dashoffset:4;display:inline"
       d="m 289.74244,380.3894 0,79.11567"
       id="path9387"
       inkscape:connector-curvature="0" />
    <g
       transform="matrix(0.60659566,0,0,0.60659566,225.49227,154.03086)"
       id="g3218"
       style="display:inline;stroke-width:1.6485446;stroke-miterlimit:4;stroke-dasharray:none">
      <g
         style="font-style:normal;font-variant:normal;font-weight:normal;font-stretch:normal;letter-spacing:normal;word-spacing:normal;text-anchor:start;fill:none;stroke:#000000;stroke-linecap:butt;stroke-linejoin:miter;stroke-miterlimit:4;stroke-opacity:1;stroke-dasharray:none;stroke-dashoffset:0;stroke-width:1.55085311"
         id="g3220"
         transform="matrix(1.0629921,0,0,-1.0629921,-186.02362,789.27165)"
         xml:space="preserve"
         stroke-miterlimit="10.433"
         font-style="normal"
         font-variant="normal"
         font-weight="normal"
         font-stretch="normal"
         font-size-adjust="none"
         letter-spacing="normal"
         word-spacing="normal"><path
           style="fill:#000000;stroke-width:1.55085311;stroke-miterlimit:4;stroke-dasharray:none"
           inkscape:connector-curvature="0"
           d="m 478.19,431.11 0,0.31 -0.01,0.34 -0.02,0.36 -0.02,0.37 -0.03,0.39 -0.04,0.39 -0.04,0.41 -0.06,0.41 -0.07,0.42 -0.07,0.43 -0.09,0.42 -0.1,0.43 -0.12,0.42 -0.12,0.42 -0.14,0.41 -0.16,0.41 -0.17,0.4 -0.18,0.38 -0.2,0.37 -0.22,0.36 -0.23,0.34 -0.25,0.32 -0.28,0.3 -0.29,0.27 -0.31,0.25 -0.16,0.12 -0.17,0.1 -0.17,0.1 -0.18,0.1 -0.18,0.08 -0.19,0.08 -0.19,0.07 -0.2,0.06 -0.21,0.05 -0.21,0.05 -0.22,0.03 -0.22,0.02 -0.23,0.02 -0.23,0 -0.05,-1.09 c 2.44,0 2.73,-3.19 2.73,-6.03 0,-2.44 -0.39,-4.99 -1.59,-9.92 h -10.41 c 0.85,3.2 1.85,7.18 3.83,10.72 1.36,2.43 3.19,5.23 5.44,5.23 l 0.05,1.09 c -6.92,0 -14.6,-14.04 -14.6,-25.45 0,-4.69 1.44,-10.22 5.99,-10.22 v 1.1 c -1.66,0 -2.71,1.45 -2.71,6.07 0,2.1 0.3,4.99 1.6,9.86 h 10.37 c -0.54,-2.28 -1.59,-6.51 -3.5,-10.11 -1.73,-3.39 -3.62,-5.82 -5.76,-5.82 v -1.1 c 7.01,0 14.59,14.3 14.59,25.46 z"
           id="path3222" /></g>    </g>
    <g
       id="g3397"
       transform="matrix(0.60659566,0,0,0.60659566,249.49227,154.03086)"
       style="display:inline;stroke-width:1.6485446;stroke-miterlimit:4;stroke-dasharray:none">
      <g
         word-spacing="normal"
         letter-spacing="normal"
         font-size-adjust="none"
         font-stretch="normal"
         font-weight="normal"
         font-variant="normal"
         font-style="normal"
         stroke-miterlimit="10.433"
         xml:space="preserve"
         transform="matrix(1.0629921,0,0,-1.0629921,-186.02362,789.27165)"
         id="g3399"
         style="font-style:normal;font-variant:normal;font-weight:normal;font-stretch:normal;letter-spacing:normal;word-spacing:normal;text-anchor:start;fill:none;stroke:#000000;stroke-linecap:butt;stroke-linejoin:miter;stroke-miterlimit:4;stroke-opacity:1;stroke-dasharray:none;stroke-dashoffset:0;stroke-width:1.55085311"><path
           id="path3401"
           d="m 478.19,431.11 0,0.31 -0.01,0.34 -0.02,0.36 -0.02,0.37 -0.03,0.39 -0.04,0.39 -0.04,0.41 -0.06,0.41 -0.07,0.42 -0.07,0.43 -0.09,0.42 -0.1,0.43 -0.12,0.42 -0.12,0.42 -0.14,0.41 -0.16,0.41 -0.17,0.4 -0.18,0.38 -0.2,0.37 -0.22,0.36 -0.23,0.34 -0.25,0.32 -0.28,0.3 -0.29,0.27 -0.31,0.25 -0.16,0.12 -0.17,0.1 -0.17,0.1 -0.18,0.1 -0.18,0.08 -0.19,0.08 -0.19,0.07 -0.2,0.06 -0.21,0.05 -0.21,0.05 -0.22,0.03 -0.22,0.02 -0.23,0.02 -0.23,0 -0.05,-1.09 c 2.44,0 2.73,-3.19 2.73,-6.03 0,-2.44 -0.39,-4.99 -1.59,-9.92 h -10.41 c 0.85,3.2 1.85,7.18 3.83,10.72 1.36,2.43 3.19,5.23 5.44,5.23 l 0.05,1.09 c -6.92,0 -14.6,-14.04 -14.6,-25.45 0,-4.69 1.44,-10.22 5.99,-10.22 v 1.1 c -1.66,0 -2.71,1.45 -2.71,6.07 0,2.1 0.3,4.99 1.6,9.86 h 10.37 c -0.54,-2.28 -1.59,-6.51 -3.5,-10.11 -1.73,-3.39 -3.62,-5.82 -5.76,-5.82 v -1.1 c 7.01,0 14.59,14.3 14.59,25.46 z"
           inkscape:connector-curvature="0"
           style="fill:#000000;stroke-width:1.55085311;stroke-miterlimit:4;stroke-dasharray:none" /></g>    </g>
    <g
       id="g3403"
       transform="matrix(0.60659566,0,0,0.60659566,114.10913,222.75693)"
       style="display:inline;stroke-width:1.6485446;stroke-miterlimit:4;stroke-dasharray:none">
      <g
         word-spacing="normal"
         letter-spacing="normal"
         font-size-adjust="none"
         font-stretch="normal"
         font-weight="normal"
         font-variant="normal"
         font-style="normal"
         stroke-miterlimit="10.433"
         xml:space="preserve"
         transform="matrix(1.0629921,0,0,-1.0629921,-186.02362,789.27165)"
         id="g3405"
         style="font-style:normal;font-variant:normal;font-weight:normal;font-stretch:normal;letter-spacing:normal;word-spacing:normal;text-anchor:start;fill:none;stroke:#000000;stroke-linecap:butt;stroke-linejoin:miter;stroke-miterlimit:4;stroke-opacity:1;stroke-dasharray:none;stroke-dashoffset:0;stroke-width:1.55085311"><path
           id="path3407"
           d="m 478.19,431.11 0,0.31 -0.01,0.34 -0.02,0.36 -0.02,0.37 -0.03,0.39 -0.04,0.39 -0.04,0.41 -0.06,0.41 -0.07,0.42 -0.07,0.43 -0.09,0.42 -0.1,0.43 -0.12,0.42 -0.12,0.42 -0.14,0.41 -0.16,0.41 -0.17,0.4 -0.18,0.38 -0.2,0.37 -0.22,0.36 -0.23,0.34 -0.25,0.32 -0.28,0.3 -0.29,0.27 -0.31,0.25 -0.16,0.12 -0.17,0.1 -0.17,0.1 -0.18,0.1 -0.18,0.08 -0.19,0.08 -0.19,0.07 -0.2,0.06 -0.21,0.05 -0.21,0.05 -0.22,0.03 -0.22,0.02 -0.23,0.02 -0.23,0 -0.05,-1.09 c 2.44,0 2.73,-3.19 2.73,-6.03 0,-2.44 -0.39,-4.99 -1.59,-9.92 h -10.41 c 0.85,3.2 1.85,7.18 3.83,10.72 1.36,2.43 3.19,5.23 5.44,5.23 l 0.05,1.09 c -6.92,0 -14.6,-14.04 -14.6,-25.45 0,-4.69 1.44,-10.22 5.99,-10.22 v 1.1 c -1.66,0 -2.71,1.45 -2.71,6.07 0,2.1 0.3,4.99 1.6,9.86 h 10.37 c -0.54,-2.28 -1.59,-6.51 -3.5,-10.11 -1.73,-3.39 -3.62,-5.82 -5.76,-5.82 v -1.1 c 7.01,0 14.59,14.3 14.59,25.46 z"
           inkscape:connector-curvature="0"
           style="fill:#000000;stroke-width:1.55085311;stroke-miterlimit:4;stroke-dasharray:none" /></g>    </g>
    <g
       transform="matrix(0.60659566,0,0,0.60659566,88.10913,222.75693)"
       id="g3409"
       style="display:inline;stroke-width:1.6485446;stroke-miterlimit:4;stroke-dasharray:none">
      <g
         style="font-style:normal;font-variant:normal;font-weight:normal;font-stretch:normal;letter-spacing:normal;word-spacing:normal;text-anchor:start;fill:none;stroke:#000000;stroke-linecap:butt;stroke-linejoin:miter;stroke-miterlimit:4;stroke-opacity:1;stroke-dasharray:none;stroke-dashoffset:0;stroke-width:1.55085311"
         id="g3411"
         transform="matrix(1.0629921,0,0,-1.0629921,-186.02362,789.27165)"
         xml:space="preserve"
         stroke-miterlimit="10.433"
         font-style="normal"
         font-variant="normal"
         font-weight="normal"
         font-stretch="normal"
         font-size-adjust="none"
         letter-spacing="normal"
         word-spacing="normal"><path
           style="fill:#000000;stroke-width:1.55085311;stroke-miterlimit:4;stroke-dasharray:none"
           inkscape:connector-curvature="0"
           d="m 478.19,431.11 0,0.31 -0.01,0.34 -0.02,0.36 -0.02,0.37 -0.03,0.39 -0.04,0.39 -0.04,0.41 -0.06,0.41 -0.07,0.42 -0.07,0.43 -0.09,0.42 -0.1,0.43 -0.12,0.42 -0.12,0.42 -0.14,0.41 -0.16,0.41 -0.17,0.4 -0.18,0.38 -0.2,0.37 -0.22,0.36 -0.23,0.34 -0.25,0.32 -0.28,0.3 -0.29,0.27 -0.31,0.25 -0.16,0.12 -0.17,0.1 -0.17,0.1 -0.18,0.1 -0.18,0.08 -0.19,0.08 -0.19,0.07 -0.2,0.06 -0.21,0.05 -0.21,0.05 -0.22,0.03 -0.22,0.02 -0.23,0.02 -0.23,0 -0.05,-1.09 c 2.44,0 2.73,-3.19 2.73,-6.03 0,-2.44 -0.39,-4.99 -1.59,-9.92 h -10.41 c 0.85,3.2 1.85,7.18 3.83,10.72 1.36,2.43 3.19,5.23 5.44,5.23 l 0.05,1.09 c -6.92,0 -14.6,-14.04 -14.6,-25.45 0,-4.69 1.44,-10.22 5.99,-10.22 v 1.1 c -1.66,0 -2.71,1.45 -2.71,6.07 0,2.1 0.3,4.99 1.6,9.86 h 10.37 c -0.54,-2.28 -1.59,-6.51 -3.5,-10.11 -1.73,-3.39 -3.62,-5.82 -5.76,-5.82 v -1.1 c 7.01,0 14.59,14.3 14.59,25.46 z"
           id="path3413" /></g>    </g>
  </g>
  <g
     style="display:inline"
     inkscape:label="ray_annotations"
     id="layer7"
     inkscape:groupmode="layer">
    <g
       id="g8489"
       transform="matrix(0.59049,0,0,0.59049,355.76853,296.49155)"
       style="stroke-width:1.69350874;stroke-miterlimit:4;stroke-dasharray:none">
      <g
         word-spacing="normal"
         letter-spacing="normal"
         font-size-adjust="none"
         font-stretch="normal"
         font-weight="normal"
         font-variant="normal"
         font-style="normal"
         stroke-miterlimit="10.433"
         xml:space="preserve"
         transform="matrix(1.0629921,0,0,-1.0629921,-186.02362,789.27165)"
         id="g8491"
         style="font-style:normal;font-variant:normal;font-weight:normal;font-stretch:normal;letter-spacing:normal;word-spacing:normal;text-anchor:start;fill:none;stroke:#000000;stroke-width:1.59315276;stroke-linecap:butt;stroke-linejoin:miter;stroke-miterlimit:4;stroke-opacity:1;stroke-dasharray:none;stroke-dashoffset:0"><path
           id="path8493"
           d="m 478.19,431.11 0,0.31 -0.01,0.34 -0.02,0.36 -0.02,0.37 -0.03,0.39 -0.04,0.39 -0.04,0.41 -0.06,0.41 -0.07,0.42 -0.07,0.43 -0.09,0.42 -0.1,0.43 -0.12,0.42 -0.12,0.42 -0.14,0.41 -0.16,0.41 -0.17,0.4 -0.18,0.38 -0.2,0.37 -0.22,0.36 -0.23,0.34 -0.25,0.32 -0.28,0.3 -0.29,0.27 -0.31,0.25 -0.16,0.12 -0.17,0.1 -0.17,0.1 -0.18,0.1 -0.18,0.08 -0.19,0.08 -0.19,0.07 -0.2,0.06 -0.21,0.05 -0.21,0.05 -0.22,0.03 -0.22,0.02 -0.23,0.02 -0.23,0 -0.05,-1.09 c 2.44,0 2.73,-3.19 2.73,-6.03 0,-2.44 -0.39,-4.99 -1.59,-9.92 h -10.41 c 0.85,3.2 1.85,7.18 3.83,10.72 1.36,2.43 3.19,5.23 5.44,5.23 l 0.05,1.09 c -6.92,0 -14.6,-14.04 -14.6,-25.45 0,-4.69 1.44,-10.22 5.99,-10.22 v 1.1 c -1.66,0 -2.71,1.45 -2.71,6.07 0,2.1 0.3,4.99 1.6,9.86 h 10.37 c -0.54,-2.28 -1.59,-6.51 -3.5,-10.11 -1.73,-3.39 -3.62,-5.82 -5.76,-5.82 v -1.1 c 7.01,0 14.59,14.3 14.59,25.46 z"
           inkscape:connector-curvature="0"
           style="fill:#000000;stroke-width:1.59315276;stroke-miterlimit:4;stroke-dasharray:none" /><path
           id="path8495"
           d="m 527.78,417.56 0.11,0.05 0.09,0.04 0.05,0.03 0.05,0.02 0.04,0.03 0.04,0.02 0.05,0.03 0.04,0.02 0.04,0.03 0.04,0.03 0.03,0.03 0.04,0.03 0.03,0.03 0.04,0.03 0.03,0.03 0.03,0.03 0.02,0.04 0.03,0.03 0.02,0.04 0.03,0.04 0.02,0.04 0.02,0.04 0.01,0.04 0.02,0.04 0.01,0.05 0.01,0.05 0.01,0.04 0,0.05 0.01,0.06 0,0.05 c 0,0.6 -0.41,0.85 -0.96,1.1 l -27.59,13.01 c -0.65,0.35 -0.75,0.35 -0.9,0.35 -0.55,0 -0.99,-0.46 -0.99,-1 0,-0.46 0.25,-0.75 0.94,-1.1 l 26.16,-12.36 -26.16,-12.36 c -0.69,-0.34 -0.94,-0.64 -0.94,-1.09 0,-0.55 0.44,-1 0.99,-1 0.15,0 0.25,0 0.9,0.36 z"
           inkscape:connector-curvature="0"
           style="fill:#000000;stroke-width:1.59315276;stroke-miterlimit:4;stroke-dasharray:none" /><path
           id="path8497"
           d="m 569.39,431.11 -0.01,0.31 0,0.34 -0.02,0.36 -0.02,0.37 -0.03,0.39 -0.04,0.39 -0.05,0.41 -0.05,0.41 -0.07,0.42 -0.08,0.43 -0.09,0.42 -0.1,0.43 -0.11,0.42 -0.13,0.42 -0.14,0.41 -0.15,0.41 -0.17,0.4 -0.18,0.38 -0.21,0.37 -0.21,0.36 -0.24,0.34 -0.25,0.32 -0.27,0.3 -0.29,0.27 -0.31,0.25 -0.16,0.12 -0.17,0.1 -0.17,0.1 -0.18,0.1 -0.18,0.08 -0.19,0.08 -0.2,0.07 -0.2,0.06 -0.2,0.05 -0.21,0.05 -0.22,0.03 -0.22,0.02 -0.23,0.02 -0.24,0 -0.05,-1.09 c 2.44,0 2.74,-3.19 2.74,-6.03 0,-2.44 -0.39,-4.99 -1.59,-9.92 h -10.41 c 0.84,3.2 1.84,7.18 3.83,10.72 1.36,2.43 3.18,5.23 5.43,5.23 l 0.05,1.09 c -6.92,0 -14.59,-14.04 -14.59,-25.45 0,-4.69 1.44,-10.22 5.98,-10.22 v 1.1 c -1.65,0 -2.7,1.45 -2.7,6.07 0,2.1 0.3,4.99 1.59,9.86 h 10.38 c -0.55,-2.28 -1.59,-6.51 -3.5,-10.11 -1.74,-3.39 -3.63,-5.82 -5.77,-5.82 v -1.1 c 7.02,0 14.6,14.3 14.6,25.46 z"
           inkscape:connector-curvature="0"
           style="fill:#000000;stroke-width:1.59315276;stroke-miterlimit:4;stroke-dasharray:none" /><path
           id="path8499"
           d="m 576.75,401.48 -0.03,-0.11 -0.03,-0.1 -0.03,-0.1 -0.03,-0.09 -0.02,-0.09 -0.03,-0.09 -0.04,-0.08 -0.03,-0.07 -0.04,-0.07 -0.03,-0.07 -0.05,-0.06 -0.05,-0.06 -0.05,-0.05 -0.06,-0.05 -0.06,-0.05 -0.07,-0.04 -0.08,-0.04 -0.08,-0.03 -0.1,-0.04 -0.1,-0.03 -0.11,-0.02 -0.06,-0.02 -0.06,-0.01 -0.06,-0.01 -0.07,-0.01 -0.07,-0.01 -0.07,-0.01 -0.08,0 -0.07,-0.01 -0.08,-0.01 -0.09,0 -0.08,-0.01 -0.09,-0.01 -0.1,0 -0.09,0 -0.1,-0.01 -0.1,0 -0.11,0 -0.11,0 -0.11,-0.01 -0.12,0 -0.12,0 -0.12,0 c -0.58,0 -1.03,0 -1.03,-0.73 0,-0.52 0.4,-0.52 1.03,-0.52 h 13.48 c 5.86,0 10.36,4 10.36,7.45 0,2.49 -2.26,4.61 -5.97,4.99 4.22,0.76 7.75,3.42 7.75,6.41 0,2.65 -2.69,4.95 -7.22,4.95 l -0.56,-1.25 c 3.56,0 4.36,-2.35 4.36,-3.66 0,-2.83 -3.17,-6.03 -7.84,-6.03 h -5.71 l -0.25,-0.98 h 7.4 c 3.26,0 4.53,-2.16 4.53,-4.18 0,-3.45 -3.53,-6.45 -7.74,-6.45 h -5.62 c -1.08,0 -1.11,0.05 -1.11,0.36 0,0.03 0,0.2 0.14,0.72 l 2.4,9.55 0.25,0.98 2.13,8.5 c 0.27,1.08 0.31,1.19 1.77,1.19 h 5.29 l 0.56,1.25 h -12.68 c -0.66,0 -1.11,0 -1.11,-0.77 0,-0.48 0.42,-0.48 1.11,-0.48 0.03,0 0.7,0 1.33,-0.08 0.73,-0.06 0.79,-0.14 0.79,-0.48 0,-0.07 0,-0.24 -0.14,-0.77 z"
           inkscape:connector-curvature="0"
           style="fill:#000000;stroke-width:1.59315276;stroke-miterlimit:4;stroke-dasharray:none" /></g>    </g>
    <path
       sodipodi:nodetypes="cc"
       inkscape:connector-curvature="0"
       id="path11399"
       d="m 614.14041,445.13669 c -48.36588,26.83943 -78.84871,-12.8459 -78.84871,-12.8459"
       style="fill:none;stroke:#000000;stroke-width:2.5;stroke-linecap:butt;stroke-linejoin:miter;stroke-miterlimit:4;stroke-opacity:1;stroke-dasharray:none;marker-end:url(#Arrow2Mend);display:inline" />
    <text
       sodipodi:linespacing="125%"
       id="text11401"
       y="447.13672"
       x="616.14044"
       style="font-size:22px;font-style:normal;font-variant:normal;font-weight:normal;font-stretch:normal;text-align:start;line-height:125%;letter-spacing:0px;word-spacing:0px;writing-mode:lr-tb;text-anchor:start;fill:#000000;fill-opacity:1;stroke:none;display:inline;font-family:Serif;-inkscape-font-specification:Serif"
       xml:space="preserve"><tspan
         style="font-weight:bold;-inkscape-font-specification:Serif Bold"
         sodipodi:role="line"
         id="tspan9799"
         x="616.14044"
         y="447.13672">r<tspan
   style="font-size:65.00091553000000033%;text-align:start;text-anchor:start;baseline-shift:sub;font-weight:bold;-inkscape-font-specification:Serif Bold"
   id="tspan9801">i,u </tspan></tspan></text>
    <path
       style="fill:none;stroke:#000000;stroke-width:2.5;stroke-linecap:butt;stroke-linejoin:miter;stroke-miterlimit:4;stroke-opacity:1;stroke-dasharray:none;marker-end:url(#Arrow2Mend);display:inline"
       d="M 238.17451,306.05517 C 189.80863,279.21574 159.3258,318.90108 159.3258,318.90108"
       id="path3125"
       inkscape:connector-curvature="0"
       sodipodi:nodetypes="cc" />
    <text
       xml:space="preserve"
       style="font-size:22px;font-style:normal;font-variant:normal;font-weight:normal;font-stretch:normal;text-align:start;line-height:125%;letter-spacing:0px;word-spacing:0px;writing-mode:lr-tb;text-anchor:start;fill:#000000;fill-opacity:1;stroke:none;display:inline;font-family:Serif;-inkscape-font-specification:Serif;stroke-width:2;stroke-miterlimit:4;stroke-dasharray:none"
       x="240.17451"
       y="306.05521"
       id="text4107"
       sodipodi:linespacing="125%"><tspan
         sodipodi:role="line"
         x="240.17451"
         y="306.05521"
         id="tspan11373"
         style="text-align:start;text-anchor:start;baseline-shift:baseline;stroke-width:2;stroke-miterlimit:4;stroke-dasharray:none"><tspan
           id="tspan8385"
           style="font-weight:bold;-inkscape-font-specification:Serif Bold">s</tspan><tspan
           id="tspan11491"
           style="font-size:65.00091553%;font-weight:bold;baseline-shift:sub;stroke-width:2;stroke-miterlimit:4;stroke-dasharray:none;-inkscape-font-specification:Serif Bold">i </tspan></tspan></text>
    <path
       sodipodi:nodetypes="cc"
       inkscape:connector-curvature="0"
       id="path9389"
       d="m 507.38016,308.51964 c -48.36588,-26.83943 -78.84871,12.84591 -78.84871,12.84591"
       style="fill:none;stroke:#000000;stroke-width:2.5;stroke-linecap:butt;stroke-linejoin:miter;stroke-miterlimit:4;stroke-opacity:1;stroke-dasharray:none;marker-end:url(#Arrow2Mend);display:inline" />
    <path
       style="fill:none;stroke:#000000;stroke-width:2.5;stroke-linecap:butt;stroke-linejoin:miter;stroke-miterlimit:4;stroke-opacity:1;stroke-dasharray:none;marker-end:url(#Arrow2Mend);display:inline"
       d="m 370.59115,478.35097 c -48.36588,26.83943 -78.84871,-12.8459 -78.84871,-12.8459"
       id="path9397"
       inkscape:connector-curvature="0"
       sodipodi:nodetypes="cc" />
    <text
       xml:space="preserve"
       style="font-size:22px;font-style:normal;font-variant:normal;font-weight:normal;font-stretch:normal;text-align:start;line-height:125%;letter-spacing:0px;word-spacing:0px;writing-mode:lr-tb;text-anchor:start;fill:#000000;fill-opacity:1;stroke:none;display:inline;font-family:Serif;-inkscape-font-specification:Serif"
       x="509.38016"
       y="308.51965"
       id="text9413"
       sodipodi:linespacing="125%"><tspan
         style="font-weight:bold;-inkscape-font-specification:Serif Bold"
         sodipodi:role="line"
         id="tspan9415"
         x="509.38016"
         y="308.51965">m<tspan
   id="tspan11493"
   style="font-size:65.00091553000000033%;baseline-shift:sub;font-weight:bold;-inkscape-font-specification:Serif Bold">i,u,1</tspan></tspan></text>
    <text
       xml:space="preserve"
       style="font-size:22px;font-style:normal;font-variant:normal;font-weight:normal;font-stretch:normal;text-align:start;line-height:125%;letter-spacing:0px;word-spacing:0px;writing-mode:lr-tb;text-anchor:start;fill:#000000;fill-opacity:1;stroke:none;display:inline;font-family:Serif;-inkscape-font-specification:Serif"
       x="372.59116"
       y="482.35098"
       id="text9419"
       sodipodi:linespacing="125%"><tspan
         style="font-weight:bold;-inkscape-font-specification:Serif Bold"
         sodipodi:role="line"
         id="tspan9421"
         x="372.59116"
         y="482.35098">m<tspan
   id="tspan11495"
   style="font-size:65.00091553000000033%;baseline-shift:sub;font-weight:bold;-inkscape-font-specification:Serif Bold">i,u,2</tspan></tspan></text>
    <g
       id="g48171"
       style="display:inline"
       transform="translate(-9.392852,66.428605)">
      <g
         transform="translate(37.142857,-4.2857147)"
         id="g9036">
        <path
           style="fill:none;stroke:#000000;stroke-width:2;stroke-linecap:butt;stroke-linejoin:miter;stroke-opacity:1;marker-start:url(#Arrow1Mstart);marker-end:none;stroke-miterlimit:4;stroke-dasharray:none"
           d="m 80.714285,397.36218 0.714286,72.85715"
           id="path46085"
           inkscape:connector-curvature="0" />
        <text
           xml:space="preserve"
           style="font-size:22px;font-style:normal;font-variant:normal;font-weight:normal;font-stretch:normal;text-align:start;line-height:125%;letter-spacing:0px;word-spacing:0px;writing-mode:lr-tb;text-anchor:start;fill:#000000;fill-opacity:1;stroke:none;font-family:Serif;-inkscape-font-specification:Serif"
           x="63.57143"
           y="413.79077"
           id="text48139"
           sodipodi:linespacing="125%"><tspan
             style="font-weight:bold;-inkscape-font-specification:Serif Bold"
             sodipodi:role="line"
             id="tspan48141"
             x="63.57143"
             y="413.79077">z</tspan></text>
        <text
           xml:space="preserve"
           style="font-size:22px;font-style:normal;font-variant:normal;font-weight:normal;font-stretch:normal;text-align:start;line-height:125%;letter-spacing:0px;word-spacing:0px;writing-mode:lr-tb;text-anchor:start;fill:#000000;fill-opacity:1;stroke:none;font-family:Serif;-inkscape-font-specification:Serif"
           x="135"
           y="474.50504"
           id="text48147"
           sodipodi:linespacing="125%"><tspan
             style="font-weight:bold;-inkscape-font-specification:Serif Bold"
             sodipodi:role="line"
             id="tspan48149"
             x="135"
             y="474.50504">x</tspan></text>
        <path
           inkscape:connector-curvature="0"
           id="path9034"
           d="m 139.42297,456.51065 -72.857154,0.71428"
           style="fill:none;stroke:#000000;stroke-width:2;stroke-linecap:butt;stroke-linejoin:miter;stroke-opacity:1;marker-start:url(#Arrow1Mstart);marker-end:none;stroke-miterlimit:4;stroke-dasharray:none" />
      </g>
    </g>
  </g>
  <g
     style="display:inline"
     inkscape:label="ray"
     id="layer4"
     inkscape:groupmode="layer">
    <path
       inkscape:connector-curvature="0"
       id="path5449"
       d="M 426.62773,326.64792 529.2917,426.29079"
       style="fill:none;stroke:#ff0000;stroke-width:3;stroke-linecap:butt;stroke-linejoin:miter;stroke-miterlimit:4;stroke-opacity:1;stroke-dasharray:none;marker-end:url(#SquareM);display:inline" />
    <path
       style="fill:none;stroke:#ff0000;stroke-width:3;stroke-linecap:butt;stroke-linejoin:miter;stroke-miterlimit:4;stroke-opacity:1;stroke-dasharray:none;display:inline"
       d="M 426.62773,326.64792 289.74244,459.50507"
       id="path5402"
       inkscape:connector-curvature="0" />
    <path
       inkscape:connector-curvature="0"
       id="path5396"
       d="M 152.85715,326.64792 289.74244,459.50507"
       style="fill:none;stroke:#ff0000;stroke-width:3;stroke-linecap:butt;stroke-linejoin:miter;stroke-miterlimit:4;stroke-opacity:1;stroke-dasharray:none;display:inline" />
  </g>
  <g
     style="display:inline"
     inkscape:label="surface"
     id="layer2"
     inkscape:groupmode="layer">
    <path
       inkscape:connector-curvature="0"
       id="path5412"
       d="m 152.85715,326.64792 84,0"
       style="fill:none;stroke:#000000;stroke-width:3;stroke-linecap:butt;stroke-linejoin:miter;stroke-miterlimit:4;stroke-opacity:1;stroke-dasharray:none;marker-start:url(#DiamondM);marker-end:url(#DotM)" />
    <path
       inkscape:connector-curvature="0"
       id="path5416"
       d="m 236.85715,326.64792 136,0"
       style="fill:none;stroke:#000000;stroke-width:3;stroke-linecap:butt;stroke-linejoin:miter;stroke-miterlimit:4;stroke-opacity:1;stroke-dasharray:none;marker-start:none;marker-end:url(#DotM)" />
    <path
       inkscape:connector-curvature="0"
       id="path5418"
       d="m 426.62773,326.64792 46.26942,0"
       style="fill:none;stroke:#000000;stroke-width:3;stroke-linecap:butt;stroke-linejoin:miter;stroke-miterlimit:4;stroke-opacity:1;stroke-dasharray:none;marker-end:url(#DotM)" />
    <path
       inkscape:connector-curvature="0"
       id="path5420"
       d="m 592.85715,326.64792 -119.96,0"
       style="fill:none;stroke:#000000;stroke-width:3;stroke-linecap:butt;stroke-linejoin:miter;stroke-miterlimit:4;stroke-opacity:1;stroke-dasharray:none;marker-start:url(#DotM)" />
    <path
       inkscape:connector-curvature="0"
       id="path5422"
       d="m 472.89715,459.50507 119.96,0"
       style="fill:none;stroke:#000000;stroke-width:3;stroke-linecap:butt;stroke-linejoin:miter;stroke-miterlimit:4;stroke-opacity:1;stroke-dasharray:none;marker-start:url(#DotM)" />
    <path
       inkscape:connector-curvature="0"
       id="path5424"
       d="m 372.85715,459.50507 -83.11471,0"
       style="fill:none;stroke:#000000;stroke-width:3;stroke-linecap:butt;stroke-linejoin:miter;stroke-miterlimit:4;stroke-opacity:1;stroke-dasharray:none" />
    <path
       inkscape:connector-curvature="0"
       id="path5426"
       d="m 152.85715,459.50507 84,0"
       style="fill:none;stroke:#000000;stroke-width:3;stroke-linecap:butt;stroke-linejoin:miter;stroke-miterlimit:4;stroke-opacity:1;stroke-dasharray:none;marker-start:url(#DotM);marker-end:none" />
    <path
       inkscape:connector-curvature="0"
       id="path5428"
       d="m 472.89715,459.50507 -100.04,0"
       style="fill:none;stroke:#000000;stroke-width:3;stroke-linecap:butt;stroke-linejoin:miter;stroke-miterlimit:4;stroke-opacity:1;stroke-dasharray:none;marker-end:url(#DotM)" />
    <path
       inkscape:connector-curvature="0"
       id="path5430"
       d="m 372.85715,326.64792 53.77058,0"
       style="fill:none;stroke:#000000;stroke-width:3;stroke-linecap:butt;stroke-linejoin:miter;stroke-miterlimit:4;stroke-opacity:1;stroke-dasharray:none" />
    <path
       inkscape:connector-curvature="0"
       id="path5432"
       d="m 236.85715,459.50507 52.88529,0"
       style="fill:none;stroke:#000000;stroke-width:3;stroke-linecap:butt;stroke-linejoin:miter;stroke-miterlimit:4;stroke-opacity:1;stroke-dasharray:none;marker-start:url(#DotM)" />
    <g
       id="g9332"
       style="stroke:url(#linearGradient9342);stroke-width:3;stroke-miterlimit:4;stroke-dasharray:none">
      <path
         inkscape:connector-curvature="0"
         id="path5434"
         d="m 109.39846,326.64792 43.45869,0"
         style="fill:none;stroke:url(#linearGradient9342);stroke-width:3;stroke-linecap:butt;stroke-linejoin:miter;stroke-miterlimit:4;stroke-opacity:1;stroke-dasharray:none" />
      <path
         style="fill:none;stroke:url(#linearGradient9342);stroke-width:3;stroke-linecap:butt;stroke-linejoin:miter;stroke-miterlimit:4;stroke-opacity:1;stroke-dasharray:none"
         d="m 108.46429,459.50507 44.39286,0"
         id="path5436"
         inkscape:connector-curvature="0" />
    </g>
    <path
       style="fill:none;stroke:url(#linearGradient9350);stroke-width:3;stroke-linecap:butt;stroke-linejoin:miter;stroke-miterlimit:4;stroke-opacity:1;stroke-dasharray:none;marker-start:url(#DotM)"
       d="m 592.85715,459.50507 46.12325,0"
       id="path5438"
       inkscape:connector-curvature="0" />
    <path
       inkscape:connector-curvature="0"
       id="path5440"
       d="m 592.85715,326.64792 42.42928,0"
       style="fill:none;stroke:url(#linearGradient9352);stroke-width:3;stroke-linecap:butt;stroke-linejoin:miter;stroke-miterlimit:4;stroke-opacity:1;stroke-dasharray:none" />
  </g>
</svg>
