<?xml version="1.0" encoding="UTF-8" standalone="no"?>
<!-- Created with Inkscape (http://www.inkscape.org/) -->

<svg
   xmlns:osb="http://www.openswatchbook.org/uri/2009/osb"
   xmlns:dc="http://purl.org/dc/elements/1.1/"
   xmlns:cc="http://creativecommons.org/ns#"
   xmlns:rdf="http://www.w3.org/1999/02/22-rdf-syntax-ns#"
   xmlns:svg="http://www.w3.org/2000/svg"
   xmlns="http://www.w3.org/2000/svg"
   xmlns:xlink="http://www.w3.org/1999/xlink"
   xmlns:sodipodi="http://sodipodi.sourceforge.net/DTD/sodipodi-0.dtd"
   xmlns:inkscape="http://www.inkscape.org/namespaces/inkscape"
   sodipodi:docname="thread_detail1.svg"
   inkscape:version="0.48.4 r9939"
   version="1.1"
   id="svg2"
   height="968.22852"
   width="900.11456"
   inkscape:export-filename="/home/carli/Dokumente/TUD/CUDA/projekt/git/octrace/paper/graphics/kernel_detail3.png"
   inkscape:export-xdpi="90"
   inkscape:export-ydpi="90">
  <sodipodi:namedview
     id="base"
     pagecolor="#ffffff"
     bordercolor="#666666"
     borderopacity="1.0"
     inkscape:pageopacity="0.0"
     inkscape:pageshadow="2"
     inkscape:zoom="0.7331474"
     inkscape:cx="427.90873"
     inkscape:cy="499.14815"
     inkscape:document-units="px"
     inkscape:current-layer="layer5"
     showgrid="false"
     inkscape:object-paths="true"
     inkscape:object-nodes="true"
     inkscape:snap-smooth-nodes="true"
     inkscape:snap-midpoints="true"
     inkscape:window-width="798"
     inkscape:window-height="879"
     inkscape:window-x="0"
     inkscape:window-y="19"
     inkscape:window-maximized="0"
     showguides="true"
     inkscape:guide-bbox="true"
     fit-margin-left="100"
     fit-margin-right="100"
     fit-margin-bottom="100"
     fit-margin-top="100"
     inkscape:snap-nodes="true"
     inkscape:snap-intersection-paths="true"
     inkscape:snap-object-midpoints="true" />
  <defs
     id="defs4">
    <marker
       inkscape:stockid="TriangleOutM"
       orient="auto"
       refY="0"
       refX="0"
       id="TriangleOutM"
       style="overflow:visible">
      <path
         id="path4507"
         d="m 5.77,0 -8.65,5 0,-10 8.65,5 z"
         style="fill-rule:evenodd;stroke:#000000;stroke-width:1pt"
         transform="scale(0.4,0.4)"
         inkscape:connector-curvature="0" />
    </marker>
    <linearGradient
       id="linearGradient11392">
      <stop
         id="stop11394"
         offset="0"
         style="stop-color:#000000;stop-opacity:1;" />
      <stop
         id="stop11396"
         offset="1"
         style="stop-color:#000000;stop-opacity:0.14655173;" />
    </linearGradient>
    <marker
       style="overflow:visible"
       id="TriangleOutS"
       refX="0"
       refY="0"
       orient="auto"
       inkscape:stockid="TriangleOutS">
      <path
         transform="scale(0.2,0.2)"
         style="fill-rule:evenodd;stroke:#000000;stroke-width:1pt"
         d="m 5.77,0 -8.65,5 0,-10 8.65,5 z"
         id="path4510"
         inkscape:connector-curvature="0" />
    </marker>
    <marker
       style="overflow:visible"
       id="Arrow1Send"
       refX="0"
       refY="0"
       orient="auto"
       inkscape:stockid="Arrow1Send">
      <path
         transform="matrix(-0.2,0,0,-0.2,-1.2,0)"
         style="fill-rule:evenodd;stroke:#000000;stroke-width:1pt"
         d="M 0,0 5,-5 -12.5,0 5,5 0,0 z"
         id="path4377"
         inkscape:connector-curvature="0" />
    </marker>
    <marker
       style="overflow:visible"
       id="Arrow1Mend"
       refX="0"
       refY="0"
       orient="auto"
       inkscape:stockid="Arrow1Mend">
      <path
         inkscape:connector-curvature="0"
         transform="matrix(-0.4,0,0,-0.4,-4,0)"
         style="fill-rule:evenodd;stroke:#000000;stroke-width:1pt"
         d="M 0,0 5,-5 -12.5,0 5,5 0,0 z"
         id="path4371" />
    </marker>
    <marker
       style="overflow:visible"
       id="Arrow2Mend"
       refX="0"
       refY="0"
       orient="auto"
       inkscape:stockid="Arrow2Mend">
      <path
         inkscape:connector-curvature="0"
         transform="scale(-0.6,-0.6)"
         d="M 8.7185878,4.0337352 -2.2072895,0.01601326 8.7185884,-4.0017078 c -1.7454984,2.3720609 -1.7354408,5.6174519 -6e-7,8.035443 z"
         style="fill-rule:evenodd;stroke-width:0.625;stroke-linejoin:round"
         id="path4389" />
    </marker>
    <marker
       style="overflow:visible"
       id="EmptyTriangleInL"
       refX="0"
       refY="0"
       orient="auto"
       inkscape:stockid="EmptyTriangleInL">
      <path
         inkscape:connector-curvature="0"
         transform="matrix(-0.8,0,0,-0.8,4.8,0)"
         style="fill:#ffffff;fill-rule:evenodd;stroke:#000000;stroke-width:1pt"
         d="m 5.77,0 -8.65,5 0,-10 8.65,5 z"
         id="path4513" />
    </marker>
    <marker
       style="overflow:visible"
       id="Arrow2Lend"
       refX="0"
       refY="0"
       orient="auto"
       inkscape:stockid="Arrow2Lend">
      <path
         inkscape:connector-curvature="0"
         transform="matrix(-1.1,0,0,-1.1,-1.1,0)"
         d="M 8.7185878,4.0337352 -2.2072895,0.01601326 8.7185884,-4.0017078 c -1.7454984,2.3720609 -1.7354408,5.6174519 -6e-7,8.035443 z"
         style="fill-rule:evenodd;stroke-width:0.625;stroke-linejoin:round"
         id="path4383" />
    </marker>
    <linearGradient
       osb:paint="solid"
       id="linearGradient4283">
      <stop
         id="stop4285"
         offset="0"
         style="stop-color:#000000;stop-opacity:1;" />
    </linearGradient>
    <marker
       style="overflow:visible"
       id="Arrow1Lend"
       refX="0"
       refY="0"
       orient="auto"
       inkscape:stockid="Arrow1Lend">
      <path
         inkscape:connector-curvature="0"
         transform="matrix(-0.8,0,0,-0.8,-10,0)"
         style="fill-rule:evenodd;stroke:#000000;stroke-width:1pt"
         d="M 0,0 5,-5 -12.5,0 5,5 0,0 z"
         id="path3820" />
    </marker>
    <linearGradient
       gradientTransform="matrix(1.9047196,0,0,1.9047196,231.47392,-569.82146)"
       gradientUnits="userSpaceOnUse"
       y2="242.97356"
       x2="-12.428566"
       y1="561.5769"
       x1="-12.828067"
       id="linearGradient11406"
       xlink:href="#linearGradient11392"
       inkscape:collect="always" />
  </defs>
  <metadata
     id="metadata7">
    <rdf:RDF>
      <cc:Work
         rdf:about="">
        <dc:format>image/svg+xml</dc:format>
        <dc:type
           rdf:resource="http://purl.org/dc/dcmitype/StillImage" />
        <dc:title></dc:title>
      </cc:Work>
    </rdf:RDF>
  </metadata>
  <g
     transform="translate(-33.13907,131.40188)"
     style="display:inline"
     inkscape:label="round boxes"
     id="layer2"
     inkscape:groupmode="layer">
    <rect
       ry="133.49922"
       y="-7.2396216"
       x="321.72394"
       height="724.00043"
       width="251.96983"
       id="rect11596"
       style="fill:#ffffff;fill-opacity:1;stroke:#000000;stroke-width:2.77594638;stroke-linecap:butt;stroke-miterlimit:4;stroke-opacity:1;stroke-dasharray:none;stroke-dashoffset:0;display:inline" />
  </g>
  <g
     transform="translate(-33.13907,131.40188)"
     style="display:inline"
     inkscape:label="dots and arrows"
     id="layer3"
     inkscape:groupmode="layer">
    <g
       transform="matrix(1.9641568,0,0,1.9641568,188.21191,-451.64295)"
       id="g11435"
       style="display:inline">
      <path
         sodipodi:type="arc"
         style="fill:#000000;fill-opacity:1;stroke:#070707;stroke-width:11.37180805;stroke-linecap:butt;stroke-miterlimit:4;stroke-opacity:1;stroke-dasharray:none;stroke-dashoffset:0;display:inline"
         id="path5377"
         sodipodi:cx="360.89285"
         sodipodi:cy="738.61218"
         sodipodi:rx="30.535715"
         sodipodi:ry="30.535715"
         d="m 391.42857,738.61218 c 0,16.86441 -13.67131,30.53572 -30.53572,30.53572 -16.86441,0 -30.53571,-13.67131 -30.53571,-30.53572 0,-16.86441 13.6713,-30.53571 30.53571,-30.53571 16.86441,0 30.53572,13.6713 30.53572,30.53571 z"
         transform="matrix(0,0.1564441,-0.16353344,0,252.65903,436.83976)" />
      <path
         transform="matrix(0,0.1564441,-0.16353344,0,252.65903,423.07583)"
         d="m 391.42857,738.61218 c 0,16.86441 -13.67131,30.53572 -30.53572,30.53572 -16.86441,0 -30.53571,-13.67131 -30.53571,-30.53572 0,-16.86441 13.6713,-30.53571 30.53571,-30.53571 16.86441,0 30.53572,13.6713 30.53572,30.53571 z"
         sodipodi:ry="30.535715"
         sodipodi:rx="30.535715"
         sodipodi:cy="738.61218"
         sodipodi:cx="360.89285"
         id="path5379"
         style="fill:#000000;fill-opacity:1;stroke:#070707;stroke-width:11.37180805;stroke-linecap:butt;stroke-miterlimit:4;stroke-opacity:1;stroke-dasharray:none;stroke-dashoffset:0;display:inline"
         sodipodi:type="arc" />
      <path
         sodipodi:type="arc"
         style="fill:#000000;fill-opacity:1;stroke:#070707;stroke-width:11.37180805;stroke-linecap:butt;stroke-miterlimit:4;stroke-opacity:1;stroke-dasharray:none;stroke-dashoffset:0;display:inline"
         id="path5381"
         sodipodi:cx="360.89285"
         sodipodi:cy="738.61218"
         sodipodi:rx="30.535715"
         sodipodi:ry="30.535715"
         d="m 391.42857,738.61218 c 0,16.86441 -13.67131,30.53572 -30.53572,30.53572 -16.86441,0 -30.53571,-13.67131 -30.53571,-30.53572 0,-16.86441 13.6713,-30.53571 30.53571,-30.53571 16.86441,0 30.53572,13.6713 30.53572,30.53571 z"
         transform="matrix(0,0.1564441,-0.16353344,0,252.65903,409.3119)" />
    </g>
    <path
       style="opacity:0.23039216;fill:none;stroke:url(#linearGradient11406);stroke-width:66.36614227;stroke-linecap:butt;stroke-linejoin:miter;stroke-miterlimit:3.9000001;stroke-opacity:1;stroke-dasharray:none;stroke-dashoffset:0;marker-start:none;marker-end:url(#TriangleOutS);display:inline"
       d="m 207.80098,44.343686 0,508.670524"
       id="path11382"
       inkscape:connector-curvature="0" />
    <path
       inkscape:connector-curvature="0"
       id="path11642"
       d="m 446.77379,102.5888 1.64034,311.95193"
       style="fill:none;stroke:#000000;stroke-width:3;stroke-linecap:butt;stroke-linejoin:miter;stroke-miterlimit:4;stroke-opacity:1;stroke-dasharray:none;display:inline" />
  </g>
  <g
     style="display:inline"
     inkscape:label="small boxes"
     id="layer1"
     inkscape:groupmode="layer"
     transform="translate(-138.06666,247.99625)">
    <rect
       transform="matrix(0.70710678,-0.70710678,0.70710678,0.70710678,0,0)"
       rx="0"
       style="fill:#d7e6ff;fill-opacity:1;stroke:#070707;stroke-width:3;stroke-linecap:butt;stroke-miterlimit:4;stroke-opacity:1;stroke-dasharray:none;stroke-dashoffset:0;display:inline"
       id="rect11442"
       width="39.285713"
       height="37.857143"
       x="418.66568"
       y="594.48132"
       ry="0" />
    <rect
       rx="14.750904"
       style="fill:none;stroke:#000000;stroke-width:3;stroke-linecap:butt;stroke-miterlimit:4;stroke-opacity:1;stroke-dasharray:none;stroke-dashoffset:0;display:inline"
       id="rect11602"
       width="29.501808"
       height="75.298164"
       x="727.05475"
       y="-0.052940369"
       ry="14.750904" />
    <rect
       style="fill:#d7e6ff;fill-opacity:1;stroke:#000000;stroke-width:3.00000001;stroke-linecap:butt;stroke-miterlimit:4;stroke-opacity:1;stroke-dasharray:none;stroke-dashoffset:0;display:inline"
       id="rect3437"
       width="98.702957"
       height="98.702957"
       x="212.46454"
       y="470.3826"
       transform="matrix(0.70710678,-0.70710678,0.70710678,0.70710678,0,0)" />
    <rect
       transform="matrix(0.70710678,-0.70710678,0.70710678,0.70710678,0,0)"
       y="318.12897"
       x="363.39166"
       height="98.702957"
       width="98.702957"
       id="rect3439"
       style="fill:#d7e6ff;fill-opacity:1;stroke:#000000;stroke-width:3.00000001;stroke-linecap:butt;stroke-miterlimit:4;stroke-opacity:1;stroke-dasharray:none;stroke-dashoffset:0;display:inline" />
    <rect
       transform="matrix(0.70710678,-0.70710678,0.70710678,0.70710678,0,0)"
       y="705.13812"
       x="-22.295095"
       height="98.702957"
       width="98.702957"
       id="rect3443"
       style="fill:#d7e6ff;fill-opacity:1;stroke:#000000;stroke-width:3.00000001;stroke-linecap:butt;stroke-miterlimit:4;stroke-opacity:1;stroke-dasharray:none;stroke-dashoffset:0;display:inline" />
  </g>
  <g
     transform="translate(-33.13907,131.40188)"
     style="display:inline"
     inkscape:label="plus"
     id="layer4"
     inkscape:groupmode="layer">
    <g
       style="fill:#ffffff;fill-opacity:1;display:inline"
       transform="matrix(0.60050803,0,0,0.60050803,31.451335,-158.73443)"
       id="g11620">
      <path
         sodipodi:type="arc"
         style="fill:#ffffff;fill-opacity:1;stroke:#000000;stroke-width:2.51506686;stroke-linecap:butt;stroke-miterlimit:4;stroke-opacity:1;stroke-dasharray:none;stroke-dashoffset:0"
         id="path11622"
         sodipodi:cx="349.62439"
         sodipodi:cy="358.09064"
         sodipodi:rx="20.736343"
         sodipodi:ry="20.736343"
         d="m 370.36073,358.09064 c 0,11.45236 -9.28397,20.73634 -20.73634,20.73634 -11.45237,0 -20.73634,-9.28398 -20.73634,-20.73634 0,-11.45237 9.28397,-20.73635 20.73634,-20.73635 11.45237,0 20.73634,9.28398 20.73634,20.73635 z"
         transform="matrix(1.5904149,0,0,1.5904149,137.13266,13.504426)" />
      <g
         id="g11624"
         style="fill:#ffffff;fill-opacity:1;stroke-width:10;stroke-miterlimit:4;stroke-dasharray:none"
         transform="translate(461.02195,-155.28145)">
        <path
           transform="translate(-104.92759,116.59436)"
           inkscape:connector-curvature="0"
           id="path11626"
           d="m 318.27876,621.8762 37.61476,0"
           style="fill:#ffffff;fill-opacity:1;stroke:#000000;stroke-width:10;stroke-linecap:butt;stroke-linejoin:miter;stroke-miterlimit:4;stroke-opacity:1;stroke-dasharray:none" />
        <path
           style="fill:#ffffff;fill-opacity:1;stroke:#000000;stroke-width:10;stroke-linecap:butt;stroke-linejoin:miter;stroke-miterlimit:4;stroke-opacity:1;stroke-dasharray:none"
           d="m 232.15855,757.27795 0,-37.61478"
           id="path11628"
           inkscape:connector-curvature="0" />
      </g>
    </g>
    <g
       id="g3427"
       transform="matrix(0.60050803,0,0,0.60050803,32.153674,58.434273)"
       style="fill:#ffffff;fill-opacity:1;display:inline">
      <path
         transform="matrix(1.5904149,0,0,1.5904149,137.13266,13.504426)"
         d="m 370.36073,358.09064 c 0,11.45236 -9.28397,20.73634 -20.73634,20.73634 -11.45237,0 -20.73634,-9.28398 -20.73634,-20.73634 0,-11.45237 9.28397,-20.73635 20.73634,-20.73635 11.45237,0 20.73634,9.28398 20.73634,20.73635 z"
         sodipodi:ry="20.736343"
         sodipodi:rx="20.736343"
         sodipodi:cy="358.09064"
         sodipodi:cx="349.62439"
         id="path3429"
         style="fill:#ffffff;fill-opacity:1;stroke:#000000;stroke-width:2.51506686;stroke-linecap:butt;stroke-miterlimit:4;stroke-opacity:1;stroke-dasharray:none;stroke-dashoffset:0"
         sodipodi:type="arc" />
      <g
         transform="translate(461.02195,-155.28145)"
         style="fill:#ffffff;fill-opacity:1;stroke-width:10;stroke-miterlimit:4;stroke-dasharray:none"
         id="g3431">
        <path
           style="fill:#ffffff;fill-opacity:1;stroke:#000000;stroke-width:10;stroke-linecap:butt;stroke-linejoin:miter;stroke-miterlimit:4;stroke-opacity:1;stroke-dasharray:none"
           d="m 318.27876,621.8762 37.61476,0"
           id="path3433"
           inkscape:connector-curvature="0"
           transform="translate(-104.92759,116.59436)" />
        <path
           inkscape:connector-curvature="0"
           id="path3435"
           d="m 232.15855,757.27795 0,-37.61478"
           style="fill:#ffffff;fill-opacity:1;stroke:#000000;stroke-width:10;stroke-linecap:butt;stroke-linejoin:miter;stroke-miterlimit:4;stroke-opacity:1;stroke-dasharray:none" />
      </g>
    </g>
  </g>
  <g
     transform="translate(-33.13907,131.40188)"
     style="display:inline"
     inkscape:label="text"
     id="layer5"
     inkscape:groupmode="layer">
    <text
       sodipodi:linespacing="125%"
       id="text10980"
       y="130.9854"
       x="207.80098"
       style="font-size:30px;font-style:normal;font-variant:normal;font-weight:bold;font-stretch:normal;text-align:center;line-height:125%;letter-spacing:0px;word-spacing:0px;writing-mode:tb-rl;text-anchor:middle;fill:#000000;fill-opacity:1;stroke:none;display:inline;font-family:Serif;-inkscape-font-specification:Serif Bold"
       xml:space="preserve"><tspan
         style="font-weight:bold;text-align:start;text-anchor:start;-inkscape-font-specification:Serif Bold;font-size:30px"
         y="207.80098"
         x="130.9854"
         id="tspan10982"
         sodipodi:role="line">sequential</tspan></text>
    <text
       xml:space="preserve"
       style="font-size:22px;font-style:normal;font-variant:normal;font-weight:bold;font-stretch:normal;text-align:start;line-height:125%;letter-spacing:0px;word-spacing:0px;writing-mode:lr-tb;text-anchor:start;fill:#000000;fill-opacity:1;stroke:none;display:inline;font-family:Serif;-inkscape-font-specification:Serif Bold"
       x="663.3645"
       y="146.09587"
       id="text11444"
       sodipodi:linespacing="125%"><tspan
         sodipodi:role="line"
         id="tspan11446"
         x="663.3645"
         y="146.09587">CUDA</tspan><tspan
         id="tspan11448"
         sodipodi:role="line"
         x="663.3645"
         y="173.59587">thread</tspan></text>
    <text
       xml:space="preserve"
       style="font-size:22px;font-style:normal;font-variant:normal;font-weight:normal;font-stretch:normal;text-align:start;line-height:125%;letter-spacing:0px;word-spacing:0px;writing-mode:lr-tb;text-anchor:start;fill:#000000;fill-opacity:1;stroke:none;display:inline;font-family:Serif;-inkscape-font-specification:Serif"
       x="109.61418"
       y="154.36658"
       id="text11929"
       sodipodi:linespacing="125%"><tspan
         sodipodi:role="line"
         id="tspan11931"
         x="109.61418"
         y="154.36658" /></text>
    <g
       transform="matrix(0.68874967,0,0,0.68874967,489.90417,23.63726)"
       id="g14975"
       style="stroke-width:1.45190632;stroke-miterlimit:10.43299961;stroke-dasharray:none">
      <g
         style="font-style:normal;font-variant:normal;font-weight:normal;font-stretch:normal;letter-spacing:normal;word-spacing:normal;text-anchor:start;fill:none;stroke:#000000;stroke-width:1.53883874;stroke-linecap:butt;stroke-linejoin:miter;stroke-miterlimit:10.43299961;stroke-opacity:1;stroke-dasharray:none;stroke-dashoffset:0"
         id="g14977"
         transform="matrix(0.94350777,0,0,-0.94350777,-165.11386,708.75526)"
         xml:space="preserve"
         stroke-miterlimit="10.433"
         font-style="normal"
         font-variant="normal"
         font-weight="normal"
         font-stretch="normal"
         font-size-adjust="none"
         letter-spacing="normal"
         word-spacing="normal"><path
           style="fill:#000000;stroke-width:1.53883874;stroke-miterlimit:10.43299961;stroke-dasharray:none"
           inkscape:connector-curvature="0"
           d="m 478.99,424.98 0.01,0.06 0.01,0.05 0.01,0.05 0.01,0.06 0.02,0.1 0.01,0.05 0.02,0.06 0.01,0.05 0.01,0.06 0.01,0.05 0,0.06 0.01,0.06 0,0.06 0.01,0.03 0,0.03 0,0.03 0,0.03 c 0,0.86 -0.59,1.36 -1.44,1.36 -0.5,0 -1.84,-0.36 -2.05,-2.16 -0.89,1.85 -2.64,3.14 -4.62,3.14 l 0.05,-1.09 c 3.28,0 3.98,-4.03 3.98,-4.28 0,-0.25 -0.09,-0.55 -0.16,-0.75 l -2.39,-9.52 c -0.29,-1.29 -1.43,-2.53 -2.53,-3.48 -1.04,-0.89 -2.59,-1.8 -4.04,-1.8 -2.49,0 -3.24,2.6 -3.24,4.58 0,2.41 1.45,8.28 2.8,10.81 1.34,2.46 3.48,4.44 5.58,4.44 l -0.05,1.09 c -5.69,0 -11.86,-6.96 -11.86,-14.14 0,-4.93 3.03,-7.87 6.63,-7.87 2.93,0 5.28,2.34 5.78,2.89 l 0.04,-0.05 c -1.04,-4.43 -1.64,-6.48 -1.64,-6.58 -0.2,-0.45 -1.89,-5.39 -7.17,-5.39 -0.95,0 -2.59,0.07 -4,0.5 1.5,0.46 2.05,1.75 2.05,2.6 0,0.79 -0.55,1.75 -1.89,1.75 -1.1,0 -2.69,-0.91 -2.69,-2.89 0,-2.05 1.84,-3.05 6.62,-3.05 6.22,0 9.82,3.89 10.57,6.88 z"
           id="path14979" /><path
           style="fill:#000000;stroke-width:1.53883874;stroke-miterlimit:10.43299961;stroke-dasharray:none"
           inkscape:connector-curvature="0"
           d="m 499.66,425.03 -0.09,0.17 -0.09,0.17 -0.09,0.16 -0.09,0.16 -0.1,0.16 -0.11,0.16 -0.1,0.15 -0.11,0.14 -0.11,0.15 -0.12,0.13 -0.12,0.14 -0.12,0.13 -0.13,0.12 -0.13,0.12 -0.14,0.11 -0.14,0.11 -0.14,0.11 -0.15,0.09 -0.15,0.1 -0.16,0.08 -0.16,0.08 -0.16,0.08 -0.17,0.06 -0.17,0.07 -0.18,0.05 -0.18,0.05 -0.18,0.04 -0.19,0.03 -0.19,0.03 -0.2,0.02 -0.2,0.01 -0.21,0 0.04,-1.09 c 3.24,0 3.94,-4.08 3.94,-4.37 0,-0.32 -0.09,-0.61 -0.14,-0.86 l -2.5,-9.77 c -0.25,-0.89 -0.25,-0.98 -1,-1.84 -2.19,-2.74 -4.23,-3.53 -5.62,-3.53 -2.49,0 -3.19,2.73 -3.19,4.68 0,2.49 1.59,8.61 2.73,10.91 1.55,2.94 3.8,4.78 5.78,4.78 l -0.04,1.09 c -5.83,0 -12,-7.31 -12,-14.59 0,-4.69 2.73,-7.97 6.62,-7.97 0.99,0 3.49,0.21 6.47,3.74 0.41,-2.1 2.14,-3.74 4.53,-3.74 1.75,0 2.89,1.14 3.69,2.74 0.84,1.79 1.5,4.84 1.5,4.93 0,0.5 -0.45,0.5 -0.59,0.5 -0.5,0 -0.55,-0.2 -0.71,-0.9 -0.84,-3.24 -1.75,-6.17 -3.78,-6.17 -1.34,0 -1.5,1.29 -1.5,2.29 0,1.1 0.1,1.49 0.64,3.69 0.57,2.09 0.66,2.59 1.11,4.48 l 1.78,6.97 c 0.36,1.39 0.36,1.5 0.36,1.69 0,0.86 -0.61,1.36 -1.45,1.36 -1.19,0 -1.94,-1.11 -2.09,-2.2 z"
           id="path14981" /><path
           style="fill:#000000;stroke-width:1.53883874;stroke-miterlimit:10.43299961;stroke-dasharray:none"
           inkscape:connector-curvature="0"
           d="m 521.51,437.34 0,0.09 -0.01,0.09 -0.01,0.1 -0.01,0.08 -0.02,0.09 -0.02,0.09 -0.03,0.08 -0.03,0.08 -0.03,0.08 -0.04,0.08 -0.04,0.08 -0.04,0.07 -0.05,0.07 -0.05,0.07 -0.05,0.06 -0.06,0.06 -0.06,0.06 -0.07,0.06 -0.07,0.05 -0.07,0.05 -0.07,0.05 -0.08,0.04 -0.08,0.04 -0.08,0.04 -0.09,0.03 -0.09,0.03 -0.09,0.02 -0.1,0.02 -0.09,0.02 -0.1,0.01 -0.11,0 -0.1,0.01 c -1.36,0 -2.7,-1.3 -2.7,-2.64 0,-0.96 0.7,-1.8 1.9,-1.8 1.14,0 2.64,1.14 2.64,2.64 z"
           id="path14983" /><path
           style="fill:#000000;stroke-width:1.53883874;stroke-miterlimit:10.43299961;stroke-dasharray:none"
           inkscape:connector-curvature="0"
           d="m 517.72,418.61 0.05,0.13 0.05,0.12 0.05,0.12 0.04,0.11 0.04,0.1 0.04,0.1 0.04,0.09 0.04,0.09 0.03,0.09 0.03,0.08 0.03,0.08 0.03,0.08 0.03,0.07 0.03,0.07 0.05,0.15 0.05,0.14 0.05,0.14 0.03,0.07 0.02,0.08 0.03,0.08 0.03,0.08 0.03,0.08 0.03,0.09 0.04,0.1 0.03,0.09 0.04,0.11 0.04,0.11 0.04,0.11 0.05,0.13 c 0.41,1 0.66,1.68 0.66,2.64 0,2.23 -1.6,4.07 -4.1,4.07 -4.67,0 -6.58,-7.21 -6.58,-7.67 0,-0.5 0.5,-0.5 0.61,-0.5 0.5,0 0.55,0.11 0.8,0.91 1.34,4.69 3.33,6.17 5.03,6.17 0.39,0 1.25,0 1.25,-1.59 0,-1.05 -0.36,-2.1 -0.56,-2.6 -0.39,-1.29 -2.64,-7.06 -3.44,-9.22 -0.48,-1.28 -1.14,-2.93 -1.14,-3.98 0,-2.33 1.69,-4.08 4.09,-4.08 4.67,0 6.52,7.22 6.52,7.67 0,0.5 -0.44,0.5 -0.6,0.5 -0.5,0 -0.5,-0.15 -0.75,-0.9 -0.88,-3.13 -2.53,-6.17 -5.07,-6.17 -0.85,0 -1.21,0.5 -1.21,1.64 0,1.25 0.32,1.95 1.46,4.98 z"
           id="path14985" /><path
           style="fill:#000000;stroke-width:1.53883874;stroke-miterlimit:10.43299961;stroke-dasharray:none"
           inkscape:connector-curvature="0"
           d="m 528.9,409.14 -0.01,-0.07 -0.02,-0.08 -0.02,-0.07 -0.01,-0.08 -0.04,-0.16 -0.03,-0.16 -0.04,-0.16 -0.04,-0.16 -0.04,-0.16 -0.03,-0.16 -0.02,-0.08 -0.02,-0.07 -0.01,-0.07 -0.02,-0.07 -0.01,-0.07 -0.02,-0.07 -0.01,-0.06 -0.01,-0.06 -0.01,-0.06 -0.01,-0.05 -0.01,-0.05 -0.01,-0.04 0,-0.04 -0.01,-0.04 0,-0.03 0,-0.02 c 0,-0.89 0.7,-1.35 1.44,-1.35 0.61,0 1.5,0.39 1.84,1.39 0.06,0.11 0.66,2.44 0.95,3.69 l 1.1,4.48 c 0.29,1.1 0.59,2.19 0.84,3.35 0.2,0.84 0.61,2.28 0.66,2.48 0.75,1.55 3.39,6.08 8.11,6.08 2.25,0 2.7,-1.84 2.7,-3.48 0,-3.1 -2.45,-9.47 -3.25,-11.61 -0.44,-1.14 -0.49,-1.75 -0.49,-2.3 0,-2.33 1.74,-4.08 4.08,-4.08 4.69,0 6.54,7.27 6.54,7.67 0,0.5 -0.46,0.5 -0.62,0.5 -0.48,0 -0.48,-0.15 -0.73,-0.9 -1,-3.38 -2.64,-6.17 -5.09,-6.17 -0.85,0 -1.19,0.5 -1.19,1.64 0,1.25 0.45,2.45 0.89,3.54 0.95,2.64 3.05,8.11 3.05,10.96 0,3.34 -2.14,5.32 -5.74,5.32 -4.48,0 -6.92,-3.18 -7.76,-4.32 -0.25,2.79 -2.3,4.32 -4.6,4.32 -2.28,0 -3.23,-1.93 -3.73,-2.82 -0.8,-1.71 -1.5,-4.64 -1.5,-4.85 0,-0.5 0.5,-0.5 0.61,-0.5 0.5,0 0.54,0.07 0.84,1.16 0.85,3.53 1.85,5.92 3.64,5.92 0.99,0 1.55,-0.64 1.55,-2.28 0,-1.05 -0.16,-1.61 -0.8,-4.19 z"
           id="path14987" /><path
           style="fill:#000000;stroke-width:1.53883874;stroke-miterlimit:10.43299961;stroke-dasharray:none"
           inkscape:connector-curvature="0"
           d="m 570.88,394.25 -0.01,0.02 0,0.03 0,0.01 0,0.02 0,0.01 -0.01,0.02 0,0.01 -0.01,0.02 -0.01,0.02 -0.01,0.02 -0.01,0.02 -0.02,0.03 -0.01,0.02 -0.02,0.03 -0.02,0.03 -0.03,0.03 -0.02,0.03 -0.03,0.04 -0.02,0.02 -0.01,0.02 -0.02,0.02 -0.02,0.02 -0.02,0.02 -0.02,0.03 -0.02,0.02 -0.02,0.02 -0.02,0.03 -0.03,0.02 -0.02,0.03 -0.03,0.03 -0.02,0.03 -0.03,0.03 -0.03,0.03 -0.03,0.03 -0.03,0.03 -0.03,0.03 -0.04,0.04 -0.03,0.03 -0.04,0.04 -0.03,0.03 -0.04,0.04 -0.04,0.04 c -6.22,6.28 -7.81,15.69 -7.81,23.31 0,8.67 1.89,17.35 8.01,23.56 0.65,0.61 0.65,0.71 0.65,0.86 0,0.35 -0.19,0.49 -0.49,0.49 -0.5,0 -4.98,-3.38 -7.92,-9.7 -2.55,-5.49 -3.14,-11.02 -3.14,-15.21 0,-3.89 0.55,-9.9 3.28,-15.54 2.98,-6.13 7.28,-9.36 7.78,-9.36 0.3,0 0.49,0.14 0.49,0.5 z"
           id="path14989" /><path
           style="fill:#000000;stroke-width:1.53883874;stroke-miterlimit:10.43299961;stroke-dasharray:none"
           inkscape:connector-curvature="0"
           d="m 606.55,439.13 0.16,0 0.15,0 0.16,0.01 0.08,0 0.08,0.01 0.07,0.01 0.08,0 0.07,0.01 0.07,0.02 0.07,0.01 0.07,0.02 0.07,0.02 0.06,0.02 0.06,0.02 0.06,0.03 0.05,0.03 0.06,0.04 0.05,0.04 0.04,0.04 0.04,0.04 0.04,0.05 0.02,0.03 0.02,0.03 0.01,0.03 0.02,0.03 0.01,0.03 0.01,0.03 0.02,0.04 0.01,0.03 0.01,0.04 0,0.04 0.01,0.04 0.01,0.04 0,0.04 0,0.04 0.01,0.05 0,0.04 c 0,1 -0.91,1 -1.75,1 h -26.96 c -0.84,0 -1.73,0 -1.73,-1 0,-1 0.89,-1 1.73,-1 z"
           id="path14991" /><path
           style="fill:#000000;stroke-width:1.53883874;stroke-miterlimit:10.43299961;stroke-dasharray:none"
           inkscape:connector-curvature="0"
           d="m 625.15,439.13 0.15,0 0.16,0 0.16,0.01 0.08,0 0.07,0.01 0.08,0.01 0.07,0 0.08,0.01 0.07,0.02 0.07,0.01 0.07,0.02 0.06,0.02 0.07,0.02 0.06,0.02 0.06,0.03 0.05,0.03 0.05,0.04 0.05,0.04 0.05,0.04 0.04,0.04 0.04,0.05 0.02,0.03 0.01,0.03 0.02,0.03 0.02,0.03 0.01,0.03 0.01,0.03 0.01,0.04 0.01,0.03 0.01,0.04 0.01,0.04 0.01,0.04 0,0.04 0.01,0.04 0,0.04 0,0.05 0.01,0.04 c 0,1 -0.91,1 -1.75,1 h -26.96 c -0.84,0 -1.73,0 -1.73,-1 0,-1 0.89,-1 1.73,-1 z"
           id="path14993" /><path
           style="fill:#000000;stroke-width:1.53883874;stroke-miterlimit:10.43299961;stroke-dasharray:none"
           inkscape:connector-curvature="0"
           d="m 652.86,439.13 0.16,0 0.16,0 0.16,0.01 0.08,0 0.07,0.01 0.08,0.01 0.07,0 0.08,0.01 0.07,0.02 0.07,0.01 0.07,0.02 0.06,0.02 0.06,0.02 0.07,0.02 0.05,0.03 0.06,0.03 0.05,0.04 0.05,0.04 0.05,0.04 0.04,0.04 0.04,0.05 0.02,0.03 0.01,0.03 0.02,0.03 0.01,0.03 0.02,0.03 0.01,0.03 0.01,0.04 0.01,0.03 0.01,0.04 0.01,0.04 0.01,0.04 0,0.04 0.01,0.04 0,0.04 0,0.05 0,0.04 c 0,1 -0.9,1 -1.75,1 h -26.95 c -0.84,0 -1.73,0 -1.73,-1 0,-1 0.89,-1 1.73,-1 z"
           id="path14995" /><path
           style="fill:#000000;stroke-width:1.53883874;stroke-miterlimit:10.43299961;stroke-dasharray:none"
           inkscape:connector-curvature="0"
           d="m 679.94,439.13 -0.25,-0.19 -0.25,-0.2 -0.23,-0.19 -0.23,-0.2 -0.22,-0.19 -0.21,-0.19 -0.21,-0.19 -0.2,-0.19 -0.19,-0.18 -0.18,-0.18 -0.17,-0.18 -0.17,-0.18 -0.16,-0.17 -0.16,-0.17 -0.14,-0.17 -0.14,-0.16 -0.14,-0.15 -0.12,-0.16 -0.12,-0.15 -0.12,-0.14 -0.1,-0.14 -0.1,-0.13 -0.1,-0.13 -0.09,-0.12 -0.08,-0.11 -0.07,-0.11 -0.07,-0.1 -0.07,-0.1 -0.05,-0.09 -0.06,-0.08 -0.04,-0.07 -0.04,-0.07 c -2.24,-3.44 -2.64,-6.58 -2.64,-6.62 0,-0.6 0.61,-0.6 1,-0.6 0.84,0 0.89,0.1 1.09,1 1.16,4.88 4.09,9.07 9.72,11.36 0.59,0.19 0.75,0.3 0.75,0.64 0,0.35 -0.3,0.5 -0.41,0.55 -2.19,0.84 -8.22,3.34 -10.11,11.72 -0.15,0.59 -0.2,0.73 -1.04,0.73 -0.39,0 -1,0 -1,-0.59 0,-0.09 0.45,-3.24 2.54,-6.58 1,-1.48 2.44,-3.23 4.58,-4.83 h -37.01 c -0.9,0 -1.8,0 -1.8,-1 0,-1 0.9,-1 1.8,-1 z"
           id="path14997" /><path
           style="fill:#000000;stroke-width:1.53883874;stroke-miterlimit:10.43299961;stroke-dasharray:none"
           inkscape:connector-curvature="0"
           d="m 578.11,409.14 -0.02,-0.07 -0.01,-0.08 -0.02,-0.07 -0.02,-0.08 -0.03,-0.16 -0.04,-0.16 -0.04,-0.16 -0.03,-0.16 -0.04,-0.16 -0.04,-0.16 -0.01,-0.08 -0.02,-0.07 -0.02,-0.07 -0.01,-0.07 -0.02,-0.07 -0.01,-0.07 -0.01,-0.06 -0.02,-0.06 -0.01,-0.06 -0.01,-0.05 0,-0.05 -0.01,-0.04 -0.01,-0.04 0,-0.04 0,-0.03 0,-0.02 c 0,-0.89 0.7,-1.35 1.43,-1.35 0.61,0 1.5,0.39 1.85,1.39 0.11,0.21 1.79,6.99 2,7.88 0.39,1.64 1.29,5.12 1.59,6.48 0.2,0.64 1.59,2.99 2.78,4.08 0.41,0.34 1.85,1.64 4,1.64 1.28,0 2.03,-0.59 2.08,-0.59 -1.48,-0.25 -2.58,-1.46 -2.58,-2.74 0,-0.79 0.55,-1.75 1.89,-1.75 1.35,0 2.74,1.14 2.74,2.94 0,1.75 -1.6,3.23 -4.13,3.23 -3.25,0 -5.43,-2.43 -6.39,-3.82 -0.39,2.23 -2.19,3.82 -4.53,3.82 -2.28,0 -3.23,-1.93 -3.69,-2.82 -0.89,-1.71 -1.54,-4.69 -1.54,-4.85 0,-0.5 0.5,-0.5 0.61,-0.5 0.5,0 0.54,0.07 0.84,1.16 0.84,3.53 1.84,5.92 3.64,5.92 0.84,0 1.55,-0.39 1.55,-2.28 0,-1.05 -0.16,-1.61 -0.8,-4.19 z"
           id="path14999" /><path
           style="fill:#000000;stroke-width:1.53883874;stroke-miterlimit:10.43299961;stroke-dasharray:none"
           inkscape:connector-curvature="0"
           d="m 607.46,420.54 0,0.05 -0.01,0.06 0,0.05 -0.01,0.06 -0.01,0.05 -0.02,0.06 -0.02,0.05 -0.01,0.06 -0.03,0.06 -0.02,0.05 -0.03,0.06 -0.03,0.05 -0.03,0.06 -0.04,0.05 -0.04,0.05 -0.04,0.05 -0.04,0.05 -0.05,0.05 -0.05,0.04 -0.05,0.05 -0.06,0.04 -0.06,0.03 -0.06,0.04 -0.06,0.03 -0.07,0.03 -0.07,0.03 -0.08,0.02 -0.08,0.02 -0.08,0.01 -0.08,0.01 -0.09,0.01 -0.09,0 c -0.94,0 -1.95,-0.91 -1.95,-1.92 0,-0.59 0.45,-1.33 1.4,-1.33 1,0 1.96,0.99 1.96,1.92 z"
           id="path15001" /><path
           style="fill:#000000;stroke-width:1.53883874;stroke-miterlimit:10.43299961;stroke-dasharray:none"
           inkscape:connector-curvature="0"
           d="m 600.35,402.84 -0.06,-0.17 -0.05,-0.17 -0.03,-0.08 -0.02,-0.09 -0.03,-0.08 -0.02,-0.09 -0.02,-0.09 -0.02,-0.09 -0.02,-0.1 -0.02,-0.09 -0.01,-0.1 0,-0.05 -0.01,-0.05 0,-0.06 0,-0.05 0,-0.05 -0.01,-0.06 c 0,-1.64 1.4,-2.95 3.3,-2.95 3.49,0 5.03,4.79 5.03,5.33 0,0.45 -0.45,0.45 -0.56,0.45 -0.48,0 -0.53,-0.2 -0.67,-0.59 -0.8,-2.79 -2.33,-4.22 -3.69,-4.22 -0.7,0 -0.87,0.45 -0.87,1.22 0,0.79 0.25,1.46 0.56,2.23 0.34,0.94 0.73,1.87 1.11,2.78 0.31,0.84 1.58,4.02 1.72,4.44 0.09,0.34 0.2,0.76 0.2,1.11 0,1.64 -1.39,2.95 -3.31,2.95 -3.45,0 -5.05,-4.73 -5.05,-5.33 0,-0.45 0.48,-0.45 0.6,-0.45 0.48,0 0.51,0.17 0.62,0.56 0.91,3 2.44,4.25 3.72,4.25 0.56,0 0.87,-0.28 0.87,-1.22 0,-0.79 -0.2,-1.32 -1.08,-3.48 z"
           id="path15003" /><path
           style="fill:#000000;stroke-width:1.53883874;stroke-miterlimit:10.43299961;stroke-dasharray:none"
           inkscape:connector-curvature="0"
           d="m 617.56,399.32 -0.01,-0.36 -0.01,-0.37 -0.03,-0.38 -0.04,-0.38 -0.03,-0.19 -0.04,-0.2 -0.04,-0.2 -0.04,-0.19 -0.05,-0.2 -0.05,-0.2 -0.07,-0.2 -0.07,-0.2 -0.07,-0.2 -0.08,-0.21 -0.09,-0.2 -0.1,-0.21 -0.11,-0.2 -0.11,-0.21 -0.13,-0.2 -0.13,-0.21 -0.14,-0.21 -0.15,-0.2 -0.16,-0.21 -0.18,-0.21 -0.18,-0.21 -0.19,-0.2 -0.2,-0.21 -0.22,-0.21 c -0.14,-0.14 -0.25,-0.25 -0.25,-0.42 0,-0.25 0.28,-0.49 0.48,-0.49 0.49,0 3.46,2.78 3.46,6.92 0,2.18 -0.85,3.8 -2.44,3.8 -1.16,0 -1.99,-0.9 -1.99,-1.98 0,-1.11 0.8,-2.02 2.02,-2.02 0.85,0 1.39,0.56 1.44,0.56 z"
           id="path15005" /><path
           style="fill:#000000;stroke-width:1.53883874;stroke-miterlimit:10.43299961;stroke-dasharray:none"
           inkscape:connector-curvature="0"
           d="m 636.81,404.4 -0.01,-0.06 -0.02,-0.07 -0.02,-0.08 -0.02,-0.07 -0.02,-0.08 -0.02,-0.08 -0.02,-0.08 -0.02,-0.08 -0.04,-0.17 -0.04,-0.17 -0.04,-0.17 -0.02,-0.08 -0.02,-0.08 -0.02,-0.08 -0.02,-0.07 -0.02,-0.07 -0.02,-0.07 -0.02,-0.07 -0.01,-0.06 -0.02,-0.06 -0.02,-0.06 -0.01,-0.05 -0.02,-0.04 -0.01,-0.04 -0.01,-0.04 -0.01,-0.01 0,-0.01 -0.01,-0.01 0,-0.01 0,-0.01 -0.01,-0.01 0,0 0,0 c -0.68,-1.08 -2.07,-2.97 -4.22,-2.97 -2.41,0 -2.41,2.26 -2.41,2.89 0,2.06 0.97,4.53 1.95,7.08 0.29,0.7 0.49,1.21 0.49,1.78 0,1.81 -1.53,2.98 -3.31,2.98 -3.49,0 -5.05,-4.76 -5.05,-5.33 0,-0.45 0.48,-0.45 0.59,-0.45 0.49,0 0.52,0.17 0.63,0.56 0.83,2.86 2.37,4.25 3.72,4.25 0.59,0 0.87,-0.39 0.87,-1.22 0,-0.79 -0.28,-1.53 -0.62,-2.32 -1.88,-4.82 -1.88,-5.83 -1.88,-6.77 0,-0.59 0,-2.2 1.28,-3.31 1.02,-0.83 2.38,-1.11 3.6,-1.11 2.18,0 3.37,1.19 4.53,2.29 0.76,-2.23 3.09,-2.29 3.51,-2.29 1.19,0 2.1,0.69 2.75,1.84 0.77,1.36 1.25,3.38 1.25,3.49 0,0.45 -0.48,0.45 -0.57,0.45 -0.5,0 -0.54,-0.14 -0.79,-1.08 -0.4,-1.64 -1.07,-3.73 -2.53,-3.73 -0.9,0 -1.15,0.79 -1.15,1.7 0,0.59 0.28,1.86 0.53,2.77 0.23,0.93 0.58,2.35 0.76,3.12 l 0.8,3.11 c 0.2,0.87 0.59,2.41 0.59,2.58 0,0.69 -0.56,1.11 -1.15,1.11 -1.28,0 -1.53,-1.02 -1.82,-2.13 z"
           id="path15007" /><path
           style="fill:#000000;stroke-width:1.53883874;stroke-miterlimit:10.43299961;stroke-dasharray:none"
           inkscape:connector-curvature="0"
           d="m 667.84,424.84 -0.13,-0.01 -0.12,-0.01 -0.13,-0.02 -0.12,-0.03 -0.12,-0.03 -0.12,-0.04 -0.11,-0.04 -0.11,-0.04 -0.11,-0.05 -0.1,-0.06 -0.1,-0.06 -0.1,-0.06 -0.09,-0.07 -0.09,-0.07 -0.09,-0.07 -0.08,-0.08 -0.08,-0.08 -0.07,-0.08 -0.07,-0.09 -0.06,-0.08 -0.06,-0.09 -0.06,-0.1 -0.05,-0.09 -0.04,-0.1 -0.04,-0.09 -0.04,-0.1 -0.03,-0.1 -0.02,-0.1 -0.02,-0.1 -0.02,-0.11 0,-0.1 -0.01,-0.1 c 0,-0.7 0.44,-1.44 1.55,-1.44 1.09,0 2.28,0.85 2.28,2.78 0,2.25 -2.14,4.28 -5.92,4.28 -6.58,0 -8.42,-5.07 -8.42,-7.26 0,-3.89 3.68,-4.64 5.12,-4.94 2.6,-0.5 5.19,-1.05 5.19,-3.78 0,-1.3 -1.14,-5.48 -7.13,-5.48 -0.7,0 -4.53,0 -5.68,2.64 1.9,-0.25 3.14,1.25 3.14,2.64 0,1.14 -0.8,1.75 -1.85,1.75 -1.29,0 -2.78,-1.05 -2.78,-3.3 0,-2.84 2.85,-4.83 7.13,-4.83 8.06,0 10.01,6.03 10.01,8.27 0,1.79 -0.95,3.04 -1.54,3.64 -1.35,1.39 -2.8,1.64 -4.99,2.09 -1.79,0.39 -3.78,0.75 -3.78,2.99 0,1.45 1.19,4.48 5.58,4.48 1.23,0 3.73,-0.34 4.48,-2.28 z"
           id="path15009" /><path
           style="fill:#000000;stroke-width:1.53883874;stroke-miterlimit:10.43299961;stroke-dasharray:none"
           inkscape:connector-curvature="0"
           d="m 683.06,420.54 0,0.05 -0.01,0.06 0,0.05 -0.01,0.06 -0.01,0.05 -0.02,0.06 -0.01,0.05 -0.02,0.06 -0.02,0.06 -0.03,0.05 -0.03,0.06 -0.03,0.05 -0.03,0.06 -0.04,0.05 -0.03,0.05 -0.05,0.05 -0.04,0.05 -0.05,0.05 -0.05,0.04 -0.05,0.05 -0.06,0.04 -0.06,0.03 -0.06,0.04 -0.06,0.03 -0.07,0.03 -0.07,0.03 -0.08,0.02 -0.07,0.02 -0.09,0.01 -0.08,0.01 -0.09,0.01 -0.09,0 c -0.93,0 -1.95,-0.91 -1.95,-1.92 0,-0.59 0.45,-1.33 1.4,-1.33 1,0 1.96,0.99 1.96,1.92 z"
           id="path15011" /><path
           style="fill:#000000;stroke-width:1.53883874;stroke-miterlimit:10.43299961;stroke-dasharray:none"
           inkscape:connector-curvature="0"
           d="m 675.95,402.84 -0.05,-0.17 -0.06,-0.17 -0.03,-0.08 -0.02,-0.09 -0.03,-0.08 -0.02,-0.09 -0.02,-0.09 -0.02,-0.09 -0.02,-0.1 -0.01,-0.09 -0.02,-0.1 0,-0.05 -0.01,-0.05 0,-0.06 0,-0.05 0,-0.05 0,-0.06 c 0,-1.64 1.39,-2.95 3.29,-2.95 3.49,0 5.04,4.79 5.04,5.33 0,0.45 -0.46,0.45 -0.57,0.45 -0.48,0 -0.53,-0.2 -0.67,-0.59 -0.8,-2.79 -2.33,-4.22 -3.69,-4.22 -0.7,0 -0.87,0.45 -0.87,1.22 0,0.79 0.25,1.46 0.56,2.23 0.34,0.94 0.74,1.87 1.11,2.78 0.31,0.84 1.58,4.02 1.72,4.44 0.09,0.34 0.2,0.76 0.2,1.11 0,1.64 -1.39,2.95 -3.31,2.95 -3.45,0 -5.05,-4.73 -5.05,-5.33 0,-0.45 0.49,-0.45 0.6,-0.45 0.48,0 0.51,0.17 0.62,0.56 0.91,3 2.44,4.25 3.72,4.25 0.56,0 0.88,-0.28 0.88,-1.22 0,-0.79 -0.21,-1.32 -1.08,-3.48 z"
           id="path15013" /><path
           style="fill:#000000;stroke-width:1.53883874;stroke-miterlimit:10.43299961;stroke-dasharray:none"
           inkscape:connector-curvature="0"
           d="m 702.59,418.65 0,0.37 -0.01,0.39 -0.01,0.39 -0.01,0.41 -0.04,0.84 -0.06,0.88 -0.08,0.92 -0.11,0.95 -0.13,0.97 -0.17,1.01 -0.19,1.02 -0.23,1.03 -0.27,1.05 -0.3,1.06 -0.35,1.07 -0.4,1.07 -0.21,0.53 -0.22,0.53 -0.24,0.53 -0.25,0.53 c -2.99,6.12 -7.27,9.36 -7.77,9.36 -0.29,0 -0.5,-0.19 -0.5,-0.49 0,-0.15 0,-0.25 0.94,-1.15 4.89,-4.92 7.74,-12.85 7.74,-23.27 0,-8.51 -1.85,-17.28 -8.04,-23.56 -0.64,-0.59 -0.64,-0.7 -0.64,-0.84 0,-0.3 0.21,-0.5 0.5,-0.5 0.5,0 4.97,3.39 7.93,9.71 2.53,5.47 3.12,11 3.12,15.19 z"
           id="path15015" /></g>    </g>
    <g
       id="g15371"
       transform="matrix(0.9,0,0,0.9,386.89168,-42.823025)"
       style="stroke-width:1.11111116;stroke-miterlimit:10.43299961;stroke-dasharray:none">
      <g
         word-spacing="normal"
         letter-spacing="normal"
         font-size-adjust="none"
         font-stretch="normal"
         font-weight="normal"
         font-variant="normal"
         font-style="normal"
         stroke-miterlimit="10.433"
         xml:space="preserve"
         transform="matrix(0.94350777,0,0,-0.94350777,-165.11386,708.75526)"
         id="g15373"
         style="font-style:normal;font-variant:normal;font-weight:normal;font-stretch:normal;letter-spacing:normal;word-spacing:normal;text-anchor:start;fill:none;stroke:#000000;stroke-width:1.17763853;stroke-linecap:butt;stroke-linejoin:miter;stroke-miterlimit:10.43299961;stroke-opacity:1;stroke-dasharray:none;stroke-dashoffset:0"><path
           id="path15375"
           d="m 472.96,409 0.05,-0.19 0.06,-0.19 0.07,-0.18 0.08,-0.18 0.08,-0.17 0.09,-0.16 0.09,-0.16 0.1,-0.16 0.11,-0.15 0.11,-0.15 0.11,-0.14 0.13,-0.13 0.12,-0.13 0.14,-0.12 0.14,-0.12 0.14,-0.11 0.15,-0.11 0.15,-0.1 0.15,-0.09 0.16,-0.09 0.17,-0.08 0.17,-0.07 0.17,-0.07 0.18,-0.06 0.17,-0.06 0.19,-0.04 0.18,-0.05 0.19,-0.03 0.19,-0.02 0.2,-0.02 0.2,-0.01 0.19,-0.01 c 1.74,0 2.9,1.14 3.69,2.74 0.85,1.79 1.49,4.84 1.49,4.93 0,0.5 -0.44,0.5 -0.6,0.5 -0.5,0 -0.54,-0.2 -0.7,-0.9 -0.69,-2.78 -1.64,-6.17 -3.73,-6.17 -1.05,0 -1.54,0.65 -1.54,2.29 0,1.1 0.6,3.44 0.99,5.17 l 1.4,5.4 c 0.15,0.75 0.65,2.64 0.85,3.39 0.25,1.14 0.75,3.03 0.75,3.32 0,0.91 -0.7,1.35 -1.45,1.35 -0.25,0 -1.55,-0.05 -1.94,-1.74 -0.96,-3.64 -3.14,-12.36 -3.74,-15 -0.06,-0.2 -2.04,-4.18 -5.68,-4.18 -2.6,0 -3.1,2.25 -3.1,4.09 0,2.78 1.41,6.72 2.71,10.16 0.59,1.5 0.84,2.18 0.84,3.14 0,2.23 -1.59,4.07 -4.09,4.07 -4.74,0 -6.58,-7.21 -6.58,-7.67 0,-0.5 0.5,-0.5 0.61,-0.5 0.5,0 0.54,0.11 0.79,0.91 1.24,4.33 3.14,6.17 5.03,6.17 0.44,0 1.25,-0.05 1.25,-1.64 0,-1.2 -0.56,-2.64 -0.85,-3.39 -1.85,-4.94 -2.9,-8.02 -2.9,-10.45 0,-4.74 3.44,-5.99 6.15,-5.99 3.28,0 5.07,2.24 5.92,3.35 z"
           inkscape:connector-curvature="0"
           style="fill:#000000;stroke-width:1.17763853;stroke-miterlimit:10.43299961;stroke-dasharray:none" /></g>    </g>
    <text
       xml:space="preserve"
       style="font-size:35.00127411px;font-style:normal;font-variant:normal;font-weight:bold;font-stretch:normal;text-align:start;line-height:125%;letter-spacing:0px;word-spacing:0px;writing-mode:lr-tb;text-anchor:start;fill:#000000;fill-opacity:1;stroke:none;font-family:Serif;-inkscape-font-specification:Serif Bold"
       x="441.40836"
       y="645.06836"
       id="text15583"
       sodipodi:linespacing="125%"><tspan
         sodipodi:role="line"
         id="tspan15585"
         x="441.40836"
         y="645.06836">t</tspan></text>
    <text
       sodipodi:linespacing="125%"
       id="text3445"
       y="99.068359"
       x="439.40836"
       style="font-size:35.00127411px;font-style:normal;font-variant:normal;font-weight:bold;font-stretch:normal;text-align:start;line-height:125%;letter-spacing:0px;word-spacing:0px;writing-mode:lr-tb;text-anchor:start;fill:#000000;fill-opacity:1;stroke:none;font-family:Serif;-inkscape-font-specification:Serif Bold"
       xml:space="preserve"><tspan
         y="99.068359"
         x="439.40836"
         id="tspan3447"
         sodipodi:role="line" /></text>
    <text
       sodipodi:linespacing="125%"
       id="text3449"
       y="98.588799"
       x="434.7738"
       style="font-size:35.00127411px;font-style:normal;font-variant:normal;font-weight:bold;font-stretch:normal;text-align:start;line-height:125%;letter-spacing:0px;word-spacing:0px;writing-mode:lr-tb;text-anchor:start;fill:#000000;fill-opacity:1;stroke:none;font-family:Serif;-inkscape-font-specification:Serif Bold"
       xml:space="preserve"><tspan
         y="98.588799"
         x="434.7738"
         id="tspan3451"
         sodipodi:role="line">0</tspan></text>
    <text
       xml:space="preserve"
       style="font-size:35.00127411px;font-style:normal;font-variant:normal;font-weight:bold;font-stretch:normal;text-align:start;line-height:125%;letter-spacing:0px;word-spacing:0px;writing-mode:lr-tb;text-anchor:start;fill:#000000;fill-opacity:1;stroke:none;font-family:Serif;-inkscape-font-specification:Serif Bold"
       x="434.7738"
       y="312.58881"
       id="text3453"
       sodipodi:linespacing="125%"><tspan
         sodipodi:role="line"
         id="tspan3455"
         x="434.7738"
         y="312.58881">1</tspan></text>
  </g>
</svg>
