<?xml version="1.0" encoding="UTF-8" standalone="no"?>
<!-- Created with Inkscape (http://www.inkscape.org/) -->

<svg
   xmlns:dc="http://purl.org/dc/elements/1.1/"
   xmlns:cc="http://creativecommons.org/ns#"
   xmlns:rdf="http://www.w3.org/1999/02/22-rdf-syntax-ns#"
   xmlns:svg="http://www.w3.org/2000/svg"
   xmlns="http://www.w3.org/2000/svg"
   xmlns:sodipodi="http://sodipodi.sourceforge.net/DTD/sodipodi-0.dtd"
   xmlns:inkscape="http://www.inkscape.org/namespaces/inkscape"
   id="svg15574"
   version="1.1"
   inkscape:version="0.48.5 r10040"
   width="450"
   height="270"
   xml:space="preserve"
   sodipodi:docname="benchmark_results.svg"><metadata
     id="metadata15580"><rdf:RDF><cc:Work
         rdf:about=""><dc:format>image/svg+xml</dc:format><dc:type
           rdf:resource="http://purl.org/dc/dcmitype/StillImage" /><dc:title></dc:title></cc:Work></rdf:RDF></metadata><defs
     id="defs15578"><marker
       inkscape:stockid="StopM"
       orient="auto"
       refY="0.0"
       refX="0.0"
       id="StopM"
       style="overflow:visible"><path
         id="path4122"
         d="M 0.0,5.65 L 0.0,-5.65"
         style="fill:none;fill-opacity:0.75000000;fill-rule:evenodd;stroke:#000000;stroke-width:1.0pt"
         transform="scale(0.4)" /></marker><marker
       inkscape:stockid="TriangleOutM"
       orient="auto"
       refY="0.0"
       refX="0.0"
       id="TriangleOutM"
       style="overflow:visible"><path
         id="path4095"
         d="M 5.77,0.0 L -2.88,5.0 L -2.88,-5.0 L 5.77,0.0 z "
         style="fill-rule:evenodd;stroke:#000000;stroke-width:1.0pt"
         transform="scale(0.4)" /></marker><marker
       inkscape:stockid="TriangleOutM"
       orient="auto"
       refY="0"
       refX="0"
       id="TriangleOutM-9"
       style="overflow:visible"><path
         inkscape:connector-curvature="0"
         id="path4095-6"
         d="m 5.77,0 -8.65,5 0,-10 8.65,5 z"
         style="fill-rule:evenodd;stroke:#000000;stroke-width:1pt"
         transform="scale(0.4,0.4)" /></marker><marker
       inkscape:stockid="StopM"
       orient="auto"
       refY="0"
       refX="0"
       id="StopM-3"
       style="overflow:visible"><path
         inkscape:connector-curvature="0"
         id="path4122-6"
         d="M 0,5.65 0,-5.65"
         style="fill:none;stroke:#000000;stroke-width:1pt"
         transform="scale(0.4,0.4)" /></marker><marker
       inkscape:stockid="StopM"
       orient="auto"
       refY="0"
       refX="0"
       id="marker16948"
       style="overflow:visible"><path
         inkscape:connector-curvature="0"
         id="path16950"
         d="M 0,5.65 0,-5.65"
         style="fill:none;stroke:#000000;stroke-width:1pt"
         transform="scale(0.4,0.4)" /></marker></defs><sodipodi:namedview
     pagecolor="#ffffff"
     bordercolor="#666666"
     borderopacity="1"
     objecttolerance="10"
     gridtolerance="10"
     guidetolerance="10"
     inkscape:pageopacity="0"
     inkscape:pageshadow="2"
     inkscape:window-width="1678"
     inkscape:window-height="1029"
     id="namedview15576"
     showgrid="false"
     showguides="false"
     inkscape:guide-bbox="true"
     inkscape:zoom="0.87407405"
     inkscape:cx="-17.333466"
     inkscape:cy="131.7488"
     inkscape:window-x="1688"
     inkscape:window-y="19"
     inkscape:window-maximized="1"
     inkscape:current-layer="layer3"><sodipodi:guide
       orientation="1,0"
       position="306.32415,249.97881"
       id="guide15782" /><sodipodi:guide
       orientation="0,1"
       position="290.73623,255.12712"
       id="guide16294" /><sodipodi:guide
       orientation="0,1"
       position="326.34534,231.95975"
       id="guide16556" /><sodipodi:guide
       orientation="0,1"
       position="325.05826,170.32309"
       id="guide16558" /><sodipodi:guide
       orientation="1,0"
       position="141.97566,174.73927"
       id="guide3948" /><sodipodi:guide
       orientation="1,0"
       position="122.98729,209.36441"
       id="guide5070" /></sodipodi:namedview><g
     inkscape:groupmode="layer"
     id="layer6"
     inkscape:label="plot"
     style="display:inline"><g
       transform="matrix(1.25,0,0,1.25,0.60322976,-0.41963)"
       id="g4371"><path
         id="path4373"
         style="fill:none;stroke:#000000;stroke-width:0.15000001;stroke-linecap:square;stroke-linejoin:miter;stroke-miterlimit:3.79999995;stroke-opacity:1;stroke-dasharray:0.2, 2;stroke-dashoffset:0"
         d="m 37.199,147.852 306,0"
         inkscape:connector-curvature="0" /></g><g
       transform="matrix(1.25,0,0,1.25,0.60322976,-0.41963)"
       id="g4383"><path
         id="path4385"
         style="fill:none;stroke:#000000;stroke-width:0.15000001;stroke-linecap:square;stroke-linejoin:miter;stroke-miterlimit:3.79999995;stroke-opacity:1;stroke-dasharray:0.2, 2;stroke-dashoffset:0"
         d="m 37.199,113.898 306,0"
         inkscape:connector-curvature="0" /></g><g
       transform="matrix(1.25,0,0,1.25,0.60322976,-0.41963)"
       id="g4395"><path
         id="path4397"
         style="fill:none;stroke:#000000;stroke-width:0.15000001;stroke-linecap:square;stroke-linejoin:miter;stroke-miterlimit:3.79999995;stroke-opacity:1;stroke-dasharray:0.2, 2;stroke-dashoffset:0"
         d="m 37.199,79.949 306,0"
         inkscape:connector-curvature="0" /></g><g
       transform="matrix(1.25,0,0,1.25,0.60322976,-0.41963)"
       id="g4407"><path
         id="path4409"
         style="fill:none;stroke:#000000;stroke-width:0.15000001;stroke-linecap:square;stroke-linejoin:miter;stroke-miterlimit:3.79999995;stroke-opacity:1;stroke-dasharray:0.2, 2;stroke-dashoffset:0"
         d="m 37.199,46 306,0"
         inkscape:connector-curvature="0" /></g><g
       transform="matrix(1.25,0,0,1.25,0.60322976,-0.41963)"
       id="g4419"><path
         id="path4421"
         style="fill:none;stroke:#000000;stroke-width:0.15000001;stroke-linecap:square;stroke-linejoin:miter;stroke-miterlimit:3.79999995;stroke-opacity:1;stroke-dasharray:0.2, 2;stroke-dashoffset:0"
         d="m 37.199,12.051 306,0"
         inkscape:connector-curvature="0" /></g><g
       transform="matrix(1.25,0,0,1.25,0.60322976,-0.41963)"
       id="g4443"><path
         id="path4445"
         style="fill:none;stroke:#000000;stroke-width:0.15000001;stroke-linecap:square;stroke-linejoin:miter;stroke-miterlimit:3.79999995;stroke-opacity:1;stroke-dasharray:0.2, 2;stroke-dashoffset:0"
         d="m 139.199,181.801 0,-169.75"
         inkscape:connector-curvature="0" /></g><g
       transform="matrix(1.25,0,0,1.25,0.60322976,-0.41963)"
       id="g4455"><path
         id="path4457"
         style="fill:none;stroke:#000000;stroke-width:0.15000001;stroke-linecap:square;stroke-linejoin:miter;stroke-miterlimit:3.79999995;stroke-opacity:1;stroke-dasharray:0.2, 2;stroke-dashoffset:0"
         d="m 241.199,181.801 0,-143.75"
         inkscape:connector-curvature="0" /></g><g
       transform="matrix(1.25,0,0,1.25,0.60322976,-0.41963)"
       id="g4471"><path
         id="path4473"
         style="fill:none;stroke:#000000;stroke-width:0.15000001;stroke-linecap:square;stroke-linejoin:miter;stroke-miterlimit:3.79999995;stroke-opacity:1;stroke-dasharray:0.2, 2;stroke-dashoffset:0"
         d="m 343.199,181.801 0,-169.75"
         inkscape:connector-curvature="0" /></g><g
       transform="matrix(1.25,0,0,1.25,0.60322976,-0.41963)"
       id="g4483"><path
         id="path4485"
         style="fill:none;stroke:#000000;stroke-width:0.25;stroke-linecap:square;stroke-linejoin:miter;stroke-miterlimit:3.79999995;stroke-opacity:1;stroke-dasharray:none"
         d="m 37.199,12.051 0,169.75 306,0"
         inkscape:connector-curvature="0" /></g><text
       id="text4491"
       x="214.67062"
       y="264.50101"
       style="font-size:15px"><tspan
         id="tspan4493"
         sodipodi:role="line"
         y="264.50101"
         x="214.67062 219.18546 222.767 233.42996 240.07973 244.46625 251.76933 257.54413"
         style="font-size:11.66625977px;font-variant:normal;font-weight:normal;writing-mode:lr-tb;fill:#000000;fill-opacity:1;fill-rule:nonzero;stroke:none;font-family:DejaVu Serif;-inkscape-font-specification:DejaVuSerif">time[µs]</tspan><tspan
         id="tspan4495"
         sodipodi:role="line"
         style="font-size:11.66625977px;font-variant:normal;font-weight:normal;writing-mode:lr-tb;fill:#000000;fill-opacity:1;fill-rule:nonzero;stroke:none;font-family:DejaVu Serif;-inkscape-font-specification:DejaVuSerif"
         x="214.67062"
         y="0" /></text>
<g
       transform="matrix(1.25,0,0,1.25,0.60322976,-0.41963)"
       id="g4517"><path
         id="path4519"
         style="fill:none;stroke:#000000;stroke-width:0.25;stroke-linecap:square;stroke-linejoin:miter;stroke-miterlimit:3.79999995;stroke-opacity:1;stroke-dasharray:none"
         d="m 37.199,12.051 0,169.75 306,0"
         inkscape:connector-curvature="0" /></g><path
       id="path4361"
       style="fill:none;stroke:#000000;stroke-width:0.1875;stroke-linecap:square;stroke-linejoin:miter;stroke-miterlimit:3.79999995;stroke-opacity:1;stroke-dasharray:0.25, 2.5;stroke-dashoffset:0"
       d="m 47.10198,226.83162 382.5,0"
       inkscape:connector-curvature="0" /><path
       id="path4365"
       style="fill:none;stroke:#000000;stroke-width:0.3125;stroke-linecap:square;stroke-linejoin:miter;stroke-miterlimit:3.79999995;stroke-opacity:1;stroke-dasharray:none"
       d="m 47.10198,226.83162 5.37625,0"
       inkscape:connector-curvature="0" /><text
       id="text4367"
       x="32.722912"
       y="230.62895"
       style="font-size:15px"><tspan
         style="font-size:11.66625977px;font-variant:normal;font-weight:normal;writing-mode:lr-tb;fill:#000000;fill-opacity:1;fill-rule:nonzero;stroke:none;font-family:DejaVu Serif;-inkscape-font-specification:DejaVuSerif"
         x="32.722912"
         y="230.62895"
         id="tspan4369">0</tspan></text>
<path
       id="path4377"
       style="fill:none;stroke:#000000;stroke-width:0.3125;stroke-linecap:square;stroke-linejoin:miter;stroke-miterlimit:3.79999995;stroke-opacity:1;stroke-dasharray:none"
       d="m 47.10198,184.39537 5.37625,0"
       inkscape:connector-curvature="0" /><text
       id="text4379"
       x="32.722912"
       y="188.19243"
       style="font-size:15px"><tspan
         style="font-size:11.66625977px;font-variant:normal;font-weight:normal;writing-mode:lr-tb;fill:#000000;fill-opacity:1;fill-rule:nonzero;stroke:none;font-family:DejaVu Serif;-inkscape-font-specification:DejaVuSerif"
         x="32.722912"
         y="188.19243"
         id="tspan4381">1</tspan></text>
<path
       id="path4389"
       style="fill:none;stroke:#000000;stroke-width:0.3125;stroke-linecap:square;stroke-linejoin:miter;stroke-miterlimit:3.79999995;stroke-opacity:1;stroke-dasharray:none"
       d="m 47.10198,141.95287 5.37625,0"
       inkscape:connector-curvature="0" /><text
       id="text4391"
       x="32.722912"
       y="145.75102"
       style="font-size:15px"><tspan
         style="font-size:11.66625977px;font-variant:normal;font-weight:normal;writing-mode:lr-tb;fill:#000000;fill-opacity:1;fill-rule:nonzero;stroke:none;font-family:DejaVu Serif;-inkscape-font-specification:DejaVuSerif"
         x="32.722912"
         y="145.75102"
         id="tspan4393">2</tspan></text>
<path
       id="path4401"
       style="fill:none;stroke:#000000;stroke-width:0.3125;stroke-linecap:square;stroke-linejoin:miter;stroke-miterlimit:3.79999995;stroke-opacity:1;stroke-dasharray:none"
       d="m 47.10198,99.51662 5.37625,0"
       inkscape:connector-curvature="0" /><text
       id="text4403"
       x="32.722912"
       y="103.31451"
       style="font-size:15px"><tspan
         style="font-size:11.66625977px;font-variant:normal;font-weight:normal;writing-mode:lr-tb;fill:#000000;fill-opacity:1;fill-rule:nonzero;stroke:none;font-family:DejaVu Serif;-inkscape-font-specification:DejaVuSerif"
         x="32.722912"
         y="103.31451"
         id="tspan4405">3</tspan></text>
<path
       id="path4413"
       style="fill:none;stroke:#000000;stroke-width:0.3125;stroke-linecap:square;stroke-linejoin:miter;stroke-miterlimit:3.79999995;stroke-opacity:1;stroke-dasharray:none"
       d="m 47.10198,57.08037 5.37625,0"
       inkscape:connector-curvature="0" /><text
       id="text4415"
       x="32.722912"
       y="60.877983"
       style="font-size:15px"><tspan
         style="font-size:11.66625977px;font-variant:normal;font-weight:normal;writing-mode:lr-tb;fill:#000000;fill-opacity:1;fill-rule:nonzero;stroke:none;font-family:DejaVu Serif;-inkscape-font-specification:DejaVuSerif"
         x="32.722912"
         y="60.877983"
         id="tspan4417">4</tspan></text>
<path
       id="path4425"
       style="fill:none;stroke:#000000;stroke-width:0.3125;stroke-linecap:square;stroke-linejoin:miter;stroke-miterlimit:3.79999995;stroke-opacity:1;stroke-dasharray:none"
       d="m 47.10198,14.64412 5.37625,0"
       inkscape:connector-curvature="0" /><text
       id="text4427"
       x="32.722912"
       y="18.441458"
       style="font-size:15px"><tspan
         style="font-size:11.66625977px;font-variant:normal;font-weight:normal;writing-mode:lr-tb;fill:#000000;fill-opacity:1;fill-rule:nonzero;stroke:none;font-family:DejaVu Serif;-inkscape-font-specification:DejaVuSerif"
         x="32.722912"
         y="18.441458"
         id="tspan4429">5</tspan></text>
<path
       id="path4433"
       style="fill:none;stroke:#000000;stroke-width:0.1875;stroke-linecap:square;stroke-linejoin:miter;stroke-miterlimit:3.79999995;stroke-opacity:1;stroke-dasharray:0.25, 2.5;stroke-dashoffset:0"
       d="m 47.10198,226.83162 0,-212.1875"
       inkscape:connector-curvature="0" /><path
       id="path4437"
       style="fill:none;stroke:#000000;stroke-width:0.3125;stroke-linecap:square;stroke-linejoin:miter;stroke-miterlimit:3.79999995;stroke-opacity:1;stroke-dasharray:none"
       d="m 47.10198,226.83162 0,-5.37625"
       inkscape:connector-curvature="0" /><text
       id="text4439"
       x="45.276619"
       y="244.18852"
       style="font-size:15px"><tspan
         style="font-size:11.66625977px;font-variant:normal;font-weight:normal;writing-mode:lr-tb;fill:#000000;fill-opacity:1;fill-rule:nonzero;stroke:none;font-family:DejaVu Serif;-inkscape-font-specification:DejaVuSerif"
         x="45.276619"
         y="244.18852"
         id="tspan4441">0</tspan></text>
<path
       id="path4449"
       style="fill:none;stroke:#000000;stroke-width:0.3125;stroke-linecap:square;stroke-linejoin:miter;stroke-miterlimit:3.79999995;stroke-opacity:1;stroke-dasharray:none"
       d="m 174.60198,226.83162 0,-5.37625"
       inkscape:connector-curvature="0" /><text
       id="text4451"
       x="165.61842"
       y="244.18852"
       style="font-size:15px"><tspan
         style="font-size:11.66625977px;font-variant:normal;font-weight:normal;writing-mode:lr-tb;fill:#000000;fill-opacity:1;fill-rule:nonzero;stroke:none;font-family:DejaVu Serif;-inkscape-font-specification:DejaVuSerif"
         x="165.61842 172.76984 179.92125"
         y="244.18852"
         sodipodi:role="line"
         id="tspan4453">500</tspan></text>
<path
       id="path4465"
       style="fill:none;stroke:#000000;stroke-width:0.3125;stroke-linecap:square;stroke-linejoin:miter;stroke-miterlimit:3.79999995;stroke-opacity:1;stroke-dasharray:none"
       d="m 302.10198,226.83162 0,-5.37625"
       inkscape:connector-curvature="0" /><text
       id="text4467"
       x="289.53931"
       y="244.18852"
       style="font-size:15px"><tspan
         style="font-size:11.66625977px;font-variant:normal;font-weight:normal;writing-mode:lr-tb;fill:#000000;fill-opacity:1;fill-rule:nonzero;stroke:none;font-family:DejaVu Serif;-inkscape-font-specification:DejaVuSerif"
         x="289.53931 296.69073 303.84216 311.00525"
         y="244.18852"
         sodipodi:role="line"
         id="tspan4469">1000</tspan></text>
<path
       id="path4477"
       style="fill:none;stroke:#000000;stroke-width:0.3125;stroke-linecap:square;stroke-linejoin:miter;stroke-miterlimit:3.79999995;stroke-opacity:1;stroke-dasharray:none"
       d="m 429.60198,226.83162 0,-5.37625"
       inkscape:connector-curvature="0" /><text
       id="text4479"
       x="417.03931"
       y="244.18852"
       style="font-size:15px"><tspan
         style="font-size:11.66625977px;font-variant:normal;font-weight:normal;writing-mode:lr-tb;fill:#000000;fill-opacity:1;fill-rule:nonzero;stroke:none;font-family:DejaVu Serif;-inkscape-font-specification:DejaVuSerif"
         x="417.03931 424.19073 431.34216 438.50525"
         y="244.18852"
         sodipodi:role="line"
         id="tspan4481">1500</tspan></text>
<text
       transform="matrix(0,-1,1,0,0,0)"
       id="text4487"
       x="-133.11064"
       y="15.338337"
       style="font-size:15px"><tspan
         style="font-size:11.66625977px;font-variant:normal;font-weight:normal;writing-mode:lr-tb;fill:#000000;fill-opacity:1;fill-rule:nonzero;stroke:none;font-family:DejaVu Serif;-inkscape-font-specification:DejaVuSerif"
         x="-133.11064 -125.91256 -119.20446 -115.62292"
         y="15.338337"
         sodipodi:role="line"
         id="tspan4489">gain</tspan></text>
</g><g
     inkscape:groupmode="layer"
     id="layer2"
     inkscape:label="experiment"
     style="display:inline"><text
       xml:space="preserve"
       style="font-size:40px;font-style:normal;font-weight:normal;line-height:125%;letter-spacing:0px;word-spacing:0px;fill:#ff0000;fill-opacity:1;stroke:none;display:inline;font-family:Sans"
       x="122.98729"
       y="189.33913"
       id="text5062"
       sodipodi:linespacing="125%"><tspan
         sodipodi:role="line"
         id="tspan5064"
         x="122.98729"
         y="189.33913"
         style="font-size:30px;fill:#ff0000;fill-opacity:1">measurement</tspan></text>
<g
       style="stroke-width:1.60000002;stroke-miterlimit:4;stroke-dasharray:none;display:inline"
       transform="matrix(1.25,0,0,1.25,0.60322976,-0.41963)"
       id="g4501"><path
         id="path4503"
         style="fill:none;stroke:#ff0000;stroke-width:1.60000002;stroke-linecap:square;stroke-linejoin:miter;stroke-miterlimit:4;stroke-opacity:1;stroke-dasharray:none"
         d="m 37.199,161.75 0.199,0.199 0.403,0.301 0.398,1.051 0.449,-1.352 0.403,-1.5 0.398,0 0.403,1.051 0.398,-0.398 0.398,-0.102 0.454,-0.199 0.398,0 0.398,0.25 0.403,0.699 0.398,-0.301 0.403,-0.699 0.398,-0.699 0.449,-0.5 0.403,0.199 0.398,0.5 0.398,-1.148 0.403,-0.301 0.398,-0.699 0.449,1 0.403,-0.75 0.398,0.699 0.403,-0.301 0.398,0.301 0.398,-1.551 0.454,0.449 0.398,0.051 0.398,0.102 0.403,0.75 0.398,0.597 0.403,-0.449 0.449,-2.352 0.398,0 0.403,0.5 0.398,-0.148 0.398,-0.398 0.403,0.046 0.398,-0.949 0.449,-0.949 0.403,0.199 0.398,2.301 0.403,-0.449 0.398,-1.852 0.398,-1.199 0.454,0.699 0.398,-0.5 0.398,-0.398 0.403,0.648 0.398,0.403 0.403,-1.102 0.449,-0.199 0.398,-0.5 0.403,-0.25 0.398,-0.852 0.398,1.449 0.403,0.653 0.449,-0.852 0.398,-1.051 0.403,-0.148 0.398,-0.051 0.403,-1.5 0.398,0.352 0.398,-0.75 0.454,0.051 0.398,-0.153 0.398,0.653 0.403,0.546 0.398,-0.648 0.403,0.449 0.449,-0.199 0.398,0.199 0.403,-0.347 0.398,-0.653 0.398,-1 0.403,-0.847 0.449,-0.403 0.398,-1.199 0.403,-0.699 0.398,0.097 0.403,1.5 0.398,1.25 0.449,0.051 0.403,-0.597 0.398,-0.5 0.398,-0.403 0.403,-0.648 0.398,-0.551 0.403,0.551 0.449,0.25 0.398,-0.949 0.403,-2.051 0.398,0 0.398,1.051 0.403,0.296 0.449,-0.347 0.398,-0.852 0.403,-0.25 0.398,0.051 0.403,0.449 0.398,-0.801 0.449,-1.597 0.403,-0.5 0.398,1.398 0.398,-0.097 0.403,-2.051 0.398,-0.949 0.449,1.546 0.403,1.454 0.398,-1.204 0.403,-1.546 0.398,-0.352 0.398,0.148 0.403,-0.199 0.449,-0.597 0.398,0.75 0.403,-0.5 0.398,-0.75 0.403,-0.75 0.398,-0.903 0.449,-0.347 0.403,0.546 0.398,0.551 0.398,-0.75 0.403,-0.097 0.398,0 0.449,-0.653 0.403,-1.5 0.398,0.551 0.403,-0.148 0.398,0.699 0.398,-0.199 0.454,-0.051 0.398,-1 0.398,-0.199 0.403,-0.602 0.398,-0.051 0.403,-0.75 0.398,-0.648 0.449,0.051 0.403,0.148 0.398,-1.551 0.398,-1.199 0.403,1.898 0.398,0.301 0.449,0.051 0.403,0.051 0.398,-0.403 0.403,-1.597 0.398,-1.852 0.398,0.801 0.454,-0.5 0.398,-0.398 0.398,-0.852 0.403,0.301 0.398,-0.602 0.403,1 0.449,-0.097 0.398,-1.204 0.403,-1.097 0.398,0.75 0.398,0.398 0.403,-0.097 0.398,0 0.449,-1.25 0.403,-0.403 0.398,-0.148 0.403,-0.102 0.398,-0.949 0.398,-0.199 0.454,0.097 0.398,-0.449 0.398,-0.199 0.403,1.301 0.398,-0.102 0.403,-1 0.449,-1.25 0.398,-0.597 0.403,-0.5 0.398,0.046 0.398,0.153 0.403,-0.75 0.449,-0.852 0.398,-2.097 0.403,0.097 0.398,0.551 0.403,0.551 0.398,-0.949 0.398,-0.102 0.454,-0.148 0.398,-0.102 0.398,-0.051 0.403,-0.847 0.398,0 0.403,-0.352 0.449,-0.352 0.398,-1.097 0.403,-0.852 0.398,0.102 0.398,0.648 0.403,0.25 0.449,-1.148 0.398,-0.5 0.403,1.301 0.398,-0.25 0.403,-1.051 0.398,-0.653 0.449,0.25 0.403,-1.5 0.398,-1.347 0.398,0.199 0.403,1.102 0.398,0.449 0.403,-1.699 0.449,-0.25 0.398,0.75 0.403,-0.153 0.398,-2.148 0.398,0.148 0.403,0.801 0.449,0.199 0.398,-1.25 0.403,-1.648 0.398,-0.102 0.403,0.903 0.398,0.296 0.449,-2.347 0.403,-0.403 0.398,0.551 0.398,0.449 0.403,-0.5 0.398,0.25 0.449,-0.949 0.403,-0.301 0.398,-0.796 0.403,-0.454 0.398,-1 0.398,0.5 0.403,0.704 0.449,-0.801 0.398,-0.653 0.403,-1.097 0.398,0.301 0.403,-0.5 0.398,0.199 0.449,-1 0.403,-1.653 0.398,0.102 0.398,1.551 0.403,0.25 0.398,-1.75 0.449,-0.5 0.403,-0.602 0.398,0.551 0.403,-0.699 0.398,0.449 0.398,-0.852 0.454,0.102 0.398,-0.801 0.398,-0.398 0.403,-1.199 0.398,0.046 0.403,-0.148 0.398,0.75 0.449,-1.25 0.403,-0.301 0.398,-1.097 0.398,0.847 0.403,0 0.398,-0.699 0.449,-0.051 0.403,0.051 0.398,-0.898 0.403,-0.954 0.398,0.801 0.398,-0.551 0.454,-1.546 0.398,0.097 0.398,0.75 0.403,0.449 0.398,-1.097 0.403,-0.699 0.449,-0.153 0.398,1.199 0.403,-0.347 0.398,-1.852 0.398,-1.847 0.403,0.148 0.398,0.398 0.449,1.051 0.403,-0.551 0.398,0.25 0.403,-1.75 0.398,0.051 0.398,-1.398 0.454,-0.653 L 159,82 l 0.398,-0.551 0.403,-1.051 0.398,-0.5 0.403,0.25 0.449,1.801 0.398,1.199 0.403,-0.148 0.398,-2.25 0.398,-0.199 0.403,0.097 0.449,-0.546 0.398,0.148 0.403,0.148 0.398,0.454 0.403,-0.454 0.398,-0.898 0.398,-1.5 0.454,0.199 0.398,1.153 0.398,-1.204 0.403,-1.648 0.398,-0.102 0.403,0.352 0.449,-0.398 0.398,0.148 0.403,0.25 L 170,76 l 0.398,-1.102 0.403,0.602 0.449,0.051 0.398,0.199 0.403,0.199 0.398,-0.25 0.403,-2.199 0.398,-0.352 0.449,0.852 0.403,0 0.398,-0.551 0.398,-0.148 0.403,-0.449 0.398,0.449 0.403,0.347 0.449,-1.148 0.398,-1.25 0.403,-0.25 0.796,1.102 0.403,-0.602 0.449,-2.199 0.398,0.051 0.403,0.449 0.398,-0.602 0.403,-1.398 0.398,-0.449 0.449,0.699 0.403,0.648 0.398,0.403 0.398,-1.352 0.403,-0.051 0.398,-0.597 0.449,1.148 0.403,-0.699 0.398,-0.75 0.403,-1.602 0.398,1.602 0.398,0.25 0.403,-1.403 0.449,-0.597 0.398,1.097 0.403,0.102 0.398,-1.699 0.403,-0.301 0.398,-0.699 0.449,0.5 0.403,0.199 0.398,0.051 0.398,-2.25 0.403,-0.403 0.398,-0.75 0.449,0.102 0.403,-0.449 0.398,0.699 0.403,-1.199 0.398,0.051 0.398,0.199 0.454,0.949 0.398,-0.648 0.398,-1.102 0.403,-0.949 0.398,0.398 0.403,0.352 0.398,0.75 0.449,-0.051 0.403,0.25 0.398,-1 0.398,-0.102 0.403,-1.199 0.398,-0.597 0.449,0.796 0.403,1.454 0.398,-0.551 0.403,-0.903 0.398,-1.648 0.398,0.051 0.454,-1.25 0.398,0.148 0.398,0.051 0.403,1.25 0.398,-1.352 0.403,-1.148 0.449,0.699 0.398,1.102 0.403,-1 0.398,-1.852 0.398,-1.148 0.403,0.25 0.398,1.597 0.449,0.403 0.403,0.699 0.398,-1.398 0.403,-0.704 0.398,-0.898 0.398,1.301 0.454,-0.301 0.398,-0.949 0.398,0.347 0.403,0.602 0.398,-0.602 0.403,-1.347 0.449,0.699 0.398,-0.801 0.403,-0.551 0.398,0.153 0.398,0.847 0.403,-1.5 0.449,-0.097 0.398,1.347 0.403,0.102 0.398,-1.75 0.403,-0.551 0.398,0.801 0.398,0.602 0.454,-1.051 0.398,-0.801 0.398,-0.102 0.403,1.403 0.398,0.301 0.403,-0.801 0.449,-1.403 0.398,-0.5 0.403,0.051 0.398,0.75 0.398,-0.25 0.403,0.25 0.449,-0.199 0.398,0.5 0.403,-0.648 0.398,0.097 0.403,-0.398 0.398,-0.199 0.449,-0.602 0.403,1 0.398,0.648 0.398,-1.199 0.403,-2.25 0.398,-0.097 0.403,1.347 0.449,0.653 0.398,-0.5 0.403,-0.5 0.398,0.398 0.398,0.801 0.403,-1.153 0.449,-1.25 0.398,-0.5 0.403,0.852 0.398,-0.551 0.403,-0.449 0.398,-0.852 0.449,1 0.403,0.051 0.398,0.551 0.398,-0.25 0.403,-0.801 0.398,-2.699 0.449,0 0.403,1.75 0.398,-0.148 0.403,-1.352 0.398,0.699 0.398,1.602 0.403,0.5 0.449,-1.602 0.398,-1.25 0.403,-0.648 0.398,2.75 0.403,0.097 0.398,-2.796 0.449,-2.454 0.403,0.954 0.398,0.398 0.199,0.301 0,1 2.051,0.648 0,0.699 0,-2.296 2.051,1.699 0,1.097 0,-0.148 0,2.102 2,0.5 0,2.949 2.051,0.648 0,2.699 2.046,1.102 0,2.148 0,-0.949 0,0.852 2.051,2.648 0,0.199 0,-0.5 2.051,2.204 0,2.148 2,0.5 0,2.551 2.051,0.699 0,1.949 2.051,1.449 0,1.102 0,-1.148 0,0.796 2.046,1.551 0,4.699 0,-0.597 2.051,-1.653 0,5.051 2,0.25 0,-1 0,0.653 2.051,1.546 0,0.602 0,-0.898 2.051,1 0,3.148 0,-0.25 2.051,0.852 0,2.597 0,-0.75 0,0.102 2.046,-0.551 0,1.25 0,-1 0,3.199 2,1.551 0,-1.75 0,2.25 2.051,-0.648 0,1 0,-0.352 0,0.801 2.051,0.597 0,0.403 0,-1.25 0,1 2.051,1.301 0,1.75 0,-0.602 0,0.352 0,-0.102 2.051,0.648 0,0.551 2,0.403 0,1.796 2.046,0.051 0,-0.148 0,1.449 2.051,1.25 0,-1.852 0,1.551 2.051,1.551 0,-0.25 0,2.949 2.051,-1.301 0,-1.097 0,3.5 0,-0.5 2,-2.449 0,3.597 0,-0.801 2.051,0.602 0,-0.301 0,1.699 2.046,-0.046 0,-0.301 0,1.301 2.051,1.398 0,-1.949 0,2.347 2.051,-0.648 0,-1.75 0,1.398 2,0.051 0,0.903 0,-0.204 0,0.801 0,-0.5 2.051,0.449 0,-0.25 0,0.903 0,-0.801 2.051,-0.602 0,2.704 0,-0.75 2.046,0.546 0,3.454 2.051,0.347 0,-3.949 0,1.75 2,1.551 0,0.898 0,-1.398 2.051,0.551 0,0.097 0,-0.301 0,0.801 2.051,1.801 0,1.25 0,-2.648 2.051,0.648 0,0.801 0,-0.25 0,0.301 2.046,0.699 0,0.199 0,-1.352 2,0.454 0,2.296 0,-1.847 2.051,0.847 0,2.153 0,-1.051 0,0.148 2.051,0.051 0,1.25 2.051,0.653 0,-1 0,1.046 2.051,-1.5 0,2.801 2,-0.847 0,-1.102 0,1.25 2.046,1.551 0,-2.5 0,2.25 2.051,0.301 0,-0.301 0,0.551 0,-1.5"
         inkscape:connector-curvature="0" /></g></g><g
     inkscape:groupmode="layer"
     id="layer3"
     inkscape:label="simulation"
     style="display:inline"><g
       transform="matrix(1.25,0,0,1.25,0.60322976,-0.41963)"
       id="g4513"
       style="stroke:#0000ff;stroke-width:2.4000001;stroke-linecap:round;stroke-miterlimit:4;stroke-dasharray:none;display:inline"><path
         id="path4515"
         style="fill:none;stroke:#0000ff;stroke-width:2.4000001;stroke-linecap:round;stroke-linejoin:miter;stroke-miterlimit:4;stroke-opacity:1;stroke-dasharray:none"
         d="m 37.199,160.648 4.102,-1.097 4.051,-1.75 4.097,-1.801 4.051,-1.949 4.102,-2 4.097,-2.102 4.051,-2.199 4.102,-2.301 4.046,-2.398 4.102,-2.5 4.102,-2.551 4.046,-2.648 4.102,-2.704 4.051,-2.75 4.097,-2.847 4.102,-2.852 4.051,-2.949 4.097,-2.949 4.051,-3 4.102,-3 4.097,-3.051 4.051,-3 4.102,-3 4.051,-3.051 4.097,-3 4.102,-2.949 4.051,-2.898 4.097,-2.903 4.051,-2.847 4.102,-2.801 4.097,-2.75 4.051,-2.699 4.102,-2.551 4.046,-2.551 4.102,-2.5 4.102,-2.398 4.046,-2.301 4.102,-2.25 4.051,-2.153 4.097,-2.097 4.102,-2 4.051,-1.903 4.097,-1.847 4.051,-1.75 4.102,-1.699 4.097,-1.602 4.051,-1.551 4.102,-1.5 4.051,-1.398 4.097,-1.301 4.102,-1.301 4.051,8.602 4.097,7.597 4.051,6.852 4.102,6.148 4.097,5.551 4.051,5 4.102,4.551 4.046,4.199 L 282,93 l 4.102,3.5 4.046,3.199 4.102,3 4.051,2.75 4.097,2.551 4.102,2.398 4.051,2.204 4.097,2.046 4.051,1.954 4.102,1.796 4.097,1.704 4.051,1.597 4.102,1.5 4.051,1.403 4.097,1.347"
         inkscape:connector-curvature="0" /></g><text
       xml:space="preserve"
       style="font-size:40px;font-style:normal;font-weight:normal;line-height:125%;letter-spacing:0px;word-spacing:0px;fill:#000000;fill-opacity:1;stroke:none;display:inline;font-family:Sans"
       x="122.98729"
       y="42.044487"
       id="text5066"
       sodipodi:linespacing="125%"><tspan
         sodipodi:role="line"
         id="tspan5068"
         x="122.98729"
         y="42.044487"
         style="font-size:30px;fill:#0000ff">simulation</tspan></text>
</g></svg>