<?xml version="1.0" encoding="UTF-8" standalone="no"?>
<!-- Created with Inkscape (http://www.inkscape.org/) -->

<svg
   xmlns:dc="http://purl.org/dc/elements/1.1/"
   xmlns:cc="http://creativecommons.org/ns#"
   xmlns:rdf="http://www.w3.org/1999/02/22-rdf-syntax-ns#"
   xmlns:svg="http://www.w3.org/2000/svg"
   xmlns="http://www.w3.org/2000/svg"
   xmlns:sodipodi="http://sodipodi.sourceforge.net/DTD/sodipodi-0.dtd"
   xmlns:inkscape="http://www.inkscape.org/namespaces/inkscape"
   id="svg15574"
   version="1.1"
   inkscape:version="0.48.5 r10040"
   width="450"
   height="270"
   xml:space="preserve"
   sodipodi:docname="energy_loss.svg"><metadata
     id="metadata15580"><rdf:RDF><cc:Work
         rdf:about=""><dc:format>image/svg+xml</dc:format><dc:type
           rdf:resource="http://purl.org/dc/dcmitype/StillImage" /><dc:title></dc:title></cc:Work></rdf:RDF></metadata><defs
     id="defs15578"><marker
       inkscape:stockid="StopM"
       orient="auto"
       refY="0.0"
       refX="0.0"
       id="StopM"
       style="overflow:visible"><path
         id="path4122"
         d="M 0.0,5.65 L 0.0,-5.65"
         style="fill:none;fill-opacity:0.75000000;fill-rule:evenodd;stroke:#000000;stroke-width:1.0pt"
         transform="scale(0.4)" /></marker><marker
       inkscape:stockid="TriangleOutM"
       orient="auto"
       refY="0.0"
       refX="0.0"
       id="TriangleOutM"
       style="overflow:visible"><path
         id="path4095"
         d="M 5.77,0.0 L -2.88,5.0 L -2.88,-5.0 L 5.77,0.0 z "
         style="fill-rule:evenodd;stroke:#000000;stroke-width:1.0pt"
         transform="scale(0.4)" /></marker><marker
       inkscape:stockid="TriangleOutM"
       orient="auto"
       refY="0"
       refX="0"
       id="TriangleOutM-9"
       style="overflow:visible"><path
         inkscape:connector-curvature="0"
         id="path4095-6"
         d="m 5.77,0 -8.65,5 0,-10 8.65,5 z"
         style="fill-rule:evenodd;stroke:#000000;stroke-width:1pt"
         transform="scale(0.4,0.4)" /></marker><marker
       inkscape:stockid="StopM"
       orient="auto"
       refY="0"
       refX="0"
       id="StopM-3"
       style="overflow:visible"><path
         inkscape:connector-curvature="0"
         id="path4122-6"
         d="M 0,5.65 0,-5.65"
         style="fill:none;stroke:#000000;stroke-width:1pt"
         transform="scale(0.4,0.4)" /></marker><marker
       inkscape:stockid="StopM"
       orient="auto"
       refY="0"
       refX="0"
       id="marker16948"
       style="overflow:visible"><path
         inkscape:connector-curvature="0"
         id="path16950"
         d="M 0,5.65 0,-5.65"
         style="fill:none;stroke:#000000;stroke-width:1pt"
         transform="scale(0.4,0.4)" /></marker></defs><sodipodi:namedview
     pagecolor="#ffffff"
     bordercolor="#666666"
     borderopacity="1"
     objecttolerance="10"
     gridtolerance="10"
     guidetolerance="10"
     inkscape:pageopacity="0"
     inkscape:pageshadow="2"
     inkscape:window-width="1678"
     inkscape:window-height="1029"
     id="namedview15576"
     showgrid="false"
     showguides="false"
     inkscape:guide-bbox="true"
     inkscape:zoom="1.7481481"
     inkscape:cx="297.63916"
     inkscape:cy="151.53653"
     inkscape:window-x="0"
     inkscape:window-y="19"
     inkscape:window-maximized="1"
     inkscape:current-layer="layer7"><sodipodi:guide
       orientation="1,0"
       position="306.32415,249.97881"
       id="guide15782" /><sodipodi:guide
       orientation="0,1"
       position="290.73623,255.12712"
       id="guide16294" /><sodipodi:guide
       orientation="0,1"
       position="326.34534,231.95975"
       id="guide16556" /><sodipodi:guide
       orientation="0,1"
       position="325.05826,170.32309"
       id="guide16558" /></sodipodi:namedview><g
     inkscape:groupmode="layer"
     id="layer6"
     inkscape:label="plot"
     style="display:inline"><path
       transform="matrix(1.25,0,0,-1.25,0,270)"
       d="m 37.199,34.199 306,0"
       style="display:inline;fill:none;stroke:#000000;stroke-width:0.15000000999999999;stroke-linecap:square;stroke-linejoin:miter;stroke-miterlimit:3.79999995000000013;stroke-opacity:1;stroke-dasharray:0.20000000000000001, 2;stroke-dashoffset:0"
       id="path15588"
       inkscape:connector-curvature="0" /><path
       transform="matrix(1.25,0,0,-1.25,0,270)"
       d="m 37.199,34.199 4.301,0"
       style="display:inline;fill:none;stroke:#000000;stroke-width:0.25000000000000000;stroke-linecap:square;stroke-linejoin:miter;stroke-miterlimit:3.79999995000000013;stroke-opacity:1;stroke-dasharray:none"
       id="path15592"
       inkscape:connector-curvature="0" /><text
       style="display:inline"
       id="text15594"
       transform="matrix(1.25,0,0,1.25,0,270)"
       x="25.695744"
       y="-31.161133"><tspan
         id="tspan15596"
         y="-31.161133"
         x="25.695744"
         style="font-size:9.33300781px;font-variant:normal;font-weight:normal;writing-mode:lr-tb;fill:#000000;fill-opacity:1;fill-rule:nonzero;stroke:none;font-family:DejaVu Serif;-inkscape-font-specification:DejaVuSerif">0</tspan></text>
<path
       transform="matrix(1.25,0,0,-1.25,0,270)"
       d="m 37.199,58.449 306,0"
       style="display:inline;fill:none;stroke:#000000;stroke-width:0.15000000999999999;stroke-linecap:square;stroke-linejoin:miter;stroke-miterlimit:3.79999995000000013;stroke-opacity:1;stroke-dasharray:0.20000000000000001, 2;stroke-dashoffset:0"
       id="path15600"
       inkscape:connector-curvature="0" /><path
       transform="matrix(1.25,0,0,-1.25,0,270)"
       d="m 37.199,58.449 4.301,0"
       style="display:inline;fill:none;stroke:#000000;stroke-width:0.25000000000000000;stroke-linecap:square;stroke-linejoin:miter;stroke-miterlimit:3.79999995000000013;stroke-opacity:1;stroke-dasharray:none"
       id="path15604"
       inkscape:connector-curvature="0" /><text
       style="display:inline"
       id="text15606"
       transform="matrix(1.25,0,0,1.25,0,270)"
       x="25.695744"
       y="-55.411133"><tspan
         id="tspan15608"
         y="-55.411133"
         x="25.695744"
         style="font-size:9.33300781px;font-variant:normal;font-weight:normal;writing-mode:lr-tb;fill:#000000;fill-opacity:1;fill-rule:nonzero;stroke:none;font-family:DejaVu Serif;-inkscape-font-specification:DejaVuSerif">1</tspan></text>
<path
       transform="matrix(1.25,0,0,-1.25,0,270)"
       d="m 37.199,82.699 306,0"
       style="display:inline;fill:none;stroke:#000000;stroke-width:0.15000000999999999;stroke-linecap:square;stroke-linejoin:miter;stroke-miterlimit:3.79999995000000013;stroke-opacity:1;stroke-dasharray:0.20000000000000001, 2;stroke-dashoffset:0"
       id="path15612"
       inkscape:connector-curvature="0" /><path
       transform="matrix(1.25,0,0,-1.25,0,270)"
       d="m 37.199,82.699 4.301,0"
       style="display:inline;fill:none;stroke:#000000;stroke-width:0.25000000000000000;stroke-linecap:square;stroke-linejoin:miter;stroke-miterlimit:3.79999995000000013;stroke-opacity:1;stroke-dasharray:none"
       id="path15616"
       inkscape:connector-curvature="0" /><text
       style="display:inline"
       id="text15618"
       transform="matrix(1.25,0,0,1.25,0,270)"
       x="25.695744"
       y="-79.661133"><tspan
         id="tspan15620"
         y="-79.661133"
         x="25.695744"
         style="font-size:9.33300781px;font-variant:normal;font-weight:normal;writing-mode:lr-tb;fill:#000000;fill-opacity:1;fill-rule:nonzero;stroke:none;font-family:DejaVu Serif;-inkscape-font-specification:DejaVuSerif">2</tspan></text>
<path
       transform="matrix(1.25,0,0,-1.25,0,270)"
       d="m 37.199,106.949 306,0"
       style="display:inline;fill:none;stroke:#000000;stroke-width:0.15000000999999999;stroke-linecap:square;stroke-linejoin:miter;stroke-miterlimit:3.79999995000000013;stroke-opacity:1;stroke-dasharray:0.20000000000000001, 2;stroke-dashoffset:0"
       id="path15624"
       inkscape:connector-curvature="0" /><path
       transform="matrix(1.25,0,0,-1.25,0,270)"
       d="m 37.199,106.949 4.301,0"
       style="display:inline;fill:none;stroke:#000000;stroke-width:0.25000000000000000;stroke-linecap:square;stroke-linejoin:miter;stroke-miterlimit:3.79999995000000013;stroke-opacity:1;stroke-dasharray:none"
       id="path15628"
       inkscape:connector-curvature="0" /><text
       style="display:inline"
       id="text15630"
       transform="matrix(1.25,0,0,1.25,0,270)"
       x="25.695744"
       y="-103.91113"><tspan
         id="tspan15632"
         y="-103.91113"
         x="25.695744"
         style="font-size:9.33300781px;font-variant:normal;font-weight:normal;writing-mode:lr-tb;fill:#000000;fill-opacity:1;fill-rule:nonzero;stroke:none;font-family:DejaVu Serif;-inkscape-font-specification:DejaVuSerif">3</tspan></text>
<path
       transform="matrix(1.25,0,0,-1.25,0,270)"
       d="m 37.199,131.199 306,0"
       style="display:inline;fill:none;stroke:#000000;stroke-width:0.15000000999999999;stroke-linecap:square;stroke-linejoin:miter;stroke-miterlimit:3.79999995000000013;stroke-opacity:1;stroke-dasharray:0.20000000000000001, 2;stroke-dashoffset:0"
       id="path15636"
       inkscape:connector-curvature="0" /><path
       transform="matrix(1.25,0,0,-1.25,0,270)"
       d="m 37.199,131.199 4.301,0"
       style="display:inline;fill:none;stroke:#000000;stroke-width:0.25000000000000000;stroke-linecap:square;stroke-linejoin:miter;stroke-miterlimit:3.79999995000000013;stroke-opacity:1;stroke-dasharray:none"
       id="path15640"
       inkscape:connector-curvature="0" /><text
       style="display:inline"
       id="text15642"
       transform="matrix(1.25,0,0,1.25,0,270)"
       x="25.695744"
       y="-128.16113"><tspan
         id="tspan15644"
         y="-128.16113"
         x="25.695744"
         style="font-size:9.33300781px;font-variant:normal;font-weight:normal;writing-mode:lr-tb;fill:#000000;fill-opacity:1;fill-rule:nonzero;stroke:none;font-family:DejaVu Serif;-inkscape-font-specification:DejaVuSerif">4</tspan></text>
<path
       transform="matrix(1.25,0,0,-1.25,0,270)"
       d="m 37.199,155.449 306,0"
       style="display:inline;fill:none;stroke:#000000;stroke-width:0.15000000999999999;stroke-linecap:square;stroke-linejoin:miter;stroke-miterlimit:3.79999995000000013;stroke-opacity:1;stroke-dasharray:0.20000000000000001, 2;stroke-dashoffset:0"
       id="path15648"
       inkscape:connector-curvature="0" /><path
       transform="matrix(1.25,0,0,-1.25,0,270)"
       d="m 37.199,155.449 4.301,0"
       style="display:inline;fill:none;stroke:#000000;stroke-width:0.25000000000000000;stroke-linecap:square;stroke-linejoin:miter;stroke-miterlimit:3.79999995000000013;stroke-opacity:1;stroke-dasharray:none"
       id="path15652"
       inkscape:connector-curvature="0" /><text
       style="display:inline"
       id="text15654"
       transform="matrix(1.25,0,0,1.25,0,270)"
       x="25.695744"
       y="-152.41113"><tspan
         id="tspan15656"
         y="-152.41113"
         x="25.695744"
         style="font-size:9.33300781px;font-variant:normal;font-weight:normal;writing-mode:lr-tb;fill:#000000;fill-opacity:1;fill-rule:nonzero;stroke:none;font-family:DejaVu Serif;-inkscape-font-specification:DejaVuSerif">5</tspan></text>
<path
       transform="matrix(1.25,0,0,-1.25,0,270)"
       d="m 37.199,179.699 123.449,0"
       style="display:inline;fill:none;stroke:#000000;stroke-width:0.15000000999999999;stroke-linecap:square;stroke-linejoin:miter;stroke-miterlimit:3.79999995000000013;stroke-opacity:1;stroke-dasharray:0.20000000000000001, 2;stroke-dashoffset:0"
       id="path15660"
       inkscape:connector-curvature="0" /><path
       transform="matrix(1.25,0,0,-1.25,0,270)"
       d="m 337.449,179.699 5.75,0"
       style="display:inline;fill:none;stroke:#000000;stroke-width:0.15000000999999999;stroke-linecap:square;stroke-linejoin:miter;stroke-miterlimit:3.79999995000000013;stroke-opacity:1;stroke-dasharray:0.20000000000000001, 2;stroke-dashoffset:0"
       id="path15664"
       inkscape:connector-curvature="0" /><path
       transform="matrix(1.25,0,0,-1.25,0,270)"
       d="m 37.199,179.699 4.301,0"
       style="display:inline;fill:none;stroke:#000000;stroke-width:0.25000000000000000;stroke-linecap:square;stroke-linejoin:miter;stroke-miterlimit:3.79999995000000013;stroke-opacity:1;stroke-dasharray:none"
       id="path15668"
       inkscape:connector-curvature="0" /><text
       style="display:inline"
       id="text15670"
       transform="matrix(1.25,0,0,1.25,0,270)"
       x="25.695744"
       y="-176.66113"><tspan
         id="tspan15672"
         y="-176.66113"
         x="25.695744"
         style="font-size:9.33300781px;font-variant:normal;font-weight:normal;writing-mode:lr-tb;fill:#000000;fill-opacity:1;fill-rule:nonzero;stroke:none;font-family:DejaVu Serif;-inkscape-font-specification:DejaVuSerif">6</tspan></text>
<path
       transform="matrix(1.25,0,0,-1.25,0,270)"
       d="m 37.199,203.949 306,0"
       style="display:inline;fill:none;stroke:#000000;stroke-width:0.15000000999999999;stroke-linecap:square;stroke-linejoin:miter;stroke-miterlimit:3.79999995000000013;stroke-opacity:1;stroke-dasharray:0.20000000000000001, 2;stroke-dashoffset:0"
       id="path15676"
       inkscape:connector-curvature="0" /><path
       transform="matrix(1.25,0,0,-1.25,0,270)"
       d="m 37.199,203.949 4.301,0"
       style="display:inline;fill:none;stroke:#000000;stroke-width:0.25000000000000000;stroke-linecap:square;stroke-linejoin:miter;stroke-miterlimit:3.79999995000000013;stroke-opacity:1;stroke-dasharray:none"
       id="path15680"
       inkscape:connector-curvature="0" /><text
       style="display:inline"
       id="text15682"
       transform="matrix(1.25,0,0,1.25,0,270)"
       x="25.695744"
       y="-200.91113"><tspan
         id="tspan15684"
         y="-200.91113"
         x="25.695744"
         style="font-size:9.33300781px;font-variant:normal;font-weight:normal;writing-mode:lr-tb;fill:#000000;fill-opacity:1;fill-rule:nonzero;stroke:none;font-family:DejaVu Serif;-inkscape-font-specification:DejaVuSerif">7</tspan></text>
<path
       transform="matrix(1.25,0,0,-1.25,0,270)"
       d="m 37.199,34.199 0,169.75"
       style="display:inline;fill:none;stroke:#000000;stroke-width:0.15000000999999999;stroke-linecap:square;stroke-linejoin:miter;stroke-miterlimit:3.79999995000000013;stroke-opacity:1;stroke-dasharray:0.20000000000000001, 2;stroke-dashoffset:0"
       id="path15688"
       inkscape:connector-curvature="0" /><path
       transform="matrix(1.25,0,0,-1.25,0,270)"
       d="m 37.199,34.199 0,4.301"
       style="display:inline;fill:none;stroke:#000000;stroke-width:0.25000000000000000;stroke-linecap:square;stroke-linejoin:miter;stroke-miterlimit:3.79999995000000013;stroke-opacity:1;stroke-dasharray:none"
       id="path15692"
       inkscape:connector-curvature="0" /><text
       style="display:inline"
       id="text15694"
       transform="matrix(1.25,0,0,1.25,0,270)"
       x="35.738712"
       y="-20.313477"><tspan
         id="tspan15696"
         y="-20.313477"
         x="35.738712"
         style="font-size:9.33300781px;font-variant:normal;font-weight:normal;writing-mode:lr-tb;fill:#000000;fill-opacity:1;fill-rule:nonzero;stroke:none;font-family:DejaVu Serif;-inkscape-font-specification:DejaVuSerif">0</tspan></text>
<path
       transform="matrix(1.25,0,0,-1.25,0,270)"
       d="m 139.199,34.199 0,169.75"
       style="display:inline;fill:none;stroke:#000000;stroke-width:0.15000000999999999;stroke-linecap:square;stroke-linejoin:miter;stroke-miterlimit:3.79999995000000013;stroke-opacity:1;stroke-dasharray:0.20000000000000001, 2;stroke-dashoffset:0"
       id="path15700"
       inkscape:connector-curvature="0" /><path
       transform="matrix(1.25,0,0,-1.25,0,270)"
       d="m 139.199,34.199 0,4.301"
       style="display:inline;fill:none;stroke:#000000;stroke-width:0.25000000000000000;stroke-linecap:square;stroke-linejoin:miter;stroke-miterlimit:3.79999995000000013;stroke-opacity:1;stroke-dasharray:none"
       id="path15704"
       inkscape:connector-curvature="0" /><text
       style="display:inline"
       id="text15706"
       transform="matrix(1.25,0,0,1.25,0,270)"
       x="132.01215"
       y="-20.313477"><tspan
         id="tspan15708"
         sodipodi:role="line"
         y="-20.313477"
         x="132.01215 137.73328 143.45442"
         style="font-size:9.33300781px;font-variant:normal;font-weight:normal;writing-mode:lr-tb;fill:#000000;fill-opacity:1;fill-rule:nonzero;stroke:none;font-family:DejaVu Serif;-inkscape-font-specification:DejaVuSerif">500</tspan></text>
<path
       transform="matrix(1.25,0,0,-1.25,0,270)"
       d="m 241.199,34.199 0,143.75"
       style="display:inline;fill:none;stroke:#000000;stroke-width:0.15000000999999999;stroke-linecap:square;stroke-linejoin:miter;stroke-miterlimit:3.79999995000000013;stroke-opacity:1;stroke-dasharray:0.20000000000000001, 2;stroke-dashoffset:0"
       id="path15712"
       inkscape:connector-curvature="0" /><path
       transform="matrix(1.25,0,0,-1.25,0,270)"
       d="m 241.199,199.648 0,4.301"
       style="display:inline;fill:none;stroke:#000000;stroke-width:0.15000000999999999;stroke-linecap:square;stroke-linejoin:miter;stroke-miterlimit:3.79999995000000013;stroke-opacity:1;stroke-dasharray:0.20000000000000001, 2;stroke-dashoffset:0"
       id="path15716"
       inkscape:connector-curvature="0" /><path
       transform="matrix(1.25,0,0,-1.25,0,270)"
       d="m 241.199,34.199 0,4.301"
       style="display:inline;fill:none;stroke:#000000;stroke-width:0.25000000000000000;stroke-linecap:square;stroke-linejoin:miter;stroke-miterlimit:3.79999995000000013;stroke-opacity:1;stroke-dasharray:none"
       id="path15720"
       inkscape:connector-curvature="0" /><text
       style="display:inline"
       id="text15722"
       transform="matrix(1.25,0,0,1.25,0,270)"
       x="231.14886"
       y="-20.313477"><tspan
         id="tspan15724"
         sodipodi:role="line"
         y="-20.313477"
         x="231.14886 236.87001 242.59114 248.32161"
         style="font-size:9.33300781px;font-variant:normal;font-weight:normal;writing-mode:lr-tb;fill:#000000;fill-opacity:1;fill-rule:nonzero;stroke:none;font-family:DejaVu Serif;-inkscape-font-specification:DejaVuSerif">1000</tspan></text>
<path
       transform="matrix(1.25,0,0,-1.25,0,270)"
       d="m 343.199,34.199 0,169.75"
       style="display:inline;fill:none;stroke:#000000;stroke-width:0.15000000999999999;stroke-linecap:square;stroke-linejoin:miter;stroke-miterlimit:3.79999995000000013;stroke-opacity:1;stroke-dasharray:0.20000000000000001, 2;stroke-dashoffset:0"
       id="path15728"
       inkscape:connector-curvature="0" /><path
       transform="matrix(1.25,0,0,-1.25,0,270)"
       d="m 343.199,34.199 0,4.301"
       style="display:inline;fill:none;stroke:#000000;stroke-width:0.25000000000000000;stroke-linecap:square;stroke-linejoin:miter;stroke-miterlimit:3.79999995000000013;stroke-opacity:1;stroke-dasharray:none"
       id="path15732"
       inkscape:connector-curvature="0" /><text
       style="display:inline"
       id="text15734"
       transform="matrix(1.25,0,0,1.25,0,270)"
       x="333.14886"
       y="-20.313477"><tspan
         id="tspan15736"
         sodipodi:role="line"
         y="-20.313477"
         x="333.14886 338.87 344.59113 350.32159"
         style="font-size:9.33300781px;font-variant:normal;font-weight:normal;writing-mode:lr-tb;fill:#000000;fill-opacity:1;fill-rule:nonzero;stroke:none;font-family:DejaVu Serif;-inkscape-font-specification:DejaVuSerif">1500</tspan></text>
<path
       transform="matrix(1.25,0,0,-1.25,0,270)"
       d="m 37.199,203.949 0,-169.75 306,0"
       style="display:inline;fill:none;stroke:#000000;stroke-width:0.25000000000000000;stroke-linecap:square;stroke-linejoin:miter;stroke-miterlimit:3.79999995000000013;stroke-opacity:1;stroke-dasharray:none"
       id="path15740"
       inkscape:connector-curvature="0" /><text
       style="display:inline"
       id="text15742"
       transform="matrix(0,-1.25,1.25,0,0,270)"
       x="109.17578"
       y="11.788086"><tspan
         id="tspan15744"
         sodipodi:role="line"
         y="11.788086"
         x="109.17578 114.93424 120.30073 123.16596"
         style="font-size:9.33300781px;font-variant:normal;font-weight:normal;writing-mode:lr-tb;fill:#000000;fill-opacity:1;fill-rule:nonzero;stroke:none;font-family:DejaVu Serif;-inkscape-font-specification:DejaVuSerif">gain</tspan></text>
<text
       style="display:inline"
       id="text15746"
       transform="matrix(1.25,0,0,1.25,0,270)"
       x="171.25391"
       y="-4.063477"><tspan
         id="tspan15748"
         sodipodi:role="line"
         y="-4.063477"
         x="171.25391 174.86578 177.73102 186.26138 191.58121 195.09041 200.93288 205.55272"
         style="font-size:9.33300781px;font-variant:normal;font-weight:normal;writing-mode:lr-tb;fill:#000000;fill-opacity:1;fill-rule:nonzero;stroke:none;font-family:DejaVu Serif;-inkscape-font-specification:DejaVuSerif">time[µs]</tspan><tspan
         y="0"
         x="171.25391"
         id="tspan15750"
         sodipodi:role="line"
         style="font-size:9.33300781px;font-variant:normal;font-weight:normal;writing-mode:lr-tb;fill:#000000;fill-opacity:1;fill-rule:nonzero;stroke:none;font-family:DejaVu Serif;-inkscape-font-specification:DejaVuSerif" /></text>
<path
       transform="matrix(1.25,0,0,-1.25,0,270)"
       d="m 37.199,203.949 0,-169.75 306,0"
       style="display:inline;fill:none;stroke:#000000;stroke-width:0.25000000000000000;stroke-linecap:square;stroke-linejoin:miter;stroke-miterlimit:3.79999995000000013;stroke-opacity:1;stroke-dasharray:none"
       id="path15774"
       inkscape:connector-curvature="0" /></g><g
     inkscape:groupmode="layer"
     id="layer5"
     inkscape:label="Energy loss"
     style="display:inline"><path
       style="fill:#bde7fc;fill-opacity:1;stroke:#fff8f8;stroke-width:1px;stroke-linecap:butt;stroke-linejoin:miter;stroke-opacity:0"
       d="M 306.32415,37.754237 274.00424,66.927966 237.68008,98.103813 207.64831,121.5572 c -19.34119,15.37906 -40.45627,29.28424 -64.35382,44.90466 l -26.02754,14.58687 36.03813,-16.30297 36.03814,-20.3072 34.32203,-16.875 32.60594,-13.4428 43.47457,-12.87076 6.29238,1.14407"
       id="path17100"
       inkscape:connector-curvature="0"
       sodipodi:nodetypes="cccccccccccc" /></g><g
     id="g15582"
     inkscape:groupmode="layer"
     inkscape:label="experiment"
     transform="matrix(1.25,0,0,-1.25,0,270)"
     style="display:inline"><text
       id="text15760"
       transform="scale(1,-1)"
       x="160.625"
       y="-180.36035"><tspan
         y="-180.36035"
         x="160.625"
         id="tspan15762"
         sodipodi:role="line"
         style="font-size:9.33300781px;font-variant:normal;font-weight:normal;writing-mode:lr-tb;fill:#000000;fill-opacity:1;fill-rule:nonzero;stroke:none;font-family:DejaVu Serif;-inkscape-font-specification:DejaVuSerif" /></text>
<path
       d="m 37.199,48.551 0.199,-0.153 0.403,-0.25 0.398,-0.75 0.449,1 0.403,1.051 0.398,0 0.403,-0.75 0.398,0.301 0.398,0.051 0.454,0.148 0.398,0 0.398,-0.148 0.403,-0.551 0.398,0.25 0.403,0.5 0.398,0.5 0.449,0.352 0.403,-0.153 0.398,-0.347 0.398,0.847 0.403,0.153 0.398,0.546 0.449,-0.699 0.403,0.5 0.398,-0.5 0.403,0.199 0.398,-0.199 0.398,1.102 0.454,-0.301 0.796,-0.102 0.403,-0.546 0.398,-0.403 0.403,0.301 0.449,1.648 0.398,0 0.403,-0.347 0.398,0.097 0.398,0.301 0.403,-0.051 0.398,0.704 0.449,0.699 0.403,-0.153 0.398,-1.648 0.403,0.301 0.398,1.301 0.398,0.847 0.454,-0.449 0.398,0.352 0.398,0.296 0.403,-0.449 0.398,-0.301 0.403,0.801 0.449,0.102 0.398,0.347 0.403,0.204 0.398,0.597 0.398,-1.051 0.403,-0.449 0.449,0.602 0.398,0.75 0.403,0.097 0.398,0.051 0.403,1.102 0.398,-0.301 0.398,0.551 0.454,0 0.398,0.097 0.398,-0.449 0.403,-0.449 0.398,0.5 0.403,-0.352 0.449,0.153 0.398,-0.153 0.403,0.301 0.398,0.403 0.398,0.75 0.403,0.597 0.449,0.301 0.398,0.852 0.403,0.5 0.398,-0.051 0.403,-1.102 0.398,-0.898 0.449,0 0.403,0.398 0.398,0.352 0.398,0.301 0.403,0.449 0.398,0.398 0.403,-0.398 0.449,-0.153 0.398,0.653 0.403,1.449 0.398,0 0.398,-0.75 0.403,-0.199 0.449,0.25 0.398,0.597 0.403,0.204 0.398,-0.051 0.403,-0.301 0.398,0.551 0.449,1.148 0.403,0.352 0.398,-1 0.398,0.051 0.403,1.5 0.398,0.699 0.449,-1.153 0.403,-1 0.398,0.852 0.403,1.102 0.398,0.25 0.398,-0.102 0.403,0.148 0.449,0.403 0.398,-0.5 0.403,0.347 0.398,0.5 0.403,0.551 0.398,0.653 0.449,0.25 0.801,-0.801 0.398,0.551 0.403,0.046 0.398,0 0.449,0.5 0.403,1.051 0.398,-0.398 0.403,0.097 0.398,-0.5 0.398,0.153 0.454,0.051 0.398,0.699 0.398,0.148 0.403,0.449 0.398,0.051 0.403,0.5 0.398,0.449 0.449,-0.046 0.403,-0.051 0.398,1.051 0.398,0.898 0.403,-1.398 0.398,-0.204 0.449,0 0.403,-0.046 0.398,0.25 0.403,1.199 0.398,1.301 0.398,-0.602 0.454,0.352 0.398,0.296 0.398,0.653 0.403,-0.25 0.398,0.449 0.403,-0.75 0.449,0.102 0.398,0.847 0.403,0.75 0.398,-0.5 0.398,-0.301 0.403,0.102 0.398,0 0.449,0.898 0.403,0.25 0.398,0.102 0.403,0.102 0.398,0.699 0.398,0.097 0.454,-0.046 0.398,0.296 0.398,0.153 0.403,-0.903 0.398,0.051 0.403,0.699 0.449,0.903 0.801,0.801 0.398,-0.051 0.398,-0.102 0.403,0.5 0.449,0.653 0.398,1.5 0.403,-0.051 0.398,-0.403 0.403,-0.398 0.398,0.648 0.398,0.102 0.454,0.102 0.398,0.046 0.398,0.051 0.403,0.602 0.398,0 0.403,0.25 0.449,0.25 0.398,0.801 0.403,0.597 0.398,-0.097 0.398,-0.454 0.403,-0.148 0.449,0.801 0.398,0.347 0.403,-0.898 0.398,0.148 0.403,0.801 0.398,0.449 0.449,-0.199 0.403,1.051 0.398,1 0.398,-0.148 0.403,-0.801 0.398,-0.301 0.403,1.199 0.449,0.153 0.398,-0.5 0.403,0.097 0.398,1.551 0.398,-0.102 0.403,-0.597 0.449,-0.153 0.398,0.903 0.403,1.199 0.398,0.051 0.403,-0.653 0.398,-0.199 0.449,1.699 0.403,0.301 0.398,-0.449 0.398,-0.301 0.403,0.352 0.398,-0.153 0.449,0.653 0.403,0.199 0.398,0.602 0.403,0.296 0.398,0.704 0.398,-0.301 0.403,-0.551 0.449,0.602 0.398,0.449 0.403,0.801 0.398,-0.204 0.403,0.352 0.398,-0.148 0.449,0.699 0.403,1.199 0.398,-0.102 0.398,-1.097 0.403,-0.199 0.398,1.296 0.449,0.352 0.403,0.398 0.398,-0.347 0.403,0.5 0.398,-0.352 0.398,0.602 0.454,-0.051 0.398,0.551 0.398,0.301 0.403,0.847 0.398,-0.051 0.403,0.102 0.398,-0.5 0.449,0.852 0.403,0.25 0.398,0.796 0.398,-0.648 0.403,0.051 0.398,0.449 0.449,0.051 0.403,-0.051 0.398,0.648 0.403,0.704 0.398,-0.551 0.398,0.398 0.454,1.051 0.398,-0.051 0.398,-0.551 0.403,-0.296 0.398,0.796 0.403,0.5 0.449,0.102 0.398,-0.898 0.403,0.25 0.398,1.347 0.398,1.352 0.403,-0.102 0.398,-0.301 0.449,-0.75 0.403,0.352 0.398,-0.148 0.403,1.25 0.398,-0.051 0.398,1 0.454,0.449 0.398,0.5 0.398,0.352 0.403,0.796 0.398,0.352 0.403,-0.199 0.449,-1.25 0.398,-0.903 0.403,0.153 0.398,1.597 0.398,0.153 0.403,-0.102 0.449,0.403 0.398,-0.102 0.403,-0.102 0.398,-0.347 0.403,0.347 0.398,0.602 0.398,1.102 0.454,-0.153 0.398,-0.801 0.398,0.852 0.403,1.148 0.398,0.102 0.403,-0.25 0.449,0.25 0.398,-0.051 0.403,-0.199 0.398,0.5 0.398,0.801 0.403,-0.403 0.449,-0.046 0.398,-0.153 0.403,-0.148 0.398,0.148 0.403,1.602 0.398,0.25 0.449,-0.602 0.403,0 0.398,0.403 0.398,0.097 0.403,0.301 0.398,-0.301 0.403,-0.25 0.449,0.801 0.398,0.898 0.403,0.204 0.398,-0.403 0.398,-0.398 0.403,0.449 0.449,1.551 0.398,0 0.403,-0.352 0.398,0.449 0.403,1 0.398,0.301 0.449,-0.5 0.403,-0.449 0.398,-0.301 0.398,0.949 0.403,0.051 0.398,0.449 0.449,-0.847 0.403,0.5 0.398,0.551 0.403,1.097 0.398,-1.097 0.398,-0.204 0.403,1 0.449,0.454 0.398,-0.801 0.403,-0.051 0.398,1.199 0.403,0.199 0.398,0.5 0.449,-0.347 0.403,-0.102 0.398,-0.097 0.398,1.648 0.403,0.301 0.398,0.5 0.449,-0.051 0.403,0.301 0.398,-0.5 0.403,0.847 0.398,0 0.398,-0.148 0.454,-0.699 0.398,0.449 0.398,0.801 0.403,0.699 0.398,-0.301 0.403,-0.25 0.398,-0.551 0.449,0.051 0.403,-0.148 0.398,0.699 0.398,0.051 0.403,0.847 0.398,0.454 0.449,-0.551 0.403,-1.051 0.398,0.352 0.403,0.648 0.398,1.199 0.398,-0.051 0.454,0.903 0.398,-0.102 0.398,-0.051 0.403,-0.847 0.398,0.949 0.403,0.801 0.449,-0.5 0.398,-0.801 0.403,0.75 0.398,1.301 0.398,0.847 0.403,-0.199 0.398,-1.148 0.449,-0.301 0.403,-0.449 0.398,0.949 0.403,0.5 0.398,0.648 0.398,-0.898 0.454,0.199 0.398,0.699 0.398,-0.296 0.403,-0.403 0.398,0.403 0.403,1 0.449,-0.5 0.398,0.546 0.403,0.403 0.398,-0.102 0.398,-0.597 0.403,1.046 0.449,0.102 0.398,-1 0.403,-0.051 0.398,1.25 0.403,0.403 0.398,-0.551 0.398,-0.449 0.454,0.75 0.398,0.546 0.398,0.102 0.403,-1 0.398,-0.25 0.403,0.602 0.449,1 0.398,0.347 0.403,0 0.398,-0.551 0.398,0.153 0.403,-0.153 0.449,0.102 0.398,-0.352 0.403,0.5 0.398,-0.097 0.403,0.301 0.398,0.148 0.449,0.398 0.403,-0.699 0.398,-0.5 0.398,0.903 0.403,1.597 0.398,0.051 0.403,-0.949 0.449,-0.449 0.398,0.347 0.403,0.352 0.398,-0.301 0.398,-0.551 0.403,0.852 0.449,0.847 0.398,0.352 0.403,-0.602 0.398,0.403 0.403,0.301 0.398,0.597 0.449,-0.699 0.403,-0.051 0.398,-0.347 0.398,0.148 0.403,0.602 0.398,1.898 0.449,0 0.403,-1.199 0.398,0.051 0.403,1 0.398,-0.5 0.398,-1.153 0.403,-0.347 0.449,1.148 0.398,0.852 0.403,0.5 0.398,-1.954 0.403,-0.097 0.398,2 0.449,1.75 0.403,-0.653 0.398,-0.296 0.199,-0.204 0,-0.699 2.051,-0.5 0,-0.5 0,1.653 2.051,-1.25 0,-0.75 0,0.097 0,-1.5 2,-0.347 0,-2.153 2.051,-0.398 0,-1.949 2.046,-0.801 0,-1.551 0,0.699 0,-0.597 2.051,-1.903 0,-0.148 0,0.347 2.051,-1.546 0,-1.551 2,-0.352 0,-1.847 2.051,-0.5 0,-1.403 2.051,-1 0,-0.801 0,0.852 0,-0.551 2.046,-1.148 0,-3.352 0,0.403 2.051,1.199 0,-3.602 2,-0.148 0,0.699 0,-0.5 2.051,-1.102 0,-0.398 0,0.648 2.051,-0.75 0,-2.25 0,0.204 2.051,-0.602 0,-1.852 0,0.5 0,-0.046 2.046,0.398 0,-0.898 0,0.699 0,-2.301 2,-1.102 0,1.25 0,-1.597 2.051,0.449 0,-0.699 0,0.25 0,-0.551 2.051,-0.449 0,-0.301 0,0.898 0,-0.699 2.051,-0.949 0,-1.199 0,0.398 0,-0.25 0,0.051 2.051,-0.449 0,-0.403 2,-0.296 0,-1.25 2.046,-0.051 0,0.097 0,-1.046 2.051,-0.852 0,1.301 0,-1.102 2.051,-1.097 0,0.148 0,-2.102 2.051,0.954 0,0.796 0,-2.546 0,0.347 2,1.75 0,-2.551 0,0.551 2.051,-0.398 0,0.199 0,-1.199 2.046,0.051 0,0.199 0,-0.949 2.051,-1 0,1.398 0,-1.648 2.051,0.449 0,1.25 0,-1 2,-0.051 0,-0.602 0,0.153 0,-0.602 0,0.352 2.051,-0.301 0,0.148 0,-0.648 0,0.602 2.051,0.398 0,-1.898 0,0.546 2.046,-0.449 0,-2.449 2.051,-0.25 0,2.852 0,-1.25 2,-1.102 0,-0.648 0,1 2.051,-0.403 0,-0.051 0,0.204 0,-0.551 2.051,-1.301 0,-0.898 0,1.898 2.051,-0.449 0,-0.602 0,0.199 0,-0.25 2.046,-0.5 0,-0.148 0,0.949 2,-0.301 0,-1.597 0,1.301 2.051,-0.602 0,-1.551 0,0.75 0,-0.097 2.051,-0.051 0,-0.903 2.051,-0.449 0,0.75 0,-0.801 2.051,1.102 0,-2 2,0.602 0,0.75 0,-0.852 2.046,-1.148 0,1.847 0,-1.648 2.051,-0.199 0,0.199 0,-0.403 0,1.102"
       style="fill:none;stroke:#ff0000;stroke-width:1;stroke-linecap:square;stroke-linejoin:miter;stroke-miterlimit:3.79999995;stroke-opacity:1;stroke-dasharray:none;display:inline"
       id="path15758"
       inkscape:connector-curvature="0" /><text
       transform="scale(1,-1)"
       sodipodi:linespacing="125%"
       id="text15776"
       y="-60.172382"
       x="168.58524"
       style="font-size:32px;font-style:normal;font-weight:normal;line-height:125%;letter-spacing:0px;word-spacing:0px;fill:#ff0000;fill-opacity:1;stroke:none;display:inline;font-family:Sans"
       xml:space="preserve"><tspan
         style="font-size:16px;text-align:center;text-anchor:middle;fill:#ff0000;fill-opacity:1"
         id="tspan15780"
         y="-60.172382"
         x="171.13211"
         sodipodi:role="line"> measured energy </tspan><tspan
         style="font-size:16px;text-align:center;text-anchor:middle;fill:#ff0000;fill-opacity:1"
         y="-40.172382"
         x="168.58524"
         sodipodi:role="line"
         id="tspan17094">in gain medium</tspan></text>
</g><g
     inkscape:groupmode="layer"
     id="layer4"
     inkscape:label="no ASE"
     style="display:inline"><g
       id="g15768"
       transform="scale(1.25,1.25)"
       style="fill:none"><path
         d="m 37.199,166.699 4.102,-0.801 4.051,-1.25 4.097,-1.296 4.051,-1.352 4.102,-1.449 4.097,-1.5 4.051,-1.551 4.102,-1.648 4.046,-1.704 4.102,-1.796 4.102,-1.852 4.046,-1.898 4.102,-2 4.051,-2.102 4.097,-2.102 4.102,-2.25 4.051,-2.25 4.097,-2.347 4.051,-2.403 4.102,-2.5 4.097,-2.546 4.051,-2.602 4.102,-2.699 4.051,-2.699 4.097,-2.801 4.102,-2.852 4.051,-2.898 4.097,-2.949 4.051,-3.051 4.102,-3.051 4.097,-3.102 4.051,-3.148 4.102,-3.199 4.046,-3.25 4.102,-3.25 4.102,-3.301 4.046,-3.352 4.102,-3.398 4.051,-3.398 4.097,-3.403 4.102,-3.449 4.051,-3.5 4.097,-3.449 4.051,-3.5 4.102,-3.5 4.097,-3.551 4.051,-3.551 4.102,-3.5 4.051,-3.551 4.097,-3.546 4.102,-3.551 4.051,6.898 4.097,6.449 4.051,6.051 4.102,5.653 4.097,5.296 4.051,4.954 4.102,4.699 4.046,4.398 4.102,4.102 4.102,3.898 4.046,3.653 4.102,3.449 4.051,3.301 4.097,3.046 4.102,2.903 4.051,2.75 4.097,2.648 4.051,2.449 4.102,2.352 4.097,2.199 4.051,2.102 4.102,2 4.051,1.898 4.097,1.852"
         style="fill:none;stroke:#0000ff;stroke-width:1;stroke-linecap:square;stroke-linejoin:miter;stroke-miterlimit:3.79999995;stroke-opacity:1;stroke-dasharray:none"
         id="path15770"
         inkscape:connector-curvature="0" /></g><text
       xml:space="preserve"
       style="font-size:40px;font-style:normal;font-weight:normal;line-height:125%;letter-spacing:0px;word-spacing:0px;fill:#0000ff;fill-opacity:1;stroke:none;font-family:Sans"
       x="168.86401"
       y="88.590576"
       id="text16301"
       sodipodi:linespacing="125%"><tspan
         sodipodi:role="line"
         id="tspan16303"
         x="168.86401"
         y="88.590576"
         style="font-size:20px;text-align:center;text-anchor:middle;fill:#0000ff">pumped</tspan><tspan
         sodipodi:role="line"
         x="168.86401"
         y="113.59058"
         style="font-size:20px;text-align:center;text-anchor:middle;fill:#0000ff"
         id="tspan17090">energy</tspan></text>
</g><g
     inkscape:groupmode="layer"
     id="layer7"
     inkscape:label="pump stops"
     style="display:inline"><path
       transform="matrix(1.25,0,0,-1.25,0,270)"
       sodipodi:nodetypes="cc"
       inkscape:connector-curvature="0"
       id="path15784"
       d="m 244.65722,198.22481 0,-170.145785"
       style="fill:none;stroke:#000000;stroke-width:1.60000002;stroke-linecap:butt;stroke-linejoin:miter;stroke-miterlimit:4;stroke-opacity:1;stroke-dasharray:9.6, 9.6;stroke-dashoffset:0;display:inline" /><g
       style="display:inline"
       id="g16551"
       transform="matrix(1.25,0,0,-1.25,8.089781,270.80898)"><text
         transform="scale(1,-1)"
         sodipodi:linespacing="125%"
         id="text16305"
         y="-189.50671"
         x="87.941154"
         style="font-size:32px;font-style:normal;font-weight:normal;line-height:125%;letter-spacing:0px;word-spacing:0px;fill:#000000;fill-opacity:1;stroke:none;font-family:Sans"
         xml:space="preserve"><tspan
           style="font-size:16px"
           y="-189.50671"
           x="87.941154"
           id="tspan16307"
           sodipodi:role="line">pump stops</tspan></text>
<path
         inkscape:connector-curvature="0"
         id="path16309"
         d="m 187.64944,193.77396 35.10966,0"
         style="fill:none;stroke:#000000;stroke-width:3.20000005;stroke-linecap:butt;stroke-linejoin:miter;stroke-miterlimit:4;stroke-opacity:1;stroke-dasharray:none;marker-end:url(#TriangleOutM)" /></g></g></svg>