<?xml version="1.0" encoding="UTF-8" standalone="no"?>
<!-- Created with Inkscape (http://www.inkscape.org/) -->

<svg
   xmlns:dc="http://purl.org/dc/elements/1.1/"
   xmlns:cc="http://creativecommons.org/ns#"
   xmlns:rdf="http://www.w3.org/1999/02/22-rdf-syntax-ns#"
   xmlns:svg="http://www.w3.org/2000/svg"
   xmlns="http://www.w3.org/2000/svg"
   xmlns:xlink="http://www.w3.org/1999/xlink"
   xmlns:sodipodi="http://sodipodi.sourceforge.net/DTD/sodipodi-0.dtd"
   xmlns:inkscape="http://www.inkscape.org/namespaces/inkscape"
   id="svg2"
   version="1.1"
   inkscape:version="0.48.5 r10040"
   width="640"
   height="480"
   sodipodi:docname="mse_histogram_is_as2.pdf"
   inkscape:export-filename="/home/carli/Dokumente/TUD/CUDA/projekt/git/octrace/talk/graphics/mse_is_as1.pdf.png"
   inkscape:export-xdpi="90"
   inkscape:export-ydpi="90">
  <metadata
     id="metadata8">
    <rdf:RDF>
      <cc:Work
         rdf:about="">
        <dc:format>image/svg+xml</dc:format>
        <dc:type
           rdf:resource="http://purl.org/dc/dcmitype/StillImage" />
        <dc:title></dc:title>
      </cc:Work>
    </rdf:RDF>
  </metadata>
  <defs
     id="defs6">
    <marker
       inkscape:stockid="TriangleOutL"
       orient="auto"
       refY="0.0"
       refX="0.0"
       id="TriangleOutL"
       style="overflow:visible">
      <path
         id="path3905"
         d="M 5.77,0.0 L -2.88,5.0 L -2.88,-5.0 L 5.77,0.0 z "
         style="fill-rule:evenodd;stroke:#000000;stroke-width:1.0pt"
         transform="scale(0.8)" />
    </marker>
    <marker
       inkscape:stockid="TriangleOutL"
       orient="auto"
       refY="0"
       refX="0"
       id="TriangleOutL-4"
       style="overflow:visible">
      <path
         inkscape:connector-curvature="0"
         id="path3905-1"
         d="m 5.77,0 -8.65,5 0,-10 8.65,5 z"
         style="fill-rule:evenodd;stroke:#000000;stroke-width:1pt"
         transform="scale(0.8,0.8)" />
    </marker>
  </defs>
  <sodipodi:namedview
     pagecolor="#ffffff"
     bordercolor="#666666"
     borderopacity="1"
     objecttolerance="10"
     gridtolerance="10"
     guidetolerance="10"
     inkscape:pageopacity="0"
     inkscape:pageshadow="2"
     inkscape:window-width="1598"
     inkscape:window-height="879"
     id="namedview4"
     showgrid="false"
     showguides="false"
     inkscape:guide-bbox="true"
     inkscape:zoom="0.9833333"
     inkscape:cx="335.93813"
     inkscape:cy="297.90186"
     inkscape:window-x="0"
     inkscape:window-y="19"
     inkscape:window-maximized="1"
     inkscape:current-layer="layer1">
    <sodipodi:guide
       orientation="1,0"
       position="330.60238,80.89781"
       id="guide4211" />
    <sodipodi:guide
       orientation="1,0"
       position="610.16949,279.66102"
       id="guide4213" />
    <sodipodi:guide
       orientation="1,0"
       position="470.84746,105.25424"
       id="guide4221" />
    <sodipodi:guide
       orientation="0,1"
       position="434.74576,70.169492"
       id="guide4241" />
  </sodipodi:namedview>
  <g
     inkscape:groupmode="layer"
     id="layer4"
     inkscape:label="plot"
     style="display:inline">
    <g
       id="gnuplot_canvas"
       transform="matrix(1.0263667,0,0,1,17.838518,-0.17661601)">
      <rect
         id="rect4514"
         height="480"
         width="600"
         y="0"
         x="0"
         style="fill:none" />
      <defs
         id="defs4516">
        <circle
           r="0.5"
           id="gpDot"
           cx="0"
           cy="0"
           sodipodi:cx="0"
           sodipodi:cy="0"
           sodipodi:rx="0.5"
           sodipodi:ry="0.5"
           style="stroke-width:0.5" />
        <path
           d="M -1,0 H 1 M 0,-1 v 2"
           id="gpPt0"
           inkscape:connector-curvature="0"
           style="stroke:currentColor;stroke-width:0.19" />
        <path
           d="M -1,-1 1,1 M 1,-1 -1,1"
           id="gpPt1"
           inkscape:connector-curvature="0"
           style="stroke:currentColor;stroke-width:0.19" />
        <path
           d="M -1,0 1,0 M 0,-1 0,1 m -1,-2 2,2 m -2,0 2,-2"
           id="gpPt2"
           inkscape:connector-curvature="0"
           style="stroke:currentColor;stroke-width:0.19" />
        <rect
           height="2"
           width="2"
           y="-1"
           x="-1"
           id="gpPt3"
           style="stroke:currentColor;stroke-width:0.19" />
        <rect
           height="2"
           width="2"
           y="-1"
           x="-1"
           id="gpPt4"
           style="fill:currentColor;stroke:currentColor;stroke-width:0.19" />
        <circle
           r="1"
           cy="0"
           cx="0"
           id="gpPt5"
           sodipodi:cx="0"
           sodipodi:cy="0"
           sodipodi:rx="1"
           sodipodi:ry="1"
           style="stroke:currentColor;stroke-width:0.19" />
        <use
           id="gpPt6"
           xlink:href="#gpPt5"
           style="fill:currentColor;stroke:none"
           x="0"
           y="0"
           width="1"
           height="1" />
        <path
           d="m 0,-1.33 -1.33,2 2.66,0 z"
           id="gpPt7"
           inkscape:connector-curvature="0"
           style="stroke:currentColor;stroke-width:0.19" />
        <use
           id="gpPt8"
           xlink:href="#gpPt7"
           style="fill:currentColor;stroke:none"
           x="0"
           y="0"
           width="1"
           height="1" />
        <use
           transform="scale(-1,-1)"
           id="gpPt9"
           xlink:href="#gpPt7"
           style="stroke:currentColor"
           x="0"
           y="0"
           width="1"
           height="1" />
        <use
           id="gpPt10"
           xlink:href="#gpPt9"
           style="fill:currentColor;stroke:none"
           x="0"
           y="0"
           width="1"
           height="1" />
        <use
           transform="matrix(0.70710678,0.70710678,-0.70710678,0.70710678,0,0)"
           id="gpPt11"
           xlink:href="#gpPt3"
           style="stroke:currentColor"
           x="0"
           y="0"
           width="1"
           height="1" />
        <use
           id="gpPt12"
           xlink:href="#gpPt11"
           style="fill:currentColor;stroke:none"
           x="0"
           y="0"
           width="1"
           height="1" />
      </defs>
      <g
         id="g4532"
         style="color:#ffffff;fill:none;stroke:#000000;stroke-width:1;stroke-linecap:butt;stroke-linejoin:miter" />
      <g
         id="g4534"
         style="color:#000000;fill:none;stroke:currentColor;stroke-width:1;stroke-linecap:butt;stroke-linejoin:miter">
        <path
           id="path4536"
           d="m 84,19.5 0,393.3 486.8,0 m 0,-393.3 M 84,19.5"
           inkscape:connector-curvature="0"
           style="stroke:#000000" />
        <g
           id="g4538"
           style="font-size:17.5px;text-anchor:middle;fill:#000000;stroke:none;font-family:Serif"
           transform="matrix(0,-1,1,0,20.5,216.2)">
          <text
             id="text4540">
            <tspan
               id="tspan4542">sample points</tspan>
          </text>
        </g>
        <g
           id="g4544"
           style="font-size:17.5px;text-anchor:middle;fill:#000000;stroke:none;font-family:Serif"
           transform="translate(327.4,470.5)">
          <text
             id="text4546">
            <tspan
               id="tspan4548">MSE</tspan>
          </text>
        </g>
      </g>
      <g
         id="gnuplot_plot_2">
        <title
           id="title4564">gnuplot_plot_2</title>
        <g
           id="g4566"
           style="color:#008000;fill:none;stroke:currentColor;stroke-width:3;stroke-linecap:butt;stroke-linejoin:miter">
          <g
             id="g4568"
             style="stroke:none">
            <polygon
               id="polygon4570"
               points="239.2,205.7 245.9,213.5 252.6,221.6 259.3,229.9 266,238.5 272.7,247.2 279.5,256.1 286.2,264.8 292.9,273.4 299.6,281.6 306.3,289.1 313,295.9 319.7,301.8 326.4,306.9 333.1,311.3 339.8,315.2 346.5,318.9 353.3,322.3 360,325.7 366.8,328.8 373.6,331.6 380.4,333.9 387.3,335.6 394.3,337 401.5,338.1 408.7,339.2 416.2,340.6 423.9,342.5 431.9,345.2 440.3,348.6 449.1,352.6 458.4,357.1 468.3,361.7 478.8,366.3 489.9,370.5 501.6,374 513.8,376.7 526.3,378.5 539.1,379.5 552,379.9 564.9,380.1 570.8,380.1 570.8,412.8 84,412.8 84,50.1 84.9,56 91.6,89.9 98.3,112.9 105.1,126.7 111.8,133.7 118.5,136.6 125.2,137.6 131.9,138 138.6,138.4 145.3,139.2 152,140.1 158.7,141.4 165.4,143.2 172.1,145.5 178.8,148.8 185.5,152.9 192.3,157.9 199,163.7 205.7,170 212.4,176.7 219.1,183.6 225.8,190.8 232.5,198.1 "
               style="fill:#0000ff;fill-opacity:0.5" />
          </g>
          <path
             id="path4572"
             d="m 84,50.1 0.9,5.9 6.7,33.9 6.7,23 6.8,13.8 6.7,7 6.7,2.9 6.7,1 6.7,0.4 6.7,0.4 6.7,0.8 6.7,0.9 6.7,1.3 6.7,1.8 6.7,2.3 6.7,3.3 6.7,4.1 6.8,5 6.7,5.8 6.7,6.3 6.7,6.7 6.7,6.9 6.7,7.2 6.7,7.3 6.7,7.6 6.7,7.8 6.7,8.1 6.7,8.3 6.7,8.6 6.7,8.7 6.8,8.9 6.7,8.7 6.7,8.6 6.7,8.2 6.7,7.5 6.7,6.8 6.7,5.9 6.7,5.1 6.7,4.4 6.7,3.9 6.7,3.7 6.8,3.4 6.7,3.4 6.8,3.1 6.8,2.8 6.8,2.3 6.9,1.7 7,1.4 7.2,1.1 7.2,1.1 7.5,1.4 7.7,1.9 8,2.7 8.4,3.4 8.8,4 9.3,4.5 9.9,4.6 10.5,4.6 11.1,4.2 11.7,3.5 12.2,2.7 12.5,1.8 12.8,1 12.9,0.4 12.9,0.2 5.9,0"
             inkscape:connector-curvature="0"
             style="stroke:#0000ff" />
        </g>
      </g>
      <g
         id="g4574"
         style="stroke:none">
        <polygon
           id="polygon4576"
           points="424.5,72 561.1,72 561.1,30 424.5,30 "
           style="fill:#ffffff" />
      </g>
      <g
         id="g4596">
        <title
           id="title4598">gnuplot_plot_2</title>
        <g
           id="g4600"
           style="color:#008000;fill:none;stroke:currentColor;stroke-width:3;stroke-linecap:butt;stroke-linejoin:miter">
          <g
             id="g4602"
             style="font-size:17.5px;text-anchor:end;fill:#000000;stroke:none;font-family:Serif"
             transform="translate(492.4,66.7)">
            <text
               id="text4604">
              <tspan
                 id="tspan4606">IS</tspan>
            </text>
          </g>
          <g
             id="g4608"
             style="stroke:none">
            <polygon
               id="polygon4610"
               points="502.1,66.7 551.4,66.7 551.4,56.2 502.1,56.2 "
               style="fill:#0000ff;fill-opacity:0.5" />
          </g>
          <path
             id="path4612"
             d="m 502.1,66.7 49.3,0 0,-10.4 -49.3,0 0,10.4 z"
             inkscape:connector-curvature="0"
             style="stroke:#0000ff" />
        </g>
      </g>
      <g
         id="g4614"
         style="color:#ffffff;fill:none;stroke:#0000ff;stroke-width:1;stroke-linecap:butt;stroke-linejoin:miter" />
      <g
         id="g4616"
         style="color:#000000;fill:none;stroke:currentColor;stroke-width:1;stroke-linecap:butt;stroke-linejoin:miter" />
      <g
         id="g4618"
         style="color:#000000;fill:none;stroke:#000000;stroke-width:2;stroke-linecap:butt;stroke-linejoin:miter" />
      <g
         id="g4620"
         style="color:#808080;fill:none;stroke:currentColor;stroke-width:2;stroke-linecap:butt;stroke-linejoin:miter">
        <path
           id="path4622"
           d="m 84,412.8 486.8,0"
           class="gridline"
           inkscape:connector-curvature="0"
           style="stroke:#808080;stroke-dasharray:2, 4" />
      </g>
      <g
         id="g4624"
         style="color:#808080;fill:none;stroke:#808080;stroke-width:1;stroke-linecap:butt;stroke-linejoin:miter" />
      <g
         id="g4626"
         style="color:#000000;fill:none;stroke:currentColor;stroke-width:1;stroke-linecap:butt;stroke-linejoin:miter">
        <path
           id="path4628"
           d="m 84,412.8 10.5,0"
           inkscape:connector-curvature="0"
           style="stroke:#000000" />
        <g
           id="g4630"
           style="font-size:17.5px;text-anchor:end;fill:#000000;stroke:none;font-family:Serif"
           transform="translate(74.3,418)">
          <text
             id="text4632">
            <tspan
               id="tspan4634">1</tspan>
          </text>
        </g>
        <path
           id="path4636"
           d="m 84,365 5.2,0 m -5.2,-28 5.2,0 m -5.2,-19.8 5.2,0 m -5.2,-15.4 5.2,0 m -5.2,-12.5 5.2,0 m -5.2,-10.7 5.2,0 m -5.2,-9.2 5.2,0 m -5.2,-8.1 5.2,0"
           inkscape:connector-curvature="0"
           style="stroke:#000000" />
      </g>
      <g
         id="g4638"
         style="color:#000000;fill:none;stroke:#000000;stroke-width:2;stroke-linecap:butt;stroke-linejoin:miter" />
      <g
         id="g4640"
         style="color:#808080;fill:none;stroke:currentColor;stroke-width:2;stroke-linecap:butt;stroke-linejoin:miter">
        <path
           id="path4642"
           d="m 84,254 486.8,0"
           class="gridline"
           inkscape:connector-curvature="0"
           style="stroke:#808080;stroke-dasharray:2, 4" />
      </g>
      <g
         id="g4644"
         style="color:#808080;fill:none;stroke:#808080;stroke-width:1;stroke-linecap:butt;stroke-linejoin:miter" />
      <g
         id="g4646"
         style="color:#000000;fill:none;stroke:currentColor;stroke-width:1;stroke-linecap:butt;stroke-linejoin:miter">
        <path
           id="path4648"
           d="m 84,254 10.5,0"
           inkscape:connector-curvature="0"
           style="stroke:#000000" />
        <g
           id="g4650"
           style="font-size:17.5px;text-anchor:end;fill:#000000;stroke:none;font-family:Serif"
           transform="translate(74.3,259.2)">
          <text
             id="text4652">
            <tspan
               id="tspan4654">10</tspan>
          </text>
        </g>
        <path
           id="path4656"
           d="m 84,206.2 5.2,0 m -5.2,-27.9 5.2,0 m -5.2,-19.9 5.2,0 M 84,143 l 5.2,0 m -5.2,-12.5 5.2,0 m -5.2,-10.7 5.2,0 m -5.2,-9.2 5.2,0 m -5.2,-8.1 5.2,0"
           inkscape:connector-curvature="0"
           style="stroke:#000000" />
      </g>
      <g
         id="g4658"
         style="color:#000000;fill:none;stroke:#000000;stroke-width:2;stroke-linecap:butt;stroke-linejoin:miter" />
      <g
         id="g4660"
         style="color:#808080;fill:none;stroke:currentColor;stroke-width:2;stroke-linecap:butt;stroke-linejoin:miter">
        <path
           id="path4662"
           d="m 84,95.3 486.8,0"
           class="gridline"
           inkscape:connector-curvature="0"
           style="stroke:#808080;stroke-dasharray:2, 4" />
      </g>
      <g
         id="g4664"
         style="color:#808080;fill:none;stroke:#808080;stroke-width:1;stroke-linecap:butt;stroke-linejoin:miter" />
      <g
         id="g4666"
         style="color:#000000;fill:none;stroke:currentColor;stroke-width:1;stroke-linecap:butt;stroke-linejoin:miter">
        <path
           id="path4668"
           d="m 84,95.3 10.5,0"
           inkscape:connector-curvature="0"
           style="stroke:#000000" />
        <g
           id="g4670"
           style="font-size:17.5px;text-anchor:end;fill:#000000;stroke:none;font-family:Serif"
           transform="translate(74.3,100.5)">
          <text
             id="text4672">
            <tspan
               id="tspan4674">100</tspan>
          </text>
        </g>
        <path
           id="path4676"
           d="m 84,47.5 5.2,0 m -5.2,-28 5.2,0"
           inkscape:connector-curvature="0"
           style="stroke:#000000" />
      </g>
      <g
         id="g4678"
         style="color:#000000;fill:none;stroke:#000000;stroke-width:2;stroke-linecap:butt;stroke-linejoin:miter" />
      <g
         id="g4680"
         style="color:#808080;fill:none;stroke:currentColor;stroke-width:2;stroke-linecap:butt;stroke-linejoin:miter">
        <path
           id="path4682"
           d="m 196.3,412.8 0,-393.3"
           class="gridline"
           inkscape:connector-curvature="0"
           style="stroke:#808080;stroke-dasharray:2, 4" />
      </g>
      <g
         id="g4684"
         style="color:#808080;fill:none;stroke:#808080;stroke-width:1;stroke-linecap:butt;stroke-linejoin:miter" />
      <g
         id="g4686"
         style="color:#000000;fill:none;stroke:currentColor;stroke-width:1;stroke-linecap:butt;stroke-linejoin:miter">
        <path
           id="path4688"
           d="m 196.3,412.8 0,-10.5"
           inkscape:connector-curvature="0"
           style="stroke:#000000" />
        <g
           id="g4690"
           style="font-size:17.5px;text-anchor:middle;fill:#000000;stroke:none;font-family:Serif"
           transform="translate(196.3,439)">
          <text
             id="text4692">
            <tspan
               id="tspan4694">0.0025</tspan>
          </text>
        </g>
      </g>
      <g
         id="g4696"
         style="color:#000000;fill:none;stroke:#000000;stroke-width:2;stroke-linecap:butt;stroke-linejoin:miter" />
      <g
         id="g4698"
         style="color:#808080;fill:none;stroke:currentColor;stroke-width:2;stroke-linecap:butt;stroke-linejoin:miter">
        <path
           id="path4700"
           d="m 321.2,412.8 0,-393.3"
           class="gridline"
           inkscape:connector-curvature="0"
           style="stroke:#808080;stroke-dasharray:2, 4" />
      </g>
      <g
         id="g4702"
         style="color:#808080;fill:none;stroke:#808080;stroke-width:1;stroke-linecap:butt;stroke-linejoin:miter" />
      <g
         id="g4704"
         style="color:#000000;fill:none;stroke:currentColor;stroke-width:1;stroke-linecap:butt;stroke-linejoin:miter">
        <path
           id="path4706"
           d="m 321.2,412.8 0,-10.5"
           inkscape:connector-curvature="0"
           style="stroke:#000000" />
        <g
           id="g4708"
           style="font-size:17.5px;text-anchor:middle;fill:#000000;stroke:none;font-family:Serif"
           transform="translate(321.2,439)">
          <text
             id="text4710">
            <tspan
               id="tspan4712">0.005</tspan>
          </text>
        </g>
      </g>
      <g
         id="g4714"
         style="color:#000000;fill:none;stroke:#000000;stroke-width:2;stroke-linecap:butt;stroke-linejoin:miter" />
      <g
         id="g4716"
         style="color:#808080;fill:none;stroke:currentColor;stroke-width:2;stroke-linecap:butt;stroke-linejoin:miter">
        <path
           id="path4718"
           d="M 446,412.8 446,72 m 0,-42 0,-10.5"
           class="gridline"
           inkscape:connector-curvature="0"
           style="stroke:#808080;stroke-dasharray:2, 4" />
      </g>
      <g
         id="g4720"
         style="color:#808080;fill:none;stroke:#808080;stroke-width:1;stroke-linecap:butt;stroke-linejoin:miter" />
      <g
         id="g4722"
         style="color:#000000;fill:none;stroke:currentColor;stroke-width:1;stroke-linecap:butt;stroke-linejoin:miter">
        <path
           id="path4724"
           d="m 446,412.8 0,-10.5"
           inkscape:connector-curvature="0"
           style="stroke:#000000" />
        <g
           id="g4726"
           style="font-size:17.5px;text-anchor:middle;fill:#000000;stroke:none;font-family:Serif"
           transform="translate(446,439)">
          <text
             id="text4728">
            <tspan
               id="tspan4730">0.0075</tspan>
          </text>
        </g>
      </g>
      <g
         id="g4732"
         style="color:#000000;fill:none;stroke:#000000;stroke-width:2;stroke-linecap:butt;stroke-linejoin:miter" />
      <g
         id="g4734"
         style="color:#808080;fill:none;stroke:currentColor;stroke-width:2;stroke-linecap:butt;stroke-linejoin:miter">
        <path
           id="path4736"
           d="m 570.8,412.8 0,-393.3"
           class="gridline"
           inkscape:connector-curvature="0"
           style="stroke:#808080;stroke-dasharray:2, 4" />
      </g>
      <g
         id="g4738"
         style="color:#808080;fill:none;stroke:#808080;stroke-width:1;stroke-linecap:butt;stroke-linejoin:miter" />
      <g
         id="g4740"
         style="color:#000000;fill:none;stroke:currentColor;stroke-width:1;stroke-linecap:butt;stroke-linejoin:miter">
        <path
           id="path4742"
           d="m 570.8,412.8 0,-10.5"
           inkscape:connector-curvature="0"
           style="stroke:#000000" />
        <g
           id="g4744"
           style="font-size:17.5px;text-anchor:middle;fill:#000000;stroke:none;font-family:Serif"
           transform="translate(570.8,439)">
          <text
             id="text4746">
            <tspan
               id="tspan4748">0.01</tspan>
          </text>
        </g>
        <path
           id="path4750"
           d="m 84,19.5 0,393.3 486.8,0 m 0,-393.3 M 84,19.5"
           inkscape:connector-curvature="0"
           style="stroke:#000000" />
      </g>
    </g>
  </g>
  <g
     inkscape:groupmode="layer"
     id="layer1"
     inkscape:label="AS"
     style="display:inline">
    <g
       style="display:inline"
       transform="matrix(1.0263667,0,0,1,17.838518,-0.17661601)"
       id="gnuplot_plot_1">
      <title
         id="title4551">gnuplot_plot_1</title>
      <g
         id="g4553"
         style="color:#ffffff;fill:none;stroke:#000000;stroke-width:3;stroke-linecap:butt;stroke-linejoin:miter" />
      <g
         id="g4555"
         style="color:#ff0000;fill:none;stroke:currentColor;stroke-width:3;stroke-linecap:butt;stroke-linejoin:miter">
        <g
           id="g4557"
           style="stroke:none">
          <polygon
             id="polygon4559"
             points="217.8,154.4 220.3,154.9 222.8,155.5 225.3,156.1 227.9,156.8 230.4,157.5 232.9,158.2 235.4,159 237.9,159.8 240.5,160.6 243,161.5 245.5,162.3 248,163.2 250.6,164 253.1,165 255.6,165.9 258.1,167 260.6,168.1 263.2,169.4 265.7,170.8 268.2,172.3 270.7,174 273.2,175.9 275.8,178 278.3,180.3 280.8,182.8 283.3,185.5 285.9,188.3 288.4,191.2 290.9,194 293.4,196.7 295.9,199.2 298.5,201.5 301,203.5 303.5,205.4 306,207.5 308.6,210.3 311.1,214.6 313.6,221.7 316.1,233.5 318.6,253.7 321.2,289.3 321.2,412.8 84,412.8 84,45.8 84.1,46.4 86.6,59.2 89.2,71.6 91.7,82.8 94.2,92.5 96.7,100.7 99.3,107.7 101.8,113.6 104.3,118.7 106.8,123.2 109.3,127.2 111.9,130.7 114.4,133.9 116.9,136.7 119.4,139.1 122,141.2 124.5,142.9 127,144.2 129.5,145.1 132,145.6 134.6,145.8 137.1,145.8 139.6,145.5 142.1,145 144.6,144.4 147.2,143.8 149.7,143.2 152.2,142.6 154.7,142.1 157.3,141.8 159.8,141.5 162.3,141.4 164.8,141.5 167.3,141.8 169.9,142.2 172.4,142.7 174.9,143.3 177.4,144.1 179.9,144.9 182.5,145.7 185,146.5 187.5,147.4 190,148.2 192.6,149 195.1,149.7 197.6,150.4 200.1,151 202.6,151.6 205.2,152.1 207.7,152.5 210.2,153 212.7,153.5 215.3,153.9 "
             style="fill:#ff0000;fill-opacity:0.5" />
        </g>
        <path
           id="path4561"
           d="m 84,45.8 0.1,0.6 2.5,12.8 2.6,12.4 2.5,11.2 2.5,9.7 2.5,8.2 2.6,7 2.5,5.9 2.5,5.1 2.5,4.5 2.5,4 2.6,3.5 2.5,3.2 2.5,2.8 2.5,2.4 2.6,2.1 2.5,1.7 2.5,1.3 2.5,0.9 2.5,0.5 2.6,0.2 2.5,0 2.5,-0.3 2.5,-0.5 2.5,-0.6 2.6,-0.6 2.5,-0.6 2.5,-0.6 2.5,-0.5 2.6,-0.3 2.5,-0.3 2.5,-0.1 2.5,0.1 2.5,0.3 2.6,0.4 2.5,0.5 2.5,0.6 2.5,0.8 2.5,0.8 2.6,0.8 2.5,0.8 2.5,0.9 2.5,0.8 2.6,0.8 2.5,0.7 2.5,0.7 2.5,0.6 2.5,0.6 2.6,0.5 2.5,0.4 2.5,0.5 2.5,0.5 2.6,0.4 2.5,0.5 2.5,0.5 2.5,0.6 2.5,0.6 2.6,0.7 2.5,0.7 2.5,0.7 2.5,0.8 2.5,0.8 2.6,0.8 2.5,0.9 2.5,0.8 2.5,0.9 2.6,0.8 2.5,1 2.5,0.9 2.5,1.1 2.5,1.1 2.6,1.3 2.5,1.4 2.5,1.5 2.5,1.7 2.5,1.9 2.6,2.1 2.5,2.3 2.5,2.5 2.5,2.7 2.6,2.8 2.5,2.9 2.5,2.8 2.5,2.7 2.5,2.5 2.6,2.3 2.5,2 2.5,1.9 2.5,2.1 2.6,2.8 2.5,4.3 2.5,7.1 2.5,11.8 2.5,20.2 2.6,35.6"
           inkscape:connector-curvature="0"
           style="stroke:#ff0000" />
      </g>
    </g>
    <text
       xml:space="preserve"
       style="font-size:32px;font-style:normal;font-weight:normal;line-height:125%;letter-spacing:0px;word-spacing:0px;fill:#000000;fill-opacity:1;stroke:none;display:inline;font-family:Sans"
       x="407.33887"
       y="146.89594"
       id="text4203"
       sodipodi:linespacing="125%"><tspan
         sodipodi:role="line"
         id="tspan4205"
         x="407.33887"
         y="146.89594"
         style="font-size:27px">MSE threshold</tspan></text>
    <path
       style="fill:none;stroke:#000000;stroke-width:2;stroke-linecap:butt;stroke-linejoin:miter;stroke-miterlimit:4;stroke-opacity:1;stroke-dasharray:none;marker-end:url(#TriangleOutL);display:inline"
       d="m 405.44514,137.02127 c -66.097,18.62748 -57.70607,75.31217 -57.70613,75.31348"
       id="path3757"
       inkscape:connector-curvature="0"
       sodipodi:nodetypes="cc" />
    <text
       xml:space="preserve"
       style="font-size:28px;font-style:normal;font-weight:normal;line-height:125%;letter-spacing:0px;word-spacing:0px;fill:#000000;fill-opacity:1;stroke:none;display:inline;font-family:Sans"
       x="398.30496"
       y="252.43835"
       id="text4247"
       sodipodi:linespacing="125%"><tspan
         sodipodi:role="line"
         id="tspan4249"
         x="398.30496"
         y="252.43835"
         style="font-size:27px">Resampling</tspan></text>
    <g
       style="display:inline"
       id="g4243"
       transform="matrix(0.92137508,0,0,0.95687063,42.525068,-99.23197)">
      <path
         sodipodi:nodetypes="cc"
         inkscape:connector-curvature="0"
         id="path4219"
         d="m 330.60238,413.83803 c 7.0854,-26.92556 136.49747,-7.03189 140.24508,-30"
         style="fill:none;stroke:#000000;stroke-width:2;stroke-linecap:butt;stroke-linejoin:miter;stroke-miterlimit:4;stroke-opacity:1;stroke-dasharray:none" />
      <path
         sodipodi:nodetypes="cc"
         inkscape:connector-curvature="0"
         id="path4219-4"
         d="m 610.16949,413.83803 c -7.0854,-26.92556 -135.57442,-6.77765 -139.32203,-29.74576"
         style="fill:none;stroke:#000000;stroke-width:2;stroke-linecap:butt;stroke-linejoin:miter;stroke-miterlimit:4;stroke-opacity:1;stroke-dasharray:none" />
    </g>
    <g
       style="display:inline"
       transform="matrix(1.0263667,0,0,1,17.838518,-0.17661601)"
       id="g4578">
      <title
         id="title4580">gnuplot_plot_1</title>
      <g
         id="g4582"
         style="color:#ff0000;fill:none;stroke:currentColor;stroke-width:3;stroke-linecap:butt;stroke-linejoin:miter">
        <g
           id="g4584"
           style="font-size:17.5px;text-anchor:end;fill:#000000;stroke:none;font-family:Serif"
           transform="translate(492.4,45.7)">
          <text
             id="text4586">
            <tspan
               id="tspan4588">IS + AS</tspan>
          </text>
        </g>
        <g
           id="g4590"
           style="stroke:none">
          <polygon
             id="polygon4592"
             points="551.4,35.2 502.1,35.2 502.1,45.7 551.4,45.7 "
             style="fill:#ff0000;fill-opacity:0.5" />
        </g>
        <path
           id="path4594"
           d="m 502.1,45.7 49.3,0 0,-10.4 -49.3,0 0,10.4 z"
           inkscape:connector-curvature="0"
           style="stroke:#ff0000" />
      </g>
    </g>
  </g>
</svg>
