<?xml version="1.0" encoding="UTF-8" standalone="no"?>
<svg
   xmlns:dc="http://purl.org/dc/elements/1.1/"
   xmlns:cc="http://creativecommons.org/ns#"
   xmlns:rdf="http://www.w3.org/1999/02/22-rdf-syntax-ns#"
   xmlns:svg="http://www.w3.org/2000/svg"
   xmlns="http://www.w3.org/2000/svg"
   xmlns:xlink="http://www.w3.org/1999/xlink"
   xmlns:sodipodi="http://sodipodi.sourceforge.net/DTD/sodipodi-0.dtd"
   xmlns:inkscape="http://www.inkscape.org/namespaces/inkscape"
   width="568.63733"
   height="427.23798"
   viewBox="0 0 568.63733 427.23798"
   id="svg5087"
   version="1.1"
   inkscape:version="0.48.5 r10040"
   sodipodi:docname="mse_histogram_repetitive_sampling.svg"
   inkscape:export-filename="/home/admin-linux/octrace/paper/graphics/repetitive_sampling.png"
   inkscape:export-xdpi="90"
   inkscape:export-ydpi="90">
  <metadata
     id="metadata5312">
    <rdf:RDF>
      <cc:Work
         rdf:about="">
        <dc:format>image/svg+xml</dc:format>
        <dc:type
           rdf:resource="http://purl.org/dc/dcmitype/StillImage" />
        <dc:title>Gnuplot</dc:title>
      </cc:Work>
    </rdf:RDF>
  </metadata>
  <defs
     id="defs5310">
    <marker
       inkscape:stockid="TriangleOutS"
       orient="auto"
       refY="0"
       refX="0"
       id="TriangleOutS"
       style="overflow:visible">
      <path
         id="path4192"
         d="m 5.77,0 -8.65,5 0,-10 8.65,5 z"
         style="fill-rule:evenodd;stroke:#000000;stroke-width:1pt"
         transform="scale(0.2,0.2)"
         inkscape:connector-curvature="0" />
    </marker>
    <marker
       inkscape:stockid="TriangleOutL"
       orient="auto"
       refY="0"
       refX="0"
       id="TriangleOutL"
       style="overflow:visible">
      <path
         id="path4186"
         d="m 5.77,0 -8.65,5 0,-10 8.65,5 z"
         style="fill-rule:evenodd;stroke:#000000;stroke-width:1pt"
         transform="scale(0.8,0.8)"
         inkscape:connector-curvature="0" />
    </marker>
    <marker
       inkscape:stockid="Arrow2Lend"
       orient="auto"
       refY="0"
       refX="0"
       id="Arrow2Lend"
       style="overflow:visible">
      <path
         id="path4065"
         style="fill-rule:evenodd;stroke-width:0.625;stroke-linejoin:round"
         d="M 8.7185878,4.0337352 -2.2072895,0.01601326 8.7185884,-4.0017078 c -1.7454984,2.3720609 -1.7354408,5.6174519 -6e-7,8.035443 z"
         transform="matrix(-1.1,0,0,-1.1,-1.1,0)"
         inkscape:connector-curvature="0" />
    </marker>
    <defs
       id="defs5096">
      <circle
         style="stroke-width:0.5"
         sodipodi:ry="0.5"
         sodipodi:rx="0.5"
         sodipodi:cy="0"
         sodipodi:cx="0"
         cy="0"
         cx="0"
         r="0.5"
         id="gpDot" />
      <path
         style="stroke:currentColor;stroke-width:0.222"
         inkscape:connector-curvature="0"
         d="M -1,0 H 1 M 0,-1 v 2"
         id="gpPt0" />
      <path
         style="stroke:currentColor;stroke-width:0.222"
         inkscape:connector-curvature="0"
         d="M -1,-1 1,1 M 1,-1 -1,1"
         id="gpPt1" />
      <path
         style="stroke:currentColor;stroke-width:0.222"
         inkscape:connector-curvature="0"
         d="M -1,0 1,0 M 0,-1 0,1 m -1,-2 2,2 m -2,0 2,-2"
         id="gpPt2" />
      <rect
         style="stroke:currentColor;stroke-width:0.222"
         height="2"
         width="2"
         y="-1"
         x="-1"
         id="gpPt3" />
      <rect
         style="fill:currentColor;stroke:currentColor;stroke-width:0.222"
         height="2"
         width="2"
         y="-1"
         x="-1"
         id="gpPt4" />
      <circle
         style="stroke:currentColor;stroke-width:0.222"
         sodipodi:ry="1"
         sodipodi:rx="1"
         sodipodi:cy="0"
         sodipodi:cx="0"
         r="1"
         cy="0"
         cx="0"
         id="gpPt5" />
      <use
         height="480"
         width="600"
         y="0"
         x="0"
         style="fill:currentColor;stroke:none"
         id="gpPt6"
         xlink:href="#gpPt5" />
      <path
         style="stroke:currentColor;stroke-width:0.222"
         inkscape:connector-curvature="0"
         d="m 0,-1.33 -1.33,2 2.66,0 z"
         id="gpPt7" />
      <use
         height="480"
         width="600"
         y="0"
         x="0"
         style="fill:currentColor;stroke:none"
         id="gpPt8"
         xlink:href="#gpPt7" />
      <use
         height="480"
         width="600"
         y="0"
         x="0"
         style="stroke:currentColor"
         transform="scale(-1,-1)"
         id="gpPt9"
         xlink:href="#gpPt7" />
      <use
         height="480"
         width="600"
         y="0"
         x="0"
         style="fill:currentColor;stroke:none"
         id="gpPt10"
         xlink:href="#gpPt9" />
      <use
         height="480"
         width="600"
         y="0"
         x="0"
         style="stroke:currentColor"
         transform="matrix(0.70710678,0.70710678,-0.70710678,0.70710678,0,0)"
         id="gpPt11"
         xlink:href="#gpPt3" />
      <use
         height="480"
         width="600"
         y="0"
         x="0"
         style="fill:currentColor;stroke:none"
         id="gpPt12"
         xlink:href="#gpPt11" />
    </defs>
  </defs>
  <sodipodi:namedview
     pagecolor="#ffffff"
     bordercolor="#666666"
     borderopacity="1"
     objecttolerance="10"
     gridtolerance="10"
     guidetolerance="10"
     inkscape:pageopacity="0"
     inkscape:pageshadow="2"
     inkscape:window-width="1598"
     inkscape:window-height="879"
     id="namedview5308"
     showgrid="false"
     showguides="true"
     inkscape:guide-bbox="true"
     inkscape:zoom="0.69532165"
     inkscape:cx="470.84067"
     inkscape:cy="84.221389"
     inkscape:window-x="0"
     inkscape:window-y="19"
     inkscape:window-maximized="1"
     inkscape:current-layer="svg5087"
     fit-margin-top="0"
     fit-margin-left="0"
     fit-margin-right="0"
     fit-margin-bottom="0" />
  <title
     id="title5089">Gnuplot</title>
  <desc
     id="desc5091">Produced by GNUPLOT 4.6 patchlevel 1 </desc>
  <rect
     style="fill:none"
     id="rect5094"
     height="480"
     width="600"
     y="-47.818748"
     x="-6.8626952" />
  <g
     id="g5112"
     style="color:#ffffff;fill:none;stroke:currentColor;stroke-width:1;stroke-linecap:butt;stroke-linejoin:miter"
     transform="translate(-6.8626953,-47.81875)" />
  <g
     id="g5114"
     style="color:#000000;fill:none;stroke:currentColor;stroke-width:1;stroke-linecap:butt;stroke-linejoin:miter"
     transform="translate(-6.8626953,-47.81875)">
    <path
       inkscape:connector-curvature="0"
       id="path5116"
       d="m 80.2,422.4 9,0 h 0.01" />
    <g
       id="g5118"
       style="font-size:15px;text-anchor:end;fill:#000000;stroke:none;font-family:Arial"
       transform="translate(71.9,426.9)">
      <text
         id="text5120">0</text>
    </g>
    <path
       inkscape:connector-curvature="0"
       id="path5122"
       d="m 80.2,376.4 9,0 h 0.01" />
    <g
       id="g5124"
       style="font-size:15px;text-anchor:end;fill:#000000;stroke:none;font-family:Arial"
       transform="translate(71.9,380.9)">
      <text
         id="text5126">200</text>
    </g>
    <path
       inkscape:connector-curvature="0"
       id="path5128"
       d="m 80.2,330.3 9,0 h 0.01" />
    <g
       id="g5130"
       style="font-size:15px;text-anchor:end;fill:#000000;stroke:none;font-family:Arial"
       transform="translate(71.9,334.8)">
      <text
         id="text5132">400</text>
    </g>
    <path
       inkscape:connector-curvature="0"
       id="path5134"
       d="m 80.2,284.3 9,0 h 0.01" />
    <g
       id="g5136"
       style="font-size:15px;text-anchor:end;fill:#000000;stroke:none;font-family:Arial"
       transform="translate(71.9,288.8)">
      <text
         id="text5138">600</text>
    </g>
    <path
       inkscape:connector-curvature="0"
       id="path5140"
       d="m 80.2,238.2 9,0 h 0.01" />
    <g
       id="g5142"
       style="font-size:15px;text-anchor:end;fill:#000000;stroke:none;font-family:Arial"
       transform="translate(71.9,242.7)">
      <text
         id="text5144">800</text>
    </g>
    <path
       inkscape:connector-curvature="0"
       id="path5146"
       d="m 80.2,192.2 9,0 h 0.01" />
    <g
       id="g5148"
       style="font-size:15px;text-anchor:end;fill:#000000;stroke:none;font-family:Arial"
       transform="translate(71.9,196.7)">
      <text
         id="text5150">1000</text>
    </g>
    <path
       inkscape:connector-curvature="0"
       id="path5152"
       d="m 80.2,146.2 9,0 h 0.01" />
    <g
       id="g5154"
       style="font-size:15px;text-anchor:end;fill:#000000;stroke:none;font-family:Arial"
       transform="translate(71.9,150.7)">
      <text
         id="text5156">1200</text>
    </g>
    <path
       inkscape:connector-curvature="0"
       id="path5158"
       d="m 80.2,100.1 9,0 h 0.01" />
    <g
       id="g5160"
       style="font-size:15px;text-anchor:end;fill:#000000;stroke:none;font-family:Arial"
       transform="translate(71.9,104.6)">
      <text
         id="text5162">1400</text>
    </g>
    <path
       inkscape:connector-curvature="0"
       id="path5164"
       d="m 80.2,54.1 9,0 h 0.01" />
    <g
       id="g5166"
       style="font-size:15px;text-anchor:end;fill:#000000;stroke:none;font-family:Arial"
       transform="translate(71.9,58.6)">
      <text
         id="text5168">1600</text>
    </g>
    <g
       id="g5172"
       style="font-size:15px;text-anchor:middle;fill:#000000;stroke:none;font-family:Arial"
       transform="translate(162.7,444.9)">
      <text
         id="text5174">10<tspan
   id="tspan3344"
   style="font-size:65.00091553%;baseline-shift:super">4</tspan>
</text>
    </g>
    <g
       id="g5178"
       style="font-size:15px;text-anchor:middle;fill:#000000;stroke:none;font-family:Arial"
       transform="translate(245.1,444.9)">
      <text
         id="text5180">10<tspan
   id="tspan3346"
   style="font-size:65.00091553%;baseline-shift:super">5</tspan>
</text>
    </g>
    <g
       id="g5184"
       style="font-size:15px;text-anchor:middle;fill:#000000;stroke:none;font-family:Arial"
       transform="translate(327.6,444.9)">
      <text
         id="text5186">10<tspan
   id="tspan3348"
   style="font-size:65.00091553%;baseline-shift:super">6</tspan>
</text>
    </g>
    <g
       id="g5190"
       style="font-size:15px;text-anchor:middle;fill:#000000;stroke:none;font-family:Arial"
       transform="translate(410.1,444.9)">
      <text
         id="text5192">10<tspan
   id="tspan3350"
   style="font-size:65.00091553%;baseline-shift:super">7</tspan>
</text>
    </g>
    <g
       id="g5196"
       style="font-size:15px;text-anchor:middle;fill:#000000;stroke:none;font-family:Arial"
       transform="translate(492.5,444.9)">
      <text
         id="text5198">10<tspan
   id="tspan3352"
   style="font-size:65.00091553%;baseline-shift:super">8</tspan>
</text>
    </g>
    <path
       inkscape:connector-curvature="0"
       id="path5200"
       d="m 80.2,54.1 0,368.3 494.8,0 0,-368.3 -494.8,0 z m 0,0 h 0.01" />
    <g
       id="g5202"
       style="font-size:15px;text-anchor:middle;fill:#000000;stroke:none;font-family:Arial"
       transform="matrix(0,-1,1,0,17.6,238.3)">
      <text
         id="text5204">sample points</text>
    </g>
    <g
       id="g5206"
       style="font-size:15px;text-anchor:middle;fill:#000000;stroke:none;font-family:Arial"
       transform="translate(327.6,471.9)">
      <text
         id="text5208">rays per sample point</text>
    </g>
  </g>
  <g
     id="gnuplot_plot_1"
     transform="translate(-6.8626953,-47.81875)">
    <title
       id="title5215">gnuplot_plot_1</title>
    <g
       id="g5217"
       style="color:#ff0000;fill:none;stroke:currentColor;stroke-width:1;stroke-linecap:butt;stroke-linejoin:miter">
      <g
         id="g5219"
         style="font-size:15px;text-anchor:end;fill:#000000;stroke:none;font-family:Arial"
         transform="translate(507.9,76.6)">
        <text
           id="text5221">IS+AS in 1160s</text>
      </g>
      <g
         id="g5223"
         style="stroke:none">
        <polygon
           style="fill:currentColor"
           id="polygon5225"
           points="516.2,76.6 558.4,76.6 558.4,67.6 516.2,67.6 " />
      </g>
      <path
         style="stroke:#000000"
         inkscape:connector-curvature="0"
         id="path5227"
         d="m 516.2,76.6 42.2,0 0,-9 -42.2,0 0,9 z m 0,0 h 0.01" />
      <path
         inkscape:connector-curvature="0"
         style="fill:#ff0000;fill-opacity:1;stroke:#000000"
         id="path5233"
         d="m 136.6,422.4 0,-305.7 24.7,0 0,305.7 -24.7,0 z m 0,0 h 0.01" />
      <path
         inkscape:connector-curvature="0"
         style="fill:#ff0000;fill-opacity:1;stroke:#000000"
         id="path5239"
         d="m 219,422.4 0,-82.9 24.8,0 0,82.9 -24.8,0 z m 0,0 h 0.01" />
      <path
         inkscape:connector-curvature="0"
         style="fill:#ff0000;fill-opacity:1;stroke:#000000"
         id="path5245"
         d="m 301.5,422.4 0,-92.3 24.7,0 0,92.3 -24.7,0 z m 0,0 h 0.01" />
      <path
         inkscape:connector-curvature="0"
         style="fill:#ff0000;fill-opacity:1;stroke:#000000"
         id="path5251"
         d="m 384,422.4 0,-177.7 24.7,0 0,177.7 -24.7,0 z m 0,0 h 0.01" />
      <path
         inkscape:connector-curvature="0"
         style="fill:#ff0000;fill-opacity:1;stroke:#000000"
         id="path5257"
         d="m 466.4,422.4 0,-80.3 24.8,0 0,80.3 -24.8,0 z m 0,0 h 0.01" />
    </g>
  </g>
  <g
     inkscape:groupmode="layer"
     id="layer2"
     inkscape:label="RS"
     style="display:inline"
     transform="translate(-6.8626953,-47.81875)">
    <g
       style="display:inline"
       id="gnuplot_plot_2">
      <title
         id="title5260">gnuplot_plot_2</title>
      <g
         style="color:#008000;fill:none;stroke:currentColor;stroke-width:1;stroke-linecap:butt;stroke-linejoin:miter"
         id="g5262">
        <g
           transform="translate(507.9,94.6)"
           style="font-size:15px;text-anchor:end;fill:#000000;stroke:none;font-family:Arial"
           id="g5264">
          <text
             id="text5266">IS+AS+RS in 600s</text>
        </g>
        <g
           style="stroke:none"
           id="g5268">
          <polygon
             points="558.4,85.6 516.2,85.6 516.2,94.6 558.4,94.6 "
             id="polygon5270"
             style="fill:#ffd700" />
        </g>
        <path
           d="m 516.2,94.6 42.2,0 0,-9 -42.2,0 0,9 z m 0,0 h 0.01"
           id="path5272"
           inkscape:connector-curvature="0"
           style="stroke:#000000" />
        <path
           d="m 164,422.4 0,-338.6 24.8,0 0,338.6 -24.8,0 z m 0,0 h 0.01"
           id="path5278"
           style="fill:#ffcc00;stroke:#000000"
           inkscape:connector-curvature="0" />
        <path
           d="m 246.5,422.4 0,-80.8 24.7,0 0,80.8 -24.7,0 z m 0,0 h 0.01"
           id="path5284"
           style="fill:#ffcc00;stroke:#000000"
           inkscape:connector-curvature="0" />
        <path
           d="m 329,422.4 0,-124.5 24.7,0 0,124.5 -24.7,0 z m 0,0 h 0.01"
           id="path5290"
           style="fill:#ffcc00;stroke:#000000"
           inkscape:connector-curvature="0" />
        <path
           d="m 411.4,422.4 0,-192.7 24.8,0 0,192.7 -24.8,0 z m 0,0 h 0.01"
           id="path5296"
           style="fill:#ffcc00;stroke:#000000"
           inkscape:connector-curvature="0" />
        <g
           style="stroke:none"
           id="g5298">
          <polygon
             points="518.7,415.4 493.9,415.4 493.9,422.4 518.7,422.4 "
             id="polygon5300"
             style="fill:#ffd700" />
        </g>
        <path
           d="m 493.9,422.4 0,-6.9 24.7,0 0,6.9 -24.7,0 z m 0,0 h 0.01"
           id="path5302"
           style="fill:#ffcc00;stroke:#000000"
           inkscape:connector-curvature="0" />
      </g>
    </g>
    <text
       xml:space="preserve"
       style="font-size:32px;font-style:normal;font-variant:normal;font-weight:normal;font-stretch:normal;line-height:125%;letter-spacing:0px;word-spacing:0px;fill:#000000;fill-opacity:1;stroke:none;display:inline;font-family:Serif;-inkscape-font-specification:Serif"
       x="10.198378"
       y="524.00287"
       id="text3848"
       sodipodi:linespacing="125%"
       transform="matrix(0.5,-0.8660254,0.8660254,0.5,0,0)"><tspan
         sodipodi:role="line"
         id="tspan3850"
         x="10.198378"
         y="524.00287"
         style="font-size:29.5px">3e+10 rays </tspan><tspan
         sodipodi:role="line"
         x="10.198378"
         y="560.87787"
         id="tspan3852"
         style="font-size:29.5px">difference</tspan></text>
    <path
       sodipodi:type="arc"
       style="opacity:0.5;fill:none;stroke:#000000;stroke-width:1.96523058;stroke-miterlimit:4;stroke-opacity:1;stroke-dasharray:none;stroke-dashoffset:0"
       id="path5314"
       sodipodi:cx="494.55527"
       sodipodi:cy="374.4733"
       sodipodi:rx="41.527542"
       sodipodi:ry="58.78574"
       d="m 536.08281,374.4733 a 41.527542,58.78574 0 1 1 -83.05508,0 41.527542,58.78574 0 1 1 83.05508,0 z"
       transform="matrix(1.1351506,0,0,0.94746262,-69.096289,21.831121)" />
    <path
       style="opacity:0.5;fill:none;stroke:#000000;stroke-width:10;stroke-linecap:butt;stroke-linejoin:miter;stroke-miterlimit:4;stroke-opacity:1;stroke-dasharray:none;marker-start:none;marker-end:url(#TriangleOutS)"
       d="m 489.18644,279.38983 0,22.37288"
       id="path3858"
       inkscape:connector-curvature="0" />
  </g>
</svg>
